<?xml version="1.0" encoding="utf-8"?>
<!-- Generator: Adobe Illustrator 24.0.0, SVG Export Plug-In . SVG Version: 6.00 Build 0)  -->
<svg version="1.1" id="Layer_1" xmlns="http://www.w3.org/2000/svg" xmlns:xlink="http://www.w3.org/1999/xlink" x="0px" y="0px"
	 viewBox="0 0 500 500" style="enable-background:new 0 0 500 500;" xml:space="preserve">
<path d="M293.1,437.9c-2.4,5.8,1.4,9,2.6,12.7c1,3.2,3.8,6.9-0.8,9.1c-3.8,1.8-8.1-0.9-8.8-3.7c-3.6-12.7-15.1-19.2-21.5-29.5
	c-7.2-11.6-16.4-21-27.9-28.2c-4.4-2.8-8.4-6.4-12.3-9.9c-5.9-5.3-6.7-11.2-3.6-18.9c7.3-18.2,16.8-35.5,20.9-55
	c2.2-10.4,0.8-20.3-1.8-30.2c-2.4-8.9-8.6-15.6-17.5-16.3c-18.8-1.4-31.5-8.8-33.4-30c-7.6,3-9.2,8.6-12.2,13.6
	c-18.2,30.3-29,65-52.3,91.9c-22.8,26.2-50.6,44.8-88.1,40.2c-0.7-0.1-1.5,0.1-2.1-0.1c-5-1.7-13.8-1-12.8-7.7
	c0.8-5.9,8.3-2,12.8-1.5c9,1,17.4-0.6,25.5-4.8c37.8-20,63.3-49.5,72.6-92c2.7-12.3,6.3-24.5,9.7-36.7c3.9-13.8,10.9-25.7,20.4-36.5
	c5.8-6.6,10.8-13.8,16.1-20.9c28-37.5,66.6-57.2,111.6-65.6c8.3-1.6,17-0.6,25.1,1.9c18.3,5.6,37.1,7.5,56,9.7
	c15.9,1.9,23.1-3.2,26.1-18.7c0.5-2.4,1-4.8,1.6-7.2c4-18.7,2.2-22.3-15.2-30.8c-3.4-1.7-7.2-2.8-9.7-7.9c9.7-2.1,18.1,0.4,26.6,3.3
	c10.3,3.6,11.2,2.7,9.6-8.2c-0.4-2.8-0.5-5.7,0-8.4c1.1-6.2,3.7-12.1,11.1-11.9c7.3,0.2,9.8,5.8,10.1,12.5c0.1,1.4,0.1,2.8,0,4.2
	c-0.5,11.7-0.7,20.8,15.4,25c9.9,2.6,18.4,14.1,28.6,20.3c4.3,2.7,4.7,8.1,2,12.3c-3.1,4.9-6.1,10.8-13.7,9.6
	c-3.1-0.5-6.1-1.8-9.2-2c-15.7-0.8-21.5,2.9-24.2,18.5c-3.2,19.1-14.2,33.4-26,47.4c-5.1,6.1-7.6,12-4.9,20c2,6,2.8,12.4,3.6,18.6
	c2.9,20.5-6.6,37.4-25.4,46c-4.7,2.2-9.5,3.4-13.5-1.1c-4.4-5-1.8-10.7,5.1-12c10.5-2,12.7-5,8.7-14.9c-3.9-9.7-9.3-18.9-13.8-28.4
	c-1.6-3.4-3.8-3.2-6.9-2.3c-13.5,4-26.9,7.9-40.5,11.6c-2.6,0.7-4.5,1.1-4.5,4.5c-0.5,25.9-13.7,47.6-23.4,70.4
	c-8.4,19.7-16.7,39.4-21.9,60.3c-3.1,12.5-1.5,22.1,9.3,30.7c17.9,14.2,28.6,33.4,34.8,55.2c1,3.4,1.4,6.5-2,8.2
	c-3.6,1.9-6-0.9-7.8-3.5C298.4,446.9,296,442.7,293.1,437.9z M381.8,202.8c-3.2,14.6-0.1,27.8,7.9,40.1
	C391.5,228.6,390.4,215,381.8,202.8z"/>
</svg>
