<?xml version="1.0" encoding="utf-8"?>
<!-- Generator: Adobe Illustrator 24.0.0, SVG Export Plug-In . SVG Version: 6.00 Build 0)  -->
<svg version="1.1" id="Layer_1" xmlns="http://www.w3.org/2000/svg" xmlns:xlink="http://www.w3.org/1999/xlink" x="0px" y="0px"
	 viewBox="0 0 500 500" style="enable-background:new 0 0 500 500;" xml:space="preserve">
<path d="M197.7,422.2c0.2-3.3,1.8-5.1,4.3-6.3c6-2.9,8-8.2,8.4-14.4c0.4-6.2,0.7-12.4,0.7-18.6c-0.1-6.8-2.6-9.5-8.5-7.2
	c-5.3,2.1-8.8,0.3-13-1.6c-8.6-4-17.7-6.9-27.1-8.6c-12.4-2.2-16.1-9.4-10.2-20.3c1.4-2.5,2.9-4.8,4.9-8c-7.4-0.3-12.7,3.3-18.3,5.5
	c-10,4-18.6,2-26.3-5.1c-5.3-4.9-5.5-7.5-0.4-12.9c5.3-5.6,11.6-10,17.9-14.4c6.2-4.4,13.1-8.1,18.2-14c-0.8-3.6-6.6-3.3-5.8-8.5
	c0.4-2.3-3.6-2.2-5.5-1.7c-9.4,2.3-18.1-0.6-26.9-3c-4.7-1.2-9-3-12-7.1c-2.9-3.9-6.5-4.4-11.5-3.7c-10,1.4-18.3-3.9-26.3-9.1
	c-3.4-2.2-2.8-5.8-0.8-8.8c2.3-3.3,5.1-6.2,7.8-9.2c3.7-4.1,6.3-8.2,6.7-14.3c0.6-7.9-0.5-13.6-6.8-19.1c-6.7-5.9-9.6-14.6-12.1-23
	c-2.1-7-4.7-13.7-8.4-20.1c-5.3-9.3-8.6-19.4-8-30.4c0.4-7.6-2-14.5-4.5-21.3C26.7,97.1,33.8,80.5,47,66c7-7.8,16.6-12.9,23-21.7
	c4.1-5.6,11.7-5.7,18.3-5.3c17.8,1,33.4,7.5,46.6,19.6c4,3.7,8.1,7.4,12.4,10.8c6.3,5.1,11.6,10.9,15.4,18.3
	c3.9,7.7,9,14.7,15.1,20.8c2.5-2.3,0.7-4.1,1.7-7c3.1,9.7,12,3.1,16.9,7.5c5.4-10,18.2-3.4,24.3-11.6c4,6.8,8.3,9.5,13.6,6.7
	c3.9-2,6.5-1.4,10-0.2c1.9,0.7,4.2,0.6,6.2,0.3c10.8-1.7,20,2.8,28.8,8c2.6,1.6,4.4,3.8,7.5,1.6c0.4-0.3,1.1-0.3,1.7-0.4
	c1.1,6.6,9.4,6.9,11.3,12.5c1.6,4.7,5,7.1,9.2,8.4c10.5,3.1,17.5,10.2,22.9,19.4c3,5,6.4,9.8,9.9,14.5c4.9,6.3,10.9,10.3,19.5,10.7
	c9.2,0.4,16.9,4.5,21.8,12.7c1.9,3.1,3.7,7.3,8.1,5.3c4.3-2,5.9-6.7,4.8-11.3c-0.9-4.2-3-8.2-4.4-12.4c-3.5-9.9-2.3-19.6,2.3-28.7
	c12.9-25.5,47.7-17.9,58.4-2.3c2.7,3.9,5.4,7.7,8.6,11.3c5.6,6.3,8.2,14.1,7.8,22.3c-0.6,11-1.4,21.9-1.3,32.9c0,2.1,0,4.5-3.5,5.8
	c-2.4-9.5-1.8-19.1-2.7-28.6c-0.4-4.3-0.1-8.8-2.8-12.6c-3.4-4.7-6-5.1-8.9-0.1c-5.3,9.4-10.9,18.9-10.3,30.5
	c0.2,3.8-1.4,7.1-2.8,10.5c-2.8,6.9-8,13.1-5.9,21.6c0.6,2.5-1.9,4.6-3.7,6.4c-2.7,2.9-5.8,5.6-6,10.1c-0.1,3.2-2,3.9-4.9,4.6
	c-7.3,1.9-8.4,4.1-8.8,11.4c-0.4,7,2.9,13.4,2.9,20.4c0,4,5,1.5,7,3.8c-0.3,3.8-3.4,5.6-6.2,6.8c-5.9,2.6-8.1,7.6-8.2,13.1
	c-0.1,8-3.6,12.9-10.3,16.3c-1,0.5-2.5,0.9-2.7,1.7c-2.5,6.7-6.9,5-11.6,2.3c-4.7,8.1-7.4,17.4-15.2,22.8c-4.3-3,0.6-7.4-3.5-9.5
	c-1.9,4.4-3.9,8.8-6.3,14.3c-8.1-8.7-15-3.1-22,1c-1.6,0.9-2.6,5.1-4.4,3c-2-2.4-6.2-0.9-6.6-4.7c-0.5-4.3-2.6-3.6-5-1.6
	c-1.4,1.1-2.8,2.4-4.1,3.6c-1.3,1.3-2.7,4-3.7,3.8c-7.7-1.3-14.2,6.3-20.9,4.2c-6.1-1.9-9.9-0.6-13.7,3c-4.4,4.1-8.8,6.3-15.4,1.5
	c0.6,5.8,0.3,10.3,1.5,14.3c4,13.7,7.9,27.4,13.3,40.6c2.5,6.2,6.5,8.3,12.7,7.3c2.2-0.4,4.4-0.6,6.6-0.6c4.1,0,8.2-0.1,3.2,5.6
	c-1.8,2,0.8,3,2.4,3.6c3.8,1.5,7.8,1.7,11.9,2c4,0.3,8,0.6,10.6,5.7c-14.3,2.5-27.6-0.7-40.6-3.5c-2.2,3.1,0.6,4.1,1.8,5.6
	c1.4,1.8,2.8,3.4,0.8,6.4c-6.3-3.7-13.8-5.6-17.1-13.5c-1.1-2.7-2.8-5.2-6.3-5.4c-0.7,0-2-0.1-2.1-0.3c-2.4-12.1-12.1-6.7-19-8
	c-2.4-0.5-5-0.3-7.3-0.4c-1.7,2.4,1.7,4.4-0.6,6.8c0,0-0.7,0.5-1.2,0.3c-6.8-2-11.5-6-13.3-13.2c-0.5-2.1-1.8-4-2.9-5.9
	c-1.4-2.6-3.2-4.2-5.9-1.2C203.4,422.9,200.6,422.6,197.7,422.2z M224.4,374.2c-0.5,1.4-0.7,1.7-0.8,2c-1.9,13.1,3.5,25.8,1.9,39
	c-0.5,3.9,3,5.6,6.7,5.4c3.6-0.2,7.2-1.1,10.8-1.1c2.7,0,7.6-1.5,5.2,4.7c-0.7,1.7,0.8,2.4,2.4,2.7c4.6,1.1,7.1-1.3,5-6.3
	c-5.4-12.6-6-26.7-13.9-38.7c-3.7-5.6-6.2-8.8-12.8-7.8C227.5,374.3,226,374.2,224.4,374.2z"/>
</svg>
