<?xml version="1.0" encoding="utf-8"?>
<!-- Generator: Adobe Illustrator 24.0.0, SVG Export Plug-In . SVG Version: 6.00 Build 0)  -->
<svg version="1.1" id="Layer_1" xmlns="http://www.w3.org/2000/svg" xmlns:xlink="http://www.w3.org/1999/xlink" x="0px" y="0px"
	 viewBox="0 0 500 500" style="enable-background:new 0 0 500 500;" xml:space="preserve">
<path d="M82.7,249.9c-6.9-6.2-11-13.9-12.7-23.1c-2.9-15.6-0.1-30.3,6.8-44.3c1.5-3,3.5-5.5,0.4-9.1c-2-2.4-0.6-5.5,2.8-7.2
	c3.2-1.6,6.7-2.7,10.5-4.2c-2.3-3.3-5.9-4.5-8.3-7.1c-1.8-2-4.1-3.4-3.5-6.8c0.4-2.7-1.9-4.5-3.3-6.5c-4.1-5.6-3.6-9.8,1.8-14.1
	c2.3-1.8,5.2-2.9,7-5.5c-0.6-2.7-3.3-3.5-4.9-5.3c-3.5-4-3.6-8.1-0.3-12.2c2.5-3,6-4.8,9.4-6.8c-7.2-4.5-11.3-4.6-17.2-0.1
	c-4,3-7.9,6.1-11.8,9.3c-14.7,12.1-22,27.9-23.6,46.7c-0.8,9.3-0.6,18.6-0.6,27.9c0,2.5,0,4.9,0,8.1c-3.6-1.4-4.6-4-5.6-6.3
	c-8.1-19.7-10.4-39.9-4-60.6c1.2-3.9,3-7.6,4.4-11.4c6.5-18.3,19.5-30.4,36.8-38.1c23.8-10.5,48.5-15.3,74.4-9
	c19.7,4.8,36.1,15.8,50.7,29.5c16.1,15.1,28.2,33.2,38,52.8c5.6,11.2,11.4,22.2,15.4,34.1c0.7,2.1,1.4,3.6,4.1,3.5
	c13.9,0,27.7-0.3,41.3-3.6c17.2-4.2,30.4-14.1,40.1-28.5c5.5-8.1,10.4-16.5,15.3-25c7.9-13.7,17.6-25.9,28.8-37
	c4.7-4.7,10.8-7.4,16.1-11.3c4-2.9,8.5-5.2,11.9-9.7c-3-1.8-5.8-3.2-8.3-4.9c-7.7-5.5-8.9-11.9-3.9-20c0.6-1,1.3-1.9,1.9-2.9
	c3-5.1,3-5.1,8.9-3.7c1.5-2.6-0.9-5.7,1-8.4c2.2,0.2,2.5,2.3,3.4,3.7c0.8,1.3,1.4,3.2,3.3,2.9c1.9-0.3,2.2-2.2,2.8-3.6
	c0.8-1.9,1.3-3.9,2-5.8c0.4-1.1,1-2.1,2.4-1.9c1.1,0.2,1.4,1.1,1.6,2c0.5,2.2,0.9,4.5,1.3,6.7c0.3,1.1,0.8,2.2,2.1,2.4
	c1.3,0.2,2.1-0.8,2.4-2c0.9-2.8,1.5-5.7,2.5-8.5c0.8-2.2,0.4-5.1,3.3-6.6c2.7,4.1,3.2,8.9,4.6,13.4c1.5,4.7,2.9,5.4,7.4,3.3
	c1-0.5,1.9-1.2,2.9-1.8c1.2-0.7,2.6-1.4,3.8-0.5c1.2,0.9,0.6,2.5,0.4,3.8c-0.8,5-0.7,5,4.1,5.7c0.9,0.1,2.5,0.3,2.5,0.4
	c0,5.7,7.1,6.2,7.9,12c1.4,9.2,3.9,18.2,4.9,27.5c0.5,4.3,2,7.8,5.3,10.7c2.2,1.9,5.6,4.3,4.3,7.1c-1.6,3.4-5.6,1.2-8.7,1.2
	c-2.7,0-5.5-0.6-8.2-0.4c-5.8,0.5-7.9,4.2-5.4,9.5c1.1,2.2,2.7,4.2,4.1,6.2c1.8,2.6,3.9,5,5.5,7.8c4.9,8.3,3.2,15.6-5.2,20.2
	c-9.2,5-19,5.6-29,2.2c-1.4-0.5-2.5-2-4.6-1.3c-0.1,3.9,1.9,7.3,3.2,10.8c4.1,10.6,8.7,21,10.6,32.3c2.7,16.1,1.8,31.7-6.3,46.4
	c-4.8,8.6-8.3,17.7-10.4,27.3c-3.7,16.8-12.4,30.2-26.7,39.6c-12.6,8.3-21.7,19.1-26.8,33.3c-1.1,3-2.7,5.8-4,8.6
	c-2.1,4.7-5.3,8.4-9.5,11.3c-9.6,6.6-17.5,15.1-26.4,22.6c-2.7,2.3-2.9,5-2.6,8c1,9.5,2.1,19,3.3,28.4c1.2,9.5,2.4,18.9,3.7,28.4
	c1.3,9.4,6.7,15.2,16.1,16.8c4.5,0.8,9,1,13.6,1.1c3.9,0,6.5,1.4,7.9,5.2c-4.2,1.8-8.5,1.7-12.7,1.4c-1.6-0.1-3.2-0.4-4.7-0.5
	c-6.9-0.5-6.9-0.5-7.8,6.5c-2.5,1-4-0.9-5.8-2.1c-7.4-5.4-21-7.1-29.5-3.6c1.6,4.3,3.2,8.7,4.8,13.1c-0.4,0.3-0.7,0.6-1.1,0.9
	c-3.8-3.1-7.5-6.2-11.3-9.2c-6.4-5-4.4-4.7-10.7-0.5c-3.1,2-5.6,5.3-9.7,5.7c-1.3-2.3,0-3.8,0.9-5.2c5.8-9.5,6.3-19.9,4.2-30.2
	c-4.4-21.1-9.7-42-14.4-63.1c-1.5-6.7-4.7-12.2-9.5-17c-2.1-2.1-4.2-4.2-6.1-6.4c-3.6-4.1-3.5-4.2-1.3-10.2
	c-3.8,0.2-7.3,0.4-10.8,0.6c-14.5,1.1-29,1.5-43.4-1.9c-2.2-0.5-4.5-0.9-6.5-1.9c-2.6-1.2-6-2.5-2.5-6.4c1.6-1.7-0.6-1.5-1.2-2
	c-3.5-2.5-3.5-2.5-1-6.8c-0.9-1.4-2.7-1.4-4-2.2c-2.3-1.3-2.9-3.3-0.9-4.9c4.4-3.5,3.5-7.9,2.7-12.4c-0.4-2.1-1.1-4.2-1.6-6.5
	c-2.8,3.7-1,8.7-3.8,12.3c-3.1-2.2-2-6.2-5.3-9.2c-0.8,11.4,2.6,22.1,1.1,32.8c-2.4,0.1-2.4-2-2.9-3.3c-3.5-7.7-5-16-6.3-24.3
	c-0.4-2.8-0.8-5.6-1.9-8.1c-0.5,0.1-1.1,0.1-1.6,0.2c-0.8,8-1.5,16-2.3,24.3c-2-0.7-1.9-2.2-2-3.7c-0.8-12-1.2-24,0.7-36
	c0.3-1.7,1.2-3.3-1.7-4.2c-1.5-0.5-0.2-2.8,0.5-4.2c2.4-4.8,6-8.6,10-11.9c5.2-4.3,6.6-9.5,4.8-16.1c-2.5,2.2-2.1,6-5.3,8.4
	c-1.8-12.1,1.9-22.3,7.5-32.2c-7.8,0.1-11,2.3-13.2,8.5c-1.1,3.2-2.3,6.4-3.4,9.6c-0.1,0.2-0.4,0.2-0.9,0.6
	c-1.5-2.8-1.9-5.7-2.2-8.7c-0.2-2.6-1.2-3.4-4-2.8c-4.9,1.2-8.7,3.5-10.8,9.7c-2.5-5.2-5.8-4.6-9.1-3.5c-3,1-6,2.2-9,3.2
	c-2.8,0.9-5.6,1.8-8.7,1.5c-7.4-0.5-10.1-4.2-8.5-11.4c1.4-6,1.4-6-3.4-8.8c-4.2-2.5-5.4-5.5-4.3-10.3c1.2-4.8,4.5-7.8,8.5-10.1
	c3.8-2.2,8-3.2,12.1-4.6c0.9-0.3,1.6-0.9,1.7-1.9c0.1-1.1-0.6-1.7-1.5-2c-7.5-2.6-15-5.3-22.5-7.7c-2.6-0.9-3.4,1.5-4.6,3.1
	c-9.3,12.8-13.2,27.2-12.5,43c0.2,5.4,0.5,10.8,0.8,16.3C83.6,249.5,83.1,249.7,82.7,249.9z M305.2,373c-7.9,3-7.9,3-7.8,11.1
	c0,1.8,0.1,3.6,0.2,5.4c1.4,19.4,3.6,38.8,3.4,58.4c0,2.3,0.1,4.5,0.5,6.8c0.9,5,2.7,6.8,7.8,6.6c11.8-0.5,17.1-2.9,15.2-16.9
	c-0.1-0.7-0.3-1.3-0.5-2c-3-14.7-7.4-29-11.1-43.4C310.8,390.2,308.9,381.3,305.2,373z"/>
</svg>
