<?xml version="1.0" encoding="utf-8"?>
<!-- Generator: Adobe Illustrator 24.0.0, SVG Export Plug-In . SVG Version: 6.00 Build 0)  -->
<svg version="1.1" id="Layer_1" xmlns="http://www.w3.org/2000/svg" xmlns:xlink="http://www.w3.org/1999/xlink" x="0px" y="0px"
	 viewBox="0 0 500 500" style="enable-background:new 0 0 500 500;" xml:space="preserve">
<path d="M378.6,228.9c-4.6,25.3-4.5,50,0.6,74.6c0.5,2.6,2.2,5.1,3.6,7.4c10.9,17.5,7.1,43-9.2,55.8c-6,4.7-14,1.9-21.1,2
	c-2,0-2.3-2.3-1.9-4.1c0.6-2.9,2.2-4.9,5-6.1c11-4.7,13.9-10.4,9.7-20.9c-4.3-10.5-10.2-20.2-19.6-29.3c0.2,3.1-0.2,5,0.6,6.2
	c13.3,19.7-3.7,30.7-12.6,44c-7.1,10.7-17.7,11.5-29.1,10.2c-2.7-0.3-6.9,1.8-7.5-3c-0.6-4.1,1.4-7.5,5.5-9
	c3.8-1.4,8.1-1.1,11.5-4.3c9.9-9.4,11.5-16.6,5.5-29.3c-8.1-17.2-14.2-35.3-19.9-53.3c-2.9-9.3-7.5-11.3-16.7-8.6
	c-31.6,9.3-63.4,17.6-96.8,14.1c-0.3,0-0.7,0-1,0c-20.1-0.8-20-0.8-23.9,19.5c-2.4,12.4-1.1,24.8-0.6,37.3c0.2,3.8,0,7.6-0.2,11.4
	c-1,18.5-9.7,24.8-28.3,20.5c-5.6-1.3-9.6-4.7-10.3-10.3c-0.7-5.8,3.1-8.6,8.5-9.8c5.8-1.3,7.3-5.7,6.4-11
	c-3.2-18.4-2.7-38.7-10.8-54.6c-8.3-16.5-11.7-34.3-19.6-50.3C99.5,214.2,85.8,207.3,70,207c-3.8-0.1-5.8,3.3-8,6
	c-3.7,4.7-8.3,7.8-14.4,5.1c-6.9-3.1-4.8-10.9-7.1-16.4c-1.1-2.7,3.4-2.1,5.3-1.1c2.9,1.6,5.1,1.1,5.5-1.8c0.5-4.1-3.3-3-5.1-2.6
	c-13,2.6-21.4-2.2-25.5-14.8c-0.7-2.1-1.9-4.1,0.1-5.6c10.1-7.4,14.9-19.5,24.2-27.7c8.6-7.6,20.5-8.4,28.9-16.4
	c3.6-3.4,9.4,2.9,14.4,4.2c5.2,1.3,10.5,3,15.8,3.6c14.3,1.4,28,4.4,40.7,11.2c35.1,18.7,73.4,17.6,111.2,17.9
	c30.5,0.2,60.8,0.4,90.8,6.5c21.9,4.5,43.5,15,47.6,44.6c1.9,13.7,2.2,27.5,4.9,41.1c4.9,24.9,21.3,35.8,46,31.2
	c8.7-1.7,13-8.6,19.2-13.4c4-3.1,8.5-10.7,13.5-5.9c5.9,5.7-1.8,10.5-5.4,14.4c-14.1,15.4-31.5,23.5-52.1,16.4
	c-21.4-7.3-33.1-24.1-37.3-46C381.4,247.9,380.1,238.4,378.6,228.9z"/>
</svg>
