<?xml version="1.0" encoding="utf-8"?>
<!-- Generator: Adobe Illustrator 24.0.0, SVG Export Plug-In . SVG Version: 6.00 Build 0)  -->
<svg version="1.1" id="Layer_1" xmlns="http://www.w3.org/2000/svg" xmlns:xlink="http://www.w3.org/1999/xlink" x="0px" y="0px"
	 viewBox="0 0 500 500" style="enable-background:new 0 0 500 500;" xml:space="preserve">
<path d="M343.9,319.3c-6.1,11.9-10.4,21.9-16,31c-7.3,11.9-18.5,17.2-32.6,14.7c-4.5-0.8-11.1-1.1-10.9-7.5
	c0.1-5.9,4.8-9.1,10.7-10.4c23-4.8,34.1-40.2,18-57.7c-10.6-11.5-22.6-21.7-30.2-35.8c-2-3.8-17.8-1.9-19.3,2.3
	c-1,2.6-2.6,5.1-4.7,5.1c-14.9-0.2-22.7,17.5-39.1,14.6c-6-1.1-5.6,6.3-5.9,11.3c-1.2,22,0.6,44.1-5.7,65.8c-2.1,7.4-6,9.4-12,10.5
	c-7,1.3-14.9,1.3-19.3-4c-4.8-5.9,1.6-11.1,6.6-10.8c9.5,0.5,10-5.4,9.3-11.1c-2.7-21.4-6.2-42.7-9.5-64.1c-0.4-2.4-1.2-5.3-4.2-5.2
	c-4.5,0.2-5,4.3-5.6,7.6c-5.2,27.6-16,53.5-24.7,80.1c-5.7,17.5-27.5,32-43.9,28c-3.3-0.8-9.1,0.5-9.2-5c-0.1-4.8,3.6-9.4,7.8-9.7
	c25-1.7,27.3-21.4,28.7-38.8c1.9-22.4,6.8-44.9,3.3-67.5c-0.8-5.4,0.7-13.9-9.7-12.6c-2,0.3-3.6-1.4-3.7-3.7
	c-1.3-24.5-27.2-23.3-39.3-36.8c-3.4-3.9-9.4,5-12.7,9.5c-5.5,7.6-9.7,15.8-21,16.3c-7.3,0.3-2,11.5-9.8,12.9
	c-4.8-3.2-6.9-8.8-5.2-13.7c4.5-12.7-2.5-12.5-11.3-11.7c-5.6,0.5-11.9-0.8-14.8-5c-3.6-5.1,2.7-9,5.8-12.1
	c16.2-16.2,16-39.3,25.1-58.5c3.4-7.1-4.7-8.4-7.6-12.3c-1.3-1.8-14.7-5,0.1-8.3c5.9-1.3-4.9-7.6,1.2-13.4c21.4,16.3,47-1.4,71,7.1
	c18.3,6.5,39.6,3.4,56.4,15.9c0.7,0.5,2.2,1,2.8,0.6c18.3-11.9,35.6,1.8,52.9,1.6c28.9-0.4,57.9,0.5,86.8-1.7
	c14.3-1.1,28.3-0.3,41.9,5.3c7.2,2.9,15.2,4,23.2,3.3c21.8-1.8,39.1,8.1,50,25.1c18.2,28.4,41.4,52.1,64.6,76
	c5.6,5.8,9.3,12.4,10.9,21.5c-45.4-0.8-80.5-21-111.4-55.9c1.4,24.3-15.8,38.5-22.3,57.5c-3.2,9.4-3.8,16.3,1.5,22.7
	c22.7,27.2,8.7,55.2,2,82.6c-2.9,11.7-15,12.9-25.6,11.4c-2.6-0.4-7.6-0.8-8-5.2c-0.4-4.5,1.3-9.1,5.3-11.4
	c5.5-3.2,14.7-1.5,14.4-11.5C348.7,345.9,352.7,333,343.9,319.3z"/>
</svg>
