<?xml version="1.0" encoding="utf-8"?>
<!-- Generator: Adobe Illustrator 24.0.0, SVG Export Plug-In . SVG Version: 6.00 Build 0)  -->
<svg version="1.1" id="Layer_1" xmlns="http://www.w3.org/2000/svg" xmlns:xlink="http://www.w3.org/1999/xlink" x="0px" y="0px"
	 viewBox="0 0 500 500" style="enable-background:new 0 0 500 500;" xml:space="preserve">
<path d="M392.1,384.8c-12.5,2.8-26.4-0.5-33.3,13.9c-2,4.1-6.8,0.2-10.4-0.1c-16.9-1.5-32.5-10.3-50-9.2
	c14.2,30.9,14.2,30.7,45.8,29.2c4.5-0.2,16.6-6.7,9.6,8.6c-2.3,5,3.8,2.1,6,2.3c8.1,0.6,16.4-0.1,23.7,7c-13,7.7-26.8,7.7-40,5.7
	c-11.3-1.7-18,0.1-19.3,14.5c-15.9-11.7-24.1-30.1-43.4-33.6c-3.1-0.5-5.9-5-3.5-9.3c6-10.7,6.2-10.9-3-17.7
	c-8.5-6.2-15.9-12.7-14.4-24.6c0.6-5-0.5-8.3-6.8-8.6c-21.2-1.1-42.1-3.5-61.8-12.5c-5.2-2.4-11.1-0.1-16.7,1.3
	c-47.2,11.6-91.8,30.3-135.9,50.2c-4,1.8-7.9,4.1-15.6,0.8c21.5-18.1,46.1-30.6,65.2-53.4c-15.7-2.7-29-4.8-42.3-7.3
	c-5-0.9-10.3-2.9-11.7-8.4c-1.6-6.1,4-8.7,7.7-11.9c8.8-7.5,19.2-12.3,30.5-14.5c43.5-8.5,79.2-32.4,112.4-59.5
	c32.3-26.4,63.5-53.8,98.4-76.8c24.5-16.2,44-37.6,54.6-66.1c6.2-16.7,15.7-31.7,28-44.6c21.8-22.9,54.5-21.5,77.2,0.6
	c11.2,10.9,23.7,20.2,30.8,34.4c4.1,8.1,6.1,15.5-8.2,12c-4.8-1.2-10.1-0.8-15.1-0.5c-12.8,0.6-18.3,5.6-13.5,19.5
	c9.1,26.4,15.5,53.5,9.8,81.7c-11.6,57.1-50.7,91.1-99.4,116.9c-4.5,2.4-9.1,4.5-13.7,6.4c-10.1,4.4-22,9.3-17.1,22.6
	c4,11,10.1,20.5,26.7,21.8c12.1,0.9,23.1,2.1,35-0.9C384,373.1,389.2,376.9,392.1,384.8z"/>
</svg>
