<?xml version="1.0" encoding="utf-8"?>
<!-- Generator: Adobe Illustrator 24.0.0, SVG Export Plug-In . SVG Version: 6.00 Build 0)  -->
<svg version="1.1" id="Layer_1" xmlns="http://www.w3.org/2000/svg" xmlns:xlink="http://www.w3.org/1999/xlink" x="0px" y="0px"
	 viewBox="0 0 500 500" style="enable-background:new 0 0 500 500;" xml:space="preserve">
<g>
	<path d="M261.2,491.6c-48.8,0-84.2,0.2-119.6-0.1c-22.4-0.2-29.3-5.8-34-26.8c-6.6-29.3-18-57.5-16.9-88.4
		c0.7-19.4,2.1-38.4,12.7-55.2c9-14.3,5.9-23-8.7-31.2c-29.1-16.2-54-37.5-74.6-64.1c-10.4-13.4-14.6-23.1,1.3-36.1
		c11.4-9.4,16.7-24.8,23.7-38.1c3.5-6.7,0.4-12.6-2.1-18.2c-15.3-35.1-9.7-70.6-1.7-105.8C46,7.4,51.6,5.3,70.9,11.2
		c31.4,9.6,61.5,21.1,79,51.9c3.9,6.9,9.9,4,15.4,2.7c14.9-3.4,30.2-4.1,44.9-1.4c10.6,1.9,18.2,0.1,24.6-7.7
		c19.2-23.4,46.7-31,73.8-39.4c12.2-3.8,19.7,1.8,22.4,12.6c9.1,36,11.7,72.2-2.7,107.4c-9.4,23.1-7.6,36.8,9.9,53.3
		c17.4,16.4,18.4,23.6,4.2,42.4c-14.4,19.1-31.8,35.4-51.8,48.5c-9.5,6.2-10.2,12.6-5.2,21.4c6.8,12.2,12.2,24.9,14.9,38.7
		c1.8,9,5.1,7.8,11.5,2.9c34-26.3,72.9-40.4,115.9-40.2c14.7,0.1,19.8-8.2,26.7-17.6c10.2-13.9,19.8-14,25,1.6
		c14.8,45.1,13.6,91.3-7.3,133.6c-18,36.5-50.7,57.9-92.2,63.1C335.9,490.9,291.8,491.3,261.2,491.6z M192.7,322.2
		c-4.7-17-16.9-28-26.5-40.6c-6.7-8.9-3.5-17.3,5.6-19.1c19.1-3.8,16.7-15.1,13.2-28.3c-3.7-14-7.1-28.1-13.9-41
		c-13.9-26.4-31.3-38.2-52.4-35.2c-19.1,2.7-34.7,21.8-38.3,50.2c-1.7,13.5-3.9,22.7-20.1,24.6c-9.5,1.1-13.7,8.2-4.1,17
		c9.4,8.7,19.9,15.8,30.7,22.7c25.7,16.4,53.2,29.3,82.2,39.1c-3.3,7-10.8,5.9-13.2,12.7c-8.4,22.8,4.1,75.6,22.6,91.2
		c12.9,10.9,27.3,10.4,38.5-1.8c9.7-10.6,14.5-23.4,16.5-37.6c1.9-13.3,0.5-26.5,0.3-39.8c-0.3-16.9-9.6-23.7-26.2-24.6
		c5.7-6.5,10.2-7.3,14.7-8.6c34.5-10.1,64.1-29.3,92.1-51c8.7-6.7,14.5-16-2.3-20.8c-8.6-2.5-10.5-8.3-9.7-15.9
		c1-8.8-0.6-17.3-3-25.7c-5.2-18.3-18.3-29.3-37.1-31.8c-19.4-2.6-32.1,6.3-40.9,22.7c-10.2,19-16,39.6-21.6,60.3
		c-2.4,8.8-1.6,15,6.7,20.8c10,7,12.7,17,3.1,26.5C200,297.2,193.7,307.4,192.7,322.2z M424.8,386.9c3-2.5,4.7-4,6.5-5.2
		c5-3.6,9.7-10.1,16.5-6.9c7,3.3,4.5,11.2,4.4,17.3c-0.2,10.1-0.2,20,7,31.9c20.8-41.9,17.6-83.1,14.1-124.4c-0.2-2.9-1.6-5.9-5-6.1
		c-4.7-0.2-7.8,3.2-8.8,7.1c-3.5,12.6-13.5,14.4-24.2,15.6c-30.3,3.6-36.5,9.4-43.4,41c7.6-1.4,14.9-2.9,22.2-4
		c17.7-2.6,18.6-1.3,13.3,15.1C425.5,373.7,421.6,378.6,424.8,386.9z M316.4,81c1.9-33.5-2.9-37.1-34.3-25.7
		c-5.9,2.2-11.6,5.2-17.1,8.3c-6.3,3.6-8.1,9.6-6.5,16.5c1.4,6.2,5.4,11.3,11.7,11.1c11.4-0.3,16.4,4.8,19.2,15.3
		c1.7,6.3,7.3,10.6,14.7,9.9c8.6-0.8,11.5-7.4,12.2-14.6C317,95,316.4,88,316.4,81z M59.4,80c1.9,10.1-1.1,22.6,10.2,26.3
		c11.5,3.8,14.9-6.9,18.5-15.5c2.1-5,7-5.2,11.9-3.7c8.1,2.5,13.6-0.9,16.3-8.4c2.6-7.2,0.8-14.6-5.2-18.7
		c-12.3-8.3-27.5-18.6-40.7-14.7C56.6,49.5,63,68.5,59.4,80z M161.7,477.8c7.4-3.3,20,7.8,25.9-5.3c3.8-8.4-10.2-25.4-22.3-29.4
		c-2.2-0.7-4.4-1.6-6.6-1.7c-12.5-0.9-27,13.3-26.4,26.5c0.7,15.7,13.7,7.3,21.1,9.8C155.4,478.4,157.9,477.8,161.7,477.8z
		 M241.7,479c9.1-5.8,26.9,7.7,27.7-13.7c0.5-11.9-15.3-24.3-29.2-24c-10.1,0.2-25.8,16.4-24.4,27.4
		C218.2,487.1,233.6,473.5,241.7,479z"/>
	<path d="M227.8,233.2c1.2-8.9,0.7-23.4,15.2-22.5c14.6,0.9,19.2,15.1,20.1,28.1c0.8,10.8-2.1,21.4-15.1,23.3
		C237.2,263.8,228,250.8,227.8,233.2z"/>
	<path d="M120.3,238.4c2.4-11.5,2.6-27,18.9-27.9c14.4-0.8,16.1,12.5,16,23.8c0,15-10.6,29.1-20.6,27.5
		C122.1,259.7,120.8,249.6,120.3,238.4z"/>
</g>
</svg>
