<?xml version="1.0" encoding="utf-8"?>
<!-- Generator: Adobe Illustrator 24.0.0, SVG Export Plug-In . SVG Version: 6.00 Build 0)  -->
<svg version="1.1" id="Layer_1" xmlns="http://www.w3.org/2000/svg" xmlns:xlink="http://www.w3.org/1999/xlink" x="0px" y="0px"
	 viewBox="0 0 500 500" style="enable-background:new 0 0 500 500;" xml:space="preserve">
<path d="M94.8,159.8c13.3,2.5,23.7-6.1,35.6-10.1c16.9-5.7,41.8,4.3,54.7,22.9c13.3,19.1,13.2,22.9,33.2,2
	c15.3-16,26.9-35.3,20.8-59.8c-1.3-5.1-1.6-10.6-1.7-15.9c-0.1-4.7-0.5-11.3,5.6-11.9c6.1-0.6,6.9,5.7,7.7,10.6
	c0.5,3.4,0.8,6.8,3.5,10.4c2.2-18.3,4.4-36.5,6.7-54.8c0.9-7.3,0.1-18.7,7.9-19.1c10.1-0.5,8.4,11.6,9.9,18.9
	c1.4,6.9,1.2,14.1,1.8,22.3c6.6-7.3,4.9-15.6,5.9-23.1c1.5-10.6,2.9-21.2,4-31.8c0.5-5.2,1.7-10.5,7.4-11.2
	c6.4-0.8,9.4,4.6,10.9,9.9c4.1,14.3,5,28.8,2.8,43.9c4-10.1,8.1-20.1,12-30.2c2.6-6.7,4.4-15,13.9-13c9.8,2.1,9.1,10.5,8.6,18.3
	C345,51,343,63.5,336.6,75.1c7.3-4.9,10.2-12.6,14.5-19.1c5.4-8.3,13.4-11.8,21.8-7.4c7.6,4.1,4.4,12.9,2.6,19.4
	c-2.9,10.3-11.2,17.6-16.4,27.4c6.1-3.9,12.4-7.7,18.4-11.8c6.3-4.2,13.4-8.1,19.2-1.3c5.4,6.3-0.3,12.5-4.1,17.9
	c-3,4.3-6.5,8.2-9.9,12.2c0.9,0.7,1.4,1.5,2,1.5c6.9,0.7,17.1-3.9,19.9,2.5c4.3,9.5-9.7,12-12.8,20.7c10.6,2.7,15.4,7.7,4.2,16.6
	c-8.6,6.8,8.2,7.3,3.7,14.6c-2.5,4.1-12.9,7-5.1,14.8c3.4,3.4,3,7.7,0.2,9.3c-8.8,4.8-7.2,16.2-14.7,21.5c-1.4,1-3,2.7-1.7,4.5
	c7.2,9.7-2.2,9.8-6.6,14.8c-6.8,7.6-4.7,21.6-16.8,26.7c11.1,9.4,2.1,10-5,12.3c-8.2,2.7-3.4,7.9-0.9,12.5c-4.7,2.3-18.6-8.9-11.9,8
	c-4.8,3.1-14.5-10.9-15.1,4.7c0,0.3-0.8,0.8-1,0.7c-14.6-6.3-23.8,12.5-38.1,8c-6.6-2-13.5,4.2-19.7-1.2
	c0.5,56.5,10.3,111.7,8,167.4c-0.2,4.2-1.8,8.3-3.5,15.6c-2.3-6.4-3.5-9.8-5-14c-4.2,5.6-3.5,11.6-7.3,16.8
	c-1.6-16.4-3.2-32.9-4.8-49.3c-1.9-18.6-2.4-37.6-6.4-55.7c-3.6-16.1-10.1-32.2-30.7-34.6c-6.6-0.8-11.5-3.8-10.4-12.1
	c-6.8,1.5-0.8,9.8-7.3,9.9c-0.7-7.5,0.2-16.2-13-11.8c-6.3,2.1-8.9-9.7-16.7-8.1c-1.6,10.4,14,13.1,9.4,26.3
	c-4.6-10.1-13.9-14.3-16.8-23.8c-1.6-5.3-5.9-2.1-9.1-1.8c-7.6,0.7-15,2.1-20.9,7.5c-2.4-1.1-2.1-3.3-2.4-5.4
	c-1.5-11.7,2.4-17,15.2-16.6c14.3,0.5,27.8-5.7,45.3-2.1c-17.3-26.6-26.8-53.5-46-75.1c-8.7-9.8-11.3-23-15.2-35.2
	c-5.1-16-9.9-31.7-28.5-37.2c-1.1-0.3-1.9-1.8-2.7-2.8C94.4,162.7,94.6,162.2,94.8,159.8z M188.7,328.7c1.3-1.7,6.7,1.7,5.9-3.7
	c-1.2-7.9-8-7.3-13.7-6.9c-2.8,0.2-9.1-2.1-7.6,3.6C175,328.1,182.1,328,188.7,328.7z"/>
</svg>
