<?xml version="1.0" encoding="utf-8"?>
<!-- Generator: Adobe Illustrator 24.0.0, SVG Export Plug-In . SVG Version: 6.00 Build 0)  -->
<svg version="1.1" id="Layer_1" xmlns="http://www.w3.org/2000/svg" xmlns:xlink="http://www.w3.org/1999/xlink" x="0px" y="0px"
	 viewBox="0 0 500 500" style="enable-background:new 0 0 500 500;" xml:space="preserve">
<g>
	<path d="M332.5,263c4.9-36.2,6.3-71.8,0.7-107.4c-1.2-7.8-5.4-20.8,3-22.5c8.2-1.7,9.2,11.8,11.5,19.5c5.8,19.3,11.2,38.7,17.2,58
		c1.5,4.8,2.6,10.4,10.6,14.8c0-18.7-0.3-35.3,0.1-51.9c0.5-27.8,0.9-55.6,2.4-83.3c0.5-8.9-1.7-24.2,8.8-24.3
		c9.3-0.1,7.4,15.2,7.7,23.8c1.6,36.6,4.4,73.1,8.4,109.5c1.1,10,2.2,19.9,6.5,30.8c7.3-9.4,7.4-19.5,8.4-29
		c2.8-28,4.9-56.1,7.3-84.2c0.2-2.5,0.6-5.1,1.4-7.4c1.3-3.6,3.2-7.3,7.8-7.1c4.6,0.2,6.4,3.6,6.9,7.7c0.5,4.2,0.9,8.4,1.1,12.5
		c1.2,40,0.1,80,5.5,120.3c2.6-10.5,5.2-21,7.9-31.4c2.9-11,6-21.9,11.4-32c1.4-2.5,2.7-5.8,6.2-5.4c3.9,0.5,3.5,4.4,3.8,7.1
		c2,19.1-1.5,37.8-5.3,56.3c-11.5,55.6-29.4,109.5-47.5,163.2c-5.5,16.3-11.3,32.5-12.9,49.9c-0.2,2.5-0.4,5.1-1.2,7.5
		c-3.1,9.7-3.6,22.3-17.2,23.4c-13.6,1.1-14.6-11.3-18.8-20.2c-8.6-18.6-12.1-38.4-14-58.5c-1.9-19.5-8.4-37.6-17.3-54.9
		c-17.6-34.4-34.6-69.2-47.9-105.5c-3-8.2-4.7-17-6.9-25.5c-1.1-4.2-1.3-9,3.2-11c4.1-1.8,6.9,2.2,9.3,4.9
		c9.9,11.1,16.6,24.3,23.6,37.2C327.2,252.8,329.8,257.9,332.5,263z"/>
	<path d="M90.8,185.5c8.5-27.3,8.8-52.6,11.1-77.6c2.2-23.9,3.2-47.9,4.8-71.8c0.1-2.1,0.2-4.2,0.6-6.3c0.9-4.5,1.2-10.8,6.2-11.3
		c5.7-0.5,6.6,5.9,7.1,10.3c1.6,15.5,3.3,31,3.7,46.5c0.7,29,0.4,58.1,0.7,87.1c0,4.9-1,10,2.2,15.7c5-2.7,6.1-7.7,7.7-11.9
		c8.3-21.2,13-43.4,19.4-65.2c1.7-5.9,3.5-15.6,9.3-14.5c8.2,1.5,4.9,11.3,4.1,17.2c-5.5,37.6-5,75.2-1.7,116.7
		c5.8-10.8,9.7-18.8,14.3-26.5c5.3-9,10.9-18,17-26.5c2.9-4,6.4-10.7,12.6-7.4c5.1,2.7,3.3,8.9,1.8,13.8c-2.3,8.1-4.2,16.3-7.1,24.1
		c-11.8,32.4-26.2,63.8-42.5,94.1c-14.2,26.5-22.1,54.3-24.5,84c-1.5,18.3-9.3,34.9-16.8,51.2c-5.2,11.4-18.7,11.1-25,0.2
		c-2.3-3.9-4.3-8.4-4.8-12.9c-5.9-45.4-25.5-86.9-37.9-130.5c-12.6-44.4-27.5-88.3-29.9-134.9c-0.4-7.1-3.6-18.5,3.9-20
		c7.7-1.5,9,10.4,11.6,17.1c6.3,16.4,9.9,33.7,14.2,54c2.7-15.9,3.4-28.9,3.6-41.9c0.6-29.5,1.3-58.9,2.1-88.4
		c0.2-5.7-0.4-13.3,7.6-13.7c6.7-0.3,8.3,6.4,8.8,11.9c2.4,26.8,4.5,53.6,6.9,80.4C83,160.2,83.9,171.9,90.8,185.5z"/>
</g>
</svg>
