<?xml version="1.0" encoding="utf-8"?>
<!-- Generator: Adobe Illustrator 24.0.0, SVG Export Plug-In . SVG Version: 6.00 Build 0)  -->
<svg version="1.1" id="Layer_1" xmlns="http://www.w3.org/2000/svg" xmlns:xlink="http://www.w3.org/1999/xlink" x="0px" y="0px"
	 viewBox="0 0 500 500" style="enable-background:new 0 0 500 500;" xml:space="preserve">
<path d="M489.9,312.5c-18.4,5-35.2,11.2-52,19.5c15.1,13.9,31.5,26,48.2,38.5c-4,2.1-6.2-0.5-8.5-2.3c-14-11.1-27.9-22.2-41.9-33.3
	c-3.7-2.9-12.6-3.1-15.8-0.1c-1.9,1.8,0.2,3,1,4.2c9.3,13.2,20.7,24.7,31.3,36.9c4.3,4.9,9.1,9.4,14.8,14.9
	c-5.4-0.1-7.6-2.4-9.8-5.1c-13.8-16.7-29.2-31.9-42.3-49.1c-2-2.7-4.7-3.3-7.5-3.1c-10,0.7-20.1,0.3-30,0.1
	c-8.5-0.1-17.3-1.4-25.9-1.6c-20.9-0.5-40.4-7.2-59.6-14.7c-1.6-0.6-3.1-1.2-5.5-1.1c5.1,6.6,10.1,13.3,15.3,19.8
	c8.4,10.5,16.8,21,25.4,31.4c5.3,6.5,12.5,10.4,19.6,14.4c8.1,4.6,16.5,8.4,24.8,12.6c1.4,0.7,4,1.1,2.9,3.2
	c-0.9,1.7-3.1,0.7-4.6-0.1c-9.3-5.1-18.4-10.6-28-15.2c-14.5-7-24.7-18.2-33.6-31.2c-7.6-11.1-16.1-21.6-24.8-31.9
	c-8.5-10-18.4-18.7-30-24.9c-5.9-3.2-12.6-5-18.3-8.8c-2.9-1.9-3.5-0.1-3.5,2.6c-0.2,9.7,0.6,19.3,1.4,29c2,23.1,4.2,46.1,6.1,69.2
	c0.3,3.5,1.3,6.1,3.9,8.4c11.4,9.9,24.4,17.4,37.1,25.3c7.2,4.5,14.4,9.2,22.3,12.5c1.7,0.7,3.4,1.7,2.7,4.4
	c-4.1-0.9-7.7-2.4-11.2-4.7c-18.7-12.2-37.5-24.4-56.5-36.3c-3.7-2.3-4-5.3-4.1-8.6c-0.3-22.4-2.5-44.7-4.3-67
	c-0.7-8.7-1.5-17.4-4.5-25.7c-1.1-3.1-0.5-6.5,0.2-9.6c1.6-7.2-4.9-7-8.2-9.6c-3.4-2.6-6.1-0.7-8.2,2.1c-4.7,5.9-9.9,10.5-18.2,9.3
	c-2.3-0.3-4.4-0.6-6.1-2.4c-3.3-3.3-7-3.3-10.8-0.8c-2.9,1.8-6.1,4.3-9.2,1.5c-3.1-2.7-2.3-6.3-0.5-9.9c1.1-2.1,1.6-4.6,2.1-7
	c0.4-1.7,0.2-3.6-1.9-4.2c-1.9-0.6-3.2,0.2-4.2,2c-0.8,1.5-1.8,2.9-3,4.1c-1.9,2-4,3.5-7.1,2.1c-2.8-1.2-2.9-3.7-2.9-6.2
	c0-4,0.3-8,0-11.9c-0.1-2.1-0.1-4.7-3.5-6.3c-1.7,7.7-2.7,15.3-2.7,22.9c0,6.6-2.1,11.5-6.9,15.9c-16.5,15.3-32.8,31-49.2,46.5
	c-0.4,0.4-0.9,0.8-1.3,1.1c-1.6,1.1-4,2.6-5,1.2c-1.6-2.1,1.3-2.8,2.6-4c16.7-14.3,32.7-29.4,48.1-45.2c7.7-7.9,6.8-18.5,8-28.4
	c0.2-1.8-0.8-2.5-2.4-2c-4.5,1.6-9.6,2.1-13.1,5.6c0.5,2.3,3.5,1.1,4,3.7c-3.1,0.2-5,2.4-7.3,4.2c-3,2.3-6.2,3.7-10,2.1
	c-3.5-1.5-4.8-4-3-7.3c2.4-4.5,4.7-9.2,9.5-11.7c5.1-2.7,7.3-7.4,8.7-12.7c1.1-4.2-4.3-9.7-10.5-10.5c-8.3-1-15.7,1.1-22.5,6.7
	c4.8-8.8,16-11.1,31.2-6.6c-6-8.5-19.7-8.6-33.1-0.4c3.6-5.6,13.6-9.2,21.8-8.2c8.2,1.1,14.7,4.4,16.5,13.1c0.8,3.6,2,3.6,5,2.7
	c5.3-1.7,9-4.3,9.3-10.6c0.3-6.2,0.8-12.3-0.5-18.6c-7.9-37.7-15.4-75.4-23.2-113.1c-0.8-4-2.3-8-4.8-12.3c-2,6.1-4.3,12.1-6,18.2
	c-6.4,22.8-13.6,45.4-16.6,69c-0.4,3-2.6,5.8-4,8.7c-10.3,21.1-20,42.5-28.5,64.4c-1.8,4.7-5.5,7.6-8.7,11
	c-11.6,12.8-24.5,24.2-37.2,36c-1.7-2.2-0.5-3.3,0.8-4.5c3.3-3.1,6.5-6.5,10-9.3c18.8-15.2,30.1-35.3,40.7-56.6
	c15.8-31.6,23.5-65.5,31.9-99.3c3.8-15.1,7.6-30.1,11.6-45.2c0.8-2.9,2-5.8,3.6-8.3c3-5.1,6.7-4.8,10,0.2c1.1,1.7,1.4,3.5,1.6,5.4
	c5.6,35.8,14.2,71,22.1,106.3c0.2,1.1,0.2,2.3,1.9,2.9c2.2-4.9,2.9-10.1,4.2-15.2c5.5-21.3,10.9-42.6,16.5-63.9
	c0.8-2.9,2.1-5.7,3.6-8.3c1.2-2.1,3-4.1,6-2.9c3,1.1,4,3.6,3.4,6.4c-0.7,4.1-1.9,8.1-2.6,12.2c-5.2,29.5-8.5,59.3-12.6,89
	c-0.3,2.5,0.1,3.5,2.8,3.3c8-0.4,16.1-0.5,22.1,6.3c1.4,1.6,3.2,0.5,4.7-0.2c5.4-2.3,10.8-4.8,16.3-6.8c5.5-2.1,7.1-7.1,9.4-11.6
	c4.1-7.8,4.3-7.3,12.9-5.5c5.4,1.1,10.9,2.8,17.2-0.3c20.5-9.9,41.5-18.6,62.3-27.8c6.1-2.7,9.9-8.2,14.2-12.9
	c3.6-3.9,6.9-8.1,11.1-11.4c6.1-4.7,9.3-4.4,12.4,2.4c2.4,5.2,4.8,5.1,9.5,3.4c18-6.5,36.2-12.5,55.4-14.6c4.9-0.5,9.8-0.8,14.8-0.6
	c1.9,0.1,3.9,0.4,4.8,2.4c0.9,2.2-0.6,3.6-1.9,4.9c-7.8,8.1-17.8,12.8-27.4,18.1c-6.1,3.4-12.5,6.4-18.8,9.5
	c-2.8,1.3-3.7,2.8-3.1,6.2c2.2,11.2,4.1,22.4,5.6,33.7c0.5,4.1,2.3,4.9,5.9,4.8c12.1-0.3,24.3-1,36.4-0.3c9.9,0.6,19.6,2.1,29.1,4.7
	c3.2,0.9,7.8,1.4,8.1,5.1c0.4,4.4-4.5,5.2-7.6,6.4c-14.4,5.5-29.7,7.6-44.8,10.2c-5.6,1-11.2,1.9-16.8,2.7c-2.7,0.4-3.7,1.4-3.6,4.4
	c1,19.8,8.3,37.6,17.1,54.9c0.4,0.8,1.1,1.8,1.9,2c15.7,5,29.8,15.1,47.9,12.7C470.8,304.1,480.7,305.9,489.9,312.5z M395.4,287.1
	c-6.4-15.8-10.5-30.8-17.1-44.9c-3.1-6.5-6.2-7.7-12.7-7.1c-32.1,2.9-64.4,3.8-96.6,2.3c-16.9-0.8-15.9-4.8-11.3,14.5
	c0,0.2,0.1,0.4,0.1,0.5c0.3,2.2,1.7,3,3.8,3.4c17.2,3.5,34.8,4.2,51.8,8.9c10.3,2.8,21.2,3.4,31.4,7.4c7.4,2.9,15.8,3.4,22.7,6.9
	C376.1,283.4,385.3,283.7,395.4,287.1z M294.3,210.2c0.2,0.4,0.4,0.8,0.6,1.2c3.7-0.4,7.5-0.8,11.2-1.2c18.7-2,37.3-4.2,56-6.1
	c4.1-0.4,4-2.2,3-5.2c-1.9-5.3-3.6-10.8-5.7-16.1c-4.7-12.2-5.2-12.4-16.6-5c-11.6,7.5-23,15.4-34.5,23.1
	C303.6,204.1,299,207.1,294.3,210.2z M375.5,203.2c6.4-0.2,7.1-0.7,5.8-6.8c-1.8-8.5-3.8-17-5.9-25.5c-1.8-7.4-2-7.4-9-3.9
	c-2.2,1.1-5.5,1.5-4.2,5.4c3,9.4,6,18.8,9,28.1C372,202.8,373.4,203.8,375.5,203.2z M407.3,291.1c-1.7-3.7-2.9-7.1-4.7-10.1
	c-7.7-13.4-13.5-27.4-13.7-43.1c0-2.5-0.5-5.2-4.2-4.4c-3.9,0.8-1.8,3.5-1.4,5.4c3.9,16.6,10.8,32.2,16.1,48.4
	C400.7,290.9,403.5,291,407.3,291.1z M151.6,211c3.4-21.5,6.6-42,9.8-62.5c-6.5,17.3-10.5,35.1-13,53.2
	C148.1,204.3,148.6,207.7,151.6,211z M217.9,229c0.9,0.3,1.3,0.6,1.5,0.5c1.6-0.5,3.3-1.2,4.5,0.8c0.5,0.9,0.5,1.9-0.4,2.6
	c-1.4,1.1-2.9,0.6-4.2-0.3c-1.3-1-2.5-1.1-3.4,0.2c-1.6,2.3-4,4.6-4.3,7.1c-0.3,2.7,3.5,1.9,5.2,3.1c0.9,0.7,2,1.1,2.9,1.7
	c1.2,0.8,2,2.4,3.9,1.3c1.9-1.1,2.6-2.6,2.4-4.7c-0.2-3.2-0.3-6.4-0.4-9.6C225.4,226.5,223.1,225.6,217.9,229z M303.6,192.7
	c-14.4,1.4-23.6,8.4-30.2,19.5C283.1,205.9,292.9,199.7,303.6,192.7z M265.2,205.9c-0.4-0.6-0.9-1.1-1.3-1.7
	c-4.5,1.2-9.1,2.3-13.6,3.5c-1.5,0.4-3.3,0.9-2.6,2.9c0.7,2-0.1,4.9,2.4,6c1.7,0.8,3.2-0.1,4.6-1.4
	C258.2,212.1,261.7,209,265.2,205.9z M237.7,248.1c5.2,0.3,9,3.9,14,5.2c-0.6-4.6-0.4-9.5-3.5-11.4c-2.4-1.4-5.5,2.9-8.4,4.5
	C239,246.9,238.4,247.5,237.7,248.1z M236,218.1c1.5-0.9,5.5,1.3,5.6-2.7c0.1-1.9-0.2-5.2-3.9-5c-3,0.2-5.6,0.6-5.5,4.6
	C232.2,217.4,232.8,218.8,236,218.1z"/>
</svg>
