<?xml version="1.0" encoding="utf-8"?>
<!-- Generator: Adobe Illustrator 24.0.0, SVG Export Plug-In . SVG Version: 6.00 Build 0)  -->
<svg version="1.1" id="Layer_1" xmlns="http://www.w3.org/2000/svg" xmlns:xlink="http://www.w3.org/1999/xlink" x="0px" y="0px"
	 viewBox="0 0 500 500" style="enable-background:new 0 0 500 500;" xml:space="preserve">
<path d="M60.5,110.4c11.7,2.9,21.8,5.5,32,7.8c24.6,5.7,49.7,3.3,74.7,4.1c9.7,0.3,18.9,2.4,27.7,6.3c21.6,9.7,29.9,34.7,18.3,55.4
	c-12.2,21.8-33.5,30.8-55.1,39.4c-20.4,8.1-41.9,13.7-61.2,24.6c-16.3,9.2-30.6,20.8-29.4,41.6c1.1,19.8,15.7,30.5,32,38.7
	c22,10.9,46,15.5,69.7,19.3c73.4,11.8,145.4,5.5,215.5-20.5c27-10,24.7-36.3,7-49.7c-3.5-2.6-7-5.4-10.9-7.5
	c-12.4-6.8-15.9-5.9-21.1,7.4c-18.8,47.6-55.6,67.6-104.7,69.7c-19.5,0.8-38.8,0.7-57.6-5.6c-38-12.7-53.1-49.5-35.1-85.9
	c15.7-31.7,43.9-45.9,76.4-53.9c26.9-6.6,54.3-8.7,82-8.1c7.5,0.2,10.5-2.3,12.5-10c5.4-21.2,9-43.1,21.2-62.1
	c6-9.4,13-17.8,22.8-23.4c3.6-2.1,6.9-4.5,8.8-8.1c8.2-15,21.5-16,36.2-13.2c22.1,4.3,41.1,14.9,58.7,28.6
	c7.2,5.6,7.7,11.6,1.9,18.8c-10.1,12.6-24.8,13.3-38.8,15.5c-14.4,2.3-28.8,5.5-43.7,4.7c-9-0.5-14.9,5.2-17,13
	c-2.9,10.9-4.3,22.3-6,33.5c-0.9,5.7,3.6,6,7.7,7c20.3,5.2,40.1,11.9,58,23.2c67.9,42.9,58.4,119.2,4.3,156.9
	c-31.4,21.9-67,32.7-104.2,38.7c-67.7,10.9-135.4,10.9-202.6-3.5c-31.7-6.8-62-17.3-88.8-36.6C0.3,339.4-14.7,261,64.5,219.5
	c22.1-11.6,45.8-17.1,69.9-22.1c17.7-3.7,35-8.6,48.2-22.2c11.5-11.9,9.8-23.5-4.9-30.8c-12.4-6.2-26.1-6.7-39.6-8.3
	c-18.2-2.2-36.8-1.3-54.5-7.2C74.3,125.8,65.5,121.9,60.5,110.4z M301.7,260.9c-21.4,1.2-39.3,4.3-56.7,9.4c-4.4,1.3-8.4,4.4-12.3,7
	c-1.7,1.1-4,2.6-2.7,5.2c0.9,2,3.1,1.4,4.9,1.4c10.9,0,21.9,0.3,32.6-2.5C279.8,278.2,291.3,273.7,301.7,260.9z" style="fill:#ACB5BA"/>
</svg>
