<?xml version="1.0" encoding="utf-8"?>
<!-- Generator: Adobe Illustrator 24.0.0, SVG Export Plug-In . SVG Version: 6.00 Build 0)  -->
<svg version="1.1" id="Layer_1" xmlns="http://www.w3.org/2000/svg" xmlns:xlink="http://www.w3.org/1999/xlink" x="0px" y="0px"
	 viewBox="0 0 500 500" style="enable-background:new 0 0 500 500;" xml:space="preserve">
<path d="M181.3,361.2c11.7,1.5,23.3-10,34.3,3.1c-29.7,2-50.4,15.4-63.5,41c-0.6-6.7,3.1-10.7,5.4-15.2c2.2-4.3,5.8-8.1,5.9-15.5
	c-17.1,7.3-34.7,9.8-52,9.8c1.3-4.8,3-6.2,11.6-7.9c5.7-1.1,11.9,0.2,17.6-2.9c-2.2-4.1-6.1-4.1-10.5-4.1c3.5-5.4,8.5-5.9,13-4.2
	c14.3,5.2,23.7-1.1,32.3-11.7c7.7-9.4,16.6-17.9,24.7-26.9c2.3-2.6,5.2-5.1,5.6-9.2c-6.6-2.9-13.5-1.2-18.7,1.5
	c-9,4.7-18.1,5.4-27.6,5.7c-5.1,0.1-10,1.6-13,6c-5.1,7.6-14.4,11.4-18.1,22.1c-4.9-13.3,7.3-18,10.8-27.5
	c-17.9,2.5-35.2,4.5-51.5,11.9c1.9-7.4,1.9-7.4,27.5-14.9c-5.7-4-5.7-4-13.4-4.1c4.2-7.4,10.5-5.2,15.6-3.1
	c9.7,3.9,18.5,2.8,27.4-1.7c-0.4-3.5-3.4-2.5-5.3-3.1c-43.8-12.8-76.3-37.7-89.6-83.4c-5.2-18-2.1-36-0.2-53.9
	c2.8-27.3-5.9-42-31.6-52c-0.3-0.1-0.7-0.1-0.9-0.3c-3.8-2.7-12.5-1.7-11.3-6.8c1.1-5,9.1-5.2,14.8-5.3c10.5-0.2,21-0.2,30.6-5.7
	c23.6-13.5,45.6-8.4,66.5,6.4c4.3,3,8.5,6.4,12,10.3c13.2,14.8,29.7,23.7,48.7,28.5c16.7,4.2,32.5,10.4,47.8,18.4
	c11.7,6.1,24,11,36.6,14.6c20.7,5.9,38.8,18.4,59.7,23.3c17.3,4,35,6.1,52.5,9.2c6.5,1.1,12.9,2.8,17.7,9.1
	c-7,4.4-15.3,2.7-24.2,6.7c38,1.7,73.3,8.6,109.2,9.7c12.4,0.4,14.7,2.9,14.5,15.3c0,1.6-0.5,3.6,0.2,4.9c5.8,11.3-2.5,9.9-8.9,9.8
	c-32.3-0.6-64.1-6.5-96.3-8.7c-16.1-1.1-31.6,1-47.6,3c-31.4,4-57.5,16-81.9,34.9c-8.2,6.3-18.7,9.6-28.2,14
	c-19.5,9-33.2,24.4-45.1,41.6C182.8,355.7,182.3,358.4,181.3,361.2z"/>
</svg>
