<?xml version="1.0" encoding="utf-8"?>
<!-- Generator: Adobe Illustrator 24.0.0, SVG Export Plug-In . SVG Version: 6.00 Build 0)  -->
<svg version="1.1" id="Layer_1" xmlns="http://www.w3.org/2000/svg" xmlns:xlink="http://www.w3.org/1999/xlink" x="0px" y="0px"
	 viewBox="0 0 500 500" style="enable-background:new 0 0 500 500;" xml:space="preserve">
<path d="M190.3,419.6c7.7-8.8,9.4-18.8,15.3-26.6c3.8-5,4.9-11.1,5.1-17.2c0.7-21-1.1-41.6-10.7-60.9c-4.1-8.1-6.7-16.8-7.6-26.1
	c-0.5-5.7-2.9-11.3-4.7-16.9c-2.6-8.2-2.2-7.5-9.2-2.2c-10.9,8.4-15.7,20.7-22.3,31.9c-3.8,6.6-2.9,14.6-3.3,22
	c-0.5,10.5-0.4,21.1-0.4,31.6c0,5.7-0.1,11.3-1,16.9c-0.9,5.9-1.6,11.4,1.6,17.6c2.6,4.9,2.1,11.4-3.4,15.9
	c-4.3,3.5-8.2,7.6-13.2,10.7c-3.8-20.9-3.5-41.4-4.9-61.8c-0.6-9,3.6-17.4,4.4-26.3c0.7-7.7,0.9-15.3,0.1-23
	c-1.6-14-0.6-27.2,9.1-39c6.8-8.3,12-17.7,16.8-27.4c1.1-2.2,2.3-3.9-1.4-5.5c-11.9-5.1-17.7-15.2-19.9-27.2
	c-2.2-11.5-6.7-21.4-15.7-29.3c-7.9-6.9-15-14.8-22.8-21.9c-6.4-5.8-7.8-5.4-12.7,1.3c-5.9,8-10.9,16.5-15.5,25.3
	c-1.2,2.3-2.2,4.8-2.6,7.4c-1.8,10.4-12.5,15.3-21.8,9.8c-6.1-3.6-9.1-8.8-8.7-16.1c0.6-10.9,1.1-21.8,1.4-32.8
	c0.3-7.9-1.1-15.3-6.6-21.5c-3.5-4-2-8.4-0.2-12.5c1.8-4.3,3.9-8.4,5.8-12.7c1.3-2.8,0.5-4.2-2.3-6.2c-9.5-6.6-13.8-17.1-18.5-27.1
	c-0.3-0.6-0.2-1.8,0.2-2.2c1.2-1.2,2.2,0,3.1,0.7c5,3.8,9.9,8.5,16.2,8.9c3,0.2,9.1,1.9,9.6-4.7c0.1-1,0.1-1.1,1-1.4
	c3.4-1.1,3.3-1.1,3.9-4.1c1.6,1.1,3,2.1,4.3,3c2.1-0.7,0.5-7.4,5.3-2.9c0.1,0.1,1.2-0.4,1.3-0.7c1.9-8.4,6.8-2.6,8-0.8
	c4.8,7.3,10.4,6.5,17.9,5c8.5-1.7,17.1,1.9,25.6,3.8c8.7,2,17.4,4.4,26.5,3.1c0.4-0.1,1-0.1,1.2,0.1c3.6,5.8,7.8,3.8,12.1,1
	c0.5-0.4,1.3-0.4,1.4,0.3c0.2,6.2,2.5-0.9,3.7,0.9c-1.9,5.6,5.8,6.4,6.3,11.3c0.1,1,1.3-0.1,2-0.1c3.1,0,6.2,0.2,3.6,5.1
	c6.4-1.6,11.8-0.1,15.6,4.1c7,7.8,15.4,8.8,25.6,6.3c-1.8,3.4-5.5,3.3-7.7,6.3c7.3,1.1,14.4,1.7,21.3,3.3c33.2,8,65.6,1.9,97.5-6.2
	c26.2-6.6,50.5-3.1,75.3,6.4c22.8,8.7,35.1,24.4,40.5,47.4c2.3,10,3,20.4,7.2,30c2,4.5,4.9,8,8.6,11.4c4.5,4.1,8.3,9.3,11.2,14.7
	c2.4,4.5,4.2,9.4,6.5,14c2.7,5.5,3,12.4,3.4,18.8c0.2,3-0.8,3.3,0.8,5c-1.8,1.9-3.6-0.7-5.5-0.1c0.6,1.2,1.1,2.1,1.8,3.6
	c-6.3-1.3-12.4-1.9-15.5-8.6c-2.3,1.9-0.5,5.6-3.7,5.9c-2.5,0.2-3-2.6-4.7-3.6c-1-0.6-1.9-1.5-3-2.1c-7.9-3.9-11.1-10.4-10.5-18.8
	c1.2-17.3-6-32.6-11.3-48.7c-1.9,12.6-8.9,23.8-10.3,36.2c-1.6,15,5.8,27.3,15.9,37.9c3.2,3.4,6.7,6.6,10.3,9.4
	c6.3,4.9,8.6,11.4,8.6,19.1c0,17.8,0.7,35.6,2.4,53.4c0.2,2.2,0.5,4.5,1.2,6.5c5,15.1,6.9,30.7,7.3,46.6c0.1,4.6,1,8.6,5.6,11.3
	c3.6,2.1,3,12.5-0.5,15.6c-3,2.6-5.5,5.4-6.7,9.4c-5.1-2.8-9.8-6.5-10.9-11.8c-3.7-17.8-10.8-34.8-12.6-52.9
	c-1.1-10.9-1.5-21.8-2.6-32.7c-1.7-15.3-10.8-27.2-18-41.8c-2.8,10.7-4.1,20-5.1,29.3c-2.1,20.4-3.1,40.8-2.4,61.3
	c0.3,10.2-3.2,18.4-10.2,25.6c-5.4,5.5-11.8,10.3-12.4,19.4c-0.3,4.7-13.3,11.2-18.2,10.5c-4.8-0.7-9.6-1.3-15.4-2
	c2.7-2.6,4.8-4.6,7-6.7c1.9-1.8,4.7-3.7,4.6-6.2c-0.1-7,4.9-10.3,9.1-14.2c9.6-8.9,10.9-20.8,12.2-32.8c1.3-12.5,2.4-25,3.6-37.5
	c0.7-7-0.4-13.9-2.6-20.4c-8.4-24.1-17.1-48-28.6-70.8c-4.9-9.8-13.6-17.1-18.4-27.1c-1.1-2.2-2.3-0.7-3.3,0.1
	c-30.8,22.7-66,23-101.6,19.2c-7.3-0.8-13.2,3.2-20,2.2c-2.1-0.3-1.6,2-1.4,3.2c2.6,17.4,2.6,35.2,7.4,52.2
	c1.2,4.2,1.7,8.2,0.7,12.5c-1.8,8.2,0.8,16.1,2.3,24c1.9,9.9,4.2,19.8,6.1,29.7c1.2,6.1,1.3,12.4-1.6,17.9c-5.6,10.6-9,22-12.7,33.4
	c-1.1,3.5-3,4.7-6.7,4.1C203.4,417.8,197.7,417.7,190.3,419.6z"/>
</svg>
