<?xml version="1.0" encoding="utf-8"?>
<!-- Generator: Adobe Illustrator 24.0.0, SVG Export Plug-In . SVG Version: 6.00 Build 0)  -->
<svg version="1.1" id="Layer_1" xmlns="http://www.w3.org/2000/svg" xmlns:xlink="http://www.w3.org/1999/xlink" x="0px" y="0px"
	 viewBox="0 0 500 500" style="enable-background:new 0 0 500 500;" xml:space="preserve">
<path d="M440.1,65.8c12.6-2.4,25.2,8.5,39,13.9c8.7,3.4,14.2,13.2,11.8,24.7c-4.3,21.1-14.1,38.2-30.7,52.8
	c-24,21.2-47.3,43.5-44.1,80.5c1.3,15.8-22,45.3-37.1,48.5c-8.1,1.7-11.6,5.1-10.9,13.1c2,23.5-4.3,44.6-18.2,63.6
	c-2.9,4-5.4,8.6-2.3,13.7c10.6,17.3,0.5,29-10.8,40.3c-8.3,8.3-17.5,15.3-29.5,16.9c-6.4,0.9-12.2-0.4-15-7.2
	c-2.6-6.2,0.7-10.6,5-14.4c3.3-2.9,6.9-5.5,10.2-8.4c3.6-3.3,8.6-6.7,5.8-12.3c-2.7-5.3-8.6-6.1-14.2-6.8c-7.8-1-6.4,5.1-8.1,9.4
	c-6.6,17-18.3,28.6-36.5,32.3c-5.5,1.1-11.3-0.2-14.2-5.9c-2.5-5.1,0-9.2,3.6-13.3c4.4-5,16.2-10.5,10.7-15.7
	c-8.5-7.9-14.6-22-29.9-20.3c-15.3,1.7-30.5,4.1-45.8,5.8c-8,0.9-9,6.3-10.2,12.6c-2.5,13.8-7.8,26.5-17.8,36.5
	c-6.5,6.5-15.3,11.4-23.7,6.1c-9.3-5.9-3-14.7-0.1-22.1c3.4-8.7,7.6-17.1,10.5-25.9c1.9-6,1.5-12.3-7-13.7c-8.7-1.5-8.1,4.9-9,10.3
	c-2.5,14.5-7.7,27.6-19.7,36.9c-5.2,4-11.4,5.5-17.1,2.4c-6.9-3.7-4.4-10.7-2.8-16.2c2.7-8.9,7-17.4,9.7-26.3
	c8.6-28.2-6.3-52.4-35.5-56.9c-15.5-2.4-30.2-5.4-41.8-17.3c-7.7-7.9-7.9-14.8-0.7-22.9c15-16.9,29.5-34.1,30.4-58.6
	c0.2-6.4,5.1-10.5,11.5-8.4c13.9,4.5,28.5,2.9,42.4,5.6c14,2.7,27.4,5.1,38,18.8c12.2,15.7,31.4,18.6,51.2,11.6
	c20.1-7.1,38.9-17.4,60.4-21.6c32.3-6.4,61,0,87.8,18.1c4.6,3.1,9.1,6.2,13.8,9c4.6,2.7,9.6,6.9,14.3,0.3c3.7-5.2,3.4-12-1.3-14.9
	c-15.9-9.7-20.1-28-31.7-41c-9.7-10.8-9.9-28.8-7.3-42.8c2.6-14.1,5.7-28.6,17.6-41.1c12.9-13.6,24.4-26.8,41.9-35.5
	C399.9,71.2,417.6,67.8,440.1,65.8z M445.1,88.6c-23.9,7.8-41.2,18.2-57.1,33.9c-26.4,26-34,47.1-22.8,81.4
	c4,12.3,7.8,24.8,10.5,37.4c2,9.4,0.6,19.3-7.9,25.5c-8.2,5.9-16.8,2.9-24.7-2c-10.7-6.7-22.5-12.2-31.9-20.4
	c-12.2-10.5-25.4-9.7-39.9-9.7c-27.9,0-52.3,11.7-77.3,21.1c-18.2,6.9-35.2,7.2-52.3-2.6c-4.9-2.8-10.1-7.2-16.7-3.1
	c1.4,6.8,7.1,7,12,9.5c27.3,13.9,55.6,5.5,83.5,4.5c6-0.2,12-1.5,17.9-2.8c30.7-6.8,61.4-20.5,91.1,4.7c6.1,5.2,16.5,5.3,25,7.5
	c12.8,3.4,23.7-0.5,29.6-12c11.1-21.6,7.4-45.1,2.2-67c-2.1-8.6-1.7-15.1-0.3-23c3.6-20.2,16.3-34,31.1-46.6
	C428.1,115.7,437.3,104.9,445.1,88.6z M99.6,229.3c-20.3-7.1-31.9-4.4-46.1,11.9C70.2,230.5,85.5,233.3,99.6,229.3z"/>
</svg>
