<?xml version="1.0" encoding="utf-8"?>
<!-- Generator: Adobe Illustrator 24.0.0, SVG Export Plug-In . SVG Version: 6.00 Build 0)  -->
<svg version="1.1" id="Layer_1" xmlns="http://www.w3.org/2000/svg" xmlns:xlink="http://www.w3.org/1999/xlink" x="0px" y="0px"
	 viewBox="0 0 500 500" style="enable-background:new 0 0 500 500;" xml:space="preserve">
<path d="M148,83.6c3.7-13.8,4.5-26.8-0.3-40c-1.4-3.9-7.3-7.5-2.1-12.3c1.5-1.3,4.5-1.9,6.5-1.5c6.6,1.6,3.7,7.7,4.7,11.8
	c1.8,7.3,3.1,14.7,4.2,22.1c0.9,5.8,3.9,9.7,9.3,11.1c6.7,1.6,7.3-4.5,9-8.5c2.7-6.4,5.1-13,7.3-19.7c0.8-2.5-0.4-6.3,3.4-6.5
	c2-0.1,4.3,1.6,6,3c2.5,2.2,2.3,4.9,0.1,7.4c-8.9,9.9-8.4,22.3-9.4,34.7c6.2-0.7,8.6-6,12.8-8.6c4.5-2.8,7.6-13,14.2-5.4
	c6.1,7.1-4.2,8.3-7.4,11.8c-2.8,3.1-6.8,5.1-9.5,8.3c-7.8,9.4-12.1,18.9-10.6,32.8c3.2,29.8,13.9,54.5,35.7,75.4
	c6.4,6.1,8.4,5.4,11.7-0.9c6.8-12.8,11.7-26.3,11.4-41c-0.2-8.3,1.1-14.5,9.2-18.4c8.2-3.9,13.8-11,20.2-17.2
	c13.9-13.6,31.5-10.8,40.5,6.3c4.3,8.3,8.5,16.7,15.7,23.1c2.5,2.2,5.8,5.9,4.3,8.3c-7.9,12.2,0.1,25.6-3.7,38.3
	c-3.1,10.6-0.7,21,11.2,27.3c8.3,4.3,14.8,11.2,20.5,18.9c6.4,8.8,13.8,10.1,22.2,1.7c5.6-5.6,11.9-10.6,18-15.6
	c7.7-6.3,8.3-11.1-2.5-14c-6.3-1.7-12.6-3.5-19-4.9c-3.5-0.8-6.9-1.6-5.3-6.1c1.3-3.7,3.8-7.1,8.4-4.8c10.2,5,21.8,12,31.8,6
	c9.4-5.7,15.3-17.2,22.8-26.1c2.8-3.4,3.3-7.6,4.7-11.5c1.7-4.6,6-4.4,9.5-2.5c4.5,2.5,1.5,5.1-0.4,7.8
	c-5.3,7.7-10.2,15.6-15.8,24.3c7.5,4.3,12.9,2.1,17.4-3.5c5.3-6.6,10.4-13.2,15.3-20.1c1.9-2.7,2.8-6.5,7-5.1c2,0.7,4.1,2.6,4.9,4.4
	c1.5,3.6-0.7,6.1-3.8,8c-12.6,8.1-17,21.1-19.7,35.4c5-4,10-8.1,15-12.1c2.8-2.2,5.9-4,8.1,0.2c1.6,3,1.5,6.2-2.4,8.3
	c-15.8,8.7-27.7,22.6-45.8,29.1c-18.4,6.5-30.3,24.4-46.1,36.1c-8.8,6.5-14.6,6.6-21.5-1c-7-7.8-16.3-12.4-25.7-18.4
	c1.4,23.9,1.7,46.9-11.7,69.2c10.9-1.2,20.7-2.4,30.6-3.4c5.7-0.6,5.7-3.7,3.9-7.8c-2.9-6.5,0.8-8.4,6.3-9.1c6-0.7,7.5,2.8,6.8,7.7
	c-1.9,13.8,12.8,9.3,17.1,18.3c3.8-9.8,8.1-17,7.1-25.8c-0.4-3.7,1-6.6,4.6-7.6c2.7-0.8,5.6-0.4,8,1.6c3.4,2.9,1.2,5.7-0.1,8.7
	c-5.2,12.4-8.9,25.2-9.9,41.6c14.6-14,28-25.4,36.5-41.2c1.7-3.2,2.1-7.8,7-7.2c3.2,0.4,6.2,2.6,7.3,6c1.5,4.6-2.5,6.4-4.8,9.2
	c-10.2,12.2-20.3,24.4-30.2,36.8c-2.1,2.6-6.2,5.9-3,9.7c3.1,3.6,7,0,10.4-1.1c4-1.2,7.6-3.4,11.5-5.1c3.3-1.4,6.6-2.1,8,2.3
	c1.3,4.1,0.2,7.9-4.7,8.3c-8.1,0.7-15.2,4.6-22.7,7c-27.4,8.7-51.6,23.9-77.1,36.6c-4.2,2.1-8.4,4-12.9,5.5
	c-5.4,1.8-10.1-0.1-14-4.1c-4.3-4.5-3.6-9.4-0.8-14.2c4.2-7.2,8.6-14.2,13.4-22.1c-46,3.7-91.5,8.2-138,6.5
	c-0.9,8.9,4.4,16.4,7.6,24.2c5.2,12.6,8.8,25.7,11.5,39c2.8,13.8-2.2,20.4-16.6,20.7c-12.6,0.2-25.5,0.6-37.9-1.1
	c-32.3-4.3-65-2.8-97.2-8.4c-4.3-0.7-7.5-1.7-7-6.6c0.6-6.1,4.4-5.9,9.2-4.7c5.4,1.4,10.6,4.1,18.3,2.5
	c-16.2-11-34.3-13.6-50.3-21.1c-3.8-1.8-8.5-1.3-8.8-6.9c-0.1-2.9,0.6-5.8,3.3-7.3c4.7-2.6,7.6,0.9,11.2,3.2
	c14.8,9.4,31.1,14.1,50.6,16.4c-7.3-13.9-13.1-26-22.2-36.3c-2.1-2.4-5.6-4.7-2.5-8.2c1.7-1.9,4.7-3.1,7.3-3.6
	c3.9-0.6,5.6,1.9,6.5,5.7c3,11.9,11.6,20.1,19.5,28.6c1.5,1.6,3,3.9,5.8,2.6c2.6-1.3,2.3-3.8,2.1-6.2c-0.6-9.4-3-18.4-6.5-27.2
	c-1.4-3.4-3.6-7,0.4-10.2c2.3-1.8,5.2-2.3,8-1.3c4.9,1.7,3.2,5.9,3.4,9.5c0.8,12.6,2,25.2,11.4,36.2c4.6-9.4,8.7-18.1,8.9-28.1
	c0.1-4.2,0.4-7.9,5.9-6.7c5,1,7.9,4.2,4.9,9.1c-5.2,8.5-4.4,18-6.2,27.1c-1.8,9,1.2,13.2,10.2,14c11.2,1,22.3,2.5,35,4
	c-7.7-15.4-15.2-29.5-22-44c-12.3-26.5-5.6-41.1,22.5-49.9c14.3-4.5,28.7-9.1,43.6-10.6c8.6-0.9,10.5-3.4,4.5-9.8
	c-26.6-28.2-23.8-58.9-8.2-90.8c3.5-7.2,4.1-13.1-5.6-16.6c-7-2.4-9.7-9.8-13.8-15.4c-7.4-10-11.3-22.8-23.8-28.8
	c-3-1.4-3.8-5.1-4.4-8.4c-1.4-7.8-4.7-15.8-4.1-23.4c2.3-32.7-19.3-51.6-39.6-71.4c-3-2.9-5.6-5.1-1.8-9.1c3.3-3.4,5.7-1.1,8.3,1.1
	C135.7,73.3,139.4,80.2,148,83.6z" style="fill:#ACB5BA"/>
</svg>
