<?xml version="1.0" encoding="utf-8"?>
<!-- Generator: Adobe Illustrator 24.0.0, SVG Export Plug-In . SVG Version: 6.00 Build 0)  -->
<svg version="1.1" id="Layer_1" xmlns="http://www.w3.org/2000/svg" xmlns:xlink="http://www.w3.org/1999/xlink" x="0px" y="0px"
	 viewBox="0 0 500 500" style="enable-background:new 0 0 500 500;" xml:space="preserve">
<path d="M456.3,281.3c-11.6,5.4-25.8-0.8-34,12.6c14.7,4.4,28.8,8.2,40.5,17.2c-14.9-3.8-29.2-9.6-46.5-11c6.2,5.5,11.3,9.3,18,10.8
	c10.9,2.4,21.8,5.1,32.7,7.7c1.8,0.4,4.1-0.1,4.3,2.9c0.3,3.9-2.7,3.2-4.7,3.4c-22.2,2.5-41.7,11.8-60.3,23.4
	c-26.7,16.6-55.9,20.4-86.4,18.5c-1-0.1-2.1-0.3-3,0c-5.5,1.8-14.3-4.6-16.4,4.6c-2.4,10.5,4.5,19.4,14.9,22.4
	c1.2,0.3,2.4,0.5,4,0.8c-5.5,4.5-5.5,4.5-12.3,5.7c-0.1,0.6-0.4,1.3-0.2,1.7c8.3,16.8,8.3,16.5-9.8,16.7c-12,0.1-23.8-1.4-36,0.1
	c-6.7,0.8-12.7-8.6-23.1-5.9c4.9-6.3,9.6-6.7,14.4-6.8c8.9-0.2,17.7-0.2,26.6-1.7c7.5-1.3,10.6-5,10.9-12.5
	c0.9-21.2-8.4-28.2-28.6-21.5c-2.4,0.8-4.2,2.1-4.5,4.6c-1.7,14.4-13.4,22.2-21.7,32.1c-6.8,8.1-7.1,7.9-5.2,17.4
	c-20.7,5.2-42,5.6-63.2,6.2c-4.1,0.1-13,4.5-11.3-7.2c0.5-3.2-5.4,0.1-7.3-2.7c4.4-5.3,10.6-3.6,16.3-4.8c7.4-1.6,17,6.9,22.4-4.9
	c0.8-1.8,3.5,0.6,5,1.6c7.4,5,15.2,4,21-1.6c10.3-9.9,22.1-18.7,27.9-32.9c2.6-6.4,2.2-8.5-4.5-10.2c-20.5-5.3-39.8-13.8-58.5-23.6
	c-31.9-16.7-52.9-43-65.5-76.2c-6.9-18.3-4.8-37.1-0.1-55.5c3.9-15.3,9.3-30.2,13.7-45.4c3.4-11.6,6.6-23.9-3.2-33.5
	c-9.7-9.6-22.2-6.5-33.7-3.3c-11.1,3.2-21.8,7.4-32.6,11.4c-7.3,2.7-14.8,2.8-22.4,2.8c-2,0-4.2,0.3-5-2.1c-0.7-2.1,0.6-3.9,2-5.3
	c4.7-4.7,10.5-8,16.3-11.1c16-8.7,29.5-19.9,37.9-36.4c8.9-17.5,25-21.8,42.5-21.1c17.7,0.8,28.6,11.9,34.8,28
	c8.8,23.2,9.8,46.8,4.9,71c-2.2,11-3.9,22.1-1.5,33.3c2.8,12.9,7.8,16.8,20.9,14.6c9.4-1.6,18.6-4.2,27.9-6.6
	c22-5.7,42.5-0.4,62.2,8.8c5.5,2.5,10.7,4.8,16.5,5.5c10.9,1.4,21.7,4.3,30.6,10.6c14.9,10.5,32.1,16.4,47.2,25.7
	c14.8,9.1,29.7,11,45.7,11.7C430.1,271.7,443.1,274.4,456.3,281.3z"/>
</svg>
