<?xml version="1.0" encoding="utf-8"?>
<!-- Generator: Adobe Illustrator 24.0.0, SVG Export Plug-In . SVG Version: 6.00 Build 0)  -->
<svg version="1.1" id="Layer_1" xmlns="http://www.w3.org/2000/svg" xmlns:xlink="http://www.w3.org/1999/xlink" x="0px" y="0px"
	 viewBox="0 0 500 500" style="enable-background:new 0 0 500 500;" xml:space="preserve">
<path d="M96.2,306.1c-0.4-18.8,5.3-35.5,16.9-49.9c11.9-14.7,22.5-14.3,33.4,0.6c1.3,1.8,2.1,4.9,4.8,4.1c2.8-0.8,3.2-4,3.2-6.7
	c0-1.5,0.5-3.4-0.2-4.5c-8.8-13.4-12.8-29.1-19.9-43.3c-5.7-11.4-11.2-24.8-12.9-36c-2.9-18.9-6-38.9-4.9-57.9
	c0.7-13.5,8.8-28,15.1-41.5c8-17.2,29.4-19.2,37.5-35.6c2-4,5.6-3.5,8.9-2.5c9.5,2.8,17.5,0.6,23.5-7.2c3.5-4.5,7-5,11.8-2.6
	c7.5,3.8,14.9,2.6,21.8-1.7c4.2-2.6,7.5-3.4,10.5,1.5c5.3,8.8,13.8,11.8,23.5,11.4c6.3-0.3,8.9,2,9.5,8.2
	c1.2,11.2,6.8,19.2,18.4,22.1c7.2,1.8,11.1,6.2,10.7,14c-0.3,6.4,2.1,12.1,5.8,17.1c6.3,8.6,13.4,16.6,11.3,28.7
	c-0.6,3.6,3.2,6.7,5.9,9.4c17.6,18.5,37.4,33.6,62.3,41.2c4.2,1.3,9.7,2,10.5,7.6c0.8,5.3-4.1,7.8-7.4,10.8
	c-2.6,2.3-5.5,4.2-8.4,5.9c-8.2,4.9-14.2,5.5-22.2-3.1c-24.5-26.3-52.7-47.2-88.6-56.1c-22.9-5.7-46.1-11.2-65.1-26.8
	c-1.7-1.4-4-3.4-6.1-2c-2.8,1.9-1.2,4.9-0.2,7.3c2.3,5.8,6.2,10.4,10.1,15.2c18,21.8,35.2,44.2,47.9,69.7
	c17,34.1,14.3,69.6,7.3,105.3c-2,10.2-9.2,18.2-15.9,26.2c-18,21.4-17.2,54,1.6,79c15.5,20.6,45.3,28.1,70.3,17.6
	c18.4-7.7,29.4-29.8,24.5-49.1c-2.3-9-8-14.8-17.1-16.5c-9.2-1.7-17.6,0.6-23.7,8c-7.3,8.8-3.3,23.9,6.6,26.7c4.3,1.2,7.9-0.2,9.6-4
	c1.5-3.3-2.1-4.2-4.2-5.5c-2.4-1.4-8.3,0.9-6.1-5.3c1.8-5.1,6-6.8,11.1-5.3c7.5,2.3,12.3,7.1,13.4,15.3c1.2,8.2-0.3,15.1-7.7,19.9
	c-10.6,6.8-32.1,2.1-40.5-8.8c-12.1-15.8-13.1-34.1-3-50.8c6.2-10.3,34.3-20.4,46.5-17.5c9.2,2.2,17.8,3.3,26.6,9.4
	c11.7,8.1,14.6,19.9,19,30.6c3.3,7.9,9.8,18.5-0.3,27.9c-1.3,1.2,0.2,5.8,0.6,8.7c0.5,3.2-14.8,30.4-16.8,32.6
	c-7.7,8.7-17.4,13.9-27.1,19.8c-5.7,3.4-7.9,10.6-16,5.2c-10.7,9.9-24.6,3.1-36.5,6.8c-3.9,1.3-7.4,2.5-10.3-1.3
	c-5.3-6.9-12.6-6.5-19.8-5.2c-5.3,1-9,0.9-9.7-5.7c-0.2-1.6-2.3-4.5-3-4.4c-16.4,3.6-18.7-19.1-33.8-17.9c-4.6,0.3-2.9-3.7-2-5.8
	c3.7-9.1-0.9-11.9-8.9-12.3c-6.9-0.3-8.8-3.7-6.2-9.8c3.3-7.9,0.5-12.7-7.6-14.2c-6-1.1-8.8-3-5.2-9.6c4.1-7.6,1.8-13.5-6.9-15.6
	c-8-1.9-8.8-5.9-4.8-12.4c1.6-2.6,3-5.5,2.2-8.7c-1.1-4.1-2.5-8.6-7.2-9.4c-4-0.6-5.6,3.5-7.1,6.4c-1.4,2.7-2.2,5.7-3.4,8.5
	c-6.1,15-15.8,18-28.5,7.8C103.3,353.8,97.2,331,96.2,306.1z"/>
</svg>
