<?xml version="1.0" encoding="utf-8"?>
<!-- Generator: Adobe Illustrator 24.0.0, SVG Export Plug-In . SVG Version: 6.00 Build 0)  -->
<svg version="1.1" id="Layer_1" xmlns="http://www.w3.org/2000/svg" xmlns:xlink="http://www.w3.org/1999/xlink" x="0px" y="0px"
	 viewBox="0 0 500 500" style="enable-background:new 0 0 500 500;" xml:space="preserve">
<path d="M461.5,220.2c2.7,9.1,0.1,16.6-6.4,22.8c-25,23.9-37.9,54.1-42.2,87.5c-2.3,18.3,5.2,36.3,9.4,54.3
	c1.3,5.5,8.7,12.6-1.8,16.6c-9.2,3.5-17.7,10.5-28.5,0.6c-21.9-20-51.3-29.6-73.9-53.7c-1.1,17-1,29.6,7.4,41.2
	c2.5,3.4,9.7,9.6,2.4,12.5c-6.6,2.7-14.7,4.2-22.9-3.4c-15-14-11.1-31.1-12-47.6c-0.6-11.9-2.2-23.7-6.6-34.8
	c-1.3-3.4-3.9-6.6-6.6-9c-4.2-3.7-10.2-8.7-14.7-6.7c-5.6,2.5-0.7,9.4,0,14c2.7,16.3-2.7,32.1-1.8,48.2c0.6,11.8,3,23.5,4,35.3
	c0.4,4.2,3.7,10.5-3,12c-6.7,1.5-15.5,3.9-20.3-1.5c-5.8-6.4-11.4-13.9-8.1-24.9c7.3-23.8,2.7-46.8-6.8-69.3
	c-2.4-5.7-3.9-11.7-5.6-17.6c-5-18.3-13.1-24.1-32.8-22.5c-8.1,0.6-13.8-6-23-5.5c-6.5,0.3-8.1,0.1-9.6,5.7
	c-3.5,12.8-12,25-13.1,37.2c-1.9,22.4,2.2,45.1,14.5,65.3c2.3,3.8,10.5,8.3,4.4,12.2c-6.1,3.8-15.6,6-22.3-1.6
	c-9.8-11.2-18.8-22.4-17.5-39.1c0.7-8.2-2.5-16.8-4.5-25.1c-3.8-15.9-13.6-31.3-3.2-48.4c1.8-2.9,0.2-8.5-1-12.4
	c-2-6-6.3-12.6-12.3-12.4c-6.5,0.2-6.9,8.1-7.5,13.7c-3.9,39-12.1,77.8-7.4,117.4c1.2,10.4-3.5,13.3-12.8,12.9
	c-5.1-0.2-7.7-1.8-8.1-7.4c-1.1-15.5-2.4-30.8-1-46.7c2.2-25.5,0.8-51.7-11.9-74.8c-16.3-29.7-19.4-61-16-93.7
	c3.6-34.1,34.3-66.8,73-77C157.8,82.2,202,88,244,110.2c24.7,13,47.8,28.8,74.3,38.6c19.1,7,33.6,21,41.6,40.6
	c9.3,22.7,23.5,42.1,39.5,60.4c3.2,3.7,5.7,7.5,11.7,4.6c11.5-5.5,23.3-10.5,34.9-15.9C453.9,234.9,456.4,226.8,461.5,220.2z"/>
</svg>
