<?xml version="1.0" encoding="utf-8"?>
<!-- Generator: Adobe Illustrator 24.0.0, SVG Export Plug-In . SVG Version: 6.00 Build 0)  -->
<svg version="1.1" id="Layer_1" xmlns="http://www.w3.org/2000/svg" xmlns:xlink="http://www.w3.org/1999/xlink" x="0px" y="0px"
	 viewBox="0 0 500 500" style="enable-background:new 0 0 500 500;" xml:space="preserve">
<path d="M79.1,220c-22.5-14-44.4-27.5-60.9-48.2c-6.6-8.3-10.4-17.5-11.3-27.9c-0.3-3.6-1.1-7.9,3.1-9.8c3.6-1.6,6.1,1.7,8.3,3.8
	c9.3,8.9,19.3,17,31.4,22.3c-10-13-20.9-24.9-28.8-39.4C12,104.2,9.3,86.9,8.4,68.7c-0.2-3.5,0.1-6.8,3.7-8.1c2.7-1,4,1.7,4.9,3.8
	c17.1,42.8,58.1,52.9,94.6,69c27.9,12.2,57.5,17.6,87.3,21.7c15.8,2.2,26.3,9.9,34.5,22.8c10.7,16.8,20.1,34.4,32.9,49.9
	c6.8,8.2,13.3,16.7,20.8,24.3c25.9,26,39.1,25.7,60.9-4.5c14.1-19.6,32.4-36.5,38.9-61.6c3.4-12.9,17.8-22.2,13.6-38.6
	c-1.1-4.4,3-6.1,7.5-4.6c4.7,1.5,9.6,2.8,14.4,4.2c1.8-4.1-0.7-6.7-1.5-9.6c-1.3-4.7-6.1-10-1.9-14.2c3.6-3.6,8.2,2.7,13.1,2.2
	c0.3-5.2-4.7-12.6,1.1-15c7.8-3.3,10.1,7.8,16.5,10.1c2.8-6.4-5.3-14.5,0.2-18.3c6-4.2,9.5,7,17,7.3c0-2.1,0-4.3,0-6.4
	c0-3.2-0.7-7,3.4-8.1c4.2-1.2,5.6,2.6,7.2,5.2c6.5,10.4,9.7,21.9,12.2,33.8c11.2,55.5-2.4,101-52.8,131.8c-2,1.2-3.8,2.6-5.6,4.1
	c-0.6,0.5-0.8,1.3-1.7,2.7c12.4,3.9,22.6,10.8,29.9,21.5c3.6,5.2,9.9,4.6,15,6.4c7.4,2.6,9.7,8.5,9.7,15.2c0.1,8.8-7.4,6.6-12.4,7.1
	c-17.4,1.7-31.7,9.1-43.6,22C374,403.6,306,423.6,228.1,415.4c-4.2-0.4-8.1-0.2-12.1,1.8c-25.1,13-53.4,14.6-80.1,21.8
	c-1.7,0.5-4.3,0.7-5.4-0.2c-18-14.7-42.8-15.7-61.1-29.8c-2.9-2.3-6.5-4.1-6.1-8.5c0.5-5.4,5.5-6.3,9.2-7.1c19.5-4.3,39-8,58.6-12
	c13.2-2.7,26.5-5.1,38.3-12c5.4-3.1,14.9-6.5,12-12.9c-3.9-8.5-2.4-20.9-14.7-25c-8.3-2.8-16.5-6.3-24.1-10.7
	c-13.5-7.9-14.6-17.4-4-28c-9-0.8-17.7-2.1-25.5-6.5c-3.6-2-7.6-4.1-7.7-9c-0.2-6.2,5.5-5.4,8.9-6.7c4.7-1.8,9.4-3.1,15.1-8.4
	c-15.6-0.3-28.8-0.7-41.7-3.8c-17.1-4.1-30.3-13.6-40.2-27.8c-2.9-4.2-6.1-9.2-2.5-14c3.2-4.4,8.3-2.3,12.9-1.2
	C64.8,217,72,218.5,79.1,220z"/>
</svg>
