<?xml version="1.0" encoding="utf-8"?>
<!-- Generator: Adobe Illustrator 24.0.0, SVG Export Plug-In . SVG Version: 6.00 Build 0)  -->
<svg version="1.1" id="Layer_1" xmlns="http://www.w3.org/2000/svg" xmlns:xlink="http://www.w3.org/1999/xlink" x="0px" y="0px"
	 viewBox="0 0 500 500" style="enable-background:new 0 0 500 500;" xml:space="preserve">
<path d="M100.4,251.4c-9.1-0.4-17.3,2.1-25,7.1c-9.2,6-19.9,5-30.1,5.8c-4.1,0.3-8.1-0.8-6.1-8.1c1.7-6.1,1-13.7-3.4-19.7
	c-1.7-2.4-3.8-5.4-1.5-7.6c2.5-2.3,4.9,0.7,6.9,2.5c7.2,6.2,8.3,5.9,11.3-3.4c0.7-2.1,1.4-4,3.5-2.8c7.3,4.1,8.8-2.3,10.8-6.3
	c4.2-8.4,5.1-17.6,2.2-26.6c-1.2-3.6-1.4-13.2-9.8-5.2c-1.5,1.4-2.7-0.5-4-1.3c-2.8-1.7-5.5-3.6-6.8,1.8c-0.6,2.6-3.5,3.2-5.3,1.5
	c-2.8-2.6-4.4-3.2-5.8,1c-0.6,1.9-2.6,1.7-4,1.3c-21.1-5.5-27.7-27.3-13.1-43.5c3-3.3,5.8-6.6,9.1-9.6c9.6-8.6,19.6-9.3,29.8-1.3
	c10,7.8,22.3,11.4,32.9,18c1.2,0.8,3.3,1.4,4.5,1c9.4-3.8,17.1-1.9,25.1,4.4c4.3,3.4,7.1-1.1,8.4-5.5c0.6-2,1.5-4.5,4.1-4.6
	c2.8-0.2,3.4,2.4,4,4.4c1,3.3,2.2,5.5,6.5,4.8c12.4-2,24.2,2.1,36.3,4.2c2.5,0.4,5,1.5,7.4,1.1c20.8-2.8,41,1,61.4,3.7
	c30.7,4,60.5-4,90.3-10.1c14.7-3,29.6-6.8,44.5-7.7c29.2-1.8,56.6,5.7,81.8,20.5c4.1,2.4,7.5,6,9.3,10.4
	c4.2,10.5,8.7,20.8,11.3,31.8c0.8,3.3,2.1,6.4-3.6,5.8c-4.1-0.5-2.3,2.9-2.1,4.5c2.2,17.5-0.2,34.5-5.8,50.9
	c-1.7,5,0.7,8.1,3.5,10.8c15.3,14.4,5.8,27.9-1,41.5c-6.1,12.3-16.9,16.1-29.8,15.2c-5.4-0.4-11.8-0.9-13.2-6.8
	c-1.3-5.3,4.6-7.5,8.5-10.1c8.1-5.3,9.7-14.3,3.7-21.3c-1.2-1.3-2.3-3.5-4.5-2.7c-2.2,0.9-1.8,3.4-1,4.9c3.9,8.1-0.5,13-6.4,17.4
	c-3.3,2.5-7.5,5.2-7.1,9.4c1.1,10.3-6.2,12.5-13.2,15.4c-8.3,3.4-17.2,3.6-25.9,4.1c-3.4,0.2-8.1-0.3-9-5.1
	c-0.9-4.6,3.2-5.5,6.1-7.1c16.1-8.5,20.5-25,10.4-38.3c-2-2.6-3.6-4.1-6.9-2.5c-38.2,19.1-78.7,15.6-119.1,11.5
	c-9.1-0.9-12.4,2-13.7,10.3c-1.1,7.5-2.7,14.6-0.1,22.2c5.4,16-1.2,24.7-18.2,24.8c-3.5,0-6.8-0.1-10.2-1.4
	c-10.1-3.8-11.3-7.2-5-15.7c2.6-3.5,5.5-6.9,7.6-10.7c2.3-4,0.6-8-3.2-9.5c-4.9-1.9-3.6,3.6-4.9,5.7c-1.1,1.8-1.1,4.2-2,6.2
	c-2.2,5.3-0.3,13.7-7.1,15.2c-11,2.4-22.4,2.9-33.1-2.6c-2.3-1.2-2.4-2.5-0.8-4.3c1.2-1.4,2.4-2.9,3.7-4.3
	c15.8-16.2,15.7-16,3.7-36.1c-5-8.5-7.6-18.7-18.2-22.8c-1.7-0.7-3-3.2-3.9-5.2c-6.6-14.3-19.2-20.4-33.4-24.2
	c-6.3-1.7-13.1-1.9-18.4-6.4C109.2,249.2,104.6,251.7,100.4,251.4z"/>
</svg>
