<?xml version="1.0" encoding="utf-8"?>
<!-- Generator: Adobe Illustrator 24.0.0, SVG Export Plug-In . SVG Version: 6.00 Build 0)  -->
<svg version="1.1" id="Layer_1" xmlns="http://www.w3.org/2000/svg" xmlns:xlink="http://www.w3.org/1999/xlink" x="0px" y="0px"
	 viewBox="0 0 500 500" style="enable-background:new 0 0 500 500;" xml:space="preserve">
<path d="M312,326.7c-0.2-3.6-0.4-7.3-0.5-10.9c-0.1-7-3.1-7.4-8.3-4c-11.3,7.3-16.7,18.8-21.5,30.6c-16.5,41-21.6,83.9-20,127.8
	c0.4,10.3-9.5,18.4-19.3,15c-3.9-1.3-6.1-0.3-8.4,1.8c-2.1,1.9-4.5,2.7-6.9,1.5c-3.1-1.5-3.1-4.7-2.4-7.6
	c2.5-10.8,5.2-21.5,7.8-32.3c5.9-24.4,7.8-48.8-1.4-72.9c-3.1-8,0.6-14.3,4.5-20.5c7-11.2,6.3-22.8,3.2-34.8
	c-1.5-5.8-4.1-6.4-8.5-2.6c-2.6,2.3-5.5,4.3-8.4,6.2c-4.5,3-9,3.7-14.2,0.9c-7.7-4.2-12.2-1.6-13.5,7.2c-1,6.8,0.3,13.3,4,19.1
	c5.1,8,5.2,16.2,1.1,24.4c-7.6,15.1-7.9,31.1-6.8,47.4c0.5,7.3,0.9,14.6,0.9,21.9c0,4.5,4.3,12.1-6.9,10c-3.3-0.6-4.2,5.1-4.5,8.4
	c-0.5,5.3-3.3,6.8-8.2,7c-8.2,0.3-16.4,1.7-24.6-0.3c-8-2-11-8.9-4.8-13.6c20.8-15.8,21-36.9,18.7-60c-2.2-22.1-7.4-43.6-10.9-65.4
	c-2.4-14.9-12.6-25.4-20.1-37.3c-18.5-29.6-22.1-60.7-10-93.3c2.8-7.5-1-13.4-3.4-19c-7-16.3-4.8-32.2-0.4-48.3
	c0.7-2.7,1.1-5.7,0.8-8.4c-0.4-4.7-2.9-8.9-7.6-9.8c-4.2-0.8-6.9,2.7-8.6,6.3c-1.8,3.7-3.9,7.4-4.5,11.4
	c-2.3,13.7-11.2,20.2-23.9,21.2c-10.2,0.8-19.9,3.4-30,4.5c-3,0.3-5.7,0.6-7.8-2c-2.5-3,0-5.2,1.3-7.6c4.7-8.6,8.9-17.5,14-25.9
	c6-9.8,15.6-15.5,25.5-20.7c10.2-5.3,19.1-12.1,26.4-22.2c-5.4-0.6-7.4,3.2-10.1,5.4c-20,16.6-42.1,19.2-65.9,9.9
	c-11.9-4.7-18.6-14.2-17-26.6c2.4-19.3,10.1-35.9,28.2-45.8c1.8-1,3.9-3.4,5.7-0.6c1.1,1.7-0.7,3.4-2,4.9
	c-5.8,6.4-10.4,13.5-14.2,21.2c-4.1,8.3-5.2,16.7,1.4,23.9c6.6,7.2,15.3,5.2,23,2.4c16.1-5.8,27.1-18.3,37.7-31.1
	c7.9-9.6,15.8-19.1,27-24.9c8.9-4.6,18.2-5.9,27.2-0.5c10.1,6,20,4.5,29.8-0.5c21.1-11,39.7-7.8,55.5,9.9
	c9.3,10.4,18.6,20.8,28.1,31c6.6,7.1,14.9,10.5,24.8,9.3c19.4-2.3,26.9-17.8,16.5-34.4c-3.4-5.4-7.3-10.3-11.2-15.4
	c-1.2-1.6-2.5-3.2-0.8-4.9c1.4-1.4,2.9,0,4.3,0.5c16.8,5.7,29,21.8,28.8,39.3c-0.1,7.4,1.7,7.7,8.6,6.3c21.4-4.2,42.8-5.2,63.2,4.9
	c8,4,13.3,10.7,18.4,17.5c12.1,16.3,24,32.7,40.5,45.1c6.7,5.1,9.8,12.3,8.8,20.9c-0.2,2.2,0.1,4.5-0.1,6.7
	c-2,16.9,0.6,32.2,12.2,46c14.2,16.8,9.5,35.6,2.5,53.8c-8.6,22.3-7.9,43.1,7.5,62.6c7.9,10,7.6,21.8,4.2,33.5
	c-2.5,8.5-4.7,17-4.5,26.4c-3.2-5.3-4-11.7-11.7-13.4c-1.7-0.4-1-8.8,0.3-13.5c1.3-4.6,3-9,4.1-13.6c2-7.8,3.1-15.9-1.6-23
	c-14.9-22.5-13.1-44.8-1.9-68.3c7.1-14.9,7.7-30.7-3.9-44.7c-1.3-1.6-2-4.7-4.8-3.8c-3.1,1-1.3,3.6-0.8,5.7
	c4.3,19.6-1.6,38.3-5.2,57.3c-4,20.9-7.7,41.9,2.9,62.3c1.8,3.4,1.1,7.4,1.2,11.3c0.2,33.9-3.3,67.9,2.8,101.6
	c0.6,3,1.4,6.8-2.1,8.6c-4.1,2.1-3.4,5.3-3.6,8.8c-0.5,10.2-7.1,15.4-17,13.5c-3.9-0.7-7.4-0.5-11.2,0.7c-3.8,1.2-7.6,1.1-10.4-2.4
	c-2.9-3.6,0.1-6.6,1.4-9.6c9.5-23.8,18.6-47.2,18.2-73.8c-0.3-20-5-38.1-14.3-55.3c-7.5-13.9-14.9-27.9-22.2-42
	c-3.2-6.2-7-7.2-13-3.7c-9.3,5.5-19.1,9.9-29.3,13.4c-4.7,1.6-6.6,3.6-2.9,8.1c5.4,6.5,9,14.5,16.9,18.9c5.1,2.9,3.9,7.8,1.4,11.6
	c-16,24.4-23.7,52.3-33.8,79.2c-2.9,7.8-4.2,15.9-2.9,24.3c0.6,3.7,0.5,5.5-4.3,3.7c-7-2.6-10.2,2.5-10.2,8c0,8.4-4.2,11.2-11.5,12
	c-4.4,0.5-8.7,1.8-13,2.5c-5.9,0.9-10.9-0.5-13.1-6.6c-2.3-6.3-3-14,3.3-17.2c22.4-11.4,27.7-32.6,32.2-54c3.5-16.4,8-32.7,7.9-49.6
	c0-2.2,0.4-4.6-0.2-6.6c-1.1-3.5-1.7-8.1-6.1-8.9c-4.1-0.8-5.8,3.1-7.7,6c-0.7,1-1.4,2-2.1,3C313.5,326.9,312.8,326.8,312,326.7z"/>
</svg>
