<?xml version="1.0" encoding="utf-8"?>
<!-- Generator: Adobe Illustrator 24.0.0, SVG Export Plug-In . SVG Version: 6.00 Build 0)  -->
<svg version="1.1" id="Layer_1" xmlns="http://www.w3.org/2000/svg" xmlns:xlink="http://www.w3.org/1999/xlink" x="0px" y="0px"
	 viewBox="0 0 500 500" style="enable-background:new 0 0 500 500;" xml:space="preserve">
<path d="M357.1,341.1c-4.5,2.8-2.8,7.2-3.1,11c-2.7,32.6-8.9,64.4-18.5,95.7c-4,13.1-10.5,20.2-24.7,20.2c-6.9,0-13.8,0.9-20.7,0
	c-21.3-2.8-31.2-22.9-16.7-38.6c14.9-16.2,8.4-32.6,6.4-49.5c-0.7-5.8-4.3-7.7-10.7-4.7c-7.7,3.5-16,6.5-24.3,7.7
	c-7.8,1.1-9.7,5.9-9.6,11.6c0.2,15.9,0.3,31.9,12,44.8c3.4,3.7,5.8,8,5.3,13.2c-0.6,7.8-3.9,13.5-12.5,13.9
	c-14.7,0.7-29.4,1.2-44.1,1.5c-9.8,0.2-15.8-3.6-17.2-14.6c-3.6-27.2-12.1-53.1-23.1-78.3c-6.6-15.2-7.1-15.6-17.8-4
	c-15.2,16.5-29.9,33.4-45.2,49.9c-6.9,7.5-7.3,13.9,0.9,20.7c5.5,4.6,10.1,10.5,7.3,18.1c-3,8.3-11.1,6.8-17.9,7.3
	c-14.7,0.9-29.4,1.5-44.1,0.3c-16.9-1.3-27.4-10.7-27.5-27.8c-0.1-26.3,7.1-51.5,16.6-75.8c1.3-3.5,5-6.7,8.3-8.7
	c19.6-11.4,25.4-29.5,28.9-50.8c7.5-45.9,29.9-85,61.7-118.6c19.1-20.2,42.6-24,68.6-15.1c2.3,0.8,4.7,1.4,7,2
	c29.2,7.8,38.1,4.8,56.4-19.1c3.5-4.5,7.3-8.9,10-13.9c12.3-22.6,33.1-31.7,56.8-35.9c9.9-1.8,17.1-6.1,22.8-14.5
	c10.3-15.2,21.9-29.5,32.2-44.6c10.3-15.1,24.9-14,39.4-10.9c14.6,3.2,27.8,8.5,29.5,27.4c1.1,12.8,9.1,23.4,15.9,34.1
	c5.1,8,7.9,15.8,1.6,24.9c-3.6,5.3-3.3,11.6,1.7,16.9c11.7,12.5,12,30,19.5,44.4c1,1.8,0.5,5.1-0.5,7.1
	c-10.2,20-22.2,38.3-47.1,41.6c-6.8,0.9-6.1,5.2-6.1,9.7c0.3,25.4,4.5,49.8,11.6,74.5c11.1,38.9,17.9,78.9,13.8,119.7
	c-2.4,23.1-13.5,33.7-36.4,34.5c-15.1,0.5-30.2-0.5-45.3-1.4c-8.5-0.5-12.5-5.4-9.5-14.2c0.9-2.7,1.4-5.9,3.2-7.8
	c11.7-12,8.8-24.5,1.4-36.8C362.6,390,363,369.6,359.5,350C359,347.1,360.5,343.6,357.1,341.1z"/>
</svg>
