<?xml version="1.0" encoding="utf-8"?>
<!-- Generator: Adobe Illustrator 24.0.0, SVG Export Plug-In . SVG Version: 6.00 Build 0)  -->
<svg version="1.1" id="Layer_1" xmlns="http://www.w3.org/2000/svg" xmlns:xlink="http://www.w3.org/1999/xlink" x="0px" y="0px"
	 viewBox="0 0 500 500" style="enable-background:new 0 0 500 500;" xml:space="preserve">
<g>
	<g>
		<path d="M161.2,417.6c-3.7,0.5-7.5-1.1-11.1-3.4c-4.5-2.9-9-5.8-13.5-8.8c-12.5-8.2-25.3-9.6-38.8-2.2
			c-8.4,4.5-16.8,9.2-26.1,11.7c-15.6,4.1-35.1-12.3-33.8-28.3c0.4-5.3,3.8-8.8,8-11.2c7.5-4.2,15.3-8.1,23.1-11.8
			c5.9-2.9,9.8-6.8,12-13.4c4-12.3,10.4-23.4,20.1-32.3c14.8-13.5,30.1-11,39.2,6.7c3.2,6.1,5.9,12.4,8.7,18.6
			c4.3,9.6,11.3,14.8,22.3,14.9c11,0.1,20.3,3.4,25.6,14.5c7.7,16.4,3.9,29.8-12,38.6C177.8,415.2,170.2,417.6,161.2,417.6z"/>
		<path d="M75.6,322.1c0.5,22.6-9.9,37.3-26,40.6c-6.6,1.3-13.1,0.8-16.8-5.4C18.8,333.8,8.4,309.3,16,281c6-22.5,18.4-26,34.8-9.3
			C65.5,286.6,73.6,304.9,75.6,322.1z"/>
		<path d="M120.2,232.3c-0.5,9.1-3,21.7-7,33.9c-3.1,9.7-13.5,16-25.4,16.3c-10.7,0.2-18.4-4.3-21.6-15.1
			c-7.1-23.6-10.8-47.5,4.3-69.6c10.6-15.6,26.1-15.5,37.7-0.8C118.5,210,120.4,215.1,120.2,232.3z"/>
		<path d="M123.5,246.7c0.5-15.2,1.6-27.4,5.6-39.1c3.3-9.5,7.6-18.5,19.8-18.9c11.5-0.4,17.8,4.4,24.1,16.3
			c13.1,24.7,12,47.8-5.2,70.1c-9,11.7-17.2,12.9-28.9,3.8C127.5,270.1,121.9,258.5,123.5,246.7z"/>
		<path d="M216.9,297.2c-0.6,12.7,1.3,25.8-5.9,37.5c-8.7,14.2-15,18-41.3,12.2c-11.3-2.5-21.6-19-21.2-31.5
			c0.2-5.4,3.2-8.7,7.3-10.4c14.1-5.5,21.1-16.3,25.6-30.1c2.3-7.1,5.5-14.8,15.9-14.2c13,0.7,19.1,6.2,19.7,19.4
			C217.1,285.8,216.9,291.5,216.9,297.2z"/>
		<path d="M35.4,207.3c2.5,15.1,0.3,28.1,2.9,40.6c0.7,3.3-2.3,3-3.9,3.6c-4.7,1.8-9.5,3.3-15.4,5.3
			C23.1,240.4,27.4,224.6,35.4,207.3z"/>
		<path d="M201,206.8c5.4,15.3,12.6,30,8.9,46.9c-18.3-9.3-15.7-5.2-12.7-22.4C198.6,223.2,199.7,214.9,201,206.8z"/>
		<path d="M140,143.9c7.1,8.9,11.8,16.8,15.3,25.2c1.5,3.7,2.9,9.7-1.1,11.2c-4.2,1.6-9.7-0.3-14.7-1.1c-1.3-0.2-0.8-2-0.5-3.1
			C141,166.2,139.8,156.2,140,143.9z"/>
		<path d="M99.5,145.5c1.1,11.5-1.4,22.9,2.4,34.4c-6.5,0-12.3,0-19.4,0C87.2,167.6,92.6,156.4,99.5,145.5z"/>
	</g>
	<g>
		<path d="M378,248.6c10.5,0.3,17.9,5.5,24.3,12.6c7.5,8.3,12.9,18,16.2,28.6c2.1,6.6,6.1,10.6,12.1,13.4c7.8,3.7,15.7,7.4,23,11.9
			c8.5,5.3,9.7,10.6,6,19.9c-7.2,18.1-21.5,24.3-39.5,16.8c-6.3-2.6-12.5-5.8-18.5-9c-12.8-6.9-25.2-6-37.4,1.5
			c-2.8,1.7-5.8,3.2-8.3,5.4c-12.9,11.1-26.4,8.8-40.1,2c-12.7-6.4-18.8-16.7-17.1-27.7c2.5-15.7,9.3-24.6,25.1-25.4
			c17.5-0.9,25.4-10.4,30.8-24.9c2.3-6.1,5.1-12.1,9.2-17.3C367.7,251.6,372.4,248.9,378,248.6z"/>
		<path d="M486.5,242.3c-2.3,18.7-8.6,37.4-19.7,54.5c-4.9,7.5-12.3,6.7-19.3,4.8c-15.3-4.1-25.5-19.6-23.6-37.8
			c2.3-22.1,11.7-41.4,28.7-56c13.7-11.8,23.4-8.8,29.5,8.4C484.9,224.1,486.1,232.4,486.5,242.3z"/>
		<path d="M439.1,174.8c-0.7,9.5-1.1,20.9-5.2,31.7c-4.5,11.7-10.8,15.7-23.4,15.3c-12.2-0.4-21.3-6.8-24.6-17.2
			c-3.6-11.5-5.8-23.2-6.7-35.2c-1.4-17.2,7.4-29.9,20-39.9c8.3-6.6,19.2-4.2,27.3,4.5C436.8,144.9,439,158.6,439.1,174.8z"/>
		<path d="M375.7,179.1c1.6,21.8-5.3,35.5-21.3,43.4c-7.2,3.6-12.9,2.6-18.5-3c-22-21.8-23.9-59.8-4.1-83.4
			c9.8-11.6,27-10.6,34.8,2.4C374,151,374.6,165.1,375.7,179.1z"/>
		<path d="M311.6,289.2c-13.4-0.1-26-11.3-27.6-26.8c-1.6-15.4-2.9-30.9-0.9-46.4c1.3-9.8,7.2-13.5,15.8-15.4
			c8.6-1.9,13.6,2.1,17.1,9.3c1.1,2.4,2.7,4.7,3.4,7.2c3.4,12.6,10.4,21.6,22.8,26.7c8.4,3.4,10.7,9.9,7.8,19
			C343.9,281.6,333.2,289.3,311.6,289.2z"/>
		<path d="M464.5,149.5c7.8,14.5,11.4,30.2,16.4,46.8c-6.4-2-11.9-3.8-17.4-5.4c-1.8-0.5-2.5-1.8-2.2-3.3
			C463.9,175.1,462,162.2,464.5,149.5z"/>
		<path d="M298.4,146.1c0.7,11.7,4,22.6,5.7,33.7c0.6,4.2-8.3,13.5-12.5,12.8c-2.8-0.5-2.6-3-2.7-4.9
			C288,172.9,293.2,159.5,298.4,146.1z"/>
		<path d="M359.2,85c-0.2,9.3-0.7,18.4,1,27.5c0.4,2.1,1.8,6.1-0.8,6.3c-4.9,0.5-10,3.4-14.7,1.2c-2.5-1.2-2.3-5.5-1.4-8.3
			C346.5,101.7,352.4,93.2,359.2,85z"/>
		<path d="M398.8,82.3c8.3,12.6,12.8,24.3,17.9,35.7c-1.3,0.7-1.7,1.1-2.2,1.1c-5,0.1-11.3,2-14.8-0.2c-3.8-2.5,1.1-8.5,0.5-13.2
			C399.4,98.8,399.3,91.8,398.8,82.3z"/>
	</g>
</g>
</svg>
