<?xml version="1.0" encoding="utf-8"?>
<!-- Generator: Adobe Illustrator 24.0.0, SVG Export Plug-In . SVG Version: 6.00 Build 0)  -->
<svg version="1.1" id="Layer_1" xmlns="http://www.w3.org/2000/svg" xmlns:xlink="http://www.w3.org/1999/xlink" x="0px" y="0px"
	 viewBox="0 0 500 500" style="enable-background:new 0 0 500 500;" xml:space="preserve">
<path d="M171.6,323.7c-5,2.5-6.6,6.3-7.2,9.5c-2.9,14.7-7.1,29.2-7.7,44.3c-0.5,12.2-7,22.6-9.6,34.2c-0.2,0.7-1,1.6-1.7,1.8
	c-11.4,3.9-23.1,5.3-34.8,2.7c-4.1-0.9-9.4-4.4-8.4-9.4c1.3-6.6,5.7-12.2,11.8-15.6c2.1-1.2,5-1.9,7.4-1.6c8.9,1,10.3-3.5,8.7-10.7
	c-3.3-15.7,0.3-31.9-3.4-47.6c-0.8-3.3-0.4-6.6-5.2-7.4c-4.4-0.7-3.8-4.8-3.5-8.3c0.6-8.2-2.7-10.5-10.9-14.5
	c-4.3-2.2-10.1-5.1-12.3-10.8c-2.2-5.8-5.2-11.3-8.9-16.4c-2.4,2.6,0.9,6-2.7,10.1c-0.4-11.1-9.7-14.2-14.8-20.8
	c-4.1-5.2-5.5-11.2-4-17.7c2.6-11.6-0.6-20.7-9.7-28.8c-3-2.7-3-8.9-4.3-13.5c-11.6,4.6-18.6-0.5-18.8-14c-0.1-6.3,0.9-12.7-5.3-17
	c-0.4-0.3-0.7-0.8-1-1.3c8.7-5-0.4-10.2,0.1-15.4c0.4-4.3,2.2-6.9,5.8-8.7c11.3-5.6,19.2-15,27.3-24.1c1.9-2.2,4.4-3.8-0.5-6
	c-7.3-3.3-7.7-12.2-0.7-16.3c4.3-2.4,8.2-4.8,10.9-8.8c0.3-0.5,0.8-1.1,1.2-1.1c13.8,0.3,25.5-12.9,40.4-5.8c4.6,2.2,9.9,2,15.1,2.1
	c3,0,7.2,0.4,8.8,2.3c7.2,8.7,17.7,12.4,26.6,18.4c4.9,3.3,7.1,8.6,8.6,14.3c2.9,11.8,3.2,11.9,14.6,10.6c0.4,2.3-5,3.2-2.2,5.3
	c6.4,4.9,4,9.6,0.9,14.8c-0.8,1.3-0.4,3.8,0.6,3.8c5.5-0.3,7.5,8.9,14.3,4.9c3.3-1.9,5.3,0.9,6.9,3.3c3.2,4.7,6,9.7,9.1,14.4
	c5.3,8.3,12.5,12.2,22.8,12.1c17.9-0.2,35.6-3.4,53.5-3.8c28.9-0.7,55.5,6.9,80.3,21.5c13,7.6,25.8,15.6,38.9,23
	c14.9,8.4,30.1,7.1,44.9-0.1c10.5-5.1,14-14.9,9.8-25.9c-4.9-12.9-13.6-22-27.4-25.8c-5.5-1.5-10.2,0-14.9,1.8
	c-5.8,2.2-11.5,4.9-16.8,8.1c-10.1,6.1-19.7,1.8-29.3-1.2c-3.3-1-1.7-4.4,0.2-6.3c17.8-17.5,24.2-23.5,48.5-16.3
	c16,4.7,31.1,9.6,42.6,23.2c16.2,19,8.3,52-17.1,58.7c-14.2,3.7-28.2,6.4-42.8,3.6c-9.2-1.7-10.1-0.5-6.8,8.5
	c8,22.2,16.2,44.3,24.4,66.4c3.3,8.7,8.5,16.2,16.5,21.2c9.3,5.9,13.6,14.2,13.5,25c-0.1,9,1.6,17.6,5.8,25.5
	c2.5,4.6,1.1,8.2-3.1,9.8c-8,2.9-16,6.2-24.6,6.7c-9.6,0.6-13.4-4.8-10.2-14.1c1.6-4.6,4.4-8.5,8.4-10.4c5.9-2.8,3.8-5.6,1.5-9.1
	c-4.8-7-9.7-14-14.4-21.1c-5.8-8.9-13.5-15.2-23.4-19c-7.3-2.8-13.6-7-18.5-13.2c-5.5-7-13.4-10.5-21.4-13.4
	c-3.8-1.4-5.9-7.4-9.7-5.6c-4.4,2.1-7.7,6.6-11.1,10.3c-4.1,4.5-4.5,9.6-1.7,15c4.7,8.9,9.9,17.4,17.5,24c5,4.4,5.3,8.9,2,14.3
	c-4.8,7.8-9.5,15.5-15.2,22.6c-1.9,2.4-4.6,5.3-4.5,7.9c0.3,7.6-4.2,8.8-10,9.6c-6.2,0.9-12.3,2.5-18.4,3.4
	c-9.5,1.5-19.8-3.9-19.9-10c-0.1-7.6,10.2-16.4,19-16.4c0.3,0,0.6,0,0.8,0c5.9,2.2,11.1,2.7,13.5-5c2.4-7.4,2.4-14.6-4.3-19.3
	c-9.6-6.7-17.9-14.9-26.8-22.2c-9-7.4-15.5-18.8-16.7-31.2c-0.9-8.9-5.7-9.9-12.1-7.9c-12.2,3.8-24.9,5.4-37.4,8.2
	c-10.4,2.3-15.3,11.3-21,18.8c-3.1,4.1,0.8,6.3,4.4,6.8c4.2,0.5,8.5,0.2,12.8-0.1c6.2-0.4,10.4,2.4,13,7.7c2.8,5.7-1.3,9.1-4.7,12.4
	c-8.1,7.9-21.6,9.2-31.7,3.4c-4.4-2.6-8.7-5.4-13-8.2C166,344.9,164.2,338.4,171.6,323.7z"/>
</svg>
