<?xml version="1.0" encoding="utf-8"?>
<!-- Generator: Adobe Illustrator 24.0.0, SVG Export Plug-In . SVG Version: 6.00 Build 0)  -->
<svg version="1.1" id="Layer_1" xmlns="http://www.w3.org/2000/svg" xmlns:xlink="http://www.w3.org/1999/xlink" x="0px" y="0px"
	 viewBox="0 0 500 500" style="enable-background:new 0 0 500 500;" xml:space="preserve">
<path d="M223,282.6c-7.4,7-14.4,14.3-23.1,19.4c-1.9,1.1-5.2,2-6.8,1.1c-3-1.7-2.1-5.3-0.8-8c4.4-9.5,11.5-17,17.7-25.5
	c-17.2,9-32,21.1-40.9,38.8c-4.5,9-10,15.8-19.9,17.9c-9.5,2-11.5,9.6-14.6,16.8c-2.8,6.4-5.4,10.9-14.2,5.3
	c-8-5.1-18.5-3.9-27-11.1c-6.1-5.2-14.9,1.6-20.9,6.8c-10,8.8-19.5,18-29.4,26.9c-3.6,3.3-7.5,6.4-11.7,9c-2.8,1.7-6.7,4-9.4,0.7
	c-3.3-3.9,1.4-6.2,3.5-8.2c14.2-12.9,28.9-25.3,42.9-38.3c10.3-9.5,20.9-19.5,9.6-35.2c-2.4-3.4,0-5.8,2.1-7.5
	c8.3-6.9,9.6-15.9,7.2-25.4c-1.3-5.1,0-8.5,3-12.1c2.3-2.6,5.6-6.2,3.9-9c-5.7-9.9,1.1-16.5,6.2-22.3c10.6-12,12.6-23,7.7-39.4
	c-6.3-21-2.3-44-2.6-66.1c-0.2-16.9-2.7-33.1-8.9-49c-5.4-13.9-10.9-30,0.7-41.8c12.2-12.5,27.3-2.6,39.7,3
	c40.4,18.2,63.9,52.8,83.1,90.6c13.4,26.3,23.6,54,30.5,82.8c2.6,11,6.9,12.4,15.6,6.2c2.8-2,3.9-3.6,9.8-1.2c13,5.4,5,9.2,2.3,14.4
	c-5.7,11,2,11.8,9.7,13.3c40.6,8.1,80.5,18.1,117.1,38.4c26.2,14.6,49.1,32.7,64.5,59c1.7,3,3.2,6.1,4.6,9.2c4.5,10.2,8,22,1.5,31
	c-6.4,8.9-18.6,7.2-29,5.9c-16.5-2.1-32.2-9.2-49.4-7.4c-15.6,1.6-31.3,3-47,4.3c-5.9,0.5-12,1.7-17.6,0.6
	c-23.1-4.7-43.4-3.4-60.6,16.6c-5.8,6.8-18.9,6-28.5,9.5c-11.2,4.2-25,1.5-33.4,13.7c-0.4,0.6-3,0.5-4-0.1
	c-16.9-11.2-25.6,1.9-34,12.4c-11.4,14.2-21.3,29.5-32.1,44.1c-2.4,3.2-5,9.6-9.8,6.4c-5.2-3.4-1.6-9.2,1.2-13
	c9.5-13.1,20-25.6,29-39.1c6.6-10,14.7-20.9-2-30.9c-6.3-3.8-2.1-13.9-7.2-21.2c-6.2-9,6.9-10.1,11.7-14.5c1.8-1.7,5.5-2.7,5.7-4.3
	c3.4-25.1,29.2-31.2,41.2-49C215.1,299.1,221,292,223,282.6z" style="fill:#B6BEC1"/>
</svg>
