<?xml version="1.0" encoding="UTF-8" standalone="no"?>
<!-- Created with Inkscape (http://www.inkscape.org/) -->

<svg
   version="1.2"
   width="3394.6167"
   height="2445.8857"
   viewBox="0 0 3394.6168 2445.8858"
   id="Layer_1"
   xml:space="preserve"
   style="overflow:inherit"
   xmlns="http://www.w3.org/2000/svg"
   xmlns:svg="http://www.w3.org/2000/svg"><defs
   id="defs7" />
<path
   d="m 1222.2599,643.51027 c 62.436,65.896 187.512,202.154 190,202 13.976,20.357 28.71,39.956 46,57 44.774,61.228 83.401,128.59703 121,197.00003 4.929,3.071 9.513,6.487 15,9 0.852,17.814 13.247,24.086 24,32 2.306,0.306 1.111,-2.889 3,-3 -7.444,-10.842 -3.134,-22.355 1,-34 -24.18,-23.009 -7.184,-72.684 31,-69 0.513,-20.821 3.146,-39.52103 8,-56.00003 3.438,0.438 5.605,-0.395 8,-1 -0.356,-4.31 -2.067,-7.267 -5,-9 -42.682,-90.442 -100.643,-179.791 -152,-266 -17.266,-28.982 -33.183,-59.675 -53,-86 -25.6,-34.007 -43.914,-71.732 -65,-108 -9.892,-17.014 -18.163,-35.847 -23,-55 -2.671,-10.576 -3.405,-17.385 -1,-28 15.181,13.486 21.52,35.814 29,57 26.895,83.438 78.946,141.723 118,213 49.875,86.642 104.099,165.639 148,260 4.201,9.03 10.479,19.652 10,32 7.867,8.466 2.42,30.24703 11,38.00003 3.533,-0.467 5.474,-2.526 8,-4 0.841,-2.492 1.31,-5.357 1,-9 9.24,-18.76003 9.034,-46.96603 23,-61.00003 8.831,-27.553 23.261,-52.571 35,-78 11.784,-25.525 23.059,-51.01 37,-75 39.119,-75.22 87.279,-164.482 134,-239 16.072,-25.634 36.062,-51.723 46,-78 8.469,-22.392 13.139,-58.578 44,-54 -2.785,10.959 -14.062,20.001 -19,31 -9.658,21.513 -96.088,154.092 -123,203 -15.49,28.151 -105.997,200.127 -112,216 -5.694,15.057 -58.386,102.514 -54,130.00003 14.724,-3.276 17.331,-18.66903 25,-29.00003 2.78,19.542 -2.13,42.93203 -3,66.00003 3.309,5.319 8.022,3.134 12,6 15.341,11.053 20,59 20,59 0,0 -11.583,69.875 40,-13 51.583,-82.875 82.613,-128.33103 117,-187.00003 42.786,-57.881 91.379,-109.954 138,-164 25.365,-20.302 44.626,-46.708 70,-67 7.066,-10.267 115.938,-111.062 120,-118 34.863,-26.138 62.693,-59.306 97,-86 1.625,-2.041 106.732,-96.933 165,-135 28.362,-26.305 138.394,-98.94 157,-117 22.798,-13.536 79.375,-50.672 89,-51 48.664,-31.669 247.357,-109.715002 295,-119.000002 40.333,-7.86 84.908,-17.75 129,-17 30.836,0.524 66.224,11.162 97,17 1.496,1.837 4.174,2.493 5,5 13.749,1.584 21.716,8.951 30,16 3.708,-0.708 4.292,1.708 8,1 1.747,3.586 2.889,7.778 8,8 -0.294,2.039 -2.706,1.961 -3,4 3.145,1.041 5.291,0.03 9,2 0,1.667 0,3.333 0,5 8.837,4.323 7.157,13.806002 16,17.000002 -0.733,0.934 -1.818,1.515 -3,2 2.55,4.45 4.768,9.232 10,11 -1.722,4.443 7.916,9.556 4,16 2.269,2.731 4.229,5.771 6,9 -0.138,1.862 -0.658,3.342 -2,4 0.42,2.246 5.307,0.027 6,2 -1.606,8.031 14.263,15.546 8,25 8.293,3.928 3.038,15.516 9,21 0.541,3.541 -3.541,2.459 -3,6 0.147,2.186 2.52,2.147 5,2 -2.877,4.408 1.058,10.133 -4,13 2.132,3.862 3.882,4.604 0,8 6.18,2.422 -2.048,11.026 4,14 -3.929,1.651 2.312,4.24 -3,6 1.394,1.606 4.936,1.065 6,3 -7.613,9.509 4.369,22.797 1,35 5.848,6.912 3.098,18.572 -1,23 2.427,5.612 0.896,7.105 4,13 0.304,2.638 -2.087,2.579 -4,3 -0.475,3.141 1.247,4.086 3,5 -4.282,6.734 -0.82,15.003 -2,23 -1.351,9.157 -9.419,17.814 -5,27 -1.286,1.714 -2.067,3.932 -5,4 0.147,2.186 2.52,2.147 5,2 -4.349,17.38 -2.278,28.796 -9,41 0.184,8.357 -0.576,11.056 -6,17 -0.688,2.689 2.067,1.933 3,3 -0.102,2.565 -3.727,1.607 -5,3 6.253,5.305 -2.863,8.422 2,14 -1.225,5.775 -7.89,6.11 -10,11 1.185,2.482 1.059,6.275 6,5 -0.791,7.802 -9.67,16.347 -7,23 -14.596,10.589 -5.704,42.21 -15,51 3.336,10.099 -0.814,23.003 -8,30 2.309,8.152 -1.834,16.377 -9,22 0.229,1.772 -1.008,5.008 2,4 -5.635,3.143 -2.441,11.467 -10,14 -0.341,2.007 0.205,3.129 2,3 -4.012,4.786 -8.021,7.313 -7,15 -4.996,1.286 -6.908,6.55 -5,12 -1.16,-0.839 -2.682,-1.319 -5,-1 -8.433,9.964 -17.253,25.795 -14,39 -1.273,1.393 -4.898,0.435 -5,3 0.314,2.352 4.74,0.593 4,4 -3.649,-0.649 -5.326,0.674 -7,2 0.196,4.196 0.059,8.059 -5,7 4.713,8.373 -4.358,7.847 0,17 -2,0 -4,0 -6,0 -3.137,9.599 -7.777,15.674 -7,27 -12.306,7.987 -2.143,31.15 -16,39 -1.236,3.236 3.235,0.764 2,4 -1.792,11.488 -9.144,18.797 -10,30 -4.958,2.042 -7.77,6.23 -7,14 -1.674,1.326 -3.351,2.649 -7,2 -1.059,3.726 2.105,3.228 3,5 0.239,3.906 -3.715,3.619 -6,5 0.111,2.555 1.833,3.5 3,5 -1.645,1.689 -5.426,1.241 -7,3 0.854,11.188 -8.576,12.09 -9,22 -1.869,0.798 -3.662,1.671 -6,2 0.318,2.348 1.58,3.753 1,7 -2.487,-0.154 -3.096,1.571 -5,2 3.555,5.829 -1.605,12.392 -7,15 0.426,1.907 2.857,1.81 2,5 -5.988,6.151 -1.937,16.683 -11,22 5.383,3.273 -6.255,7.631 1,10 -0.78,2.886 -4.837,2.496 -7,4 0.056,3.277 2.844,3.823 2,8 -1.947,1.386 -3.072,3.595 -6,4 0.419,11.274 -8.195,24.917 -15,37 2.79,5.26503 -3.393,14.00003 -7,19.00003 -0.658,3.658 2.164,3.836 2,7 -8.495,2.316 -9.201,12.609 -12,18 0.279,2.054 2.671,1.996 4,3 -6.762,3.953 -5.147,9.745 -11,14 1.699,5.757 -1.433,14.646 -8,18 0.904,6.104 -1.394,16.222 -8,18 6.646,11.082 -10.6,15.83 -11,30 -2.318,-0.319 -3.84,0.161 -5,1 -0.802,3.469 1.489,3.844 1,7 -3.156,-0.489 -3.531,1.802 -7,1 0.803,8.279 -4.12,9.51 -9,14 -0.873,3.206 1.539,3.127 3,4 -3.67,1.312 -5.416,1.57 -5,5 -3.769,-0.769 -4.78,1.22 -8,1 0.752,8.406 -8.927,9.881 -14,17 -1.453,-0.547 -5.168,1.168 -5,-1 -2.171,2.496 -5.877,3.456 -6,8 -13.779,6.554 -27.789,12.877 -41,20 -106.467,17.952 -217.605,27.764 -325,29 -79.924,0.92 -161.353,-5.904 -246,-5 24.767,10.233 52.373,17.627 81,24 42.721,16.758 275.137,98.863 291,103 47.815,27.185 91.9,58.1 129,96 -0.223,2.984 3.692,3.4 1,6 7.244,3.756 11.838,10.162 15,18 9.027,8.016 13.619,14.338 18,27 5.794,5.206 8.89,13.11 14,19 -1,0 -2,0 -3,0 1.287,6.046 8.938,5.729 10,12 -1.721,0.309 1.299,3.473 -3,3 15.596,18.554 20.312,42.691 29,67 0.551,2.217 -1.91,1.424 -2,3 6.416,19.342 17.122,38.214 13,58 1.387,3.613 3.561,6.439 4,11 -1.907,-0.426 -1.81,-2.857 -5,-2 0.314,4.686 3.473,6.527 4,11 -1.419,-0.086 -2.832,-0.166 -3,1 2.46,16.77 -6.422,31.176 -9,50 -1.333,0 -2.667,0 -4,0 1.547,1.454 0.881,5.119 1,8 -1.479,-1.158 -2.521,-1.158 -4,0 2.573,6.49 -0.187,15.631 -4,19 2.302,10.423 -8.922,19.957 -6,31 -1.479,-0.521 -2.521,-1.479 -4,-2 -0.118,10.567 -8.272,19.007 -10,31 -1.667,0 -3.333,0 -5,0 1.043,2.833 1.043,4.167 0,7 -2.102,2.525 -3.898,-2.525 -6,0 1.565,5.308 1.859,7.961 2,13 -1.987,1.666 -1.271,-0.091 -4,0 1.063,4.169 0.259,4.41 0,9 -5.866,-0.14 -1.607,3.666 -7,4 3.17,10.947 -6.797,15.124 -8,29 -1.313,-0.354 -1.572,-1.761 -3,-2 -0.869,2.145 0.309,5.327 -1,9 -2.039,-0.294 -1.961,-2.706 -4,-3 1.452,14.873 -11.311,22.589 -11,35 -1.333,0 -2.667,0 -4,0 0.613,8.613 -7.423,8.577 -5,19 -1.793,0.127 -2.109,-1.224 -4,-1 2.56,5.066 1.443,10.206 -1,15 -1.667,0 -3.333,0 -5,0 1.544,8.438 2.02,20.711 -7,28 0.429,1.904 2.154,2.513 2,5 -5.655,1.308 -1.977,9.684 0,13 -2.928,0.261 -3.072,-2.261 -6,-2 0.958,5.443 -3.337,15.393 -11,18 1.275,7.397 -0.521,8.83 -1,16 -1.16,0.84 -2.682,1.319 -5,1 3.129,15.154 -6.186,21.105 -8,34 -2.409,0.409 -2.174,-1.826 -5,-1 0.914,1.753 0.344,4.989 2,6 -0.24,1.759 -1.721,2.279 -4,2 1.33,3.003 1.017,7.65 1,12 -7.287,4.346 -13.073,11.024 -12,21 -2.903,2.785 -2.594,-3.282 -7,-2 -0.268,3.601 1.848,4.819 2,8 -4.326,2.359 -8.461,12.1 -13,8 1.58,7.771 -4.758,1.407 -3,9 -1.313,-0.354 -1.572,-1.761 -3,-2 -2.236,0.431 -0.405,4.928 -1,7 -1.313,-0.354 -1.573,-1.761 -3,-2 -1.357,0.309 -0.829,2.505 -1,4 -10.141,0.192 -9.465,11.202 -18,13 -0.634,5.699 -3.538,9.129 -5,14 -14.914,5.752 -18.916,22.418 -33,29 -1.382,10.33 -8.479,8.811 -11,18 -2.465,0.132 -4.818,0.151 -6,-1 -1.986,6.911 -11.724,5.945 -10,14 -6.118,-0.716 -7.029,3.469 -13,5 0.353,10.353 -8.989,11.011 -10,20 -10.881,-2.915 -14.263,4.193 -16,13 -1.666,0 -3.334,0 -5,0 -4.115,5.551 -5.067,14.267 -15,14 -1.828,1.506 -2.353,4.314 -4,6 -3.078,0.745 -1.922,-2.745 -5,-2 -0.726,3.059 1.726,2.941 1,6 -3.459,0.792 -4.222,-1.111 -6,-2 -1.597,4.736 -6.406,6.261 -7,12 -5.035,0.631 -10.176,1.157 -15,2 -2.516,0.817 -1.395,5.272 -3,7 -5.442,-0.109 -9.757,0.91 -11,5 -2.039,-0.294 -1.961,-2.706 -4,-3 -2.678,3.227 -0.744,5.117 -1,10 -9.9,-2.968 -12.339,6.774 -20,9 -0.421,-1.912 -0.362,-4.305 -3,-4 -2.726,0.92 1.396,3.126 0,6 -4.179,-3.885 -3.843,2.809 -5,5 -2.395,2.276 -3.682,-2.194 -8,-1 -2.168,-0.168 -0.453,3.547 -1,5 -1.986,-0.013 -1.271,-2.729 -4,-2 -2.932,0.848 0.598,3.219 0,5 -3.056,0.723 -3.645,-1.022 -6,-1 -2.725,0.941 -2.289,5.045 -3,8 -4.647,0.287 -7.931,-0.717 -8,6 -3.14,0.473 -2.642,-2.691 -5,-3 -2.183,8.512 -12.334,5.602 -15,15 -2.442,-0.558 -2.131,-3.869 -6,-3 -2.168,-0.169 -0.453,3.547 -1,5 -3.869,0.869 -3.558,-2.442 -6,-3 -3.393,4.215 -3.695,2.258 -8,3 -1.312,4.978 3.079,4.254 3,8 -3.863,0.197 -7.369,0.035 -10,-1 -4.489,3.335 -11.757,10.252 -22,11 -2.187,0.147 -2.147,2.52 -2,5 -3.203,-0.463 -3.525,-3.808 -7,-4 -2.797,1.604 -0.617,6.312 -6,3 -0.293,0.613 -2.487,3.85 0,4 -0.275,2.358 -3.725,-0.092 -4,-1 -2.168,-0.169 -0.453,3.547 -1,5 -4.959,1.292 -4.913,-2.42 -9,-2 -2.578,0.24 1.373,1.721 0,4 -5.569,-3.485 -7.627,4.07 -10,7 -4.652,-0.226 -8.923,1.26 -12,5 -11.753,-4.284 -15.303,4.731 -24,3 3.598,5.497 -5.777,3.194 -7,10 -1.496,-1.171 -4.09,-1.243 -5,-3 -2.187,0.147 -2.147,2.52 -2,5 -10.06,1.206 -18.8,4.93 -26,-1 -2.451,0.883 -3.669,2.997 -8,2 -3.305,1.5 2.078,2.445 1,5 -8.649,0.478 -11.354,-3.849 -19,-2 0.363,3.232 4.532,5.968 2,9 -4.204,0.871 -3.346,-3.321 -5,-5 -10.621,5.016 -18.375,0.465 -31,1 -1.85,0.15 -0.614,3.387 -2,4 -9.168,-1.705 -15.515,6.917 -21,-1 -2.762,-0.428 -0.938,3.729 -3,4 -5.562,-2.152 -9.902,-1.266 -15,-5 -3.213,-0.88 -1.37,3.297 -4,3 -12.693,-3.73 -21.159,0.287 -35,-1 -1.352,0.982 -1.998,2.668 -3,4 -3.596,-1.07 -6.552,-2.781 -9,-5 -3.229,-0.895 -1.404,3.262 -3,4 -3.869,0.869 -3.558,-2.442 -6,-3 -1.023,0.977 -2.023,1.977 -3,3 -21.676,-3.996 -33.515,-8.432 -46,-20 -2.348,0.318 -3.754,1.58 -7,1 -7.524,-12.145 -17.994,-26.669 -32,-29 -6.223,-4.777 -9.705,-12.295 -18,-15 -27.085,-37.368 -49.423,-77.221 -70,-122 -25.531,-55.561 -57.017,-113.086 -83,-170 -16.117,-17.549 -178.138,-375.862 -180,-376 -10.66,-27.674 -29.967,-46.7 -45,-70 -8.765,1.568 -6.244,14.423 -13,18 -6.178,15.489 -8.288,35.045 -12,53 6.514,20.159 6.75,41.787 9,64 1.623,16.026 7.833,81.63 14,93 -2.56,27.95 -1.043,53.914 11,73 -1.696,0.97 -2.569,2.764 -2,6 -11.323,4.865 3.314,25.112 -4,35 1.824,2.843 7.116,2.217 8,6 -10.171,11.414 -12.205,36.877 3,44 -0.739,2.824 0.415,11.281 3,14 -0.161,1.172 -1.823,0.843 -3,1 1.465,11.945 -5.229,20.44 -10,31 2.218,10.314 2.615,23.354 8,31 0.551,2.217 -1.909,1.424 -2,3 7.424,21.529 1.395,60.219 -3,87 -2.08,2.17 -3.232,-0.122 -5,-1 -3.482,6.184 -8.941,10.393 -13,16 -19.479,-0.521 -30.319,-9.682 -39,-21 -4.951,-0.285 -7.437,1.896 -11,3 -15.804,-8.19 -25.363,-18.137 -25,-41 -2.997,-5.67 -6.379,-10.954 -9,-17 1.772,-0.228 5.008,1.008 4,-2 -0.149,-3.852 -5.566,-2.434 -7,-5 0.615,-3.051 4.488,-2.845 3,-8 -9.149,-9.759 -4.714,-27.733 -18,-34 -0.087,-12.811 1.885,-27.736 5,-38 -5.036,-6.205 -3.015,-11.928 -1,-21 -0.125,-2.209 -4.242,-0.425 -6,-1 5.617,-3.717 6.795,-11.871 11,-17 -12.406,-18.168 -2.293,-56.48 -21,-70 0.04,-17.627 2.436,-32.897 5,-48 12.409,-9.926 16.149,-33.849 18,-51 1.391,-2.276 3.459,-3.874 5,-6 1.724,-16.896 10.298,-28.643 12,-45 3.286,-31.591 0.236,-71.449 0,-107 -0.116,-17.394 2.914,-32.842 -8,-44 -3.726,-0.607 -6.197,-15.016 -8,-19 -20.821,28.256 -31.533,62.896 -49,94 -17.301,30.809 -111.709,203.291 -137,260 -61.985,114.914 -117.864,238.337 -187,346 -14.094,21.948 -48.069,67.265 -49,70 -10.262,4.07 -14.48,14.187 -26,17 -3.731,0.936 -4.587,4.746 -9,5 -2.923,6.076 -11.552,6.448 -14,13 -6.452,1.719 -11.131,4.07 -14,7 -3.19,0.857 -3.093,-1.574 -5,-2 -6.959,12.96 -28.288,12.982 -44,12 -2.506,0.172 -2.428,-2.239 -4,-3 -31.217,-1.011 -46.729,-2.42 -73,-2 -8.182,-13.32 -28.358,5.528 -41,-9 -3.22,-0.221 -4.231,1.77 -8,1 -3.95398,0.169 0.32,-1.536 -1.99998,-3 -8.802,5.325 -16.826,0.535 -24,0 -1.877,-1.768 1.19,-2.92 -1,-5 -4.767,3.948 -6.593,-1.308 -14,0 1.584,-6.25 -5.957,-3.377 -7,-7 -10.899,2.802 -25.065,-2.902 -34,-1 -2.594,-2.072 -2.488,-6.846 -9,-5 0,-1.333 0,-2.667 0,-4 -10.622,0.031 -16.354,-9.293 -25,-8 -4.729,-10.223 -21.547,-3.58 -24,-17 -9.326,0.103 -14.341,-8.264 -23,-3 -1.388,-1.278 -0.612,-4.722 -2,-6 -1.783,1.551 -3.917,2.75 -6,4 -3.306,-3.694 -11.534,-2.466 -11,-10 -10.41,4.093 -18.641,-3.309 -24,-10 -1.755,3.379 -6.812,-1.002 -9,3 -2.097,-2.054 3.154,-6.35 0,-10 -6.181,3.519 -5.423,-1.895 -12,-1 -1.629,-2.371 -2.216,-5.783 -3,-9 -2.874,-0.207 -5.08,0.254 -6,2 -2.699,-6.746 -10.88,-3.598 -12,-11 -3.541,0.334 -2.459,2.751 -6,1 0,-2.334 0,-4.666 0,-7 -4.105,1.371 -4.003,1.747 -9,1 0.984,-9.701 -16.928,-1.947 -14,-16 -3.773,1.49 -12.702,1.398 -13,-8 -3.57,-2.535 -5.715,-0.029 -9,0 -2.251,-2.877 1.443,-5.898 -2,-8 -3.056,-0.723 -3.644,1.022 -6,1 -0.127,-1.794 1.224,-2.109 1,-4 -2.813,-0.395 -4.26,4.553 -4,-1 -3.729,-1.062 -1.583,3.75 -5,3 -1.557,-3.92 0.487,-6.237 -1,-9 -3.096,0.237 -3.884,2.783 -6,4 -4.529,-7.629 -10.635,-8.477 -18,-14 -0.261,-2.928 2.261,-3.072 2,-6 -2.188,-2.07 -5.383,0.493 -7,2 -1.837,-1.162 -0.693,-5.308 -5,-4 -1.063,-4.169 -0.259,-4.41 0,-9 -0.92,-2.726 -3.126,1.396 -6,0 -0.612,-8.055 -11.892,-5.441 -12,-14 -5.023,-1.644 -10.327,-3.006 -9,-11 -2.348,0.318 -3.753,1.58 -7,1 -2.19,-2.367 -2.117,-8.104 -7,-5 0.132,-3.465 -0.861,-5.805 -5,-5 2.086,-8.086 -6.755,-5.245 -5,-13 -6.743,-0.617 -13.094,-8.409 -15,-17 -2.6,-1.816 -3.016,0.433 -6,-1 0.802,-3.469 -1.489,-3.844 -1,-7 0.168,-2.169 -3.547,-0.453 -5,-1 -3.769,-11.564 -15.368,-15.299 -20,-26 -6.732,-0.827 -7.174,-10.219 -13,-9 -0.01,-2.656 0.378,-5.711 -1,-7 -8.489,-4.6 -17.936,-14.858 -23,-26 -3.708,0.709 -4.292,-1.709 -8,-1 -0.608,-6.74 -4.87,-15.11 -8,-16 -6.334,-9.752 -9.047,-17.424 -18,-25 4.403,-8.183 -6.225,-10.178 -3,-17 -0.658,-2.995 -2.138,0.956 -4,0 -3.974,-8.224 -3.137,-21.253 -10,-24 -0.164,-3.164 2.658,-3.342 2,-7 -0.256,-2.076 -4.394,-0.273 -5,-2 -3.99,-10.01 -6.578,-21.422 -14,-28 -5.12,-36.312 -20.38,-54.176 -23,-86 -7.197,-2.734 -7.448,-10.69 -5,-19 -3.206,-0.872 -3.127,1.539 -4,3 -3.229,-4.719 -8.019,-12.403 -3,-17 -2.48,-1.298 -4.853,2.231 -5,0 -1.146,-4.146 2.104,-3.896 2,-7 -0.021,-2.979 -4.717,-1.282 -6,-3 2.256,-8.28 -6.096,-8.93 -3,-15 -0.241,-1.759 -1.721,-2.279 -4,-2 1.613,-9.997 -6.393,-20.467 -7,-32 -4.863,-9.786 -11.959,-23.63 -10,-35 -2.622,-3.103 -7.969,-8.107 -4,-12 -10.674,-15.118 -4.878,-31.86 -13,-47 1.108,-1.892 1.276,-4.725 2,-7 -0.658,-2.995 -2.138,0.956 -4,0 -2.066,-2.631 0.824,-15.449 -3,-13 -2.36,-26.085 -6.918,-48.989 6,-74 -1.727,-0.606 0.077,-4.743 -2,-5 0.352,-3.314 2.995,-4.338 5,-6 -0.162,-1.172 -1.823,-0.844 -3,-1 2.473,-9.527 4.049,-19.951 9,-27 -2.844,-11.462 12.574,-27.358 13,-42 2.932,-0.734 4.3,-3.033 6,-5 -2.018,-7.703 5.594,-16.03 13,-21 -0.162,-1.172 -1.823,-0.844 -3,-1 15.403,-18.874 27.131,-50.851 52,-66 2.19,-2.08 -0.877,-3.232 1,-5 118.405,-118.263 319.404,-153.923 497,-213 -80.752,-8.27 -169.153,2.606 -253,-1 -35.291,-1.518 -154.788,-4.783 -174,-11 -37.206,1.591 -69.972,-9.083 -105,-10 -0.91,-1.757 -3.504,-1.829 -5,-3 -39.846,-3.488 -66.836,-19.83 -96,-34 -0.127,-1.794 1.224,-2.109 1,-4 -3.294,-4.04 -12.36,-2.306 -15,-7 3.896,-9.576 -14.658,-8.662 -10,-19 -0.707,-4.003 -4.693,-0.057 -6,-2 1.167,-8.35 -10.646,-8.438 -8,-15 -10.223,-7.11 -12.466,-22.201 -22,-30 4.948,-6.158 -7.448,-12.435 0,-17 -12.275,-5.392 -9.31,-26.024 -20,-33 2.56,-2.516 1.729,-7.511 -3,-8 -0.182,-2.182 0.818,-3.182 3,-3 -1.141,-3.578 -7.865,-5.11 -3,-9 -2.116,-1.218 -2.904,-3.763 -6,-4 -0.473,-3.14 2.691,-2.642 3,-5 -9.05,-14.202 -4.976,-25.96703 -14,-40.00003 -0.473,-3.14 2.691,-2.642 3,-5 -1.223,-3.048 -3.816,1.462 -5,-1 -1.299,-5.919 0.701,-9.205 -4,-12 -1.069,-3.736 2.483,-2.85 2,-6 -3.104,-1.892 -6.116,-5.789 -4,-10 -0.691,-1.975 -2.667,-2.666 -5,-3 -2.96,-15.154 -9.087,-22.662 -11,-35 -0.31,-1.357 -2.504,-0.83 -4,-1 4.334,-5.804 -5.93,-15.624 -4,-22 -2.729,-1.604 -4.287,-4.38 -9,-4 -0.689,-2.689 2.067,-1.933 3,-3 -2.378,-2.901 -6.688,-2.33 -4,-8 -0.91,-1.757 -3.504,-1.829 -5,-3 0.154,-6.278 -3.957,-13.068 -6,-18 -1.165,-2.813 -3.238,-1.5 -4,-3 -0.222,-0.438 1.743,-2.377 2,-2 -2.95,-4.328 -11.521,-5.459 -8,-13 -8.595,-11.096 -4.733,-20.843 -14,-30 -0.726,-3.059 1.726,-2.941 1,-6 -7.112,-6.057 -6.29,-13.985 -8,-22 -0.565,-2.646 -4.673,-6.309 -5,-9 -0.271,-2.228 1.62,-6.885 2,-9 -0.112,-2.555 -3.349,-1.985 -6,-2 -0.032,-3.032 5.032,-0.968 5,-4 -1.84,-8.827 -10.313,-11.02 -10,-22 -9.449,-5.884 -7.913,-22.753 -16,-30 -0.152,-3.152 4.055,-1.945 5,-4 -0.08,-3.587 -6.538,-0.795 -8,-3 -2.343,-10.366 -1.033,-19.427 -9,-23 -0.473,-3.14 2.691,-2.642 3,-5 -4.368,-10.632 -13.113,-16.887 -16,-29 -3.18,-0.487 -1.618,-5.715 -6,-5 2.042,-10.827 -8.46,-10.795 -3,-18 -0.691,-1.975 -2.667,-2.666 -5,-3 0.138,-1.862 0.658,-3.342 2,-4 -5.755,-5.697 -3.287,-13.428 -9,-19 -0.778,-16.889 -12.069,-23.264 -14,-39 2.319,0.319 3.839,-0.161 5,-1 1.053,-3.719 -3.373,-1.961 -4,-4 -0.854,-3.188 0.871,-3.796 2,-5 -7.762,-9.625 1.697,-22.424 -9,-29 4.18,-9.011 1.296,-15.447 0,-22 0.168,-2.168 -3.547,-0.453 -5,-1 1.387,-6.903 0.032,-11.312 -5,-14 -0.149,-7.719 1.957,-14.599 -1,-24 -1.002,-3.328 -4.036,0.268 -6,-3 1.98,-2.915 3.891,-10.005 -2,-10 3.401,-5.597 -3.061,-11.731 0,-19 -2.738,-0.928 -3.532,-3.801 -6,-5 0.839,-17.411 -7.5210003,-31.565 -3,-45 -1.2230003,-1.444 -3.8160003,-1.517 -5.0000003,-3 6.6110003,-12.402 -7.657,-30.584 -2,-42 0.16,-2.827 -3.00399998,-2.329 -2.99999998,-5 -0.729,-4.729 1.42599998,-6.574 2.99999998,-9 -0.4,-2.6 -2.98399998,-3.016 -2.99999998,-6 5.22999998,-5.997 -2.81300002,-15.752 1.99999998,-22 -6.298,-10.668 2.874,-21.059 0,-32 -0.168,-3.502 3.519,-3.148 5,-5 -3.229,-9.344 -3.729,-24.037 0,-34 0.493,-3.16 -4.962,-0.371 -4,-4 1.161,-0.839 2.681,-1.319 5,-1 0.877,-3.21 -2.593,-2.073 -3,-4 6.3450003,-8.297 0.193,-17.231 4,-25 1.2710003,-2.593 3.3360003,-1.785 4.0000003,-4 1.26,-4.205 -0.95,-9.996 0,-13 0.546,-1.728 6.166,-3.829 1,-5 2.027,-5.212 6.805,-5.68 3,-12 5.576,-0.624 4.944,-5.176 6,-12 3.336,0.003 3.414,-3.253 7,-3 1.426,-4.426 -3.384,-2.616 -3,-6 2.09,0.423 2.648,-0.686 4,-1 -4.461,-5.189 4.465,-7.98 1,-15 5.536,-1.464 2.367,-11.633002 9,-12.000002 -2.417,-6.648 6.377,-10.119 6,-18 12.035,-13.632 23.173,-28.16 37,-40 2.333,0 4.667,0 7,0 2.045,-1.621 -0.045,-7.379 2,-9 2,0 4,0 6,0 11.936,-8.122 28.925,-14.195 45,-17.0000003 23.427,-4.088 53.443,-9.145 79,-7.00000005 3.377,0.283 6.766,2.54100005 10,3.00000005 31.158,4.427 60.198,5.423 91,12.0000003 7.953,1.698 80.312,23.023 106,33 70.339,27.319 195.944,94.723002 199,94.000002 52.902,36.765 110.054,69.278 159,110 1.333,0 93.768,76.899 95,79 84.271,64.065 317.38498,293.616 338.99998,312 z"
   id="path3"
   style="fill-rule:evenodd" />
</svg>
