<?xml version="1.0" encoding="UTF-8" standalone="no"?>
<!-- Created with Inkscape (http://www.inkscape.org/) -->

<svg
   version="1.1"
   width="210.76106mm"
   height="96.012863mm"
   viewBox="0 0 210.76106 96.012863"
   id="svg135"
   xmlns="http://www.w3.org/2000/svg"
   xmlns:svg="http://www.w3.org/2000/svg">
  <defs
     id="defs129" />
  <g
     transform="translate(21.486882,-119.07511)"
     id="layer1">
    <path
       d="m 124.62524,212.48266 c 1.84159,0.10983 4.84058,-0.13866 5.96735,-0.13866 2.1403,0 7.72694,0.54266 9.35491,0 4.52991,-1.50997 9.19765,-1.88988 14.3631,-1.88988 2.05364,0 11.72694,2.06919 13.22916,0.56697 2.22814,0.13797 5.40967,0.7166 7.55953,-10e-6 0.54888,-0.18297 1.07982,-0.7289 1.70089,-1.03944 0.29964,-0.14982 1.24345,-2.49836 1.88987,-2.92931 0.20324,0.40649 2.38456,0.4206 2.64075,-0.0918 0.39225,-0.78452 -0.32151,-2.09651 0.0668,-2.87315 0.29654,-0.59309 0.24527,-1.27037 0.46772,-1.93771 0.3576,-1.07281 1.25054,-1.94755 1.60361,-3.00678 0.25801,-0.77402 0.2439,-2.51568 0.80181,-3.0736 0.13458,-0.13458 0.26624,-0.39987 0.40091,-0.53454 0.66021,-0.66021 3.63774,0.80942 4.34313,-0.60135 0.99253,-1.98506 -4.53395,-1.85163 -5.01131,-2.80633 -0.16387,-0.32775 -0.0286,-0.79218 -0.20045,-1.1359 -1.08806,-2.17611 -2.20464,-4.54291 -3.40768,-6.94901 -0.8251,-1.30409 -1.9346,-4.88659 -2.60588,-5.61266 0,0 0.28639,-3.59964 0.14465,-5.44228 -0.14174,-1.84263 -0.28348,-6.18936 0,-8.07924 0.28348,-1.88988 3.9215,-16.20573 5.05543,-19.18229 1.13393,-2.97656 3.9215,-12.94569 4.44122,-13.60714 0.51972,-0.66146 1.37016,-0.99219 1.46466,-1.6064 0.0945,-0.61421 0,-2.12612 -0.85045,-2.26786 -0.85044,-0.14174 -2.26786,-0.18899 -2.92931,0.51972 -0.66146,0.7087 -0.42523,1.41741 -0.66146,1.93713 -0.23624,0.51971 -4.29948,9.82738 -6.09487,15.35528 -1.79538,5.5279 -6.3311,18.1901 -6.75632,19.65476 -0.42523,1.46466 -1.6064,4.53571 -2.45685,5.14993 -0.0665,0.0976 -0.18221,0.0793 -0.25986,0.11811 l -0.0871,0.009 c -0.0708,-0.8563 -0.11188,-1.79898 -0.1255,-2.82013 -0.0473,-3.54353 0.89769,-11.57553 1.37016,-13.41816 0.47247,-1.84263 0.86226,-5.16174 0.98038,-6.88625 0,0 1.32503,-0.98215 1.46466,-1.57096 0.13963,-0.58881 0.0118,-1.67728 -0.93313,-2.17337 -0.64965,-0.29532 -1.84263,-0.56696 -2.76395,0.16537 -0.92132,0.73232 -0.57287,2.52771 -0.57287,2.52771 0,0 -0.58805,0.79607 -1.24614,3.82701 -0.99219,3.73251 -3.82701,14.31585 -4.20499,15.82775 -0.26926,1.07704 -0.2508,3.83244 -0.33747,5.68708 l -0.22949,0.12431 c 0,0 -1.98437,1.13393 -3.68527,1.22842 -1.70089,0.0945 -4.86644,0 -5.5279,0 -0.51221,0.15881 -1.33667,0.064 -1.74814,-0.14174 -0.44929,-0.22464 -1.16332,-0.60529 -1.65365,-0.85045 -0.57597,-0.28798 -1.54199,0.16321 -2.17336,-0.0473 -1.03512,-0.34504 -1.783,-0.51971 -2.92931,-0.51971 -0.75955,0 -1.52398,0.38677 -2.31511,0.18899 -3.52505,-1.53319 -9.17403,0.0804 -11.91805,-1.44094 l -0.0632,-0.0368 c 0.98436,-0.67565 1.89494,-1.45345 2.34284,-2.34923 0.0926,-0.18514 -0.36005,-2.89346 -0.47247,-3.11831 -0.14901,-0.29801 -1.07446,-0.51526 -1.27186,-0.413 l -0.004,0.0823 c -0.51589,-0.13968 -0.29867,-0.96012 -0.56697,-1.22842 -0.67153,-0.67153 -1.5852,-1.01823 -2.3151,-1.74814 -0.7845,-0.7845 -0.60725,-2.54437 -1.41741,-3.35454 -1.08125,-1.08124 -2.71108,-4.052 -3.40179,-5.43341 -0.42522,-0.61421 -5.62239,-9.54389 -7.9375,-12.09523 -2.3151,-2.55134 -5.85863,-8.50447 -16.016736,-13.79613 -10.158111,-5.29167 -18.001116,-7.89026 -28.206474,-7.98475 -10.205357,-0.0945 -18.804315,1.5119 -24.662946,3.68527 -5.858631,2.17336 -16.961681,9.16592 -20.31622,12.99293 -3.354539,3.82701 -8.457217,10.48884 -10.441592,15.49702 -1.984375,5.00819 -4.677456,13.08743 -4.582962,18.33185 0.09449,5.24442 0.425224,15.44977 4.488468,21.96986 1.717854,2.75656 3.233027,5.24287 4.860796,7.48708 -5.203084,1.73071 -12.0300676,2.9307 -17.0503299,4.9388 -1.5697914,0.62792 -3.43818892,0.63241 -5.0081841,1.41741 -0.9442264,0.47221 -2.4445647,-0.006 -3.4017849,0.47247 -0.7543641,0.37717 -1.7627838,0.20962 -2.55134,0.47247 -2.0623635,0.68746 -4.5142111,0.8397 -6.4255951,1.79539 -1.279556,0.63978 -8.391466,1.45441 -6.992559,4.25223 0.307772,0.61556 9.817246,0.66146 11.2447926,0.66146 14.1344701,0 28.4931164,-0.62726 42.1443434,1.32292 4.822664,0.68896 10.1845,-0.6919 14.835566,0.0945 2.265352,-0.31881 6.003782,0.80206 8.126489,0.0945 0.99075,-0.33025 3.711316,-0.0804 4.44122,-0.56696 0.705857,-0.47057 1.985869,-0.20819 2.834821,-0.37798 1.720564,-0.34411 3.496974,-0.66157 5.197173,-0.94494 0.9776,-0.16293 2.084099,0.21875 3.023809,-0.0945 2.063763,-0.68792 4.879231,0.24531 7.087054,0 2.607003,-0.28967 5.134344,-0.57149 7.748512,-0.94494 1.926779,-0.27526 9.317171,-0.36852 11.528273,0 0.941096,0.15685 1.987053,0.37797 2.929316,0.37797 l 1.08665,0.0472 c 1.00761,-0.16822 2.07125,-0.0808 3.07106,-0.33073 0.95213,-0.23803 5.14932,0.23624 6.52009,0.23624 2.39328,0 5.65703,-0.40885 7.9375,0.0472 0.78745,0.15749 1.66939,-0.15749 2.45684,0 1.17523,0.23505 2.24398,0.33073 3.49628,0.33073"
       id="path4544"
       style="color:#000000;display:inline;overflow:visible;visibility:visible;fill:#B6BEC1;fill-opacity:1;fill-rule:evenodd;stroke:#000000;stroke-width:0.282;stroke-linecap:round;stroke-linejoin:round;stroke-miterlimit:4;stroke-dasharray:none;stroke-dashoffset:0;stroke-opacity:1;marker:none;enable-background:accumulate" />
    <path
       d="m 169.67115,201.61513 c 0.39571,0.23175 1.19027,-0.0187 1.46998,0.40091 0.61088,0.91631 1.12572,1.58835 1.73726,2.50565 0.63717,0.95576 0.76782,2.10417 1.70384,3.04019 0.14547,0.14547 0.47854,0.10023 0.70158,0.10023 0.27585,0 0.95131,-0.0652 1.06908,-0.30068 0.45648,-0.91295 0.89776,-2.68125 0.33409,-3.80859 -0.75866,-1.51732 -1.77066,-1.44332 -1.77066,-3.64155 m -74.36775,-17.10525 c 2.61266,1.34834 1.93952,5.33771 0.30068,7.24969 -0.4988,0.58193 -1.916103,1.9102 -2.572468,2.23838 -0.621586,0.31079 -1.263412,0.51273 -1.770661,0.93544 -0.287184,0.23932 -0.756028,0.23866 -1.069078,0.43431 -0.218416,0.13652 -0.413226,0.3382 -0.701582,0.43432 -1.055156,0.35172 -2.038199,-0.42589 -3.073601,-0.16704 -0.677405,0.16935 -1.108234,0.73786 -1.703843,1.03567 -0.509843,1.0228 -1.833074,1.88539 -2.873145,2.40542 -1.732974,0.86649 -3.594182,1.36045 -5.211756,2.43884 -0.69649,0.46432 -1.317818,0.80805 -2.059353,1.05523 m 6.142798,-13.27471 c 4.830669,-4.83067 15.886389,-8.26626 22.409649,-9.89708 6.29314,-1.23113 22.51746,-5.38605 22.41915,-12.91608 0.1974,-0.10226 1.12285,0.11499 1.27186,0.413 0.11242,0.22485 0.56503,2.93317 0.47247,3.11831 -0.73955,1.47908 -2.74054,2.6365 -4.25224,3.54352 -0.321,0.19261 -0.59281,0.65076 -0.89769,0.8032 -0.19887,0.0994 -0.77807,0.35285 -0.94494,0.51972 -1.61519,1.61519 -3.68691,3.11912 -5.76414,4.15774 -0.74615,0.37307 -4.64378,-0.17541 -5.19717,0.37797 -0.26869,0.26869 -9.2224,2.88207 -9.96912,2.88207 -3.39119,2.80296 -9.510396,2.32227 -11.859005,6.23661 -0.387275,0.64546 -1.13462,0.85183 -1.464656,1.5119 -0.244586,0.48918 -0.246452,1.05987 -0.519719,1.6064 m 9.40216,22.25335 c 1.00761,-0.16822 2.07125,-0.0808 3.07106,-0.33073 0.95213,-0.23803 5.14932,0.23624 6.52009,0.23624 2.39328,0 5.65703,-0.40885 7.9375,0.0472 0.78745,0.15749 1.66939,-0.15749 2.45684,0 1.17523,0.23505 2.24398,0.33073 3.49628,0.33073 m 45.35714,-36.85264 c -0.8032,-1.32291 -1.18117,-3.9215 -1.22842,-7.46502 -0.0473,-3.54353 0.89769,-11.57553 1.37016,-13.41816 0.47247,-1.84263 0.86226,-5.16174 0.98038,-6.88625 0,0 1.32503,-0.98215 1.46466,-1.57096 0.13963,-0.58881 0.0118,-1.67728 -0.93313,-2.17337 -0.64965,-0.29532 -1.84263,-0.56696 -2.76395,0.16537 -0.92132,0.73232 -0.57287,2.52771 -0.57287,2.52771 0,0 -0.58805,0.79607 -1.24614,3.82701 -0.99219,3.73251 -3.82701,14.31585 -4.20499,15.82775 -0.37798,1.51191 -0.18899,6.3311 -0.51972,7.32329 -0.33072,0.99219 -1.74813,2.59859 -1.55915,3.49628 M 20.255286,199.18373 c -5.193456,1.73115 -12.0204396,2.93114 -17.0407019,4.93924 -1.5697914,0.62792 -3.43818892,0.63241 -5.0081841,1.41741 -0.9442264,0.47221 -2.4445647,-0.006 -3.4017849,0.47247 -0.7543641,0.37717 -1.7627838,0.20962 -2.55134,0.47247 -2.0623635,0.68746 -4.5142111,0.8397 -6.4255951,1.79539 -1.279556,0.63978 -8.391466,1.45441 -6.992559,4.25223 0.307772,0.61556 9.817246,0.66146 11.2447926,0.66146 14.1344701,0 28.4931164,-0.62726 42.1443434,1.32292 4.822664,0.68896 10.1845,-0.6919 14.835566,0.0945 2.265352,-0.31881 6.003782,0.80206 8.126489,0.0945 0.99075,-0.33025 3.711316,-0.0804 4.44122,-0.56696 0.705857,-0.47057 1.985869,-0.20819 2.834821,-0.37798 1.720564,-0.34411 3.496974,-0.66157 5.197173,-0.94494 0.9776,-0.16293 2.084099,0.21875 3.023809,-0.0945 2.063763,-0.68792 4.879231,0.24531 7.087054,0 2.607003,-0.28967 5.134344,-0.57149 7.748512,-0.94494 1.926779,-0.27526 9.317171,-0.36852 11.528273,0 0.941096,0.15685 1.987053,0.37797 2.929316,0.37797 2.49447,0.20746 4.71488,-0.60929 6.52009,-1.5119 0.37425,-0.18713 2.32097,-2.79344 2.83482,-3.30729 0.0702,-0.0702 0.65561,0 0.75595,0 2.9674,0 2.56937,2.93833 4.63021,3.96875 2.45128,1.22564 6.11215,-0.29847 8.59896,0.94494 1.0525,0.52625 5.79078,0.0945 7.27604,0.0945 2.1403,0 7.72694,0.54266 9.35491,0 4.52991,-1.50997 9.19765,-1.88988 14.3631,-1.88988 2.05364,0 11.72694,2.06919 13.22916,0.56697 2.22814,0.13797 5.40967,0.7166 7.55953,-1e-5 0.54888,-0.18297 1.07982,-0.7289 1.70089,-1.03944 0.29964,-0.14982 1.24345,-2.49836 1.88988,-2.92931 0.0888,-0.91346 0.70305,-1.35495 0.70305,-2.29675 0,-0.41984 -0.15496,-1.04775 0.0668,-1.26953 0.16443,-0.16442 0.036,-0.8326 0.20045,-0.66817 0.27588,0.27587 -0.40002,1.80319 -0.53454,1.9377 -0.51174,0.51175 0.0263,1.37912 -0.26726,2.00452 -0.0478,0.10179 -0.21881,0.19166 -0.16852,0.29223 0.20325,0.40649 2.38457,0.4206 2.64076,-0.0918 0.39225,-0.78452 -0.32151,-2.09651 0.0668,-2.87315 0.29654,-0.59309 0.24527,-1.27037 0.46772,-1.93771 0.3576,-1.07281 1.25054,-1.94755 1.60361,-3.00678 0.25801,-0.77402 0.2439,-2.51568 0.80181,-3.0736 0.13458,-0.13458 0.26624,-0.39987 0.40091,-0.53454 0.66021,-0.66021 3.63774,0.80942 4.34313,-0.60135 0.99253,-1.98506 -4.53395,-1.85163 -5.01131,-2.80633 -0.16387,-0.32775 -0.0286,-0.79218 -0.20045,-1.1359 -1.08806,-2.17611 -2.20464,-4.54291 -3.40768,-6.94901 -0.8251,-1.30409 -1.9346,-4.88659 -2.60588,-5.61266 0,0 0.28639,-3.59964 0.14465,-5.44228 -0.14174,-1.84263 -0.28348,-6.18936 0,-8.07924 0.28348,-1.88988 3.9215,-16.20573 5.05543,-19.18229 1.13393,-2.97656 3.9215,-12.94569 4.44122,-13.60714 0.51972,-0.66146 1.37016,-0.99219 1.46466,-1.6064 0.0945,-0.61421 0,-2.12612 -0.85045,-2.26786 -0.85044,-0.14174 -2.26786,-0.18899 -2.92931,0.51972 -0.66146,0.7087 -0.42523,1.41741 -0.66146,1.93713 -0.23624,0.51971 -4.29948,9.82738 -6.09487,15.35528 -1.79538,5.5279 -6.3311,18.1901 -6.75632,19.65476 -0.42523,1.46466 -1.6064,4.53571 -2.45685,5.14993 -0.0665,0.0976 -0.18221,0.0793 -0.25986,0.11811 m -6.68545,1.2993 c 0,0 -1.98437,1.13393 -3.68527,1.22842 -1.70089,0.0945 -4.86644,0 -5.5279,0 -0.51221,0.15881 -1.33667,0.064 -1.74814,-0.14174 -0.44929,-0.22464 -1.16332,-0.60529 -1.65365,-0.85045 -0.57597,-0.28798 -1.54199,0.16321 -2.17336,-0.0473 -1.03512,-0.34504 -1.783,-0.51971 -2.92931,-0.51971 -0.75955,0 -1.52398,0.38677 -2.31511,0.18899 -3.52505,-1.53319 -9.17403,0.0804 -11.91805,-1.44094 m 0.53152,-5.83506 c -0.51589,-0.13968 -0.29867,-0.96012 -0.56697,-1.22842 -0.67153,-0.67153 -1.5852,-1.01823 -2.3151,-1.74814 -0.7845,-0.7845 -0.60725,-2.54437 -1.41741,-3.35454 -1.08125,-1.08124 -2.71108,-4.052 -3.40179,-5.43341 -0.42522,-0.61421 -5.62239,-9.54389 -7.9375,-12.09523 -2.3151,-2.55134 -5.85863,-8.50447 -16.016736,-13.79613 -10.158111,-5.29167 -18.001116,-7.89026 -28.206474,-7.98475 -10.205357,-0.0945 -18.804315,1.5119 -24.662946,3.68527 -5.858631,2.17336 -16.961681,9.16592 -20.31622,12.99293 -3.354539,3.82701 -8.457217,10.48884 -10.441592,15.49702 -1.984375,5.00819 -4.677456,13.08743 -4.582962,18.33185 0.09449,5.24442 0.425224,15.44977 4.488468,21.96986 4.063244,6.52009 6.992559,11.52828 13.087425,15.40253 6.094866,3.87426 11.386534,6.6146 21.402902,6.00038 9.864575,-0.60491 22.767001,-5.51897 29.249519,-11.5362 0,0 4.533021,-4.25831 6.303682,-11.57481 1.770661,-7.3165 2.405426,-21.18111 1.603617,-25.69128 -0.801808,-4.51018 -5.512434,-20.54635 -16.904797,-25.05652 -11.392364,-4.51017 -19.777945,-6.64833 -27.929666,-2.3052 -8.15172,4.34313 -13.764381,8.81989 -17.10525,18.30796 -3.340869,9.48807 -1.336347,17.63979 1.737252,21.9161 3.0736,4.27632 16.637528,7.95127 22.918362,3.47451 6.280834,-4.47677 10.690782,-9.95579 11.091686,-16.57071 0.400904,-6.61492 -1.002261,-14.29892 -6.080382,-16.23663 -5.078121,-1.9377 -10.156242,-3.0736 -14.833459,-0.4009 -4.677217,2.67269 -7.884451,5.47902 -8.886712,9.35443 -1.00226,3.87541 0.06682,8.8199 3.407687,10.89124 3.340869,2.07133 5.412208,2.27179 6.481286,2.07133 1.069078,-0.20045 5.479025,-2.67269 6.347651,-4.14267 0.39057,-1.04444 1.113692,-1.7842 1.560089,-2.67699 0.189757,-0.37952 0.145505,-0.90899 0.283483,-1.32292 0.92281,-2.76843 0.154247,-5.07767 -0.992188,-7.37054 -0.108661,-0.21732 -0.454279,-0.31253 -0.566964,-0.42522 -2.183722,-2.18372 -4.21862,-3.21052 -7.890253,-2.59859 -0.949936,0.15833 -1.284229,0.94922 -1.937128,1.27567 -2.273398,1.1367 -4.29187,3.99919 -3.543527,6.99256 0.523163,2.09266 2.243464,2.49922 4.157738,2.88207 0.462412,0.0925 1.142416,0.18333 1.559152,-0.0945 0.865034,-0.57669 1.475378,-1.14465 2.173363,-1.84264 0.755519,-0.75552 0.628716,-3.05655 -0.04725,-3.73251 -0.387161,-0.27102 -0.508049,-0.84435 -0.903714,-1.04218 -1.537915,-0.76896 -2.80633,0.33287 -2.80633,1.77066"
       id="path4524"
       style="color:#000000;display:inline;overflow:visible;visibility:visible;fill:none;stroke:#B6BEC1;stroke-width:0.282;stroke-linecap:round;stroke-linejoin:round;stroke-miterlimit:4;stroke-dasharray:none;stroke-dashoffset:0;stroke-opacity:1;marker:none;enable-background:accumulate" />
  </g>
</svg>
