<?xml version="1.0" encoding="UTF-8" standalone="no"?>
<!-- Created with Inkscape (http://www.inkscape.org/) -->

<svg
   version="1.1"
   width="273.81604"
   height="551.38483"
   viewBox="0 0 273.81604 551.38483"
   id="Layer_1"
   xml:space="preserve"
   xmlns="http://www.w3.org/2000/svg"
   xmlns:svg="http://www.w3.org/2000/svg"><defs
   id="defs14" />
<g
   id="g3"
   transform="translate(-247.16395,-40.853916)">
	<g
   id="XMLID_4_">
		<g
   id="g6">
			<path
   d="m 354.049,155.767 c 0.362,-5.355 2.82,-11.089 4.206,-16.304 1.449,-5.844 5.072,-10.192 6.506,-15.878 1.134,-5.608 0.016,-12.696 1.528,-18.587 2.205,-8.16 11.846,-21.014 9.782,-29.567 -0.819,-3.371 -2.883,-2.725 -4.489,-5.482 -1.749,-2.521 -5.388,-4.048 -5.577,-6.947 -0.646,-5.324 2.662,-12.665 11.357,-11.704 6.49,0.788 10.113,7.419 15.563,2.253 11.326,-4.159 20.179,-12.728 33.537,-12.697 11.625,0 23.912,-0.031 32.906,7.356 6.553,0.882 10.885,-4.127 16.839,-5.545 6.538,-1.512 10.917,4.458 12.161,10.806 0.992,5.135 -0.913,14.099 -6.647,15.958 -0.63,0.205 3.67,22.227 3.34,24.857 -0.992,9.845 -1.985,19.77 -2.978,29.678 -0.992,10.365 -0.992,20.84 -0.992,31.378 0,9.924 2.284,17.454 6.332,26.086 2.6,5.151 2.931,11.153 5.576,16.178 2.978,5.372 6.884,9.845 9.94,14.917 1.984,3.229 2.048,6.285 3.308,10.034 1.749,5.592 5.214,10.286 6.38,16.288 1.229,5.214 0.552,10.271 0.93,15.658 0.992,10.822 6.584,19.218 7.34,30.071 0.851,9.231 -5.056,14.319 -7.971,22.258 -3.449,10.098 -10.002,17.107 -18.193,23.96 -4.71,4.063 -3.718,6.19 -2.348,12.113 3.561,13.783 4.301,28.937 0.693,42.783 -1.071,4.741 -0.079,9.609 -1.071,14.335 -2.93,13.688 -0.362,29.078 -0.362,43.461 0,4.269 0,7.655 1.354,11.247 0.662,1.796 1.733,2.583 2.316,5.135 1.922,8.459 -0.614,19.171 -0.646,27.913 -0.016,8.9 1.575,16.808 2.978,25.472 1.308,6.853 0.552,13.799 2.269,20.683 2.583,10.539 0.771,21.062 4.048,31.489 1.717,5.45 4.222,11.105 4.931,16.792 1.276,8.9 -0.961,10.396 -9.31,9.955 -5.876,-0.252 -10.916,-0.22 -16.509,-0.992 -2.174,-0.314 -7.309,-0.977 -10.333,-2.174 l -0.016,0.032 c -10.507,1.812 -8.097,-23.251 -8.191,-28.639 -0.016,-9.372 -1.56,-19.06 -5.293,-27.708 -3.749,-8.428 -10.885,-13.642 -15.926,-20.888 -6.915,-9.499 -17.848,-13.673 -28.37,-17.926 -4.269,-1.701 -10.097,-5.797 -14.917,-5.403 -5.624,0.441 -8.254,4.584 -12.618,7.529 -2.269,1.434 -4.852,0.914 -7.167,2.001 -3.56,1.56 -9.956,4.631 -13.295,6.71 -3.056,2.048 -6.065,9.373 -8.443,12.508 -5.183,6.711 -9.483,13.5 -11.483,21.628 -2.315,9.073 -4.521,18.367 -9.515,26.433 -2.41,3.97 -1.433,4.379 -6.71,5.403 -2.977,0.614 -6.663,0.977 -9.924,1.008 -8.317,0.205 -26.496,0.992 -33.111,-3.654 -4.395,-1.497 -1.922,-8.176 0.252,-10.334 3.78,-4.158 11.121,-5.876 14.319,-9.987 3.308,-4.189 4.017,-16.035 4.348,-21.171 0.583,-7.277 -1.04,-14.744 0.284,-21.99 1.04,-6.316 2.095,-11.846 2.583,-18.43 0.142,-5.12 1.465,-10.098 2.379,-15.107 1.04,-7.419 2.977,-14.46 4.08,-22.1 1.213,-8.019 1.512,-16.052 2.978,-23.96 1.89,-9.263 5.529,-18.162 7.183,-27.456 5.292,-29.236 9.262,-60.993 6.049,-90.86 -6.979,-0.473 -13.327,-0.094 -19.958,-2.819 -3.623,-1.386 -10.885,-13.169 -15.264,-11.83 -2.898,0.866 -7.593,13.326 -10.554,15.216 -3.875,2.505 -35.979,29.457 -37.585,19.927 -4.017,-4.914 -0.047,-13.373 3.198,-17.705 4.379,-5.86 7.577,-9.625 9.404,-17.17 1.449,-5.702 0.362,-9.373 3.922,-14.445 3.292,-4.931 7.577,-10.239 11.672,-14.54 6.348,-6.333 14.839,-10.097 20.888,-16.099 5.781,-5.923 12.177,-13.799 15.894,-21.124 2.174,-4.3 3.198,-9.121 5.057,-13.516 2.536,-5.561 7.23,-9.845 10.901,-14.477 3.938,-4.82 6.427,-10.948 10.774,-15.469 4.3,-4.489 12.665,-9.546 14.208,-15.799 0.958,-3.622 -0.853,-7.387 -0.727,-11.026 z"
   id="path8" />
		</g>
		<g
   id="g10">
		</g>
	</g>
</g>
</svg>
