<?xml version="1.0" encoding="UTF-8" standalone="no"?>
<!-- Created with Inkscape (http://www.inkscape.org/) -->

<svg
   version="1.1"
   id="svg2"
   width="547.16412"
   height="388.81186"
   viewBox="0 0 547.16413 388.81186"
   xmlns="http://www.w3.org/2000/svg"
   xmlns:svg="http://www.w3.org/2000/svg">
  <defs
     id="defs6" />
  <g
     id="g8"
     transform="translate(-3.6016344,-2.8733172)">
    <path
       style="fill:#ACB5BA;stroke-width:1.33333"
       d="m 410.44229,387.98948 c -4.03334,-2.01709 -10.03334,-4.49328 -13.33334,-5.50263 -3.3,-1.00936 -10.30579,-3.23505 -15.56843,-4.94598 -5.26262,-1.71094 -10.5514,-3.11079 -11.75282,-3.11079 -4.90138,0 -15.38374,-5.68845 -16.15658,-8.76767 -2.1134,-8.42049 8.47051,-24.32208 22.06583,-33.15234 4.80993,-3.1241 9.37581,-5.92012 10.14639,-6.21342 1.25796,-0.47877 9.47892,-6.3546 24.99745,-17.86657 2.96568,-2.2 5.62968,-4.72132 5.92002,-5.60295 0.75114,-2.28089 -8.37059,-10.75657 -11.24896,-10.45224 -2.55748,0.2704 -7.77826,2.41955 -21.73623,8.94778 -9.2444,4.32365 -11.69362,5.3559 -18,7.58633 -9.81458,3.47117 -41.03443,8.01339 -59.5342,8.66169 -7.29932,0.25579 -13.8621,1.05568 -14.58395,1.77754 -0.86107,0.86106 -0.78878,4.4835 0.21016,10.53233 1.63509,9.90085 0.48219,17.56548 -3.39808,22.59072 -1.98271,2.56776 -2.07008,2.57015 -3.97511,0.10867 -1.24889,-1.6137 -1.91717,-5.44131 -1.86235,-10.66667 0.0471,-4.4824 -0.65352,-10.84981 -1.55678,-14.14981 -2.74128,-10.01502 -3.14028,-20.6356 -0.8609,-22.91499 2.8228,-2.8228 53.13473,-10.59005 81.52138,-12.58544 6.98857,-0.49129 12.70649,-1.40467 12.70649,-2.02976 0,-0.62509 -4.46458,-1.13653 -9.9213,-1.13653 -5.45672,0 -10.27796,-0.57708 -10.71387,-1.28239 -0.47519,-0.76885 -2.00104,-0.82292 -3.81035,-0.13503 -1.65978,0.63106 -13.03538,2.50588 -25.27912,4.16628 -17.48524,2.37122 -22.97797,2.69238 -25.60166,1.49694 -4.46848,-2.03598 -4.23546,-4.2458 0.44773,-4.2458 2.08345,0 6.73345,-0.89351 10.33333,-1.98558 3.59988,-1.09205 7.82878,-1.99205 9.39754,-2 1.56874,-0.008 4.26874,-1.19446 6,-2.63673 3.22305,-2.68508 1.61669,-3.65161 -2.53706,-1.52653 -3.70716,1.89661 -17.50932,4.42522 -27.9819,5.12641 -7.95593,0.53268 -9.66667,0.29639 -9.66667,-1.33525 0,-1.09036 -0.9,-2.7294 -2,-3.64232 -3.19488,-2.65152 -2.37054,-4.73376 3.38088,-8.53987 2.95949,-1.95849 5.07642,-4.05352 4.70432,-4.65561 -0.37211,-0.60208 -4.84212,-1.19983 -9.93336,-1.32831 -5.09124,-0.12853 -14.21006,-0.79853 -20.26404,-1.48901 -9.19176,-1.04834 -11.62963,-1.8517 -14.78086,-4.87076 -2.07548,-1.98844 -3.77361,-4.00812 -3.77361,-4.48818 0,-1.47632 9.99513,-3.9616 15.93247,-3.9616 3.65138,0 5.44352,-0.53869 5.11098,-1.53629 -0.57921,-1.73764 -11.76592,-4.98237 -17.48481,-5.07153 -3.56148,-0.0555 -20.54956,7.56422 -24.89197,11.16492 -2.1112,1.75058 -11.46034,7.24177 -21.09539,12.39032 -3.16912,1.69345 -9.65975,5.80334 -14.42362,9.13312 -4.76386,3.32976 -10.21062,6.64308 -12.10393,7.3629 -1.89329,0.71983 -5.30267,2.83412 -7.57637,4.69842 -5.57287,4.56938 -38.42582,26.06681 -54.30078,35.53186 -7.05838,4.20839 -13.658385,8.6569 -14.666665,9.88558 -1.00829,1.22868 -6.03325,5.00121 -11.16658,8.3834 -5.13334,3.38218 -14.38638,9.91658 -20.56231,14.52088 -11.889955,8.8642 -18.577279,12.84128 -19.70162,11.71694 -0.881412,-0.88141 6.500976,-7.34178 17.90489,-15.66866 11.92424,-8.70682 24.10873,-18.0614 36.35904,-27.9145 9.234385,-7.42734 48.103955,-33.40113 68.734945,-45.93069 16.86752,-10.24395 44.12392,-28.14529 51.99635,-34.14993 4.36445,-3.32898 8.98537,-6.43826 10.2687,-6.90952 3.40408,-1.25006 2.92016,-6.11678 -0.74685,-7.51096 -1.69409,-0.64411 -8.74309,-1.85963 -15.66441,-2.70119 -6.92134,-0.84155 -14.3044,-2.38821 -16.40682,-3.43704 -2.1024,-1.04881 -6.90341,-2.27055 -10.66891,-2.71495 -3.76549,-0.4444 -8.64634,-1.3148 -10.84634,-1.93421 -2.2,-0.61943 -8.19126,-1.5192 -13.3139,-1.99952 -5.12265,-0.48032 -9.68264,-1.10119 -10.1333,-1.37972 -0.45068,-0.27853 -8.85943,-1.71927 -18.68611,-3.20164 -9.82668,-1.48236 -22.66669,-3.57108 -28.53336,-4.64159 -5.866665,-1.07052 -15.166665,-2.62448 -20.666665,-3.45325 -5.5,-0.82879 -12.69677,-2.10588 -15.99283,-2.838 -3.29606,-0.73212 -10.19606,-1.887 -15.333335,-2.56639 -5.137277,-0.6794 -13.840502,-2.14489 -19.340502,-3.25666 -5.500001,-1.11179 -14.200001,-2.65488 -19.333334,-3.42912 -8.8483863,-1.33456 -15.03480131,-3.90607 -9.2666673,-3.85188 4.146582,0.0389 30.0126623,3.86722 31.2354583,4.62294 0.610408,0.37726 9.417143,1.59103 19.570522,2.69728 10.153378,1.10624 25.060688,3.16119 33.127358,4.56655 15.035955,2.61952 52.609085,7.68992 63.333325,8.54665 3.3,0.26364 12.3,1.4718 20,2.68482 20.08178,3.16356 60.28109,6.05012 62.33334,4.4759 2.82459,-2.16661 1.89112,-4.65305 -4,-10.65473 -8.16569,-8.31892 -20.63515,-22.34593 -28.10549,-31.61616 -3.73155,-4.63061 -18.01113,-20.47849 -33.62481,-37.31776 -4.435,-4.78312 -11.29764,-12.59659 -15.25032,-17.36325 -3.95268,-4.76667 -8.42404,-9.91752 -9.93637,-11.44635 -6.79087,-6.86493 -27.32137,-31.20117 -35.33664,-41.886987 -2.47528,-3.3 -6.17547,-7.8 -8.22266,-10 C 85.181295,40.800371 79.595505,33.397088 71.937435,19.289593 67.267475,10.686709 63.776545,3.3180331 64.179825,2.9147571 c 0.40327,-0.403274 2.4273,2.182922 4.49784,5.747104 4.63452,7.9777719 11.31377,17.2039939 18.71004,25.8446819 3.08665,3.605977 8.10404,10.013945 11.14977,14.239929 3.045725,4.225984 8.320285,10.405053 11.721245,13.731263 5.67754,5.552765 12.68388,13.400355 24.36065,27.285675 2.46677,2.93334 4.78607,5.6376 5.15397,6.00947 1.02236,1.03336 16.49776,17.72412 31.08839,33.52992 7.19736,7.79679 14.57037,16.19003 16.38447,18.65163 1.81409,2.46161 5.78372,6.4446 8.8214,8.85109 3.03768,2.40649 7.43531,7.21497 9.77251,10.68552 2.3372,3.47055 6.87881,8.65417 10.09248,11.51917 3.21366,2.865 8.41609,8.25652 11.56094,11.98115 13.6833,16.20587 20.62792,21.32852 30.36272,22.39688 6.9936,0.76753 9.91936,0.25551 9.91936,-1.73593 0,-0.67223 -2.00701,-1.22223 -4.46001,-1.22223 -4.31027,0 -8.87332,-3.22769 -8.87332,-6.27656 0,-0.76996 1.69616,-2.10249 3.76924,-2.96119 4.9496,-2.0502 24.43411,0.27662 32.97549,3.93788 7.76486,3.3284 7.62518,3.35271 6.63527,-1.15434 -1.30396,-5.93687 1.56811,-7.38838 9.09751,-4.59779 3.40404,1.26163 6.18916,2.76444 6.18916,3.3396 0,0.57515 0.64043,1.04573 1.42319,1.04573 0.81757,0 1.06214,-1.13753 0.57473,-2.67324 -1.98264,-6.2467 7.04447,-4.20998 32.00208,7.22043 7.33333,3.35861 15.11328,6.10948 17.28876,6.11303 2.17548,0.004 6.54315,0.99472 9.70592,2.20258 4.52925,1.72975 6.45005,1.8774 9.04457,0.69526 1.81175,-0.82548 3.29408,-2.12256 3.29408,-2.8824 0,-2.01335 -7.06438,-6.02099 -20.3518,-11.54564 -6.42682,-2.67215 -13.14685,-6.21314 -14.93341,-7.86886 -1.78655,-1.65572 -5.34872,-3.70361 -7.91595,-4.55086 -2.56721,-0.84727 -6.82382,-3.00368 -9.45913,-4.79206 -2.63531,-1.78836 -5.29135,-3.25157 -5.90232,-3.25157 -0.61097,0 -1.8578,-0.9 -2.77072,-2 -0.91292,-1.1 -3.31292,-2 -5.33333,-2 -2.02042,0 -4.42042,-0.9 -5.33334,-2 -0.91292,-1.1 -2.3717,-2 -3.24176,-2 -2.95008,0 -6.09641,-3.31617 -7.36385,-7.76137 -1.23031,-4.31492 -1.11949,-4.49298 4.3382,-6.97071 7.79808,-3.54025 10.52128,-3.25865 18.6264,1.92612 6.82303,4.36464 10.457,6.1396 26.30768,12.84951 6.91812,2.92858 17.89108,9.37089 25.33333,14.8734 10.62634,7.85666 13.96555,10.86206 18.76254,16.88682 9.26148,11.63194 22.79248,16.69431 30.39275,11.37087 2.54757,-1.78439 2.93692,-2.93177 2.24549,-6.61737 -0.74576,-3.97532 -14.30816,-30.09403 -27.96045,-53.84676 -2.72587,-4.74256 -5.28431,-10.26375 -5.68542,-12.26932 -1.79924,-8.99622 11.75722,-4.9112 29.67411,8.9418 2.88071,2.22732 9.53872,6.88254 14.79557,10.34494 9.16135,6.0341 16.44208,13.02119 16.44208,15.77894 0,0.71625 -1.60024,3.3078 -3.5561,5.759 l -6.94676,-1.61822 -6.38658,-5.24282 c -5.91651,-4.85693 -9.77722,-9.07254 -9.77722,-9.78184 0,-0.70931 -0.6,-1.28966 -1.33334,-1.28966 -2.52674,0 -1.3243,5.53296 2.41079,11.0931 2.05927,3.06546 5.9104,10.08636 8.55807,15.60197 2.64768,5.51563 5.91282,10.98533 7.25588,12.15492 2.61225,2.27483 17.48352,4.33585 19.93173,2.76236 0.97552,-0.62697 1.3554,-6.56261 1.1272,-17.61235 -0.41128,-19.91434 0.91076,-26.79505 6.87564,-35.78506 0.16484,-0.24846 2.71689,-0.99484 5.67121,-1.65864 8.20326,-1.84315 9.53881,-1.07803 31.50282,18.0476 3.66667,3.19282 10.26667,8.90488 14.66667,12.69345 20.61736,17.75232 25.25021,23.12092 23.22228,26.91016 -1.11519,2.08375 -1.8176,2.24273 -4.27827,0.96837 -7.58104,-3.92616 -28.84852,-20.52905 -39.87241,-31.12721 -8.0551,-7.74401 -10.40494,-7.10785 -10.40494,2.81687 0,3.98578 -0.93408,11.76905 -2.07573,17.29614 -2.21248,10.71134 -1.44205,13.83832 3.40949,13.83832 7.59675,0 20.09011,9.95335 24.66624,19.65138 2.99792,6.35337 4.76034,6.83428 11.03223,3.0103 2.40105,-1.46392 4.96489,-2.66168 5.6974,-2.66168 2.18284,0 -2.55179,6.20076 -7.13688,9.3469 l -4.25941,2.92266 -0.0343,17.53188 c -0.032,16.38654 -0.29171,18.14164 -3.97469,26.86523 -5.07604,12.02316 -8.32455,16.78233 -16.22618,23.77185 -7.56845,6.69482 -13.11234,8.59852 -25.04032,8.59852 -4.81852,0 -9.56715,0.66908 -10.55251,1.48686 -1.1522,0.95624 -2.12354,6.30706 -2.72181,14.99357 -0.52399,7.60799 -1.99021,16.29629 -3.35732,19.89421 -1.73136,4.55656 -2.01608,6.79847 -0.99331,7.82124 2.04106,2.04106 5.62584,1.7728 7.56708,-0.56625 0.91292,-1.1 2.2506,-2 2.97264,-2 0.72203,0 4.99856,-1.74451 9.50341,-3.87668 9.48652,-4.49004 27.36706,-10.78999 30.6242,-10.78999 2.33342,0 2.88842,2.23926 1.20912,4.87843 -1.24116,1.95061 -17.31484,11.45085 -26.97603,15.94401 -4.03333,1.8758 -8.32294,4.29644 -9.53244,5.37923 -3.40698,3.05 -23.51172,9.79833 -29.19136,9.79833 -9.33422,0 -11.46395,-5.53036 -10.21316,-26.52078 0.56468,-9.47624 1.82078,-15.76367 4.8239,-24.14588 2.23324,-6.23334 4.07228,-12.30987 4.08675,-13.50342 0.0367,-3.02862 -3.01344,-5.24028 -11.05841,-8.01841 -6.32822,-2.18528 -7.02847,-2.20563 -8.24862,-0.23964 -0.73333,1.18161 -3.0589,3.71132 -5.16794,5.62159 -2.10904,1.91026 -6.52391,6.75784 -9.81082,10.77238 -3.2869,4.01455 -8.46132,9.1031 -11.49872,11.3079 -3.03738,2.20478 -7.30806,5.64868 -9.4904,7.65308 -2.18233,2.0044 -5.91742,4.69425 -8.30019,5.97746 -8.33256,4.48738 -6.83213,8.94482 3.41965,10.15899 8.37613,0.99203 30.83641,12.84952 36.6457,19.34644 5.7147,6.39111 -3.71864,7.52353 -15.13061,1.81636 z"
       id="path116" />
  </g>
</svg>
