<?xml version="1.0" encoding="UTF-8" standalone="no"?>
<svg
   version="1.0"
   width="1866.4384pt"
   height="643.3963pt"
   viewBox="0 0 1866.4384 643.3963"
   preserveAspectRatio="xMidYMid meet"
   id="svg6"
   xmlns="http://www.w3.org/2000/svg"
   xmlns:svg="http://www.w3.org/2000/svg">
  <defs
     id="defs10" />
  <g
     transform="matrix(0.1,0,0,-0.1,-24.239864,876.78318)"
     fill="#B6BEC1"
     stroke="none"
     id="g4">
    <path
       d="m 9640,8760 c -19,-5 -65,-15 -103,-24 -37,-8 -77,-22 -89,-30 -12,-9 -32,-16 -44,-16 -22,0 -106,-41 -274,-135 -52,-29 -111,-58 -130,-64 -45,-15 -63,-29 -83,-66 -16,-31 -109,-118 -187,-174 -25,-18 -57,-47 -73,-66 -15,-18 -55,-54 -90,-80 -74,-55 -327,-292 -447,-419 -129,-136 -231,-236 -241,-236 -4,0 -24,-15 -43,-34 -39,-40 -162,-105 -221,-118 -22,-5 -96,-15 -165,-22 -69,-8 -143,-17 -165,-20 -46,-6 -169,-13 -370,-21 -77,-3 -169,-10 -205,-15 -36,-5 -119,-14 -185,-20 -66,-6 -158,-18 -205,-25 -47,-8 -130,-19 -185,-25 -55,-6 -138,-17 -185,-25 -47,-9 -148,-24 -225,-35 -77,-11 -174,-27 -215,-35 -41,-8 -115,-19 -165,-25 -49,-6 -106,-15 -125,-20 -19,-5 -96,-19 -170,-31 -74,-12 -153,-25 -175,-29 -22,-4 -89,-17 -150,-29 -60,-11 -137,-26 -170,-32 -33,-6 -64,-14 -70,-19 -5,-4 -28,-10 -50,-12 -36,-4 -109,-22 -265,-64 -30,-8 -73,-20 -95,-26 -22,-6 -51,-14 -65,-18 -14,-4 -45,-13 -70,-20 -25,-7 -54,-16 -65,-21 -94,-39 -150,-59 -209,-74 -38,-9 -76,-20 -85,-25 -9,-4 -38,-13 -65,-19 -28,-7 -79,-25 -115,-40 -36,-16 -86,-32 -111,-36 -25,-4 -50,-11 -55,-15 -11,-9 -71,-29 -145,-49 -25,-7 -58,-17 -75,-23 -32,-11 -84,-24 -150,-37 -22,-5 -67,-18 -100,-29 -33,-11 -84,-25 -113,-32 -28,-7 -54,-16 -57,-20 -3,-5 -31,-16 -63,-25 -31,-9 -156,-48 -277,-87 -121,-38 -251,-79 -290,-90 -38,-11 -88,-26 -110,-34 -22,-7 -67,-20 -100,-28 -33,-7 -85,-24 -115,-36 -30,-12 -77,-30 -105,-40 -218,-80 -310,-120 -605,-267 -184,-92 -369,-187 -410,-212 -157,-94 -244,-181 -271,-271 -18,-59 0,-107 64,-172 111,-115 182,-140 370,-132 121,5 183,-5 267,-43 19,-9 58,-26 85,-37 84,-35 175,-88 175,-102 0,-7 8,-17 17,-23 37,-20 11,-25 -187,-32 -93,-3 -347,11 -400,22 -54,12 -116,51 -125,79 -3,11 -10,20 -15,20 -4,0 -10,9 -13,19 -2,11 -19,27 -36,35 -29,15 -33,15 -58,-1 -44,-27 -91,-76 -102,-106 -15,-39 -14,-111 3,-150 32,-75 182,-204 263,-227 21,-5 58,-21 82,-35 23,-14 48,-25 54,-25 6,0 18,-6 26,-14 9,-7 50,-28 91,-45 41,-18 91,-40 110,-51 75,-40 335,-130 376,-130 12,0 59,-9 105,-21 46,-11 104,-24 129,-29 25,-4 81,-15 125,-23 137,-27 279,-47 335,-47 30,-1 75,-5 100,-11 25,-6 55,-10 68,-10 71,2 251,-46 427,-113 145,-55 248,-90 300,-101 33,-8 89,-24 125,-35 36,-12 88,-26 115,-30 28,-4 88,-16 135,-25 47,-10 104,-19 128,-21 24,-1 53,-6 65,-10 11,-4 57,-10 102,-15 92,-9 263,-34 285,-42 8,-3 56,-10 105,-17 50,-6 113,-18 140,-25 28,-7 104,-19 170,-25 66,-7 136,-16 155,-21 19,-4 64,-11 100,-14 36,-4 101,-13 145,-22 44,-8 141,-19 215,-23 74,-5 185,-16 245,-25 61,-9 241,-20 405,-25 162,-5 324,-12 360,-16 66,-6 599,-16 680,-12 91,4 421,1 618,-6 148,-5 218,-4 260,5 61,13 98,15 682,28 216,5 396,14 425,21 92,21 188,29 229,19 21,-6 83,-8 137,-6 73,4 103,1 116,-9 10,-7 25,-14 33,-14 8,0 47,-28 85,-61 39,-34 88,-73 110,-88 22,-14 46,-32 53,-39 8,-6 35,-26 60,-44 44,-30 113,-80 157,-114 11,-8 44,-29 73,-45 28,-17 52,-35 52,-40 0,-5 7,-9 15,-9 14,0 53,-18 65,-30 6,-6 38,-22 90,-44 47,-21 154,-83 223,-128 39,-27 67,-38 92,-38 24,0 48,-9 70,-26 32,-24 162,-64 209,-64 12,0 26,-4 32,-9 5,-4 71,-16 146,-26 144,-18 203,-14 316,21 23,8 51,14 62,14 23,0 70,20 70,30 0,4 13,26 29,49 26,39 27,47 19,89 -5,26 -11,54 -12,62 -1,8 -6,38 -10,65 -7,47 -26,113 -46,160 -5,11 -21,53 -37,93 -15,41 -47,98 -73,130 -44,56 -53,62 -247,163 -36,19 -27,26 45,38 144,22 986,42 1170,28 102,-8 221,6 319,38 41,14 79,22 85,19 5,-3 17,1 26,9 9,8 44,23 77,32 33,10 65,21 70,25 6,4 24,10 40,13 24,4 37,-1 63,-24 17,-16 32,-32 33,-36 0,-5 70,-71 156,-148 85,-77 169,-157 186,-178 17,-21 46,-45 65,-54 19,-9 38,-26 44,-37 5,-12 30,-36 56,-54 26,-18 61,-45 77,-60 17,-16 44,-37 60,-48 17,-10 44,-31 60,-45 75,-66 148,-124 240,-191 55,-39 117,-87 137,-105 21,-18 50,-36 65,-39 16,-4 46,-20 68,-36 22,-15 97,-49 165,-74 152,-55 178,-63 255,-75 33,-5 74,-14 92,-19 18,-6 48,-14 66,-20 17,-5 75,-14 127,-20 52,-6 118,-15 145,-21 36,-7 64,-7 100,1 28,7 68,14 90,16 22,3 49,9 60,14 11,4 34,13 51,20 22,8 38,25 54,58 13,26 31,56 40,67 26,30 105,176 125,231 10,27 22,54 26,59 4,6 19,43 33,84 14,40 31,80 37,88 7,7 21,53 31,101 29,129 34,151 57,222 15,48 21,91 21,166 0,56 4,124 10,152 10,56 14,481 4,527 -8,35 -58,83 -94,91 -146,30 -200,34 -285,19 -95,-17 -365,-21 -349,-5 6,6 28,13 50,17 21,3 46,11 54,18 25,20 484,83 619,84 119,2 183,-16 278,-75 47,-30 129,-78 182,-106 53,-28 102,-55 109,-61 12,-9 152,-82 307,-159 33,-17 80,-38 105,-48 41,-16 144,-68 475,-238 124,-64 206,-102 222,-102 5,0 23,-6 39,-14 16,-7 65,-28 109,-46 44,-18 99,-41 123,-51 24,-11 83,-33 130,-49 48,-16 123,-42 167,-58 44,-16 89,-32 100,-36 11,-4 47,-18 80,-31 33,-13 98,-33 144,-45 46,-11 89,-24 95,-29 6,-5 27,-13 46,-19 19,-6 67,-22 105,-37 120,-46 464,-96 551,-80 40,7 53,23 92,115 64,153 62,131 56,536 -3,203 -9,398 -14,434 -5,36 -10,91 -10,122 0,32 -4,77 -10,100 -5,24 -17,93 -26,153 -9,61 -20,115 -25,120 -4,6 -13,51 -19,100 -6,50 -17,119 -25,155 -7,36 -13,110 -13,165 0,55 -4,118 -10,140 -5,22 -16,118 -23,212 -12,161 -11,183 9,330 12,87 31,199 42,248 12,50 23,109 25,133 2,24 9,68 15,98 8,40 9,79 1,142 -6,48 -13,125 -16,172 -11,147 -13,164 -24,210 -6,25 -12,93 -14,152 -2,82 -6,111 -19,125 -12,13 -15,29 -11,59 5,36 2,43 -27,68 -18,15 -38,25 -45,22 -7,-2 -34,-7 -61,-11 -45,-6 -79,-15 -129,-35 -11,-4 -54,-15 -95,-25 -41,-9 -79,-20 -85,-25 -5,-4 -28,-13 -50,-20 -22,-7 -42,-16 -45,-19 -13,-16 -239,-110 -415,-172 -60,-22 -128,-48 -150,-58 -76,-35 -110,-49 -150,-61 -77,-24 -100,-32 -120,-40 -141,-57 -232,-95 -239,-102 -6,-4 -17,-8 -26,-8 -9,0 -43,-13 -76,-29 -32,-15 -77,-36 -99,-45 -84,-37 -279,-136 -385,-197 -125,-71 -141,-79 -155,-79 -9,0 -23,-4 -33,-10 -37,-20 -351,-123 -417,-135 -38,-8 -113,-23 -165,-34 -58,-13 -132,-21 -190,-21 -110,0 -517,36 -630,55 -19,3 -50,8 -69,11 -26,4 -31,8 -20,15 8,5 23,9 33,9 11,0 31,10 45,23 15,13 53,31 86,41 43,14 71,30 98,58 l 37,40 v 92 c 0,90 -1,95 -36,148 -20,30 -51,63 -70,73 -19,10 -34,22 -34,26 0,11 -174,76 -270,100 -92,23 -172,21 -260,-5 -25,-7 -65,-19 -90,-26 -25,-7 -58,-17 -75,-21 -41,-12 -193,-49 -235,-58 -19,-5 -66,-23 -105,-40 -98,-46 -212,-81 -262,-81 -23,0 -52,-4 -65,-10 -13,-5 -77,-14 -143,-19 -96,-8 -142,-7 -230,5 -60,9 -139,19 -175,24 -36,4 -130,17 -210,28 -80,11 -201,25 -270,32 -69,6 -164,18 -211,26 -47,8 -148,19 -225,24 -76,5 -179,14 -229,19 -49,6 -139,15 -200,21 -60,5 -182,16 -270,25 -88,8 -288,24 -445,35 -157,12 -292,23 -300,25 -26,8 -382,45 -429,45 -25,0 -52,4 -60,9 -19,12 37,27 154,41 65,8 98,17 120,33 30,22 45,25 255,47 166,18 266,52 301,102 12,16 30,28 42,28 62,0 57,146 -8,251 -19,31 -35,62 -35,67 0,14 -58,62 -76,62 -8,0 -14,5 -14,10 0,6 -7,10 -15,10 -8,0 -15,8 -15,18 0,10 -25,42 -55,72 -31,30 -67,72 -82,93 -17,24 -33,37 -49,37 -16,0 -37,18 -70,60 -45,57 -49,60 -91,60 -65,0 -83,13 -83,61 0,50 -17,84 -69,136 -31,31 -41,49 -41,73 0,41 -40,80 -115,110 -53,22 -55,24 -50,54 8,40 -6,75 -43,112 -16,17 -41,56 -56,87 -18,41 -31,57 -45,57 -11,0 -24,6 -28,13 -4,8 -16,16 -25,20 -10,3 -18,16 -18,28 0,16 -5,20 -20,16 -15,-4 -24,2 -34,21 -20,39 -57,69 -93,77 -19,4 -35,14 -38,26 -4,10 -15,19 -25,19 -10,0 -42,11 -72,25 -56,26 -71,28 -128,15 z"
       id="path2" />
  </g>
</svg>
