<?xml version="1.0" standalone="no"?>
<!DOCTYPE svg PUBLIC "-//W3C//DTD SVG 20010904//EN"
 "http://www.w3.org/TR/2001/REC-SVG-20010904/DTD/svg10.dtd">
<svg version="1.0" xmlns="http://www.w3.org/2000/svg"
 width="1742.000000pt" height="948.000000pt" viewBox="0 0 1742.000000 948.000000"
 preserveAspectRatio="xMidYMid meet">
<metadata>
Created by potrace 1.16, written by Peter Selinger 2001-2019
</metadata>
<g transform="translate(0.000000,948.000000) scale(0.100000,-0.100000)"
fill="#ACB5BA" stroke="none">
<path d="M1607 9463 c-17 -16 0 -77 112 -412 144 -429 155 -458 225 -591 30
-58 96 -197 145 -308 50 -112 109 -238 131 -280 23 -43 93 -193 156 -336 63
-142 169 -366 234 -497 66 -131 158 -323 205 -426 91 -198 105 -227 300 -603
186 -358 277 -511 387 -651 15 -20 28 -44 28 -54 0 -18 -116 84 -345 306 -77
74 -162 153 -189 175 -28 21 -106 95 -175 163 -70 68 -184 176 -256 240 -71
64 -224 206 -341 316 -279 265 -458 432 -574 535 -52 47 -134 121 -181 165
-110 103 -433 357 -616 485 -39 27 -132 94 -207 147 -398 288 -441 317 -519
349 -70 29 -83 32 -96 20 -19 -19 -8 -43 30 -64 17 -9 72 -46 124 -82 51 -36
132 -92 180 -125 48 -33 140 -99 204 -148 64 -48 154 -115 201 -149 47 -33
108 -80 135 -103 28 -23 95 -75 150 -115 136 -100 303 -237 400 -329 44 -42
172 -161 285 -266 112 -104 294 -276 405 -381 110 -105 254 -240 320 -300 66
-60 192 -179 280 -264 89 -85 197 -186 242 -225 45 -38 183 -167 307 -285
l226 -215 -1 -125 c-2 -249 59 -655 132 -880 29 -88 31 -103 19 -124 -38 -72
35 -253 140 -349 34 -30 85 -65 113 -78 49 -22 55 -28 91 -103 53 -110 123
-176 258 -244 57 -28 120 -54 141 -58 38 -6 39 -7 33 -43 -17 -93 -17 -107 -3
-125 14 -19 19 -19 79 -8 88 16 129 16 122 -1 -6 -17 10 -59 31 -80 32 -33
123 -9 163 41 9 12 15 13 23 5 9 -9 8 -21 -3 -50 -13 -32 -39 -54 -175 -148
-197 -135 -289 -204 -465 -348 -149 -122 -169 -149 -210 -287 -17 -56 -20
-104 -23 -350 -3 -248 -14 -444 -30 -530 -2 -14 -9 -92 -15 -175 -6 -82 -17
-195 -25 -250 -8 -55 -20 -140 -26 -188 -9 -68 -20 -104 -48 -158 -34 -65 -41
-72 -100 -99 -48 -23 -77 -30 -124 -30 -111 0 -374 -64 -423 -103 -28 -22 -33
-77 -9 -97 22 -18 170 -7 260 20 89 26 140 26 172 0 34 -26 66 -25 160 5 178
57 222 116 273 368 37 188 48 287 65 622 16 295 38 567 54 663 6 31 15 84 21
117 5 33 10 63 10 68 0 4 7 7 15 7 26 0 73 29 79 48 4 10 36 40 71 66 36 27
97 74 134 105 38 31 92 74 121 96 29 22 67 51 84 66 17 14 53 43 80 64 l49 40
-6 -35 c-3 -19 -10 -55 -16 -80 -18 -80 -51 -273 -60 -355 -5 -44 -23 -172
-40 -285 -16 -113 -33 -233 -37 -266 -3 -34 -9 -67 -13 -73 -12 -18 -140 3
-206 34 -85 41 -136 44 -183 11 -21 -14 -43 -26 -49 -26 -21 0 -73 -61 -73
-86 0 -36 24 -40 75 -13 l45 24 67 -18 c38 -10 106 -36 152 -58 179 -85 293
-90 359 -15 21 24 37 64 60 147 36 135 40 170 57 524 9 176 52 542 76 639 28
113 35 123 111 131 95 10 140 24 172 53 32 30 65 96 66 130 0 20 3 22 39 16
53 -8 72 18 64 89 -6 45 -4 50 11 44 10 -4 30 -7 44 -7 24 -1 32 -10 65 -81
22 -47 56 -98 80 -122 46 -46 136 -97 224 -128 126 -44 727 -170 922 -194 69
-9 167 -22 216 -30 50 -8 140 -19 200 -25 61 -6 187 -22 280 -35 94 -13 213
-27 265 -30 l95 -7 40 -51 c71 -90 179 -199 237 -238 l56 -38 -5 -523 c-10
-1005 -10 -1013 -22 -1051 -21 -62 7 -77 49 -27 l25 30 66 -63 c76 -73 201
-142 319 -178 126 -37 290 -130 359 -203 37 -38 70 -46 91 -21 20 24 5 55 -59
126 -63 70 -241 194 -509 356 -46 28 -58 65 -71 215 -7 79 -16 190 -22 247
-10 120 -12 243 -3 318 l7 53 41 -38 c50 -46 149 -87 231 -97 33 -3 94 -17
135 -30 41 -13 93 -27 115 -31 64 -10 156 -33 210 -53 28 -10 84 -31 125 -46
41 -15 126 -52 188 -82 130 -63 165 -66 170 -18 2 22 -4 37 -21 53 -34 32
-395 217 -452 231 -26 7 -66 21 -87 32 -22 11 -70 29 -106 39 -148 40 -306
119 -352 175 -14 17 -12 18 40 11 30 -3 183 -15 340 -26 157 -10 328 -26 381
-34 270 -44 493 -55 1264 -60 414 -3 526 -7 595 -20 47 -9 146 -23 220 -32 74
-8 164 -21 200 -29 36 -7 126 -21 200 -30 74 -10 143 -22 153 -27 10 -5 59
-16 110 -24 51 -8 106 -19 122 -25 48 -17 372 -39 577 -39 268 0 374 26 480
120 43 38 45 42 51 107 5 61 3 75 -23 130 -36 78 -66 120 -148 205 l-65 66 34
21 c22 14 51 21 84 21 91 0 508 49 593 70 113 27 260 84 354 135 123 68 313
228 324 272 9 34 -14 55 -120 112 -83 44 -154 76 -421 186 -49 21 -155 57
-235 80 -80 23 -215 64 -300 90 -138 42 -203 57 -425 97 -58 10 -129 40 -170
72 -20 15 -19 15 6 16 41 0 568 -38 751 -55 91 -8 208 -24 260 -34 51 -11 145
-27 208 -36 63 -8 167 -25 230 -35 130 -23 438 -56 610 -65 163 -10 742 19
1040 51 157 17 250 34 350 65 36 11 121 33 190 49 150 34 425 135 544 198 32
18 64 32 71 32 7 0 31 14 53 30 23 17 46 30 51 30 14 0 69 66 91 111 38 74 80
200 80 240 0 55 -20 98 -82 176 -60 74 -176 195 -224 233 -113 88 -149 112
-236 158 -54 28 -106 56 -115 61 -181 97 -350 125 -798 130 -71 1 -195 6 -275
11 -80 5 -338 10 -575 10 -512 1 -940 14 -975 28 -14 6 -90 16 -170 22 -417
31 -530 40 -584 46 l-59 7 29 21 c51 36 135 120 150 148 19 37 18 152 -2 209
l-17 46 67 68 c76 78 80 96 40 165 -15 25 -35 66 -44 92 -30 78 -99 158 -177
204 -33 19 -55 24 -112 24 -64 0 -81 -5 -178 -51 -60 -28 -119 -56 -133 -63
-558 -284 -765 -374 -987 -432 -57 -15 -561 -116 -638 -128 -44 -7 -346 22
-550 54 -71 10 -213 29 -315 40 -102 11 -293 34 -425 50 -236 28 -492 54 -650
65 -91 7 -445 54 -675 89 -85 14 -211 32 -280 41 -69 10 -269 40 -445 68
l-320 51 -320 1 c-316 1 -842 31 -960 55 -68 14 -344 36 -605 50 -118 6 -251
18 -295 25 -138 24 -304 45 -360 45 -50 0 -57 3 -91 40 -21 22 -45 53 -54 68
-37 60 -216 229 -293 277 -113 69 -186 88 -313 80 -56 -3 -124 -12 -150 -19
-52 -14 -218 -80 -319 -126 -33 -15 -71 -32 -85 -37 -40 -17 -146 -100 -189
-150 l-40 -45 -84 128 c-98 152 -165 270 -279 494 -47 91 -110 212 -140 270
-31 58 -82 164 -114 235 -32 72 -131 276 -220 455 -158 317 -275 562 -328 687
-14 34 -70 148 -124 255 -94 186 -128 263 -246 563 -31 77 -90 223 -132 325
-41 102 -92 226 -111 275 -79 198 -115 279 -140 311 -26 34 -34 39 -46 27z"/>
</g>
</svg>
