<?xml version="1.0" encoding="UTF-8" standalone="no"?>
<svg
   width="1124"
   height="956.89355"
   viewBox="0 0 1124 956.89355"
   version="1.1"
   id="svg4"
   xmlns="http://www.w3.org/2000/svg"
   xmlns:svg="http://www.w3.org/2000/svg">
  <defs
     id="defs8" />
  <path
     d="m 417.705,2.2835594 c -1.213,1.314 -2.942,3.452 -3.842,4.75 l -1.637,2.36 -4.515,-2.189 c -2.483,-1.204 -7.962,-2.902 -12.175,-3.772 C 383.183,0.88155941 377,3.7175594 377,11.934559 c 0,8.037 16.3,28.379 35.705,44.558 19.813,16.52 26.036,22.439 36.111,34.347 5.326,6.296 14.117,16.196001 19.535,22.000001 11.564,12.39 20.89,24.528 30.004,39.052 5.84,9.307 6.429,10.695 5.272,12.437 -1.244,1.874 -5.457,4.727 -19.471,13.185 -8.133,4.909 -11.785,9.602 -14.922,19.177 -1.924,5.873 -2.548,9.959 -2.629,17.203 -0.093,8.402 0.213,10.179 2.647,15.375 2.609,5.569 2.693,6.195 1.616,12.035 -1.429,7.759 0.304,14.484 5.964,23.137 5.014,7.666 19.833,22.037 28.168,27.317 l 6.5,4.117 -5.638,0.009 c -7.505,0.013 -20.864,-3.967 -31.869,-9.493 -14.068,-7.066 -17.307,-6.342 -29.726,6.647 -9.394,9.825 -16.063,18.002 -22.866,28.039 -3.101,4.574 -5.79,8.485 -5.977,8.691 -0.187,0.206 -1.743,-0.806 -3.459,-2.25 -3.773,-3.175 -6.925,-4.067 -11.228,-3.179 -9.127,1.884 -10.718,1.8 -16.008,-0.849 -2.876,-1.44 -10.629,-6.937 -17.229,-12.215 -6.6,-5.278 -15.315,-11.827 -19.366,-14.553 -4.051,-2.727 -9.901,-6.938 -13,-9.357 -28.065,-21.914 -41.329,-29.845 -72.634,-43.425 -12.096,-5.248 -18.287,-8.445 -37.5,-19.366 -10.929,-6.212 -21.736,-13.452 -23.81,-15.951 -0.985,-1.187 -0.382,-2.273 3.303,-5.959 4.99,-4.99 5.584,-7.693 2.391,-10.886 -2.743,-2.743 -7.524,-2.177 -16.298,1.929 -6.881,3.22 -8.703,5.261 -10.658,11.939 -1.409,4.808 -0.206,12.419 2.855,18.074 2.406,4.444 9.596,11.62 14.555,14.526 2.3,1.348 17.227,7.017 33.172,12.598 15.944,5.582 30.894,10.859 33.221,11.728 l 4.231,1.579 -2.481,2.948 c -3.015,3.583 -3.125,5.727 -0.442,8.606 1.552,1.666 3.188,2.189 6.851,2.189 3.251,0 6.402,0.841 9.711,2.591 6.455,3.414 7.824,4.728 11.251,10.802 4.537,8.038 17.302,24.609 23.241,30.169 9.149,8.565 22.265,16.506 50.93,30.831 15.137,7.566 28.494,14.51 29.682,15.431 2.152,1.669 2.154,1.721 0.641,12.676 -1.697,12.287 -1.267,43.106 0.731,52.424 2.064,9.625 9.98,14.472 30.923,18.936 8.631,1.84 17,4.574 17,5.553 0,0.213 -2.587,0.402 -5.75,0.421 -3.163,0.019 -10.25,0.953 -15.75,2.076 -12.943,2.644 -23.299,7.698 -30.163,14.719 -4.947,5.061 -5.301,5.24 -8.5,4.291 -5.501,-1.632 -29.532,-2.267 -39.434,-1.042 -18.965,2.347 -47.927,11.498 -66.698,21.074 -12.34,6.296 -17.572,8.684 -44.705,20.409 -10.494,4.535 -10.506,4.537 -20.286,4.125 -8.87,-0.374 -9.981,-0.219 -11.855,1.655 -1.503,1.503 -1.912,2.842 -1.499,4.907 0.645,3.229 0.28,3.425 -8.36,4.477 -11.747,1.43 -72.972,15.152 -91.5,20.507 -26.115,7.548 -75.694,26.023 -79.796,29.735 -2.174,1.968 -1.888,6.103 0.528,7.615 1.291,0.809 3.326,0.638 8,-0.669 3.447,-0.964 10.993,-2.911 16.768,-4.327 5.775,-1.415 19.5,-4.782 30.5,-7.482 27.917,-6.852 46.233,-10.576 58.5,-11.892 12.934,-1.389 55.882,-10.772 71.001,-15.512 6.139,-1.925 11.35,-3.5 11.581,-3.5 1.305,0 0.02,3.945 -2.631,8.076 -3.848,5.998 -4.777,10.955 -2.482,13.25 3.443,3.443 6.049,2.146 11.962,-5.951 5.062,-6.931 5.569,-8.098 5.569,-12.809 0,-2.851 0.563,-5.9 1.25,-6.776 0.789,-1.004 6.782,-2.755 16.25,-4.746 19.482,-4.097 29.855,-7.056 44.256,-12.623 13.617,-5.264 33.179,-10.512 48.405,-12.987 8.873,-1.442 12.688,-1.569 22.738,-0.762 6.642,0.533 12.341,1.235 12.665,1.558 0.323,0.324 -0.35,6.592 -1.497,13.929 -1.809,11.571 -8.067,70.407 -8.067,75.839 0,1.376 -1.621,2.71 -5.549,4.569 -3.379,1.598 -8.972,5.882 -14.3,10.952 l -8.751,8.328 -5.95,-0.535 c -5.81,-0.521 -6.091,-0.43 -11.95,3.905 -10.34,7.65 -29.8,26.294 -39.154,37.512 -13.194,15.824 -17.215,21.344 -29.428,40.399 -6.073,9.475 -13.751,20.635 -17.061,24.8 -16.999,21.383 -34.889,43.038 -41.536,50.279 -5.105,5.561 -5.555,8.896 -1.737,12.88 l 2.583,2.697 -8.333,9.068 c -15.777,17.168 -30.471,28.226 -61.334,46.158 -23.214,13.487 -25.369,14.638 -38.281,20.439 -33.173,14.903 -44.209,21.677 -57.329,35.186 -11.743,12.09 -28.89,35.277 -28.89,39.065 0,1.88 4.532,6.3 6.459,6.3 0.852,0 5.485,-3.671 10.295,-8.157 15.209,-14.186 24.987,-20.345 46.336,-29.185 38.148,-15.796 53.946,-24.055 78.41,-40.993 15.393,-10.658 23.397,-16.901 37.323,-29.113 20.441,-17.923 24.389,-21.246 27.256,-22.94 l 2.913,-1.72 -0.996,2.619 c -1.397,3.674 -1.241,6.101 0.504,7.846 0.825,0.825 1.5,1.982 1.5,2.572 0,1.926 3.946,5.071 6.364,5.071 1.3,0 3.523,-1.16 4.94,-2.577 l 2.577,-2.576 0.617,3.826 c 1.201,7.444 1.56,8.319 4.095,9.98 1.928,1.263 3.218,1.448 5.213,0.746 3.76,-1.322 5.162,-4.839 5.179,-12.994 0.017,-7.978 2.172,-15.584 6.518,-23.002 3.022,-5.157 19.133,-26.673 31.378,-41.903 15.546,-19.337 21.078,-28.71 30.419,-51.537 7.68,-18.771 18.362,-40.26 22.085,-44.432 3.032,-3.398 3.223,-3.46 7.155,-2.36 5.494,1.537 10.366,0.427 16.423,-3.739 2.799,-1.926 6.152,-3.906 7.451,-4.399 2.667,-1.014 2.204,-4.12 4.619,30.967 2.822,40.986 6.84,65.537 14.644,89.462 5.248,16.092 11.474,29.048 23.738,49.397 10.261,17.026 18.265,27.833 28.524,38.512 15.318,15.946 27.463,22.332 54.561,28.689 7.572,1.776 10.667,2.002 19.5,1.424 5.775,-0.378 14.325,-0.639 19,-0.581 10.101,0.127 24.584,-2.669 31.857,-6.15 l 5.143,-2.461 5.143,2.461 c 7.273,3.481 21.756,6.277 31.857,6.15 4.675,-0.058 13.225,0.203 19,0.581 8.833,0.578 11.928,0.352 19.5,-1.424 27.098,-6.357 39.243,-12.743 54.561,-28.689 10.259,-10.679 18.263,-21.486 28.524,-38.512 12.264,-20.349 18.49,-33.305 23.738,-49.397 7.804,-23.925 11.822,-48.476 14.644,-89.462 2.415,-35.087 1.952,-31.981 4.619,-30.967 1.299,0.493 4.652,2.473 7.451,4.399 6.057,4.166 10.929,5.276 16.423,3.739 3.932,-1.1 4.123,-1.038 7.155,2.36 3.723,4.172 14.405,25.661 22.085,44.432 9.341,22.827 14.873,32.2 30.419,51.537 12.245,15.23 28.356,36.746 31.378,41.903 4.346,7.418 6.501,15.024 6.518,23.002 0.017,8.155 1.419,11.672 5.179,12.994 1.995,0.702 3.285,0.517 5.213,-0.746 2.535,-1.661 2.894,-2.536 4.095,-9.98 l 0.617,-3.826 2.577,2.576 c 1.417,1.417 3.64,2.577 4.94,2.577 2.418,0 6.364,-3.145 6.364,-5.071 0,-0.59 0.675,-1.747 1.5,-2.572 1.745,-1.745 1.901,-4.172 0.504,-7.846 l -0.996,-2.619 2.913,1.72 c 2.867,1.694 6.815,5.017 27.256,22.94 13.926,12.212 21.93,18.455 37.323,29.113 24.464,16.938 40.262,25.197 78.41,40.993 21.349,8.84 31.127,14.999 46.336,29.185 4.81,4.486 9.443,8.157 10.295,8.157 1.927,0 6.459,-4.42 6.459,-6.3 0,-3.788 -17.147,-26.975 -28.89,-39.065 -13.12,-13.509 -24.156,-20.283 -57.329,-35.186 -12.912,-5.801 -15.067,-6.952 -38.281,-20.439 -30.863,-17.932 -45.557,-28.99 -61.334,-46.158 l -8.333,-9.068 2.583,-2.697 c 3.818,-3.984 3.368,-7.319 -1.737,-12.88 -6.647,-7.241 -24.537,-28.896 -41.536,-50.279 -3.31,-4.165 -10.988,-15.325 -17.061,-24.8 -12.213,-19.055 -16.234,-24.575 -29.428,-40.399 -9.354,-11.218 -28.814,-29.862 -39.154,-37.512 -5.859,-4.335 -6.14,-4.426 -11.95,-3.905 l -5.95,0.535 -8.751,-8.328 c -5.328,-5.07 -10.921,-9.354 -14.3,-10.952 -3.928,-1.859 -5.549,-3.193 -5.549,-4.569 0,-5.432 -6.258,-64.268 -8.067,-75.839 -1.147,-7.337 -1.82,-13.605 -1.497,-13.929 0.324,-0.323 6.023,-1.025 12.665,-1.558 10.05,-0.807 13.865,-0.68 22.738,0.762 15.226,2.475 34.788,7.723 48.405,12.987 14.401,5.567 24.774,8.526 44.256,12.623 9.468,1.991 15.461,3.742 16.25,4.746 0.688,0.876 1.25,3.925 1.25,6.776 0,4.711 0.507,5.878 5.569,12.809 5.913,8.097 8.519,9.394 11.962,5.951 2.295,-2.295 1.366,-7.252 -2.482,-13.25 -2.651,-4.131 -3.936,-8.076 -2.631,-8.076 0.231,0 5.442,1.575 11.581,3.5 15.119,4.74 58.067,14.123 71.001,15.512 12.267,1.316 30.583,5.04 58.5,11.892 11,2.7 24.725,6.067 30.5,7.482 5.775,1.416 13.321,3.363 16.768,4.327 4.674,1.307 6.709,1.478 8,0.669 2.416,-1.512 2.702,-5.647 0.528,-7.615 -4.102,-3.712 -53.681,-22.187 -79.796,-29.735 -18.528,-5.355 -79.753,-19.077 -91.5,-20.507 -8.64,-1.052 -9.005,-1.248 -8.36,-4.477 0.413,-2.065 0,-3.404 -1.499,-4.907 -1.874,-1.874 -2.985,-2.029 -11.855,-1.655 -9.78,0.412 -9.792,0.41 -20.286,-4.125 -27.133,-11.725 -32.365,-14.113 -44.705,-20.409 -18.771,-9.576 -47.733,-18.727 -66.698,-21.074 -9.902,-1.225 -33.933,-0.59 -39.434,1.042 -3.199,0.949 -3.553,0.77 -8.5,-4.291 -6.864,-7.021 -17.22,-12.075 -30.163,-14.719 -5.5,-1.123 -12.588,-2.057 -15.75,-2.076 -3.162,-0.019 -5.75,-0.208 -5.75,-0.421 0,-0.979 8.369,-3.713 17,-5.553 20.943,-4.464 28.859,-9.311 30.923,-18.936 1.998,-9.318 2.428,-40.137 0.731,-52.424 -1.513,-10.955 -1.511,-11.007 0.641,-12.676 1.188,-0.921 14.545,-7.865 29.682,-15.431 28.665,-14.325 41.781,-22.266 50.93,-30.831 5.939,-5.56 18.704,-22.131 23.241,-30.169 3.427,-6.074 4.796,-7.388 11.251,-10.802 3.309,-1.75 6.46,-2.591 9.711,-2.591 3.663,0 5.299,-0.523 6.851,-2.189 2.683,-2.879 2.573,-5.023 -0.442,-8.606 l -2.481,-2.948 4.231,-1.579 c 2.327,-0.869 17.277,-6.146 33.221,-11.728 15.945,-5.581 30.872,-11.25 33.172,-12.598 4.959,-2.906 12.149,-10.082 14.555,-14.526 3.061,-5.655 4.264,-13.266 2.855,-18.074 -1.955,-6.678 -3.777,-8.719 -10.658,-11.939 -8.774,-4.106 -13.555,-4.672 -16.298,-1.929 -3.193,3.193 -2.599,5.896 2.391,10.886 3.685,3.686 4.288,4.772 3.303,5.959 -2.074,2.499 -12.881,9.739 -23.81,15.951 -19.213,10.921 -25.404,14.118 -37.5,19.366 -31.305,13.58 -44.569,21.511 -72.634,43.425 -3.099,2.419 -8.949,6.63 -13,9.357 -4.051,2.726 -12.766,9.275 -19.366,14.553 -6.6,5.278 -14.353,10.775 -17.229,12.215 -5.29,2.649 -6.881,2.733 -16.008,0.849 -4.303,-0.888 -7.455,0.004 -11.228,3.179 -1.716,1.444 -3.272,2.456 -3.459,2.25 -0.187,-0.206 -2.876,-4.117 -5.977,-8.691 -6.803,-10.037 -13.472,-18.214 -22.866,-28.039 -12.419,-12.989 -15.658,-13.713 -29.726,-6.647 -11.005,5.526 -24.364,9.506 -31.869,9.493 l -5.638,-0.009 6.5,-4.117 c 8.335,-5.28 23.154,-19.651 28.168,-27.317 5.66,-8.653 7.393,-15.378 5.964,-23.137 -1.077,-5.84 -0.993,-6.466 1.616,-12.035 2.434,-5.196 2.74,-6.973 2.647,-15.375 -0.081,-7.244 -0.705,-11.33 -2.629,-17.203 -3.137,-9.575 -6.789,-14.268 -14.922,-19.177 -14.014,-8.458 -18.227,-11.311 -19.471,-13.185 -1.157,-1.742 -0.568,-3.13 5.272,-12.437 9.114,-14.524 18.44,-26.662 30.004,-39.052 5.418,-5.804 14.209,-15.704001 19.535,-22.000001 10.075,-11.908 16.298,-17.827 36.111,-34.347 19.405,-16.179 35.705,-36.521 35.705,-44.558 0,-8.2429996 -6.178,-11.05499959 -18.638,-8.4809996 -4.269,0.882 -9.454,2.467 -11.522,3.522 -2.068,1.055 -4.223,1.918 -4.788,1.918 -0.565,0 -2.158,-1.791 -3.54,-3.981 -2.626,-4.15999999 -5.85,-5.68099999 -9.55,-4.50699999 C 691.057,2.9145594 677.265,22.990559 664.576,50.454559 l -5.413,11.716 -1.187,-4.388 c -4.244,-15.68 -5.11,-17.93 -7.503,-19.499 -2.282,-1.495 -2.666,-1.493 -4.973,0.018 -2.762,1.81 -3.178,4.806 -1.471,10.599 0.567,1.921 2.167,8.822 3.557,15.336 1.39,6.513 3.369,14.548 4.399,17.855 1.029,3.308 1.612,6.69 1.295,7.516 -0.318,0.826 -5.946,7.866 -12.507,15.644001 -6.562,7.778 -16.44,20.966 -21.952,29.307 l -10.022,15.164 -7.15,-4.611 c -3.932,-2.536 -9.192,-6.072 -11.69,-7.858 -2.497,-1.786 -7.447,-4.622 -11,-6.303 -5.926,-2.803 -7.326,-3.055 -16.959,-3.055 -9.633,0 -11.033,0.252 -16.959,3.055 -3.553,1.681 -8.503,4.517 -11,6.303 -2.498,1.786 -7.779,5.336 -11.736,7.888 l -7.195,4.641 -6.514,-10.195 c -9.219,-14.427 -13.645,-20.399 -25.685,-34.656 -12.746,-15.093001 -13.273,-15.973001 -11.821,-19.723001 1.593,-4.112 9.91,-40.116 9.91,-42.899 0,-1.424 -0.998,-3.024 -2.5,-4.008 -2.276,-1.491 -2.714,-1.498 -4.887,-0.074 -2.292,1.502 -3.136,3.687 -7.554,19.555 l -1.222,4.388 -5.413,-11.716 c -6.465,-13.993 -11.083,-22.469 -17.74,-32.561 C 430.993,1.6865594 423.034,-3.4944406 417.705,2.2835594"
     stroke="none"
     fill="#000000"
     fill-rule="evenodd"
     id="path2" />
</svg>
