<?xml version="1.0" encoding="UTF-8" standalone="no"?>
<!-- Created with Inkscape (http://www.inkscape.org/) -->

<svg
   version="1.1"
   width="421.64743"
   height="576.97968"
   id="svg2985"
   xmlns="http://www.w3.org/2000/svg"
   xmlns:svg="http://www.w3.org/2000/svg">
  <defs
     id="defs2989" />
  <path
     d="m 145.42602,576.24999 c 0.0445,-2.21795 2.90197,-8.53278 4.75229,-10.50236 1.17178,-1.2473 3.29074,-4.73828 4.70881,-7.75773 2.81282,-5.98926 5.28777,-9.78527 11.47643,-17.60225 2.22607,-2.81179 4.04741,-5.5178 4.04741,-6.01335 0,-0.49555 1.53955,-3.1871 3.42122,-5.98122 1.88167,-2.79412 4.12529,-6.7653 4.98582,-8.82485 0.86054,-2.05955 2.92099,-5.4572 4.57878,-7.55034 1.6578,-2.09314 3.01418,-4.38104 3.01418,-5.08423 0,-0.70318 2.25,-3.86539 5,-7.02714 2.95834,-3.40127 5,-6.7106 5,-8.10449 0,-1.29572 1.82892,-4.78993 4.06428,-7.76491 2.23535,-2.97497 4.70697,-6.94723 5.49249,-8.82725 1.49192,-3.57066 4.07253,-7.05417 11.19323,-15.10947 2.3375,-2.6443 4.25,-5.30865 4.25,-5.92078 0,-0.61213 1.575,-2.68796 3.5,-4.61296 1.925,-1.925 3.5,-4.32131 3.5,-5.32513 0,-1.00382 2.025,-3.81251 4.5,-6.24154 3.65693,-3.58901 4.49957,-5.07997 4.4977,-7.95821 -0.002,-3.33332 -0.35266,-3.71261 -5.95478,-6.44395 -5.55109,-2.70645 -6.062,-3.25031 -7.57643,-8.06505 -1.62535,-5.16743 -1.62046,-17.85277 0.01,-25.0553 0.53643,-2.37017 0.22305,-3.43973 -1.45198,-4.95561 -1.76565,-1.5979 -2.4708,-1.72405 -4.06654,-0.72749 -3.37751,2.10929 -5.21336,1.68664 -17.45763,-4.01901 -1.1,-0.51259 -3.35,-2.67039 -5,-4.79512 -1.65,-2.12473 -3.45,-4.03827 -4,-4.25232 -2.13805,-0.83207 -14.64217,0.88406 -15.40225,2.11389 -1.28527,2.07962 -0.0602,6.01301 3.53825,11.36027 1.8502,2.74938 3.364,5.34246 3.364,5.76239 0,0.41993 1.8,2.01091 4,3.53551 3.43833,2.38277 4,3.2881 4,6.44744 0,4.25561 2.6022,7.57058 7.57324,9.64761 1.8095,0.75606 3.57233,1.83147 3.9174,2.3898 0.34506,0.55833 1.45269,1.01515 2.46139,1.01515 1.0087,0 2.09301,0.675 2.4096,1.5 0.59546,1.55176 -0.22994,1.85543 -4.16458,1.53219 -4.48124,-0.36815 -6.94389,4.27318 -3.69705,6.96781 1.64231,1.363 2.05797,5 0.57143,5 -0.51072,0 -1.67037,0.74179 -2.577,1.64843 -1.34068,1.34068 -1.59759,3.39516 -1.3761,11.00467 0.1821,6.25632 -0.12371,9.75228 -0.923,10.55157 -0.65777,0.65743 -1.19567,2.20377 -1.19567,3.43631 0,1.23254 -0.45,2.5191 -1,2.85902 -0.55,0.33992 -1,2.14096 -1,4.00231 0,2.2232 -0.66985,3.85347 -1.95246,4.75184 -1.75786,1.23125 -2.42217,3.02361 -4.89438,13.20537 l -0.71859,2.95952 -2.36184,-3.31691 c -2.07247,-2.9105 -2.77296,-3.25018 -5.71729,-2.77238 -4.01659,0.6518 -4.53303,-1.01033 -0.60544,-1.94859 3.95995,-0.94598 5.25,-2.26026 5.25,-5.34862 0,-1.49741 0.85291,-3.49443 1.89535,-4.43783 1.04244,-0.9434 2.1304,-2.92564 2.41769,-4.40499 0.28729,-1.47935 1.03131,-4.48972 1.65338,-6.68972 2.66668,-9.4309 3.78809,-16.04276 2.90535,-17.12998 -0.5046,-0.6215 -0.62572,-3.6122 -0.26915,-6.64602 0.60357,-5.13543 0.39815,-5.9213 -2.97716,-11.38973 -1.994,-3.23054 -3.62546,-6.56364 -3.62546,-7.40689 0,-0.84325 -1.73757,-5.12625 -3.86127,-9.51779 -5.25578,-10.86829 -9.78185,-25.43491 -10.57743,-34.04218 l -0.65926,-7.13258 3.97305,-4.59051 c 5.17843,-5.9832 5.58186,-7.56065 3.64105,-14.23681 -0.8923,-3.0694 -1.77309,-8.80426 -1.95731,-12.74412 -0.83408,-17.83847 -1.91889,-28.71342 -2.94465,-29.51939 -0.6128,-0.4815 -7.82365,-1.17933 -16.02411,-1.55073 -15.52209,-0.703 -17.66147,-1.21505 -30.39155,-7.27409 -2.91581,-1.38781 -7.19081,-2.76186 -9.5,-3.05344 -2.78577,-0.35175 -5.14382,-1.4747 -7.00783,-3.33724 -1.54513,-1.54391 -4.02013,-2.94692 -5.5,-3.1178 -1.5885,-0.18343 -3.074338,-1.18428 -3.627268,-2.4433 -0.52584,-1.19734 -1.84149,-2.12468 -3,-2.11454 -5.48311,0.048 -13.1354,-2.3733 -14.84885,-4.69838 -0.98199,-1.33252 -3.34863,-2.93867 -5.25921,-3.56921 -1.91058,-0.63055 -3.28729,-1.44769 -3.05937,-1.81586 0.22793,-0.36818 -2.13043,-0.69268 -5.24079,-0.72112 -3.11036,-0.0284 -9.08601,-0.42719 -13.27922,-0.88609 -6.253823,-0.68442 -8.213453,-0.54033 -10.903643,0.80171 -3.99575,1.99334 -3.97234,1.99254 -3.97234,0.13609 0,-0.825 -0.45,-1.5 -1,-1.5 -0.55,0 -1,0.45 -1,1 0,1.25948 -6.68079,1.32551 -7.45447,0.0737 -0.34801,-0.56309 -1.84161,-0.53135 -3.80901,0.081 -7.37879,2.29645 -7.11771,2.28113 -6.38617,0.37477 0.62628,-1.63207 0.2201,-1.73007 -4.54861,-1.09748 -4.12492,0.54719 -5.8325602,1.36246 -8.0455102,3.84114 -1.54507,1.73058 -2.59194,3.7127 -2.32639,4.4047 0.26555,0.69201 0.0657,1.51602 -0.4442,1.83112 -0.50985,0.31511 -1.20355,-0.68298 -1.54155,-2.21797 -0.338,-1.535 -1.22716,-4.42744 -1.97589999,-6.42765 -0.74875,-2.00021 -1.0854,-3.91271 -0.74811,-4.25 0.33729,-0.33729 4.02574999,-0.61645 8.19658999,-0.62036 10.5632902,-0.01 21.1287402,-1.1104 20.4956202,-2.13481 -0.64446,-1.04276 0.75453,-1.02865 6.41131,0.0647 3.57221,0.69041 4.61494,0.52442 6,-0.95509 1.5475,-1.65303 1.98397,-1.67492 5.6764,-0.28473 6.209453,2.33785 9.617103,2.74564 10.534843,1.26072 0.6648,-1.07568 1.51166,-1.03398 4.63921,0.22843 8.08855,3.26488 10.98013,4.09608 15.51453,4.45971 2.57872,0.2068 4.95729,-0.0588 5.28571,-0.59018 0.65034,-1.05227 5.52571,0.73011 5.52571,2.02014 0,1.19652 6.20932,4.51567 12.069128,6.45148 2.98698,0.98676 6.78087,2.78917 8.43087,4.00536 1.65,1.21619 5.025,3.31946 7.5,4.67392 4.39328,2.40427 4.9091,2.45251 21.75,2.03426 14.5327,-0.36093 17.25,-0.66642 17.25,-1.93927 0,-0.83097 -1.53718,-4.35697 -3.41595,-7.83555 -2.98679,-5.53021 -5.42715,-12.76784 -8.58182,-25.45206 -2.57445,-10.35128 -3.13506,-12.27776 -4.57822,-15.73256 -1.39896,-3.34903 -8.99171,-10.26744 -11.2682,-10.26744 -0.44395,0 -1.83007,-1.08882 -3.08027,-2.41959 -1.2502,-1.33078 -3.69114,-2.99583 -5.42432,-3.70012 -1.73317,-0.70428 -5.93468,-4.18435 -9.33669,-7.73348 -5.80744,-6.05858 -6.24772,-6.85612 -7.20412,-13.04988 -2.594978,-16.80552 -2.917238,-21.28491 -1.67965,-23.34693 0.74756,-1.24554 0.71339,-2.28954 -0.11854,-3.62167 -0.784288,-1.25585 -0.837718,-2.20283 -0.16237,-2.87818 0.55358,-0.55358 0.85883,-2.29883 0.67833,-3.87833 -0.19388,-1.69661 0.28565,-3.35842 1.17182,-4.06092 1.29292,-1.02493 1.30863,-1.50185 0.11376,-3.45458 -0.98527,-1.6102 -1.05758,-2.37505 -0.25,-2.64424 0.68923,-0.22974 1.13624,-2.87632 1.13624,-6.72721 0,-5.04406 -0.60517,-7.54392 -2.94532,-12.16667 -1.619928,-3.20001 -3.195588,-7.40053 -3.501468,-9.33449 -0.34172,-2.16052 -2.48342,-5.89817 -5.55468,-9.69389 -2.74919,-3.39768 -4.99853,-6.79184 -4.99853,-7.54258 0,-0.75074 -0.6677,-2.23849 -1.48378,-3.30611 -0.81607,-1.06762 -1.94955,-3.516128 -2.51882,-5.441128 -0.68014,-2.29987 -2.40018,-4.4397 -5.01623,-6.2405 -3.26696,-2.24886 -3.98117,-3.32531 -3.98117,-6.00044 0,-2.40728 -1.04623,-4.40451 -4,-7.63588 -2.2,-2.40677 -4,-4.91907 -4,-5.58289 0,-2.20114 -1.31184,-2.56599 -3.67017,-1.02074 -2.15791,1.41391 -2.32983,1.38636 -2.32983,-0.37335 0,-1.33126 1.52558,-2.5562 5.0971,-4.09262 2.8034,-1.206 5.29238,-1.99744 5.53105,-1.75876 0.23868,0.23867 0.7124,2.78497 1.05272,5.65844 0.35259,2.97704 1.19958,5.44737 1.96895,5.7426 0.7426,0.28497 1.35018,1.06035 1.35018,1.72307 0,0.66272 1.31896,2.1801 2.93102,3.37195 1.61207,1.19185 3.73409,3.52648 4.71561,5.18806 0.98152,1.66158 2.33224,3.02106 3.00159,3.02106 0.66935,0 1.4984,1.0125 1.84233,2.25 1.40118,5.04163 3.89363,9.749998 5.16132,9.749998 0.74147,0 1.34813,0.8625 1.34813,1.91667 0,1.05416 0.3375,2.06666 0.75,2.25 0.4125,0.18333 1.425,2.32696 2.25,4.76361 1.00677,2.9735 2.46048,4.95879 4.420968,6.03757 1.99715,1.09895 3.03694,2.54421 3.28766,4.56972 0.20169,1.62934 0.7683,4.31243 1.25914,5.96243 0.49084,1.65 1.18187,4.87361 1.53563,7.16358 0.74972,4.85312 6.06858,12.33642 8.76829,12.33642 1.70093,0 1.65092,0.36779 -0.64589,4.75 -5.7083,10.89122 -7.14432,16.13887 -8.16949,29.85385 -0.68204,9.12441 -0.0318,10.43759 6.50403,13.13465 1.94681,0.80337 4.33026,2.16341 5.29655,3.0223 3.15846,2.80745 12.49704,7.8186 13.2211,7.09454 0.27671,-0.2767 -0.034,-5.30933 -0.69041,-11.18361 -0.95489,-8.54508 -0.93217,-12.32912 0.11365,-18.92612 0.71894,-4.53509 1.70527,-11.17061 2.19184,-14.74561 0.48657,-3.575 2.16688,-9.2 3.73401,-12.5 4.21498,-8.87573 9.17292,-20.61968 9.17292,-21.72806 0,-0.53333 0.63255,-2.38769 1.40566,-4.12081 0.77311,-1.73312 2.19709,-5.40113 3.1644,-8.15113 0.9673,-2.75 2.86969,-6.51105 4.22752,-8.35789 2.55222,-3.47138 13.47672,-11.142108 15.86835,-11.142108 0.74573,0 3.43107,-0.97546 5.96743,-2.16769 4.15418,-1.9527 5.26889,-2.06616 11.2391,-1.14404 5.81039,0.89743 11.70999,2.87027 19.99945,6.68783 1.30455,0.60079 5.57955,3.799738 9.5,7.108778 3.92045,3.30904 8.88153,7.32684 11.02463,8.92844 8.38314,6.26498 32.72567,31.88747 35.64392,37.51813 1.58734,3.0627 3.73957,6.64407 4.78275,7.9586 l 1.89668,2.39006 2.03526,-2.03526 c 1.9813,-1.9813 3.93406,-5.14912 6.3153,-10.24485 2.05173,-4.3906 6.39018,-13.16554 7.59847,-15.36867 1.16647,-2.12687 0.9146,-4.77025 -1.72759,-18.13133 -1.07763,-5.44933 -7.15161,-18.599698 -9.48569,-20.536818 -0.8006,-0.66444 -1.45564,-1.71624 -1.45564,-2.33734 0,-0.6211 -2.025,-2.20353 -4.5,-3.51652 -7.26675,-3.855 -5.64332,-5.03978 3.39618,-2.47854 2.17038,0.61496 2.3482,0.42794 1.887,-1.98467 -0.37817,-1.97828 -0.20383,-2.41018 0.67761,-1.67865 1.43243,1.18881 3.53921,-0.58291 3.53921,-2.97633 0,-0.88488 0.66069,-2.48238 1.4682,-3.55 0.83729,-1.107 1.48186,-4.15885 1.5,-7.10204 0.0175,-2.83849 0.92599,-8.01348 2.0189,-11.49999 1.0929,-3.4865 1.9929,-7.624132 2,-9.194736 0.007,-1.57162 1.13701,-4.191574 2.5129,-5.826725 1.6777,-1.993835 2.5,-4.184164 2.5,-6.659165 0,-2.028447 0.9,-5.367289 2,-7.419651 1.1,-2.052361 2,-4.262925 2,-4.912365 0,-0.649439 1.31639,-2.33857 2.92532,-3.753624 2.58544,-2.273901 2.99945,-3.438174 3.56334,-10.020805 C 302.63524,0.464701 302.82344,0 305.56561,0 c 4.19315,0 10.53137,6.839948 7.86516,8.487757 -0.43584,0.269361 -1.02646,-0.40519 -1.3125,-1.499004 -0.64377,-2.461762 -2.70731,-2.632455 -2.70731,-0.223944 0,0.970645 -0.86426,3.377331 -1.92058,5.348192 -1.05632,1.97086 -2.41247,5.410154 -3.01368,7.642875 -0.60121,2.23272 -2.66195,6.340186 -4.57943,9.127701 -1.91747,2.787515 -3.50226,6.316557 -3.52175,7.842316 -0.0195,1.525759 -0.67854,3.899107 -1.46456,5.274107 -0.78602,1.375 -1.44508,3.75246 -1.46456,5.283244 -0.0195,1.530784 -1.14025,4.963476 -2.49057,7.628205 -1.35032,2.664733 -2.23773,5.062363 -1.97202,5.328073 0.26571,0.26571 0.0526,1.61536 -0.47352,2.99922 -0.52614,1.38385 -1.2431,7.97412 -1.59323,14.64502 -0.54951,10.46949 -0.42245,12.2111 0.92865,12.72956 0.86089,0.33036 1.56525,1.6775 1.56525,2.99366 0,1.31615 0.45857,2.39301 1.01905,2.39301 0.57107,0 0.75908,1.03583 0.42767,2.35624 -0.37672,1.50097 0.002,2.950118 1.04471,3.992328 0.89985,0.89985 1.34365,2.10925 0.98624,2.68756 -0.35742,0.57832 -0.14173,1.66372 0.4793,2.41202 0.62336,0.7511 0.8419,2.50505 0.48787,3.91559 -0.37578,1.49725 0.0611,4.3941 1.0552,6.9972 1.79853,4.70938 1.6741,11.61045 -0.34509,19.13906 -0.59005,2.2 -1.63254,6.7 -2.31666,10 -0.68412,3.3 -2.00899,7.35 -2.94417,9 -0.93517,1.65 -1.99502,4.41855 -2.35522,6.15233 -0.79442,3.82385 -3.7959,9.86918 -6.24198,12.57207 -1.47861,1.63384 -1.79692,3.76795 -1.79692,12.04725 0,7.16046 0.36043,10.18183 1.25,10.47835 0.6875,0.22917 1.25,1.41417 1.25,2.63333 0,1.21917 0.41279,2.64417 0.91731,3.16667 0.50452,0.5225 1.15287,2.3 1.44078,3.95 0.28791,1.65 1.02299,4.69372 1.63351,6.76382 1.77158,6.00692 4.11507,25.18384 4.7068,38.51614 0.66386,14.95725 1.0168,15.35872 10.30287,11.71954 3.43062,-1.34445 10.06269,-3.20413 14.73793,-4.13262 8.08686,-1.60603 8.75005,-1.94311 13.63062,-6.92797 6.59703,-6.73799 9.34589,-10.45802 10.17818,-13.77413 0.68356,-2.72354 1.86953,-3.41625 2.92501,-1.70845 0.75273,1.21795 3.51449,0.20069 3.56551,-1.31332 0.0212,-0.62865 1.46614,-2.04301 3.211,-3.14301 1.92403,-1.21295 3.74945,-3.5741 4.63863,-6 1.82456,-4.97785 2.03695,-5.23922 2.99617,-3.68717 0.98968,1.60133 4.11568,0.45023 4.11568,-1.51553 0,-2.8879 3.38641,-7.2973 5.60432,-7.2973 1.70452,0 2.31917,-0.77861 2.85051,-3.61091 0.44058,-2.34849 1.34194,-3.78469 2.57817,-4.10797 1.04542,-0.27338 2.1519,-1.28832 2.45884,-2.25542 0.30695,-0.9671 2.23435,-3.52351 4.28312,-5.68092 7.03963,-7.4129 10.7259,-11.84765 11.22504,-13.50419 0.39214,-1.30143 1.30056,-0.73515 4.21103,2.625 3.52998,4.07538 3.59816,4.28441 1.39737,4.28441 -2.33306,0 -12.78053,6.10145 -14.09824,8.23355 -0.39074,0.63224 0.0736,1.72285 1.03196,2.42359 1.59314,1.16493 1.42584,1.51551 -1.95295,4.09265 -2.03245,1.55022 -4.30492,4.27748 -5.04995,6.06058 -0.74503,1.78311 -2.63364,3.8523 -4.19691,4.59821 -1.83465,0.8754 -2.94759,2.25707 -3.13929,3.8973 -0.20303,1.73727 -1.20418,2.88354 -3.16485,3.62361 -1.83383,0.6922 -2.98872,1.92953 -3.20302,3.43168 -0.23318,1.63442 -2.15419,3.44809 -6.31366,5.96088 -6.02301,3.63858 -9.50651,7.79589 -9.51623,11.35695 -0.003,1.06094 -1.46776,3.3649 -3.25526,5.1199 -1.7875,1.755 -3.72922,3.81196 -4.31493,4.57101 -1.51796,1.9672 -6.07181,5.39109 -12.43507,9.34953 -3.025,1.88178 -6.175,4.06249 -7,4.84603 -0.825,0.78353 -2.98565,2.18162 -4.80145,3.10685 -1.8158,0.92524 -3.55144,2.33372 -3.85699,3.12997 -0.30554,0.79624 -1.22993,1.44771 -2.05419,1.44771 -0.82426,0 -2.83564,1.125 -4.46974,2.5 -1.63409,1.375 -3.59572,2.5 -4.35917,2.5 -3.09124,0 -3.33716,3.39797 -0.7615,10.52177 1.38767,3.83803 2.75226,7.99738 3.03244,9.24301 0.28017,1.24563 1.01817,2.59563 1.64,3 0.62183,0.40437 5.8556,0.75057 11.6306,0.76933 11.06623,0.036 16.85428,1.17731 19.52768,3.85071 0.88835,0.88835 2.44573,1.61518 3.46084,1.61518 1.01512,0 3.94863,0.90143 6.51891,2.00319 2.57029,1.10175 5.06429,1.7615 5.54223,1.46612 0.47794,-0.29539 1.67479,-0.10965 2.65966,0.41275 4.37496,2.32055 9.25991,4.11794 11.19181,4.11794 1.15438,0 2.09887,0.45 2.09887,1 0,1.16511 6.57869,1.21929 9.5,0.0782 1.1055,-0.4318 2.72498,-0.32882 3.62097,0.23026 1.2075,0.75344 2.40062,0.45629 4.67741,-1.16492 3.03527,-2.16131 3.06086,-2.16242 3.69641,-0.15997 0.94238,2.96918 4.34295,2.53055 5.68735,-0.7336 0.89456,-2.17195 1.22007,-2.38215 1.54857,-1 0.50045,2.10559 5.26929,2.44266 5.26929,0.37244 0,-0.75765 0.675,-1.93775 1.5,-2.62244 1.03636,-0.8601 1.5,-0.89795 1.5,-0.12244 0,1.66134 2.71515,1.3383 10.20412,-1.21407 l 6.70411,-2.28488 1.36018,6.06069 c 1.50127,6.68945 1.27683,8.08088 -0.81607,5.05913 -2.84531,-4.10807 -3.61382,-4.4984 -8.85691,-4.4984 -3.81152,0 -6.04862,0.56864 -7.8683,2 -1.39842,1.1 -3.23255,2 -4.07584,2 -0.84329,0 -1.78064,0.40028 -2.083,0.88951 -0.88434,1.43089 -7.2835,2.28616 -19.06829,2.54855 -11.57226,0.25766 -16.50902,0.94134 -20.28834,2.80968 -1.90246,0.9405 -3.184,0.67774 -7.59991,-1.55824 -2.92137,-1.47923 -5.61824,-2.6895 -5.99306,-2.6895 -0.37482,0 -3.70005,-2.025 -7.38941,-4.5 -6.51563,-4.371 -10.463,-5.54889 -11.72928,-3.5 -0.33992,0.55 -1.42173,1 -2.40403,1 -0.9823,0 -2.58256,0.8802 -3.55615,1.956 -0.98853,1.09232 -3.78888,2.25872 -6.34203,2.64159 -6.92958,1.03915 -9.19779,3.86588 -9.19779,11.46261 0,12.8376 -6.49367,28.04806 -13.36672,31.30953 -5.32308,2.52597 -6.36222,4.29804 -4.38374,7.47569 0.90904,1.46002 2.62428,4.45458 3.81165,6.65458 1.18737,2.2 3.29798,5.21605 4.69025,6.70233 2.41593,2.57906 2.50808,3.1115 2.02,11.67159 -0.38586,6.76738 -1.0343,9.81533 -2.64142,12.4157 -1.17151,1.89555 -2.13002,4.36583 -2.13002,5.48952 0,2.436 5.07526,6.96021 8.82707,7.86866 2.64985,0.64163 6.17862,3.47112 13.08894,10.49517 1.9712,2.00364 5.04649,4.3777 6.83399,5.27568 1.7875,0.89799 3.25,2.26193 3.25,3.03097 0,0.76905 1.3893,2.44499 3.08734,3.72432 1.69804,1.27933 4.17027,3.45106 5.49384,4.82606 1.32358,1.375 7.47177,7.7891 13.66266,14.25356 17.11482,17.8711 35.4434,35.45322 38.9007,37.3164 4.88465,2.63238 27.85546,25.02824 27.85546,27.15824 0,2.46208 -2.54281,1.22251 -7.13508,-3.4782 -5.05793,-5.17736 -11.39933,-10.8757 -22.61492,-20.32163 -3.9875,-3.35832 -7.25,-6.51193 -7.25,-7.00801 0,-0.49609 -1.49951,-1.88493 -3.33225,-3.08631 -1.83273,-1.20139 -4.04572,-3.4275 -4.91774,-4.94691 -0.87202,-1.51941 -3.40746,-3.69206 -5.63431,-4.82812 -2.22686,-1.13605 -4.5134,-2.93361 -5.0812,-3.99456 -0.56781,-1.06096 -1.9405,-2.21724 -3.05043,-2.56952 -1.10993,-0.35227 -2.61928,-2.07945 -3.35412,-3.83818 -0.73484,-1.75872 -2.80479,-4.31347 -4.59988,-5.67722 -7.23303,-5.49501 -10.07581,-8.31359 -10.63596,-10.54541 -0.38358,-1.52832 -1.76592,-2.73176 -3.97545,-3.46097 -3.68455,-1.21602 -6.83016,-4.63013 -8.95847,-9.72316 -1.0472,-2.50592 -1.96408,-3.25 -4.00479,-3.25 -3.1571,0 -8.09534,-3.2902 -8.94199,-5.95776 -0.71041,-2.23829 -8.4751,-7.04224 -11.38246,-7.04224 -1.10711,0 -2.29103,-0.45 -2.63095,-1 -1.15146,-1.8631 -2.73903,-1.02205 -2.17099,1.15014 0.30925,1.18257 0.13428,4.40693 -0.38882,7.16523 -0.72388,3.817 -0.63627,5.3937 0.36673,6.59987 0.72481,0.87162 2.14477,3.49542 3.15548,5.83066 1.5564,3.59607 1.74945,5.91789 1.26135,15.17026 -0.3654,6.92635 -1.1376,11.95996 -2.10999,13.7541 -1.45762,2.68939 -1.53567,2.27938 -1.57372,-8.26662 -0.0288,-7.9939 -0.47713,-11.97254 -1.60336,-14.23012 -2.07276,-4.15494 -3.14251,-4.67572 -4.00735,-1.95085 -1.08631,3.42264 -6.70365,9.73895 -8.67933,9.7593 -1.9676,0.0203 -2.26383,-1.06814 -0.71284,-2.61913 1.15649,-1.15649 -0.16322,-5.70468 -1.98131,-6.82832 -0.58713,-0.36287 -2.6431,-0.09 -4.56882,0.60633 -3.23413,1.16948 -3.45535,1.51107 -2.89903,4.47652 0.4689,2.49948 0.1911,3.43048 -1.25447,4.20413 -1.45733,0.77994 -2.49959,0.41932 -4.84514,-1.67643 -1.64361,-1.46857 -3.06339,-3.03949 -3.15506,-3.49093 -0.43876,-2.16085 -1.35281,-1.54328 -2.78339,1.88059 -1.73495,4.15231 -1.37434,5.13165 4.66724,12.67528 1.49446,1.866 3.85622,5.96829 5.24838,9.1162 l 2.53119,5.72347 -2.98896,-1.54565 c -3.36614,-1.7407 -5.41904,-4.48305 -7.148,-9.5486 -0.64867,-1.90049 -2.23249,-4.72746 -3.51959,-6.28216 -1.61925,-1.95589 -2.34484,-4.11238 -2.35526,-7 -0.0229,-6.33558 -2.52644,-12.01098 -10.77787,-24.43246 -0.92502,-1.39251 -10.49971,7.54808 -15.4601,14.43624 -1.51417,2.10262 -4.82589,6.46453 -7.35939,9.69312 -2.5335,3.2286 -5.46933,7.82106 -6.52407,10.20549 -1.05474,2.38442 -2.96902,5.59284 -4.25396,7.12983 -1.28493,1.53698 -3.26484,4.62461 -4.39981,6.86141 -1.13496,2.23679 -2.84421,4.71179 -3.79834,5.5 -0.95413,0.7882 -2.73446,3.6831 -3.95628,6.4331 -1.22183,2.75 -3.21048,5.8902 -4.41924,6.97823 -1.20876,1.08802 -3.38163,4.46302 -4.82861,7.5 -1.44698,3.03697 -4.33557,7.42422 -6.41907,9.74943 -2.08351,2.32521 -3.7882,5.12205 -3.7882,6.2152 0,1.09315 -1.26059,3.46571 -2.80132,5.27234 -1.54072,1.80664 -4.24586,5.58221 -6.01142,8.39015 -1.76556,2.80795 -4.11932,5.92818 -5.23058,6.93386 -1.11126,1.00567 -2.51697,3.80026 -3.1238,6.21019 -0.66161,2.62749 -2.02935,4.98845 -3.41637,5.89726 -1.27218,0.83356 -3.07586,3.61657 -4.00818,6.18446 -0.93232,2.56788 -2.58045,5.45638 -3.66252,6.41888 -2.05384,1.8269 -3.75652,2.28329 -3.73075,1 z"
     id="path2995"
     style="fill:#B6BEC1" />
</svg>
