<?xml version="1.0" encoding="UTF-8" standalone="no"?>
<svg
   width="1856.576"
   height="980.86584"
   viewBox="0 0 1856.576 980.86584"
   version="1.1"
   id="svg4"
   xmlns="http://www.w3.org/2000/svg"
   xmlns:svg="http://www.w3.org/2000/svg">
  <defs
     id="defs8" />
  <path
     d="m 918.127,2.887 c -2.504,1.588 -6.004,4.909 -7.779,7.379 -2.755,3.837 -3.834,4.562 -7.393,4.967 -11.145,1.269 -29.478,11.726 -41.669,23.767 -15.259,15.071 -23.809,32.527 -24.769,50.569 -0.369,6.93 -0.122,9.757 1.045,11.984 1.392,2.658 1.37,3.227 -0.253,6.431 -3.293,6.5 -9.241,26.459 -9.772,32.793 -0.29,3.452 -0.915,6.516 -1.388,6.809 -1.047,0.647 -1.114,5.51 -0.096,6.962 3.374,4.813 14.148,8.321 28.48,9.272 10.152,0.673 10.253,0.705 10.083,3.18 -0.095,1.375 -0.496,8.364 -0.891,15.53 l -0.719,13.031 4.641,13.477 c 2.553,7.412 4.641,14.088 4.641,14.835 0,0.802 -1.595,-0.022 -3.887,-2.007 -16.317,-14.132 -32.979,-24.945 -48.74,-31.63 -9.889,-4.195 -42.196,-14.115 -68.873,-21.148 -23.268,-6.134 -45.01,-10.05 -67,-12.067 -6.6,-0.606 -16.5,-1.747 -22,-2.537 -15.799,-2.269 -27.447,-3.312 -50,-4.48 -20.089,-1.04 -28.569,-1.644 -56.5,-4.022 -49.426,-4.209 -71.042,-8.675 -135.5,-27.991 -12.65,-3.791 -26.825,-7.843 -31.5,-9.006 -4.675,-1.162 -17.95,-5.199 -29.5,-8.971 -64.901,-21.194 -69.069,-22.4 -112,-32.412 C 197.24,56.048 173.824,52.133 144.288,50.465 129.364,49.622 97.422,51.491 85.186,53.924 57.637,59.4 25.359,76.221 13.018,91.532 7.877,97.911 5.968,103.057 4.499,114.5 c -2.054,16.002 5.555,32.412 24.386,52.589 1.842,1.974 5.552,6.345 8.245,9.714 9.372,11.723 31.72,34.27 41.158,41.523 9.067,6.969 34.218,23.78 50.755,33.925 4.26,2.614 10.445,6.481 13.745,8.595 9.448,6.051 23.577,13.335 42,21.653 9.35,4.222 24.619,11.456 33.93,16.077 9.312,4.62 18.537,8.671 20.5,9.001 5.024,0.845 33.625,14.659 45.57,22.011 5.5,3.385 11.575,6.998 13.5,8.03 3.493,1.871 3.422,1.876 -35,2.614 -61.88,1.187 -103.776,4.277 -126.5,9.331 C 98.214,358.141 51.845,379.156 30.963,397.525 18,408.927 6.217,425.229 2.636,436.712 L 0,445.169 l 1.818,8.166 c 2.621,11.767 7.49,23.287 13.582,32.14 7.332,10.651 25.651,25.904 44.803,37.303 17.606,10.479 46.683,24.108 60.416,28.319 5.593,1.715 15.569,4.846 22.169,6.958 39.039,12.492 111.647,30.312 179.184,43.975 10.551,2.134 21.902,4.585 25.226,5.447 13.157,3.409 33.328,10.898 47.59,17.668 8.25,3.917 24.225,11.511 35.5,16.877 42.602,20.273 67.491,27.591 110.5,32.489 25.366,2.888 109.74,4.752 130.37,2.879 10.189,-0.925 31.687,1.299 44.916,4.646 20.251,5.124 43.477,8.966 54.067,8.943 16.3,-0.035 41.586,-5.351 47.647,-10.018 0.55,-0.424 6.85,-3.723 14,-7.333 7.15,-3.61 15.025,-8.158 17.5,-10.108 2.475,-1.95 7.566,-5.605 11.314,-8.123 11.749,-7.891 27.058,-23.046 38.831,-38.439 3.446,-4.504 4.674,-3.152 2.557,2.815 -3.458,9.746 -6.711,35.061 -6.543,50.916 0.086,8.146 0.159,17.736 0.162,21.311 0.003,3.575 -1.038,11.675 -2.313,18 -3.115,15.459 -3.173,33.324 -0.17,52.492 1.206,7.695 2.982,15.588 3.948,17.54 1.37,2.769 1.574,4.529 0.927,8.008 -1.371,7.381 -0.166,54.572 1.557,60.96 0.963,3.57 1.694,12.868 2.083,26.5 0.623,21.799 2.827,41.807 4.878,44.278 0.81,0.977 1.21,7.165 1.265,19.575 0.09,20.387 0.95,24.038 7.899,33.503 8.01,10.913 17.543,10.662 25.662,-0.675 6.387,-8.92 7.313,-13.08 7.412,-33.31 0.061,-12.591 0.446,-18.063 1.345,-19.146 1.978,-2.384 4.121,-22.329 4.805,-44.725 0.394,-12.9 1.17,-22.539 2.092,-26 1.738,-6.521 2.937,-51.334 1.606,-60 -0.676,-4.399 -0.509,-6.161 0.837,-8.801 0.925,-1.816 2.171,-6.541 2.767,-10.5 0.597,-3.96 1.524,-9.899 2.061,-13.199 2.282,-14.038 2.311,-25.525 0.1,-40 -1.176,-7.7 -2.632,-15.527 -3.235,-17.394 -0.686,-2.12 -0.834,-6.246 -0.395,-11 1.833,-19.86 -1.079,-52.455 -6.062,-67.867 -2.096,-6.482 -1.049,-7.875 2.465,-3.281 11.773,15.393 27.082,30.548 38.831,38.439 3.748,2.518 8.839,6.173 11.314,8.123 2.475,1.95 10.35,6.498 17.5,10.108 7.15,3.61 13.45,6.909 14,7.333 6.061,4.667 31.347,9.983 47.647,10.018 10.59,0.023 33.816,-3.819 54.067,-8.943 13.229,-3.347 34.727,-5.571 44.916,-4.646 20.63,1.873 105.004,0.01 130.37,-2.879 43.009,-4.898 67.898,-12.216 110.5,-32.489 11.275,-5.366 27.25,-12.96 35.5,-16.877 14.262,-6.77 34.433,-14.259 47.59,-17.668 3.324,-0.862 14.675,-3.313 25.226,-5.447 67.537,-13.663 140.145,-31.483 179.184,-43.975 6.6,-2.112 16.576,-5.243 22.169,-6.958 13.733,-4.211 42.81,-17.84 60.416,-28.319 19.152,-11.399 37.471,-26.652 44.803,-37.303 6.092,-8.853 10.961,-20.373 13.582,-32.14 l 1.818,-8.166 -2.636,-8.457 c -3.581,-11.483 -15.364,-27.785 -28.327,-39.187 -20.882,-18.369 -67.251,-39.384 -105.825,-47.962 -22.724,-5.054 -64.62,-8.144 -126.5,-9.331 -38.422,-0.738 -38.493,-0.743 -35,-2.614 1.925,-1.032 8,-4.645 13.5,-8.03 11.945,-7.352 40.546,-21.166 45.57,-22.011 1.963,-0.33 11.188,-4.381 20.5,-9.001 9.311,-4.621 24.58,-11.855 33.93,-16.077 18.423,-8.318 32.552,-15.602 42,-21.653 3.3,-2.114 9.485,-5.981 13.745,-8.595 16.537,-10.145 41.688,-26.956 50.755,-33.925 9.438,-7.253 31.786,-29.8 41.158,-41.523 2.693,-3.369 6.403,-7.74 8.245,-9.714 13.659,-14.636 21.023,-26.722 23.816,-39.089 1.59,-7.039 0.983,-15.875 -1.754,-25.525 -5.172,-18.234 -42.644,-41.451 -78.363,-48.551 -12.236,-2.433 -44.178,-4.302 -59.102,-3.459 -29.536,1.668 -52.952,5.583 -102.5,17.137 -42.931,10.012 -47.099,11.218 -112,32.412 -11.55,3.772 -24.825,7.809 -29.5,8.971 -4.675,1.163 -18.85,5.215 -31.5,9.006 -64.279,19.263 -86.221,23.804 -135,27.945 -28.769,2.441 -37.183,3.042 -57,4.068 -22.553,1.168 -34.201,2.211 -50,4.48 -5.5,0.79 -15.4,1.931 -22,2.537 -21.99,2.017 -43.732,5.933 -67,12.067 -26.677,7.033 -58.984,16.953 -68.873,21.148 -15.761,6.685 -32.423,17.498 -48.74,31.63 -2.292,1.985 -3.887,2.809 -3.887,2.007 0,-0.747 2.088,-7.423 4.641,-14.835 l 4.641,-13.477 -0.719,-13.031 c -0.395,-7.166 -0.796,-14.155 -0.891,-15.53 -0.17,-2.475 -0.069,-2.507 10.083,-3.18 14.332,-0.951 25.106,-4.459 28.48,-9.272 1.018,-1.452 0.951,-6.315 -0.096,-6.962 -0.473,-0.293 -1.098,-3.357 -1.388,-6.809 -0.531,-6.334 -6.479,-26.293 -9.772,-32.793 -1.623,-3.204 -1.645,-3.773 -0.253,-6.431 1.167,-2.227 1.414,-5.054 1.045,-11.984 C 1019.099,71.527 1010.549,54.071 995.29,39 983.099,26.959 964.766,16.502 953.621,15.233 950.062,14.828 948.983,14.103 946.228,10.266 941.403,3.548 935.203,0 928.288,0 c -4.465,0 -6.537,0.589 -10.161,2.887 m 6.668,9.518 -2.994,2.395 h 6.487 6.487 l -2.994,-2.395 c -1.646,-1.317 -3.218,-2.395 -3.493,-2.395 -0.275,0 -1.847,1.078 -3.493,2.395 m -86.041,117.137 -4.966,14.542 2.442,1.857 c 3.367,2.561 8.015,3.812 18.628,5.012 4.989,0.564 10.515,1.529 12.281,2.145 3.044,1.061 3.453,0.892 7.929,-3.29 2.596,-2.426 6.856,-5.287 9.466,-6.359 2.611,-1.072 4.748,-2.208 4.75,-2.525 0.002,-0.316 -1.009,-1.498 -2.246,-2.627 -3.273,-2.983 -9.306,-4.63 -14.404,-3.931 -8.703,1.193 -20.649,-5.389 -25.553,-14.08 -1.641,-2.907 -3.069,-5.286 -3.173,-5.286 -0.104,0 -2.423,6.544 -5.154,14.542 m 170.821,-9.396 c -4.986,8.833 -16.862,15.422 -25.633,14.22 -5.098,-0.699 -11.131,0.948 -14.404,3.931 -1.237,1.129 -2.248,2.311 -2.246,2.627 0,0.317 2.139,1.453 4.75,2.525 2.61,1.072 6.816,3.883 9.347,6.247 l 4.6,4.298 6.4,-1.417 c 3.519,-0.78 9.862,-1.847 14.094,-2.371 4.232,-0.524 9.407,-1.853 11.5,-2.954 4.898,-2.575 4.831,-4.026 -0.922,-20.143 l -4.423,-12.391 -3.063,5.428"
     stroke="none"
     fill="#B6BEC1"
     fill-rule="evenodd"
     id="path2" />
</svg>
