<?xml version="1.0" encoding="utf-8"?>
<!-- Generator: Adobe Illustrator 24.0.0, SVG Export Plug-In . SVG Version: 6.00 Build 0)  -->
<svg version="1.1" id="Layer_1" xmlns="http://www.w3.org/2000/svg" xmlns:xlink="http://www.w3.org/1999/xlink" x="0px" y="0px"
	 viewBox="0 0 500 500" style="enable-background:new 0 0 500 500;" xml:space="preserve">
<path d="M281.9,79.6c5.2-14.7,37.7-32,58.9-32.1c23.7-0.1,46.2,2.6,60.9,25.2c5.6-5,8.4-11.4,14.4-15.1c4.1,7.3-0.4,13.4-3.1,21.2
	c10.5-4.6,16.9-13.1,26.3-16.8c2.3,8.8,0.4,12.7-13.8,28.7c4.4,4.1,8.7,8.2,13.2,12.2c3.4,3,5.5,6.3,5.1,11
	c-0.6,6.2,2.1,10.9,6.8,14.9c5.5,4.7,10.5,10,15.6,15.2c10,9.9,9.9,10,11.5,23c0.3,2.2,0.4,4.7-1.2,6c-6.4,5.3-12.5,11.6-21.8,11.5
	c-3.4-0.1-6.7-1.1-9.2-3.4c-3.3-3-5.5-2.2-8.2,0.9c-8.4,9.9-16.3,20.1-21.6,32.9c-2.4-4,0-7.7-1.8-11.6c-5.6,6.1-6.9,14.7-13.9,19
	c-10.1-8.9-11.1-13.3-5-25.4c4.1-8.1,7-16.6,8.9-26.6c-6-0.5-11.7-0.1-17-2.4c-1.1-0.5-2.1,0.4-2.8,1.6
	c-9.3,15.7-21.6,29.1-32.1,43.9c-8.6,12.1-17.3,24-26,36.1c-3.2,4.4-6.4,9-7.6,14.3c-2.5,10.6-8.3,19.4-14.8,27.8
	c-3.7,4.8-7.6,9.4-11.5,14c-6.3,7.4-11.2,15.7-14.7,24.8c-2.6,6.7-3.4,13.5-0.8,20.4c2.9,7.8,2.4,15.5-1,22.9
	c-3.2,6.9-3.1,14.1-1.9,21.3c1,6.3,2.1,12.5,3.2,18.8c1.3,7.5,3.4,14.6,8.5,20.7c2.8,3.3,5.6,7.1,6,11.8c-3.1,2.1-5.2-1.4-8-0.8
	c-2.5,1.6,0.1,4.6-1.6,6.6c-0.7-0.2-1.7-0.2-2.3-0.6c-7.1-4.6-11.8-10.8-15.2-18.6c-5.9-13.6-7.4-27.9-9-42.3
	c-2-17.7-4.7-35.3-8-52.8c-2.5-13.5-8.3-19-21.1-17.3c-23.8,3.2-46.2-3.8-69.1-6.7c-3.9-0.5-7.8-1-11.7-1.2
	c-8.3-0.3-9.1,0.6-9.8,9.1c-0.6,7.2-1,14.5-1.6,21.7c-0.2,2.1-0.6,4.2-1.5,6.1c-1.2,2.7-4,2.8-5.6,0.2c-1.6-2.6-2.1-5.6-2.3-8.7
	c-0.4-4.8-1-9.6-1.2-14.5c-0.2-4-2.3-5.1-5.9-5.1c-3.9,0-6.7,1.3-7,5.4c-0.2,3,0.2,6,0.6,9c0.6,5.1,1.1,10.2,0.8,15.4
	c-0.1,1.1-0.1,2.5-1.5,3c-1.9,0.6-2.9-0.7-3.4-2c-1.4-3.6-2.8-7.3-4-11.1c-1.6-4.7-2.3-9.8-5-15.1c-6.5,6.1-9.7,12.5-8.8,20.5
	c0.6,4.9,1,9.5-0.8,14.3c-0.8,2.2-0.5,4.8-0.4,7.2c0.8,23.1,3,45.9,11.8,67.5c0.6,1.4,1.3,2.7,0.7,5.1c-3.8,0.1-6.7-2.9-10.8-3.7
	c-2,2.7,1.8,5.5,0.1,8.1c-9.2-2.4-15.6-9.4-16.7-18.1c-1.5-11.7-0.9-23.5-2.4-35.3c-1.5-12.1-3.9-23.7-8.1-35.2
	c-10.5-29-18.7-58.7-23.3-89.3c-2.5-16.7-6.3-33.2-7.9-50.1c-1.1-11.1-0.5-21.7,5.3-31.6c1.1-1.8,1.5-4,2.6-5.8
	c2.3-3.8,1.9-6.6-2.2-9c-3.4-2-6.2-4.8-9.5-7c-5.8-3.8-6.6-8.9-4.3-14.9c1.3-3.4,2.7-6.7,4-10.1c3.3-8.4,6.8-16.8,8.9-25.7
	c1.4-5.8,3.6-11.5,9.2-15.6c2.3,5.4,5.7,10.2,1.3,16c-0.9,1.2-0.9,3.6-0.6,5.3c1.1,7.9,3.9,15.2,8.3,21.8c2.1,3.1,4.9,4.4,8.5,2
	c15.4-10.5,31.7-7.5,46.6-0.7c19.2,8.7,39,12.7,59.6,14.2c12.8,1,25.3-0.8,37.1-6.5c9.2-4.5,18.6-8.8,27.9-13.1
	c4.4-2,8.9-3.8,13.3-5.7c6.9-3,13.2-2.8,19.6,1.7c4.9,3.5,10.5,5.9,15.8,8.8c5.5,2.9,10.9,2.7,16.5,0.2c7.2-3.3,14.3-6.8,20.5-11.5
	c6.6-5,13.7-8.8,21.8-10.7c7.6-1.8,12.2-6.1,13.3-14.1c0.8-6.6,4.9-10.8,10.7-13.6c1.6-0.8,3.3-1.6,4.9-2.4c9.1-4.7,10-9.2,3.9-17.6
	c-3.1-4.2-7.4-6.1-12.2-7.3c-25.1-6.3-48.5-2.3-70.6,11C288.7,76.9,286.5,79.8,281.9,79.6z"/>
</svg>
