<?xml version="1.0" encoding="utf-8"?>
<!-- Generator: Adobe Illustrator 24.0.0, SVG Export Plug-In . SVG Version: 6.00 Build 0)  -->
<svg version="1.1" id="Layer_1" xmlns="http://www.w3.org/2000/svg" xmlns:xlink="http://www.w3.org/1999/xlink" x="0px" y="0px"
	 viewBox="0 0 500 500" style="enable-background:new 0 0 500 500;" xml:space="preserve">
<path d="M429.5,440.3c-3.3-1.9-2.9-4.5-3-6.7c-1.5-21.3-8.4-40.7-18.9-59.3c-15.2-27-36.5-48-59.6-68.1
	c-17.3-15.1-35.8-28.7-52.8-44.2c-3.6-3.3-6.3-7.2-9.4-10.8c-1.4-1.6-2.8-3.1-4.2,0.4c-8.9,21.8-19.8,42.7-30.5,63.6
	c-9.9,19.4-20.3,38.5-33.1,56.2c-0.9,1.2-1.3,3-3.9,3.1c1.9-9.1,4.3-17.8,8.4-26c12.4-25.1,24.9-50,37.4-75
	c4.4-8.7,8.3-17.6,11.3-28.5c-15.1,12.6-32.8,16.6-49.2,23c-32.6,12.6-66.5,21.1-100.4,29.6c-28.1,7.1-56.5,12.7-85.5,14.1
	c-6.5,0.3-13.1,0-19.7-0.6c1.9-2.4,4.5-2.8,7.1-3.2c40.8-5.7,81.1-13.9,120.5-25.6c32.8-9.7,65.4-20.6,96.7-34.9
	c2.4-1.1,4.7-2.5,7.4-4c-2.9-2-5-0.9-7-0.6c-39.6,6-75.2-3.8-107.3-27.1c-3.7-2.7-7.4-5.5-10.8-8.5c-5.7-5-4.7-12,2.1-15.4
	c21.8-11,45.2-13.8,69.2-13.6c16,0.1,31.9,0.8,48.5,3.1c-7.2-8.8-15.3-15.8-22.5-23.6c-24-26.1-54.3-42.2-86.9-54.4
	c-11.4-4.2-22.3-10-34.6-11.4c-9.3-1.1-18.7-1.4-28.1-2c-7.4-0.4-14.7-1.3-21.8-3.5c-1.4-0.4-3.7-0.3-3.1-2.7
	c0.4-1.7,2.3-1.2,3.6-1.3c13.8-1.2,27.5,0.2,41.2,1.7c38.6,4.3,74.2,16.7,106,39.3c22.1,15.7,41.9,33.8,59.2,54.7
	c4.8,5.8,9.8,11.6,16,16.1c1.4,1,2.9,2.6,4.8,1.5c1.6-0.9,1.2-2.8,1.1-4.4c-0.3-27.1,1.3-54.3-1.4-81.4c-1.3-12.8-4.3-25.1-8.9-37.1
	c-0.6-1.5-1.4-2.9-1.7-4.5c-0.7-2.9-3.7-6.9,0.1-8.4c3.8-1.5,6.9,1.8,8.6,5.6c5.6,13,9.2,26.5,9.9,40.5c1.3,27.9,3.2,55.8,5.1,83.7
	c0.5,7.5,2.3,8.6,9.1,4.9c9.2-5.1,18.6-10.1,27.7-15.5c26.3-15.7,54.4-27.6,82-40.5c20.8-9.7,40.9-20.8,62.1-29.6
	c4.2-1.7,8.2-3.5,13.1-2.8c-43,30.4-91.2,51.3-137.4,75.9c8.2-3.2,16.4-6.1,25.1-7c8.5-0.8,13.5,5,10.7,12.6c-0.8,2.1-2.2,4-4.7,3.9
	c-2.5-0.1-2.5-2.2-2.5-4c-0.1-3.6-2.4-4.7-5.5-5c-4.3-0.4-8.5,0.1-12.2,2.1c-11.4,6.2-22.9,12.2-33.2,20.2c-3.1,2.4-3.4,3.7,0.2,5.9
	c4.1,2.5,8,5.3,11.6,8.5c5,4.5,4.2,9.1-1.5,12.6c-1,0.6-2.1,1.1-3.1,1.7c-4.8,3-4.9,5.8-0.1,8.9c12.4,8.1,35.3,4,44.3-7.8
	c2.5-3.3,1.7-6.8,2-10.3c0.2-2.4,0-5.3,3.5-5.2c3.3,0.1,3.5,3,3.5,5.3c0,6.9-2.4,12.8-7.4,17.7c-10.4,10.3-33.5,17.6-50.4,6.8
	c-2.9-1.8-5.9-3.4-8.9-4.8c-3.1-1.5-6.5-2.1-8.6,1.1c-2.4,3.7,0.8,6,3.3,7.8c10.8,7.6,22.1,14.4,32.5,22.5
	c34.4,26.8,64.9,56.8,79.3,99.6c5.3,15.9,5.2,32.2,5.6,48.6C429.7,429.1,429.5,434.3,429.5,440.3z M310.5,201.6
	c0.3,0.5,0.6,1.1,1,1.6c6.2-2.6,11.3-6.9,16.3-11.5C321.9,195,316.2,198.3,310.5,201.6z"/>
</svg>
