<?xml version="1.0" encoding="utf-8"?>
<!-- Generator: Adobe Illustrator 24.0.0, SVG Export Plug-In . SVG Version: 6.00 Build 0)  -->
<svg version="1.1" id="Layer_1" xmlns="http://www.w3.org/2000/svg" xmlns:xlink="http://www.w3.org/1999/xlink" x="0px" y="0px"
	 viewBox="0 0 500 500" style="enable-background:new 0 0 500 500;" xml:space="preserve">
<path d="M22,206.1c-3.8-4-4.7-8-4.3-12.5c0.5-5.4,2.7-10.2,5.5-14.7c1.2-1.9,1.7-3.6-0.1-5.3c-0.2-0.2-0.3-0.5-0.5-0.7
	c-3.1-5.2-4.4-10.7-1.1-16.2c3.4-5.6,8.9-7.4,15.1-7.2c3.5,0.1,6.2,2,8.6,4.3c0.9,0.8,1.4,2.1,2.9,2.8c4.4-12,14.3-17.5,25.2-21.8
	c11.2-4.5,23-6.8,34.9-8.5c27.3-3.8,54.8-3.6,82.2-1.7c13.5,1,26.5,4.1,39.6,7.1c12,2.7,23.9,5.6,36.2,6.9c9.4,1,18.6-0.3,27.8-0.8
	c11.6-0.6,23.2-1.3,34.7,0.1c13.8,1.7,26.6,6.6,39,12.6c5.8,2.8,11.5,5.9,16.9,9.4c2.9,1.9,5.1,2.1,8-0.1
	c5.7-4.1,11.6-7.9,17.5-11.7c2.3-1.5,4.6-2.9,7.2-3.8c1.1-0.4,2.2-0.8,3.3-0.9c3.2-0.4,4.3,1.1,2.9,4c-1.3,2.5-3,4.8-4.6,7.3
	c1.9,0.3,3.1-0.8,4.5-1.4c5.2-2.3,10.6-3.3,16.3-3.4c2.2-0.1,2.6,0.4,2.1,2.5c-0.6,2.2-1.9,3.9-3.6,5.2c-1.6,1.2-2.2,2.7-2.3,4.7
	c-0.2,4.3-0.3,8.6-1.4,12.8c-0.7,2.8-1.7,5.5-3.1,8c-1.1,1.9-0.9,3.3,0.5,4.9c4.6,5.2,8.5,10.8,12,16.7c2.7,4.7,5.2,9.5,6.5,14.9
	c0.7,3,2.6,5,4.8,6.9c5.6,5,11.9,8.8,18.6,12.2c1.1,0.6,2.3,1.4,3.5,1.7c4,1,4.9,4,5,7.4c0.3,7.2-2.5,13.4-7.1,18.8
	c-1,1.2-2.3,1-3.5,0.9c-5.8-0.5-11.7-1.1-17.3-2.8c-1.9-0.6-3.6-0.5-5.3,0.7c-10.7,7.2-22.3,7-34.3,4.7c-1.4-0.3-2.7-1-4.1-0.1
	c-4.6,2.7-9.5,2.4-14.1,0.7c-4.4-1.6-7.9-0.9-12.1,1c-10.8,4.9-22.2,7.5-34,7.9c-2.5,0.1-3.8,0.9-5.1,2.9c-10,16-13.8,33.1-9.8,51.7
	c1.2,5.7,3.6,10.8,6.7,15.7c3.1,5,6.4,9.8,10,14.5c1.5,2,1.4,3.2-0.8,3.6c-2.4,0.4-3.7,1.3-4.6,3.6c-0.8,2.2-2.3,2.4-4.5,1
	c-3-1.8-5.3-4.4-7.2-7.3c-2.5-3.8-5.4-6.5-9.9-7.6c-3.2-0.8-4.2-2.9-4.3-6.3c-0.4-10-1.4-20-4.1-29.7c-0.6-2.1-1.3-4.1-2.6-5.9
	c-1.8-2.4-4-2.6-6.2-0.6c-1.8,1.6-2.6,3.7-3.3,5.9c-1.7,5.2-2,10.7-2.4,16.1c-0.2,3.4-0.1,6.9-0.3,10.3c-0.2,2.5,0.5,4.4,2.4,6
	c3.1,2.8,5.6,6.1,7.7,9.7c1.2,2.1,2.2,4.4,2.6,6.8c0.5,3.1-1,4.4-4.2,3.8c-1-0.2-1.6-0.4-2.5,0.7c-1,1.4-2.6,0.7-3.9,0.2
	c-4.8-1.8-8.9-4.8-11.1-9.6c-1.3-3-3.3-4.9-5.9-6.5c-3.7-2.3-3.6-2.4-2.1-6.4c2.4-6.1,1.9-12.4,1.2-18.7
	c-1.3-10.1-2.9-20.1-4.3-30.1c-0.2-1.4-0.3-2.8-0.5-4.3c-0.3-3.5-0.6-3.9-4.2-3.7c-8.3,0.6-16.5,2-24.6,3.6
	c-12.5,2.4-24.9,5.4-37.5,6.9c-14.5,1.8-29.1,2-43.7,0.8c-12.6-1-24.9-3.3-37.2-6.1c-1-0.2-2-0.3-3-0.5c-1.4-0.4-2.3,0.2-2.5,1.5
	c-1.2,8.8-3,17.5-1.2,26.4c0.7,3.5,2.3,6.4,5.1,8.6c8,6.3,14.1,14.6,21.3,21.7c0.5,0.5,0.9,1.1,1.3,1.7c0.8,1.1,0.4,2.2-0.2,3.2
	c-0.6,1.1-1.5,1.1-2.6,0.8c-0.7-0.2-1.4-0.2-2.1-0.4c-1.5-0.5-2.2-0.1-2.8,1.5c-0.8,2.5-1.8,2.7-4,1.3c-3.3-2.1-5.9-5-8.4-7.9
	c-2.1-2.5-4-5-7.8-5.3c-2.6-0.2-4.3-2.6-5.6-5c-1.8-3.3-3-6.8-3.6-10.5c-0.5-3.1-1.8-5.6-4.3-7.6c-3.9-3.1-7.5-6.6-11.5-9.6
	c-4-3-5.4-6.7-4.9-11.6c0.4-4,1.4-7.9,2.1-11.8c0.2-1.6,1.6-3.4-0.5-4.6c-1.8-1-3.3-0.4-5.4,2c-4.1,4.7-8.2,9.6-12.4,14.2
	c-4.6,5.1-9.2,10.2-14.4,14.7c-1.9,1.6-2.4,3.1-2.1,5.8c1.2,8.1,0.8,16.3-0.2,24.4c-0.4,2.6,0.1,4.3,2.4,5.7
	c2.9,1.8,5.4,4.2,7.7,6.8c1,1.1,1.7,2.3,1.7,3.8c0,2.4-1.2,3.8-3.6,3.8c-1.6,0-3.1,0-4.3,1.3c-1.7,1.8-3.6,1.3-5.4,0.1
	c-1.8-1.2-3.3-2.8-4.7-4.4c-2.3-2.7-4.3-5.7-6.1-8.8c-0.6-1.1-1.2-2.4-2.2-3.1c-2.9-2.2-3.7-5.3-3.8-8.7c-0.2-3.7-0.2-7.4,0.5-11.1
	c0.4-2.2,0.2-4.2-0.9-6.2c-7-12.7-4.4-20.9,4.3-29.9c3.1-3.2,6.2-6.3,9.2-9.6c4.1-4.5,4.3-6.3,0.9-11.4
	c-5.4-8.1-10.2-16.6-13.7-25.7c-2.4-6.3-4.3-12.7-4.7-19.5c-0.1-2.3-1-4.4-1.9-6.6c-1.4-3.3-2.8-6.6-4.1-9.9
	c-3.4-8.9-3.4-17.9-1.4-27c0.7-3.1,1.3-6.2,2-9.2c0.3-1.3,0-2.1-1.4-2.7c-3.4-1.4-6-0.8-8.3,2.3c-2.5,3.3-3.3,7.3-3.8,11.2
	C22.7,198.7,22.4,202,22,206.1z M39.5,162.8c0-2.8-2.6-5.5-5.3-5.7c-2.7-0.1-5.8,3.1-5.7,5.9c0.1,2.8,2.8,5.3,5.6,5.3
	C37.1,168.3,39.5,165.8,39.5,162.8z"/>
</svg>
