<?xml version="1.0" encoding="utf-8"?>
<!-- Generator: Adobe Illustrator 24.0.0, SVG Export Plug-In . SVG Version: 6.00 Build 0)  -->
<svg version="1.1" id="Layer_1" xmlns="http://www.w3.org/2000/svg" xmlns:xlink="http://www.w3.org/1999/xlink" x="0px" y="0px"
	 viewBox="0 0 500 500" style="enable-background:new 0 0 500 500;" xml:space="preserve">
<path d="M473,158.1c-1.2,20.2-2.3,40.4-3.5,60.5c-0.3,4.7-4.6,5.2-7.6,6.8c-26.8,14.2-53.7,28.2-80.6,42.4c-2.5,1.3-5.7,1.9-7.7,6.1
	c15.5,2.7,30.9,4.1,45.6,8.2c17,4.8,31.5,1.7,45.3-8.4c3.8-2.8,8.4-4.7,12.6-7c0.9,1,1.7,2,2.6,3c-10.9,10.2-21.9,20.4-32.8,30.6
	c-2.8,2.6-6,2.1-9.3,1.6c-19.9-2.7-39.9-5.2-59.8-7.8c-9.9-1.3-19.5,5-22.8,14.4c-1.3,3.8,1.4,4.7,3.4,6
	c15.4,10.2,30.9,20.2,46.2,30.6c4.4,3,7.9,2,11.8-0.4c8.5-5.3,17.2-10.4,27.3-13.9c-9.8,10.9-19.5,21.9-29.3,32.8
	c-3.9,4.4-7.3,0.9-10.5-0.9c-21.8-12.4-43.6-24.8-65.1-37.7c-7.4-4.5-14.5-3.3-21.9-1.3c-1.9,0.5-4,1.2-4.2,3.6
	c-0.1,2.4,2,3.2,3.7,4c4.9,2.2,10.1,2.7,15.4,3.3c10.4,1.2,14.4,7.1,11.6,17c-0.6,2.2-1.3,4.6-2.7,6.3
	c-13.8,17.1-27.8,34.2-42.6,52.4c-2-5.3,0.1-8.4,1.2-11.5c4.2-12.2,8.5-24.3,12.9-36.3c1.8-5,0.7-7.8-4.7-9.5
	c-35.2-11-69.5-10.5-102.5,7.7c-4.7,2.6-6,4.8-2.5,9.8c8.6,12.4,16.5,25.2,25.9,39.7c-6.3-1.6-9.1-4.9-12.2-7.4
	c-13.8-11.3-27.5-22.7-41-34.3c-11.3-9.7-8.7-22.4,5.6-27.1c5-1.7,10.2-2.9,14.4-6.3c3.5-2.8,3.4-5.9-0.6-7.7
	c-7.3-3.2-14.3-5.6-21.6,1.7c-16.5,16.2-33.8,31.4-50.5,47.4c-4.7,4.5-8.6,5.9-14.8,3c-15.8-7.3-31.8-13.9-47.2-22.9
	c15.1,2.2,30.2,4.3,45.2,6.8c4.7,0.8,8-0.1,11.3-3.7c14.6-15.7,29.2-31.4,44.2-46.7c4.5-4.6,4-7.7,0-12.2
	c-14.1-15.9-7.4-13.8-27.6-8c-24.7,7.2-49.2,15-73.7,22.8c-5.5,1.8-9,1.3-12.5-3.8c-8.8-13-18.2-25.7-27.3-38.6
	c0.5-0.6,1.1-1.3,1.6-1.9c9.6,7,19.5,13.6,28.8,21.1c6,4.9,11.4,6.1,18.8,3.1c23.3-9.3,46.8-17.8,70.7-26.9c-2.2-4.8-7-5.1-10.6-6.6
	c-21.7-8.8-43.4-17.6-65.3-25.9c-7.3-2.8-10.9-6.4-11.4-14.9c-0.9-16-3.3-32-3.1-48.7c4.4,11.7,9.3,23.2,13,35.1
	c2.2,7.1,6.3,10.7,12.9,13.4c20.3,8.3,40.4,17.2,61.6,24.4c-3.9-5.1-8.1-9.9-11.8-15.2c-11.3-16.4-11.5-27.3-0.3-43.7
	c3.5-5.2,5.4-9.6,3.9-16.2c-2.5-10.9,2.6-20,13.7-25.9c8.4-4.4,17.4-8,26.3-11.3c4.6-1.7,7.2-4.3,7.6-9.1
	c2.3-28.7,33.9-38.8,59.3-33.8c5.6,1.1,5.5,3.4,2.1,7.2c-5.7,6.4-11.8,12.5-16.8,19.4c-7.7,10.8-6.4,14.3,5.9,18.8
	c1.8,0.7,4.3,0.4,4.9,2.7c0.7,2.9-2,4-3.7,5.2c-9,6.7-19.5,9.5-30.4,10.6c-4.7,0.5-7.8,2.4-10.8,5.9c-7.7,9-14.5,18.9-24.9,25.2
	c-5.5,3.3-2.6,8.3-2.4,12.6c1,18.6,1.1,18.5,17.9,10.2c12.1-6,24.1-12.4,37.8-14.1c5.9-0.7,4.9-4.2,4.2-7.7
	c-1.2-6.4-0.4-11.6,7.5-11.8c8.1-0.2,10,4.9,8.5,11.9c-1.5,6.7,1.9,7.8,7.6,7.4c6.9-0.5,13.8-0.4,20.8-0.7c7-0.3,14.6,1.5,14-10.4
	c-0.3-6.7,6.2-7.4,12-6.2c7.5,1.5,3.8,6.7,2.5,10c-2.3,6.1-1.2,8.7,5.7,10c15.2,3,30.4,6.4,43.1,16.2c5.4,4.1,7.9,0.7,8.9-4.1
	c1.2-6,0-11.7-3.7-16.9c-5.7-7.8-9.8-16.6-11.8-26c-1.5-6.9-5.3-9-11.7-9.2c-9.7-0.2-19-2.3-26.6-9c-4.3-3.8-5.7-7.4,0.7-10.3
	c9.3-4.2,7.3-8.7,1.1-14.2c-5.4-4.8-10.1-10.4-15.5-15.3c-5-4.6-3.4-7.2,1.7-10.4c19.7-12.1,47.5-5.9,60.6,15.7
	c9.8,16.3,20.4,31.3,36.4,42.1c7.6,5.1,8.4,13.8,8.2,22.3c-0.3,8.1,0.9,14.9,7.5,21.1c7.4,6.9,6.6,18.7-0.4,30.2
	c-2.7,4.4-6.2,8.4-8.8,13.9c3.2-1.6,6.4-3.1,9.6-4.8c16.9-9,33.7-18.2,50.6-27c5-2.6,8.1-5.9,9.6-11.6c3.9-14.1,8.4-28,12.7-42
	C471.5,157.8,472.2,158,473,158.1z"
	  style="fill:white"/>
</svg>
