<?xml version="1.0" encoding="utf-8"?>
<!-- Generator: Adobe Illustrator 24.0.0, SVG Export Plug-In . SVG Version: 6.00 Build 0)  -->
<svg version="1.1" id="Layer_1" xmlns="http://www.w3.org/2000/svg" xmlns:xlink="http://www.w3.org/1999/xlink" x="0px" y="0px"
	 viewBox="0 0 500 500" style="enable-background:new 0 0 500 500;" xml:space="preserve">
<path d="M287.8,309c-7.3,7.6-10.3,16.2-12,25c-0.9,4.9,3.7,8.1,7.3,10.9c11.2,8.6,21.3,18.1,27.3,31.2c2.1,4.7,4.2,9.4,5.5,14.3
	c3.8,14.4,0.5,20.7-12.8,27.3c-8.7,4.3-17.4,8.5-25.5,13.7c-9.8,6.2-11.6,12.6-7.3,23.3c1.7,4.2,1.4,7.5-1,11.1
	c-4.6,6.7-7.8,6.8-10.9-0.5c-3.9-9.4-9.1-2.6-14.3-1.5c-2.4-4,0.1-7.8,1-11.2c2.4-9,3.9-17.7,0-26.7c-2.8-6.4,2.6-8.3,6.9-9.3
	c9.5-2.2,14.9-8.8,19.9-16.3c1.9-2.9,2.3-4.7-0.7-7.1c-7.9-6.1-15.1-13-23.6-18.3c-13.6-8.6-27.7-9.4-42.5-3.9
	c-2.6,1-5.7,1.8-6.3,5.1c-2.9,13.8-8.7,27.3-3.6,41.8c0.7,1.9,1.7,3.8-1.1,4.9c-7.1,2.9-10.4,9.4-14.4,15.2c-3.5,5-7.7,9.9-14.5,7.3
	c-5.7-2.1-7.5-10.6-4.5-18.1c1.7-4.2,3.8-8.3,5.7-12.4c2.6-5.6,3.8-11.6,1.5-17.4c-5.4-13.5-2.9-27.6-3.7-41.4
	c-0.6-10.1,7.5-15.4,14.9-20.3c3-2,6.5-4.3,9.9-4.7c11-1.3,14.4-7.7,12.9-17.6c-3.3-22-0.5-43.7,1.8-65.5c1-9.1-1.5-17.2-5.6-25.4
	c-10.8-21.6-21.3-43.6-25.5-67.6c-3.2-18.2-2.1-36.9-3.1-55.4c-0.9-15.9-6.1-31.1-8.6-46.8c-1.6-10.1-10.8-12-21-6.7
	c-2.9,1.5-6,6.7-9.4,2.5c-3-3.7,0-8.2,2.4-11.7c2.9-4.1,7.2-6.3,12.2-7.3c14.3-2.8,29.8,5.9,34.9,19.7c6.5,17.4,6.7,36.4,13.8,53.6
	c8.2,20,12.5,40.7,15.5,61.9c1.8,12.6,8.5,23.5,16.4,33.3c4.9,6.1,8.6,0.5,9.9-3.3c4.7-13.1,14.8-17.2,27.3-17.9
	c17.1-1,32.1,10.5,35,27.4c1.8,10.2,1.1,20.5-2,30.4c-1.5,4.7-1.8,7.8,2.7,10.9c6,4.1,8.3,10.6,9.6,17.5c1.3,6.7,2.6,13.4,3.5,20.2
	c2.1,15.6,8.3,28.8,18.3,41.4c20.5,25.7,31.9,56.2,40.6,87.6c1.6,5.9,1.1,11.9-0.9,17.7c-1.7,4.9-5.1,8.1-10.2,9.5
	c-8.8,2.4-15-2.6-11.4-10.5c5.2-11.5-0.4-20-2.8-30.4c-5.1-22.3-18.6-38-33.5-53.4C301.6,334.9,293.3,323.4,287.8,309z"
	 style="fill:white"/>
</svg>
