<?xml version="1.0" encoding="utf-8"?>
<!-- Generator: Adobe Illustrator 24.0.0, SVG Export Plug-In . SVG Version: 6.00 Build 0)  -->
<svg version="1.1" id="Layer_1" xmlns="http://www.w3.org/2000/svg" xmlns:xlink="http://www.w3.org/1999/xlink" x="0px" y="0px"
	 viewBox="0 0 500 500" style="enable-background:new 0 0 500 500;" xml:space="preserve">
<path d="M197.5,96.4c15.5,15.2,26.2,30.7,24.4,52.4c-1,12-0.3,24.2-0.1,36.4c0.1,2.8-1.6,6.4,2.8,8.8c4.4-7.7,3.3-16.5,5.7-24.4
	c2-6.8,3.4-13.8,5.4-20.6c0.8-2.6,2.1-6.6,4.1-7.2c12.4-4,12.1-11.6,8-21.7c-4.6-11.5,5.9-15.7,11.9-21.8c1.4-1.4,3,0.2,4.6,1.1
	c9.6,4.8,16.4,1.1,17.4-9.3c0.5-4.9-0.2-9.9,7.6-10.1c7.8-0.2,7.6,4.5,7.6,9.7c-0.1,8.3,4.1,9.3,11.7,8.8c27.1-1.9,54.1,0.1,81,3
	c8.2,0.9,7.3,7.6,7.3,12.9c0.1,4.7-1.3,9.5-8.2,7.8c-5.7-1.4-3.5,2.3-3,4.8c3.5,17.7,7.3,35.4,10.6,53.2c0.8,4.2,3.4,8.2,0.1,13
	c-2.7,3.9,1.2,5.9,4.6,6.1c19.7,0.9,37.3,8.6,55.1,15.8c7.6,3.1,14.3,5.9,15,15.7c0.5,6.5,7,10.3,8.4,17c1.2,5.9,2.7,9.5-5.4,6.5
	c-1-0.4-2.1-0.8-3.1-0.6c-3.9,0.7-9-4.6-11.4,0.5c-1.9,4.2,5.7,4,6.4,7c2.1,8.9,11.7,13.7,11.2,24.3c-0.3,6.1,3.2,13.7,5.3,18.6
	c3.8,9.1-0.5,17,1.6,25.5c1.5,6.1-1.9,14.9-4.3,21.9c-3.5,10-7.7,21-15,27.9c-6.3,5.9-9,15.6-19,18.5c-6.1,1.7-10.9,7.5-16.7,11
	c-13.1,8-27.3,10.2-41.1,10.9c-8.3,0.4-17.9,0.1-27.3-2.7c-7.9-2.4-14.9-7.5-23.4-8.5c-7-0.8-12.4-7.5-16.5-11.5
	c-5.9-5.7-12.8-11.6-17.8-19.3c-5.8-8.9-9.2-18.8-14.9-27.6c-2.1-3.3-4.8-2.5-7.4-2.5c-32.4-0.1-64.9,0.2-97.3-0.3
	c-6.3-0.1-9.9,4.5-9.7,7.6c0.6,12.8-6.8,22.2-12.7,31.6c-6.1,9.8-15.4,17.6-25.9,23.3c-10.7,5.8-22.1,9.4-34.2,10
	c-17.8,0.8-33.9-3.5-49.4-13.2c-11-6.8-18.7-16.3-25.2-26.2c-6.4-9.6-9.3-21.4-10.6-33.7c-1.4-12.7,0.9-24.7,4.6-35.9
	c3.5-10.5,9.5-21.1,18.3-28.2c5.2-4.2,8.3-8.6,9.3-14.6c3-18.8,11.7-35.8,17.1-53.8c1.9-6.5,6.8-8.6,12.8-9.7
	c38.7-6.5,77.7-10.3,117-10.2c8.7,0,12.7-1.5,12.1-11.6c-1-15.3-0.3-30.6,0.1-46c0.2-6.5-2.1-11.7-5.9-16.7
	C196.3,113.4,194.9,106.1,197.5,96.4z"/>
</svg>
