<?xml version="1.0" encoding="utf-8"?>
<!-- Generator: Adobe Illustrator 24.0.0, SVG Export Plug-In . SVG Version: 6.00 Build 0)  -->
<svg version="1.1" id="Layer_1" xmlns="http://www.w3.org/2000/svg" xmlns:xlink="http://www.w3.org/1999/xlink" x="0px" y="0px"
	 viewBox="0 0 500 500" style="enable-background:new 0 0 500 500;" xml:space="preserve">
<path d="M361.8,346.6c-2.6-6.1-0.2-11.2,1.4-16c3.1-9.4,1.1-18.1-4.2-25.3c-9.6-13-10.4-27.2-9.1-42.2c1-11.1,2.3-22.2,3-33.4
	c0.3-4.4,0.8-9.4-5.7-11.8c-5.9,21-4.4,42.7-8.2,63.7c-3.3,18.3-6.5,36.7-4.3,55.6c1,8.7-2.8,17.3-4.9,26
	c-6.5,27.2-16.4,53.2-28.4,78.4c-5,10.4-10.4,20.5-19,28.6c-12.2,11.4-22.5,9.5-29.1-5.7c-7.9-18.1-17.4-35.6-17.6-56.4
	c-0.1-6.3-6.3-12-4.1-19.8c-7.7,6.6-4.6,18-13.7,25.7c-1.9-14.3,1.9-25.5,8.8-35.2c3.7-5.2,5.3-10.1,5.2-16.2
	c-0.2-10.8-0.3-21.7,0.5-32.5c0.5-6.9-1.6-9.4-8.6-9.3c-12.4,0.1-23.3-3.9-30.7-14.7c-1.3-1.9-3.2-4-3.2-6c0-12.8-6.2-11.8-15.5-8.5
	c-9.8,3.5-20.3,5.7-30.6,7.4c-12.8,2.1-24.8,4.8-32.6,16.8c-2.7,4.1-7.6,6.2-12.6,7.1c-1.6,0.3-3.3,0.1-4.1-1.7
	c-0.9-2,0.5-3,1.9-3.9c3.4-2.1,6.8-3.9,10.1-6.1c1.6-1.1,3.2-2.7,2.5-4.9c-0.8-2.5-3.2-1.9-5-1.9c-9.1-0.1-18.1,1.2-27.2,1.5
	c-14.4,0.4-26.8-5.4-40.1-8.3c-8.5-1.9-13.8-8.6-18-15.9c-3.1-5.5-0.7-9.5,3.3-13.9c18.7-20.5,42.6-32.9,66.4-46.5
	c30.3-17.3,62.5-28.7,94.8-40.5c20.9-7.6,43.4-10.3,64.4-17.8c4.4-1.6,11.1-2,7.9-9.3c-2.9-6.5-7.8-6.7-14.7-4.1
	c-19.1,7.4-38.1,15-58.7,17.3c-7.3,0.8-14.3-1.5-21.3-2.7c-6.2-1.1-12.4-0.9-18.6-0.9c-1.8,0-4.5,0.2-4.4-2.6
	c0.1-2.5,2.6-3.3,4.4-2.8c26.9,6.7,47.5-14.9,72.8-16.1c10.3-0.5,20.6-4.2,30.8-6.5c7.3-1.7,14.4-4.5,20.9,2.5
	c2.9,3,5.3,0.7,5.7-3.1c0.1-1.3,0.5-2.7,0.1-3.9c-6.6-21.3,0.8-40.9,7.6-60.4c2.5-7.1,2.6-13.4-0.8-19.8c-4.5-8.4-2.8-16.5,1-24.5
	c1-2,2.1-4.7,5-3.3c2.3,1.1,1.2,3.5,0.4,5.2c-6.3,13-1.5,23.4,7.3,33c2.4,2.6,3.2,5.9,2.5,9.2c-2.9,13.7-4.5,27.7-9,41.1
	c-0.8,2.5-2.1,5.2-1.7,7.5c0.9,5.8,3.4,10.3,10.6,6.5c2.3-1.2,4.6-2.9,7-3.5c5.3-1.2,5.9-3.4,3.6-8.3c-5-10.6-2.8-16.1,7.7-21.3
	c13.1-6.4,26.2-3.8,39.4-0.3c2.9,0.8,6.3,3.9,9,0.6c2.1-2.5-0.1-5.5-0.9-8.3c-0.7-2.2-2.7-5.5,0.9-6.8c3.1-1.1,4.6,2.1,5.5,4.5
	c1.1,3,2.1,6.3,2.1,9.5c0.2,11.4,4.2,14.8,15.4,12.8c5.4-1,10.7-3.7,16.4-1.4c1.9,0.7,4.3,1.5,4.1,3.6c-0.3,3.3-3.3,2.4-5.4,2.3
	c-2-0.1-3.9-0.7-5.8-0.7c-9.8,0.3-11.4,3-7.4,12c5.2,11.7,11.8,23.2,4.2,36.4c-3.7,6.5-7.2,12.5-16.7,9.4c-7.1-2.3-6.3,4.8-7.8,8.5
	c-1.9,4.7,1.2,6.6,5.4,7.1c14.7,1.7,27.9-2.8,40.5-9.9c2.9-1.6,5.8-3.2,8.2-5.5c9.8-9.6,19.4-13.3,33-5.4c5.6,3.3,15.2-0.2,22.9-0.6
	c1.8-0.1,3.8-1.3,6.2,1.4c-8.4,6.8-17.9,8-27.5,5.9c-6.2-1.4-10.2-0.3-15.1,3.6c-20.6,16.5-45,23.8-70.9,26.8
	c-3.5,0.4-7.1,0.6-10.6,0.9c-0.8,3.9,2.2,4.9,4,6.5c5.1,4.3,8.5,10.1,8.1,16.3c-0.9,13.7,1.9,27.4-1.8,41.1
	c-5,18.5-4.9,36.9,1.9,55.2C373.5,324.8,368.2,341.4,361.8,346.6z"/>
</svg>
