<?xml version="1.0" encoding="utf-8"?>
<!-- Generator: Adobe Illustrator 24.0.0, SVG Export Plug-In . SVG Version: 6.00 Build 0)  -->
<svg version="1.1" id="Layer_1" xmlns="http://www.w3.org/2000/svg" xmlns:xlink="http://www.w3.org/1999/xlink" x="0px" y="0px"
	 viewBox="0 0 500 500" style="enable-background:new 0 0 500 500;" xml:space="preserve">
<path d="M103.2,355.9c23.4-9,47.4-16.5,69.8-28c-10.2-1.5-19.8,2.3-29.8,2c8.7-5.9,19.6-5,28.6-9.2c19-9,40.6-13.8,54.1-32.2
	c1.9-2.5,3.9-5,6.3-7c6.6-5.3,7.9-9-1.3-13.4c-6.9-3.3-5.6-10.3-3.4-16.3c-5.5-3.1-9.7,8.7-15.6-0.7c-4.9-7.8,1.9-10,4.7-14.1
	c-1.1-0.9-1.6-1.4-2.1-1.7c-4-2.1-8,5.6-11.3,0.6c-3-4.6,1.5-8.4,3.9-12.1c1.9-3,1.6-4.7-0.6-8.1c-4.5-6.8-11.8-13.2-7.4-23.1
	c1.9-4.2-2.7-6.8-3.1-10.7c-1.5-12.7-4.3-25.1-1.4-38c1-4.6-0.7-10.6-2.6-14c-6.7-12.3-1.5-24.1-0.5-36c0.4-4.5-2.2-8-3.5-11.9
	c-3.9-11.6-3.7-12.2,8.7-12.5c-0.7-5.1-4.8-8.3-6.8-12.6c-0.8-1.7-1.3-3.3-0.1-4.9c1.6-2.2,3.6-1.5,5.6-0.4c5.4,3,10.8,5.9,17.2,8.1
	c-9.7-14.8-20.2-29-28-47.4c12.7,5,20.7,13.2,31.2,18.3c-3-5.6-6-11.2-8.9-16.9c-1-1.9-1.9-4.2-0.3-5.9c2.6-2.8,4.6,0.4,6.1,1.6
	c12.3,9.4,22.3,21.2,32.8,32.4c1.9,2,3,4.8,7.4,5c-4.7-10.5-12.4-18.4-18-27.7c-1.4-2.4-3.3-4.5-4.7-6.9c-1.1-1.8-2.2-4.2,0.1-5.5
	c1.1-0.7,3.7-0.2,4.8,0.7c4.3,3.5,8.7,7.1,12.3,11.3c20.9,23.9,41.7,47.9,63.4,72.9c3-9.7,11.7-16,9.6-26.8
	c-0.4-2.3,0.7-5.1,3.2-6.1c2.8-1.1,4.6,1.2,6.2,3c2.8,3,5.4,6.1,9.6,10.9c0-11.6-3.5-21.1-1.3-30.5c0.8-3.3-0.5-8.9,5.1-8.9
	c4.6,0,4.5,5.3,5,8.1c3.1,17.7,14.1,29.9,26.5,41.5c4.1,3.8,8.9,6,13.2,4.1c4.9-2.1,0.3-6.7-0.1-10.1c-1.6-13.5-3.3-27-5.1-40.6
	c-0.3-2.5-1-5.3,1.6-6.6c3.5-1.8,5.1,1.6,6.3,3.8c7.1,12.1,11.5,25.3,16.7,38.2c0.7,1.9,0.8,4,3.7,5.6c0-12.5-0.2-24.4,0.1-36.2
	c0.1-4.7-3.3-12.5,3.8-13.1c4.7-0.4,5.7,7.5,6.8,12.5c5.8,27.9,8.9,55.9,3.8,84.2c-0.4,2.4-0.7,5.1-2,6.9c-5,6.6-4.2,11.4,2.3,16.9
	c6.4,5.4,5.6,17-3.3,22.6c-18.8,11.9-21.9,31.3-27.2,50c-2,6.8-0.1,10.8,7.9,10.6c12.9-0.3,25.9-0.7,38.8-0.2
	c25.4,1,38.6,16.5,37.8,40.2c-0.2,7.2-4.5,12.3-9,17.2c-0.9,1-2,2.1-3.6,1.2c-1.4-0.8-1.3-2.1-1-3.6c2.1-8.9,2-8.9-5.8-14.8
	c-2.3,1.2-2.5,3.9-1.8,5.4c5.1,10.9-2.5,11.3-9,9.7c-14.2-3.5-28.9-2.8-43.3-6.1c-11.6-2.6-23.3,2.9-32.4,9.1
	c-22.2,15.3-46.2,18.7-71.9,15.6c-13.3-1.6-13.3-1.7-13.5,11.9c-0.1,14.6-5,27.5-13.3,39.3c-2.2,3.2-4.4,7.3-9,4.9
	c-3.9-2.1-3.1-6.4-3-10.3c0.1-4.4,5.5-6.5,4.1-12.2c-6.3,1.7-7.6,7.3-9.9,11.9c-6.8,13.8-16.1,25.3-29.7,32.8
	c-3.6,2-8.1,5.5-11.5,2.6c-4.4-3.8,2.2-6.1,3.2-9.4c0.5-1.9,2.4-3.6,0.3-6.8c-11.5,10-21.8,21.4-34.2,30.2
	c-7.3,5.2-13.4,12.2-24,10.2c-3.3-0.6-5.8,3.4-8.4,5.7c-13.3,11.9-26.6,23.8-39.9,35.6c-2.3,2.1-5.4,5.3-8,3
	c-3.5-3.1,1.1-5.5,2.8-7.5c7.8-9.1,15.9-17.9,22.9-28c-30,27.3-61.3,52.7-95.8,74.3c18.1-20.7,41.5-36,59.1-57.2
	C112,415,132,395.5,151.9,376c-0.8-0.8-1.5-1.7-2.3-2.5c-42.4,36.8-84.7,73.7-127.1,110.5c-0.7-0.8-1.4-1.5-2.2-2.3
	c30.6-30.2,59.7-61.8,92.1-90.5c-20,8.6-37.8,20.8-56.9,31.2c33.9-26.8,71-49.2,107-77.9C139.9,342.9,122.9,356.3,103.2,355.9z"/>
</svg>
