<?xml version="1.0" encoding="utf-8"?>
<!-- Generator: Adobe Illustrator 24.0.0, SVG Export Plug-In . SVG Version: 6.00 Build 0)  -->
<svg version="1.1" id="Layer_1" xmlns="http://www.w3.org/2000/svg" xmlns:xlink="http://www.w3.org/1999/xlink" x="0px" y="0px"
	 viewBox="0 0 500 500" style="enable-background:new 0 0 500 500;" xml:space="preserve">
<path d="M13.4,206.7c8.9-11.7,19.6-18.4,31.5-23.2c22.3-9,45.5-7.8,68.6-4.8c12.9,1.7,25.7,4.2,38.5,6.9c6.5,1.4,11.2,1.5,12.2-6.9
	c0.7-5.7,4.4-10.5,9.4-12.7c8.1-3.5,7.8-6.6,2.6-13.1c-16-20.3-29.3-42.3-35.1-67.9c-3.6-15.9-3.7-31.8,1-47.3c1.1,0,2.2,0,3.3-0.1
	c0,4.7,0.8,9.7-0.1,14.2c-4.1,19.4,2.9,36.5,10.4,53.4c7.4,16.6,17,31.9,27.3,46.9c3.8,5.4,7.2,9.9,14.7,5.6c2.9-1.7,6.7-1.1,9.3,1
	c12.3,10,22.1-3.4,33.3-3.4c0.5,0,1.5-1,1.4-1.4c-1.5-8.9-2.5-17.9-4.8-26.6c-1.2-4.6-6.7-4.8-10.8-6.1c-8.9-2.8-18.7-2.8-26.9-8.2
	c-3.4-2.2-7.6-4.4-6.2-9.1c4-13.3-1.5-22.9-12.1-31.1c11.1-1.6,21.3,7.9,20.2,20.5c-0.7,8.8,3.1,11.4,9.4,14.2
	c7.3,3.2,14.5,6.7,21.5,10.3c12,6.2,21.9,14.4,24,28.8c0.7,4.6,2.8,6.1,7.2,5.8c13.8-0.9,25.4,4.9,36.1,12.7c5.4,3.9,8.8,4.9,12.7-2
	c5.7-10,15.6-13.7,26.6-14.3c8.3-0.4,16.7-0.1,25,0.1c11.2,0.2,20.7-3.1,27.3-12.8c4.3-6.4,10-6.4,16.1-3.2c1.6,0.9,2.6,2.7,2,4.7
	c-0.9,2.7-2.6,1.3-4.2,0.6c-4.8-2.2-7.8,0.4-9.6,4.3c-1.8,4-5.9,4.9-8.5,7.4c-11.6,10.8-25,5.1-37.7,5.6
	c-13.6,0.5-22.8,7.6-25.8,20.8c-0.8,3.7,1.3,5.2,3.5,7.1c7.6,7,17.4,9,26.4,7.3c20-3.8,35.1,5.1,49.9,16c6.7,4.9,13.4,9.9,19.9,15.1
	c12.9,10.3,27.7,15.1,43.9,17.1c7.3,0.9,14.2,3.2,18.3,10.2c1.2,2,1.7,3.9,0.3,8.2c-8.1-11.5-20-11.1-31.1-13.1
	c-16.1-3-29.3-11.9-42.5-20.9c-9.8-6.8-19.8-13.3-29.8-19.9c-2.4-1.6-4.9-3.5-8-2.7c-3.1,0.8-7,1.2-8.3,4.3
	c-1.5,3.4,2.4,4.8,4.5,6.5c10.4,8.5,21,16.6,31.4,25.1c14.4,11.8,22.9,26.6,24.3,45.6c0.9,11.9,2.4,23.7,7.1,35
	c17.3,41.6-22.5,69.7-53.3,66.4c-6.8-0.7-12.6,0.1-18.8,2.6c-33,12.9-61.6,1-89-16.7c-2.1-1.4-3.9-3.8-6.2-4.4
	c-4.6-1.1-6.6-11.1-13.1-4.6c-7.6,7.7-7.3,16.7,0.7,23c14.3,11.1,29,21.6,43.5,32.5c12.7,9.5,23.2,21,28.3,36.3
	c1.4,4.3,5.8,5.2,7.8,9.4c-8.4,1.8-12.4-3.1-14.6-9.4c-4.2-12.1-12.4-19.1-23.7-25.1c-22.1-11.6-38.6-30.4-55.4-48.3
	c-7.9-8.5-9.3-19.8-6.1-30.7c2-6.8-0.6-10.4-5.4-13.6c-5.6-3.6-9-11.2-18.6-7.2c-17.7,7.5-18.4,8-10.7,25.9c0.7,1.7,1.4,3.4,2.3,4.9
	c9,14.6,11.2,29.1,2.1,44.8c-1.9,3.4-5.6,7.8-3.4,13c0.9,2.1,3.6,4.9-0.5,6c-3.9,1.1-5.8-2.3-7-5.4c-1-2.6,0.8-4.8,2.1-7
	c7.8-13,8.9-26.5,3.7-40.7c-1.6-4.4-2.7-9.1-4.8-13.2c-7.5-14.9-7.7-28.9,4.2-41.9c3.3-3.6-1-18.6-6.2-21.4
	c-8-4.3-12.2-11.2-14.8-19.2c-1.2-3.7-2.7-5.8-6.9-4.4c-14.4,4.6-26.2-1.6-37.4-9.4c-8.4-5.8-15.9-12.8-21.4-21.4
	c-4-6.3-8.3-7.4-15.4-5.8c-8.4,1.9-17.4,3.2-24.5-4.2c-1.1-1.2-1.4-3.1-1.7-6.4c11.4,7.4,22.9,4.8,34.4,2.3c5.4-1.2,8.9,2.4,12,5.9
	c6,6.8,11.6,13.9,17.3,20.9c4.3,5.2,9.4,6.3,15.4,3.4c1.6-0.8,3.3-1.6,5-2.1c16-5.2,16.1-5.2,15-22.8c-0.5-7.2,2.3-15.4-6.3-20.4
	c-1.8-1.1-2.1-4-0.7-6c7.9-11.2,0-8.9-7.1-9.5c-8.2-0.6-16.3-3-24.4-5c-17-4.1-34.4-7.1-51.7-5.9c-19.4,1.4-38.6,5.8-53.7,19.9
	C21.9,205.1,21.9,205.1,13.4,206.7z"
	  style="fill:white"/>
</svg>
