<?xml version="1.0" encoding="utf-8"?>
<!-- Generator: Adobe Illustrator 24.0.0, SVG Export Plug-In . SVG Version: 6.00 Build 0)  -->
<svg version="1.1" id="Layer_1" xmlns="http://www.w3.org/2000/svg" xmlns:xlink="http://www.w3.org/1999/xlink" x="0px" y="0px"
	 viewBox="0 0 500 500" style="enable-background:new 0 0 500 500;" xml:space="preserve">
<path d="M19.2,398.7c-5.3-23.6,3.8-41.3,22-55.8c6.6-5.2,11.7-12.3,17.5-18.6c9.8-10.7,11.2-23,6.4-36.1
	c-5.1-14.1-10.4-28-15.9-41.9c-6.3-16.1-3.9-30.1,7.1-44c33.7-42.4,77.2-59.9,130.5-53c26.6,3.5,48.1-3.9,68.4-22.6
	C284,100.2,319.4,83.4,356,69.9c11.9-4.4,23.2-8.1,31.1-19.3c7.6-10.7,18.2-11,28.4-2.5c10,8.3,20.3,12,33,5.5
	c4.7-2.4,11.1-7.1,15.6-1.5c4.5,5.5,7.1,12.9,5.3,20.5c-4.5,19.6-2.8,37.7,10.6,53.8c1.4,1.7,2.4,4.4,2.4,6.6
	c0.1,13.8-24.7,32.1-38.1,28.3c-3.1-0.9-6.2-1.9-9.3-2.7c-27.8-6.7-43,0.9-54.2,27c-8.1,18.9-14.4,38.6-24.8,56.4
	c-7,11.9-14.4,23.7-25,32.6c-16.5,14-20.5,31.6-19.6,52.1c1,21.3,7,42.8,0.5,63.9c-2.6,8.6-4,16.2,0.2,24.5
	c5.4,10.8,12.8,18.5,25.3,20.3c2.4,0.3,4.8,1,7.1,1.6c6.7,2,12.2,6.1,11.6,13.5c-0.6,7.9-8,7-13.3,7c-14.2,0-29.2,3.5-41-9.1
	c-3.2-3.4-9.3-1.8-14.1-1c-6.7,1.1-11.4-0.9-12.6-7.8c-6.9-40.3-22.8-79.8-11.1-121.8c1-3.5,1.5-7.2,1.7-10.8
	c0.5-10.8-5.5-16.4-16-13.3c-29.6,8.8-58.8,8.8-88.4-0.7c-13-4.2-15.9-1.3-19,12.4c-2,8.9-6.7,16.4-12.1,23.5
	c-8.9,11.6-16.2,24.2-22.1,37.5c-10.8,24.3,5.7,55.4,31.7,59.9c5.8,1,13.6,2.8,12.6,8.5c-1.1,5.8-7.6,11.2-14.9,12.2
	c-18.6,2.7-30.4-4.4-39.4-21.9c-6.1-11.8-11.9-23.9-20.7-34.1c-5.6-6.5-6.1-12.5-1.3-19.6c4.3-6.3,7.9-13.2,11.8-19.7
	c1.2-2.1,3.1-4.4,0.5-6.3c-1.8-1.4-4,0.1-5.4,1.5c-17.5,17.7-33.3,37-38.2,62c-2.2,11.1,5.1,19.9,16,24.5c2.6,1.1,5.4,1.6,7.9,2.9
	c4.3,2.2,6.8,5.7,6.8,10.7c0,5.3-4.7,5.3-7.8,6.1c-27.3,7.7-46.6-0.5-48.1-30.2C18.8,415,19.2,406.8,19.2,398.7z"/>
</svg>
