<?xml version="1.0" encoding="utf-8"?>
<!-- Generator: Adobe Illustrator 24.0.0, SVG Export Plug-In . SVG Version: 6.00 Build 0)  -->
<svg version="1.1" id="Layer_1" xmlns="http://www.w3.org/2000/svg" xmlns:xlink="http://www.w3.org/1999/xlink" x="0px" y="0px"
	 viewBox="0 0 500 500" style="enable-background:new 0 0 500 500;" xml:space="preserve">
<path d="M432.1,303.5c2.9,6.6,6.9,12.1,10.5,17.9c1.3,2.1,2.7,4.1,3.6,6.3c2.1,4.9,0.1,7.9-5.4,7.9c-4.2,0-7.9-1.7-11.4-3.7
	c-9.6-5.4-18.2-12.2-26.5-19.3c-5.2-4.4-10.9-7.4-17.3-9.6c-5.2-1.7-7.4-1-8,4.6c-0.7,6.3-3.2,12.1-6.6,17.5
	c-1.5,2.4-3.3,4.9-6.6,4.7c-3.3-0.2-3.7-3.2-4.7-5.6c-3.4-8.2-7.6-16.1-12.2-23.8c-2.1-3.5-3.3-3.5-5.8-0.2
	c-11.6,15.3-27.1,24.7-45.6,29.2c-0.2,0-0.4,0.2-0.6,0.2c-4.5,0.1-9.7,2.6-13.1-1.8c-3.4-4.4,0.5-8.4,2.6-12.1
	c4.4-8,8.1-16.3,11.3-24.9c1.6-4.4,0.5-5.7-4.1-5.7c-25.2-0.1-50.1,3.3-74.7,8.4c-37,7.6-72.7,19.3-107.9,32.7
	c-4.5,1.7-6.1,3.5-4.6,8.3c1.5,5,1.6,10.4,1.3,15.7c-0.2,2.3-0.6,4.5-3.1,5.4c-2.2,0.9-3.9-0.2-5.5-1.5c-1.7-1.4-3.4-2.9-5-4.5
	c-10-9.4-17.7-10.7-30.4-5.1c-9.1,4.1-16.8,10.5-25.1,15.9c-3.1,1.9-6.2,3.8-9.5,5.3c-2.2,1.1-4.8,1.8-6.8-0.4
	c-1.9-2.1-1.2-4.5,0-6.8c3.1-6.2,7.1-11.8,11.8-16.9c12-12.9,26.1-22.4,43.4-26.4c2.8-0.7,4.6-2.3,6.1-4.5
	c39.1-58.5,94.4-94.4,160.4-115.6c1.5-0.5,3.1-0.9,4.6-1.4c12.7-4.2,14.4-7.8,10.3-20.8c-3.3-10.5-9.3-19.7-14-29.6
	c-1.3-2.8-4.6-6.1-2-8.8c2.4-2.4,6.6-1.1,9.9,0.1c16.8,5.9,30.6,16.3,42.8,29c1.3,1.3,2.8,2.6,3.5,4.1c4.8,10.1,13.1,12.1,23.6,12.2
	c27.1,0.1,53,6.4,77.3,18.7c23.3,11.7,41.5,28.1,48.3,54.6c1.5,5.7,2.5,11.5,2.6,17.4c0.1,5.6,2.6,9.6,6.2,13.3
	c5.9,5.8,11.9,11.6,17.7,17.5c2.8,2.9,5.3,6.1,6.2,10.2c1.4,6.6-1.1,9.5-7.7,8.4c-12.1-2.1-23.2-7.1-33.7-13.4
	C436.6,305.5,435.1,303.8,432.1,303.5z"
	  style="fill:white"/>
</svg>
