<?xml version="1.0" encoding="utf-8"?>
<!-- Generator: Adobe Illustrator 24.0.0, SVG Export Plug-In . SVG Version: 6.00 Build 0)  -->
<svg version="1.1" id="Layer_1" xmlns="http://www.w3.org/2000/svg" xmlns:xlink="http://www.w3.org/1999/xlink" x="0px" y="0px"
	 viewBox="0 0 500 500" style="enable-background:new 0 0 500 500;" xml:space="preserve">
<path d="M233.3,396.4c20.7-11.9,12.2-24.8,7.1-39c-6.8-19.2-15.4-37.5-23-56.3c-3.1-7.6-5.6-6.8-10.1-1.1
	c-15.6,19.8-24.7,42.7-31.5,66.6c-1.9,6.5-2.2,13.1,1.3,19.4c2.9,5.2,1.5,8.4-4.9,8.9c-15.1,1-30.1,0.2-49.4-0.9
	c23.4-16.7,17.8-41.3,25.5-61.1c11.7-30.3,16.4-62.9,30.3-92.5c2.2-4.8,1.9-8.7-0.8-13.5c-3.6-6.4-6.6-6.3-11.9-2.3
	c-13.7,10.2-28.3,19-44.4,24.8c-13.5,4.9-15.9,3.6-19.3-9.4c-10.3,2.7-16,10.4-20.1,19.2c-13,28.2-25.6,56.5-38.6,84.7
	c-3.5,7.7-7.3,15.4-11.8,22.6c-3.8,6.2-6,12.5-6.5,19.6c-0.4,5.4-3.7,9.5-9.2,9.3c-5.2-0.2-5.5-5.6-6-9.4c-1.1-9,0.7-17.7,4.3-26
	c12.8-29.1,21.7-59.6,31.1-89.9c1.9-6.3,0.2-7.4-5.5-8.4c-8.3-1.4-16.1-4.6-22.2-13c6-1.3,10,1.3,14,3.1c9.1,4,16.5,1.3,19.9-8.1
	c9.9-27.4,19.6-54.9,29.2-82.5c3.4-9.7,8.1-18.6,17.1-23.8c18.2-10.5,36.6-20.8,55.2-30.6c8.8-4.6,18.4-5.9,28-2.3
	c5.9,2.2,10.7,0.7,15.7-2.5c8.4-5.4,17.6-7.4,27.5-6.5c24.3,2.3,48.7,3.8,72.8,8.6c12.7,2.5,25.2,0.3,37.4-2.7
	c54.9-13.3,92.1,12.3,123.8,53.5c17.2,22.3,20.8,45.7,17.8,72.8c-3.2,29.7-13.6,57.5-18.7,86.6c-1.1,6-6.5,8.7-9.9,13.3
	c10.8,8.5,22.1,16.3,32.2,25.5c13.6,12.4,13.4,20.4,0.9,33.7c-1.3,1.3-2.5,2.7-3.9,3.9c-16.6,14.3-21.1,13.2-29.6-7
	c-4.9-11.6-11.6-22.2-21.1-33.3c-3,14.9-6.6,28.2-1,41.7c3.2,7.6,0.8,11.8-7,12c-11.8,0.3-23.7,0.1-35.5-0.6c-8-0.5-10.3-4-4.8-11.5
	c12.7-17.4,16.7-37.5,17.4-58.6c0.2-6.2-2.1-9.5-7-12.5c-6.6-4-13-8.5-19.2-13.2c-3.2-2.4-7.6-5.8-7.9-9
	c-1-13.8-10.8-14.1-20.5-14.8c-24.8-1.9-49.4-4.2-71.3-17.9c-2.4-1.5-6.3-3.2-8.2-2.2c-3.3,1.8-1.4,6-0.9,9.1
	c4.6,32.6,12.7,64.5,19.5,96.7c1.4,6.7,5.3,12.9,8.2,19.3c3.2,7.2,2.3,11.4-6.8,11.3C266.4,400.4,251.6,400.8,233.3,396.4z
	 M465.3,236c-1.1-0.4-2.2-0.7-3.3-1.1c-9,25.4-18.1,50.7-26.9,76.2c-1.4,4,0.3,7.7,5.6,9.7c-0.1-6.8-1-13.1,3.5-18.1
	C461.3,283.4,461.5,259.2,465.3,236z"/>
</svg>
