<?xml version="1.0" encoding="utf-8"?>
<!-- Generator: Adobe Illustrator 24.0.0, SVG Export Plug-In . SVG Version: 6.00 Build 0)  -->
<svg version="1.1" id="Layer_1" xmlns="http://www.w3.org/2000/svg" xmlns:xlink="http://www.w3.org/1999/xlink" x="0px" y="0px"
	 viewBox="0 0 500 500" style="enable-background:new 0 0 500 500;" xml:space="preserve">
<path d="M284.7,343.5c-9.4,3.7-14.2,9.7-20,14.2c-7.2,5.6-13.7,3.7-16-5.2c-0.7-2.5-1.6-4.2-3.2-6.1c-3.4-4.1-4.1-8.9-1-13.4
	c3-4.5,6.4-8.7,9.9-12.9c3.4-4.1,7.1-1.1,10.7,0c2.2,0.7,4.9,2.3,6.4-0.6c1.3-2.5-1.1-3.6-2.6-5.1c-1.8-1.6-4.2-3.2-4.9-5.2
	c-4.9-13.8-14.4-9.9-24.5-7.5c-28.3,6.5-56.7,7.8-85.1,0.2c-14.4-3.8-25.5-12.2-34.6-23.5c-3.3-4.1-5.3-5.8-9.6-0.9
	c-5.5,6.2-14.4,10.2-15.3,19.4c-1.7,17.7-7.1,35.9,4.2,52.8c2.1,3.2,4.3,5.9,8,6.7c3.7,0.7,5.7,3.3,7.3,6.2c2.5,4.6,1.8,7.3-4.2,7.6
	c-11.1,0.6-22.1,0.5-33.1-1.2c-6.2-1-7-3.2-4.5-8.4c3.2-6.6,2.1-12.9-4.3-16.6c-13.4-7.7-15.1-18.9-10.9-32.3
	c0.5-1.6,1.4-3.5-0.7-4.8c-12,13.8-12.8,33.2-2,46.1c1.5,1.8,3.1,3.7,4.2,5.9c1.8,3.4,1.2,5.9-3.4,5.7c-10-0.2-19.9-0.1-29.9-0.7
	c-7.2-0.4-10-5.2-6.5-11.2c6.3-11,4.8-20.6-3.2-29.7c-3.3-3.8-2.6-7.5-0.7-11.7c3.5-7.4,6.7-14.8,9.6-22.4
	c3.8-9.5,2.5-12.3-6.9-17.3c-2.7-1.4-9.8-16.2-8.4-18.8c6.2-11.3,5.6-24,7.7-36.1c5.3-30.4,23.7-50.5,49.9-65
	c9.3-5.1,19.1-7.4,29.5-7.6c14.1-0.3,27.4-4.4,40.2-9.7c12-5,23.9-6.3,37-3.1c23.1,5.7,46.1,12.2,70.2,12.3c8.2,0,16.2-1,23.8-4.6
	c11.3-5.4,23.4-5.2,35.6-4.4c13.6,1,27.2,1.4,40.7,2.9c14.9,1.6,27.7,7.8,32.7,23c2.5,7.8,9.7,9.3,14.1,14.3c1.9,2.2,4.2,0,4.6-2.1
	c0.8-4.3,3.5-5.4,6.3-3.1c9.6,7.9,17.2,1.1,25.3-2.9c2-1,3.3-4.6,5.9-2.3c2.5,2.2-0.7,4.5-1.6,6.3c-4.2,8.4-6.7,18.5-18.1,20.7
	c-2.9,0.6-2.1,3.2-2.1,5.2c-0.8,22.4,10,39.2,26,53.4c4.7,4.1,10.5,1.6,15.7,2.5c1.8,0.3,4.2,0.2,4.6,2.1c0.5,2.4-1.7,3.6-3.8,4.3
	c-3,1.1-6.3,1.5-8.7,4.8c4.1,2.1,7.3,1,10.6-0.7c9.6-5,19.8-9,28.1-16.3c4.3-3.8,6.4-2.1,6.6,3.2c0.3,7.4-0.6,14.4-4.8,20.8
	c-6.7,10.3-14.8,19.2-25,25.8c-4.7,3-7.2,7.1-8.7,12.2c-7,24.5-31.2,31.5-50.3,14.2c-10.7-9.7-22.5-18.7-31.3-29.9
	c-6.4-8.1-9.1-15.1-19.5-4.8c-3.8,3.7-10.5-1.3-17,0.6c-15.2,4.5-18.3,16.8-23.2,28.5c-1.2,2.7-1.5,5.8-2.4,8.7
	c-3.9,13.2-2.1,17.6,10.2,25.1c3.4,2.1,7.6,4.8,6.6,8.8c-0.9,3.9-6.1,5-9.9,4.9c-10.5-0.2-21.1-0.8-31.6-1.7c-4.9-0.4-7-3.6-5-8.3
	C280.1,351.7,282,348.7,284.7,343.5z"
	  style="fill:white"/>
</svg>
