<?xml version="1.0" encoding="utf-8"?>
<!-- Generator: Adobe Illustrator 24.0.0, SVG Export Plug-In . SVG Version: 6.00 Build 0)  -->
<svg version="1.1" id="Layer_1" xmlns="http://www.w3.org/2000/svg" xmlns:xlink="http://www.w3.org/1999/xlink" x="0px" y="0px"
	 viewBox="0 0 500 500" style="enable-background:new 0 0 500 500;" xml:space="preserve">
<path d="M284.5,325.1c-11.6,29-4,55.5,10.7,80.9c-7.3,4.6-15.2,1.8-22.7,2.3c-3.2,0.2-4.8-1.6-5.3-4.4c-0.6-3.1-0.8-6.3-1.3-9.4
	c-0.2-1.4,0.4-3.7-1.2-3.9c-8.6-1.2-5-7.7-4.3-11.4c2.5-14.6,2.9-29.1,2.2-43.8c-0.3-5.8-2-11.2-3.4-16.7c-1.7-6.4-4-12.7-4.3-19.4
	c-0.4-8.1-9.8-15.2-17.6-13.2c-16.7,4.4-33.8,5.1-50.9,6.7c-14.8,1.4-28.7,1-42.4-4.2c-4.9-1.8-9.5-4.5-15.1-4.2
	c-7.4,0.4-13.9,3.6-17,9.6c-4.5,8.6-12.5,11.6-19.7,16.1c-4.2,2.7-9,4.4-13.3,7.1c-4.3,2.7-5.9,6.3-6.2,10.4
	c-0.6,10.6-0.8,21.2,1.7,31.7c2.1,8.6,5.9,16.1,12,22.8c2.3,2.5,10.1,5.9,1.9,11.1c-1,0.6,0.7,2.2,1.3,3.2c3.7,6,7.5,11.9,11.9,17.3
	c1.6,1.9,3.2,3.8-1.5,4.3c-3.2,0.3-6.3,1.5-9.7,1.8c-10.7,0.9-18.2-2.5-20.6-13.8c-0.3-1.4-1.1-3.3-2.1-3.7c-8-3.5-9.7-10.8-11.4-18
	c-1.2-5-3.2-9.6-6.4-13.7c-3.2-4.1-2.4-9.7-4-14.5c-6-17.9-9.6-36.4-11.3-55.2c-0.5-5.2,0.7-9.9,4.1-14.3c1.9-2.4,3.8-5,1.8-9.5
	c-1.2-2.7,1-7.6,0.4-11.8c-0.4-2.6-0.9-3.8-3.3-4.3c-4.1-0.9-5.4-3.4-6-7.6c-0.7-5.1-2.8-10.1-4.3-15.1c-2.7-8.6-3.1-17.5-5.3-26.1
	c-0.2-0.6-0.6-1.4-0.4-1.8c4.8-12.5-0.9-27,7.7-38.7c3.6-4.9,6.4-10.5,12.4-13.2c0.9-0.4,2-1.1,2.4-2c4.2-9.9,13.6-12.7,22.1-16.9
	c7.2-3.5,14.6-7.8,21.8-9.9c10.9-3.2,21.7-8.6,33.8-7.4c3.4,0.3,6.7,0.1,10.1-0.9c2.4-0.7,5-1.8,7.5-0.6c8,3.8,15.6,1.2,23.5-0.5
	c13.7-3.1,27.4-0.4,41.1,0.9c6.1,0.6,12,2.4,18.3,1.9c10.9-0.9,21.4,2.9,32.2,3.6c15.9,1,31.8-0.3,47.7-1c7.6-0.3,14.9,0.9,22,2.4
	c6.5,1.4,10.8,0.1,15.2-4.6c4.1-4.4,6-9.7,8.9-14.6c1.3-2.3-0.3-3.6-1.6-4.9c-2.5-2.6-5.1-5.1-7.6-7.7c-1.9-2-3.2-4.5-1.8-6.9
	c1.4-2.5,4.2-2.7,6.8-1.8c6.7,2.1,13.3,4.3,20,6.3c2.8,0.9,5.7,1.6,8.6,2.2c8.6,1.8,8.5,1.7,7.6-6.8c-0.3-2.9-1.6-6.4,1.4-8.3
	c3-1.9,5.5,1,8.1,2.2c0.2,0.1,0.4,0.2,0.5,0.4c5.6,5.7,10.9,7.9,19.3,4c8-3.7,16.6-0.1,23,5.7c10.5,9.5,22.1,17.3,34.5,23.9
	c10,5.4,10.1,15,12,23.8c0.9,4.2-10.6,14.1-15.9,14.7c-7,0.8-13.9,1.7-20.8,2.7c-5.3,0.8-9.7,3.7-12.1,8.5c-4,8-8.5,15.5-16.6,20.2
	c-2.6,1.5-3.3,4.5-3.8,7.1c-1.8,10.6-6.7,20-11.2,29.6c-1.8,3.8-4.4,6.7-7.6,9.2c-8.2,6.5-14.1,14.5-17.2,24.7
	c-4.9,15.9-16.1,24.1-32.5,25.8c-7,0.7-13.8,2.2-20.8,2.6c-6.9,0.4-13.7,9.4-14,18.8c-0.3,8.6-2,16.8-4.5,25
	c-2.1,6.8,1.1,13.4,1.1,20.2c-0.1,13.4,8.9,23.1,14.1,34.3c2.8,6.2,3.2,6.1-3.6,6.3c-2.5,0.1-5.1,0.1-7.7,0
	c-10.8-0.4-11-1.6-15.3-11.6c-3.3-7.5-3.2-14.5-2.4-22.2C288.9,345.9,286.7,335.5,284.5,325.1z"/>
</svg>
