<?xml version="1.0" encoding="utf-8"?>
<!-- Generator: Adobe Illustrator 24.0.0, SVG Export Plug-In . SVG Version: 6.00 Build 0)  -->
<svg version="1.1" id="Layer_1" xmlns="http://www.w3.org/2000/svg" xmlns:xlink="http://www.w3.org/1999/xlink" x="0px" y="0px"
	 viewBox="0 0 500 500" style="enable-background:new 0 0 500 500;" xml:space="preserve">
<path d="M134.5,127.8c-16.2-11.6-31.3-18-50-19.3c9.1-11.3,20.4-14.7,31.9-12.7c29.2,5,56.4,16.1,81.5,32c3.8,2.4,6.6,5.8,8.5,10
	c1.8,4.1,4.8,7.4,8.7,9.8c10.1,6.3,15.2,3.9,17-7.9c0.4-2.7,0.2-5.6,1.8-7.9c4.2,0,4.6,3.3,5.7,5.6c5.9,13.2,11.8,26.4,12.4,41.3
	c0.3,8.3,4.9,15.4,10.4,21.4c5.4,5.9,11.6,11.2,17.5,16.6c4.1,3.7,8.8,4.1,13.4,1.3c16.6-10.3,32.1-20.8,36.3-42.4
	c3.6-18.5,9.7-36.9,19.7-53c15.1-24.3,32-47.4,55.1-64.9c1.5-1.2,3.6-1.8,4.4-5.2c-3.2-1.4-7.4-0.9-10.6-3c-7.5-4.8-8.7-9.9-2-16.4
	c3.6-3.5-2.6-5.6,0.1-8.2c3.8-1,6.5,3.4,10.5,2.2c2.5-2.7-2.6-5.9,1.7-10c1,1.7,1.8,3.6,3.1,5c2.6,2.8,4.6,7.9,9.1,6.3
	c4-1.3,1.4-6.6,3-9.8c4.5,2.6,2.5,8.7,6.7,12.1c3.7-0.8,3.9-4.9,6-7.3c2,3.2-2.7,7.1,1.1,10.3c4.8,0.8,4.4-5,7.7-6.4
	c1.7-0.3,1.7,1.2,1.8,2.3c0.5,4.5-1,10.5,7.3,7.9c1.8-0.6,3,1.6,2.8,3.1c-0.4,3.9,1.9,5.8,4.6,7.7c2.3,1.7,4.8,4.5,4.1,7
	c-2.3,7.6,0.2,13.5,7,18.5c-6.9,3-12.4-0.7-17.9,2.9c0.5,5.7,3.9,11.9,1.4,18.1c-2.5,6.2-8,9.9-14.1,13.4
	c4.3,9.2,8.4,18.2,12.7,27.2c5.1,10.7,7.9,21.9,6.6,33.9c-0.5,4.4-0.1,8.9-0.6,13.3c-2.2,17.4-1,34.2,4.6,51.1
	c5.5,16.7,6.5,34.1-0.9,50.8c-2,4.4-1.3,11.7-9.7,11.1c-1.1-0.1-2.4,3.8-3.6,5.9c-4.3,7.7-8.7,15.4-12.9,23.2
	c-13.1,24.3-32.5,41.7-57.5,53.1c-8.1,3.7-15.1,9-22.2,14.4c-13.3,10.1-18.4,24.1-19.7,39.8c-1.1,13.1,3.8,22.8,18.9,24.2
	c4.4,0.4,8.8,1.2,13,2.3c1.8,0.5,3.5,2.6,3,4.7c-0.6,2.5-3.1,2-5,1.5c-7.2-2.1-14.1-6-22.4-4.6c1.5,5.1,6.3,5,9.5,6.9
	c3.3,2,6,4,6.1,9c-11.3-1-18.3-11.1-29-13.1c-1.8,7.4,8,13,2.4,20.5c-5.7-4.2-9-9.1-10.9-15.5c-3.2-10.7-4.8-11.2-15.7-7.8
	c-3.8,1.2-7.7,2.5-11.6,3.2c-2.9,0.6-5.7-0.1-6.3-4.1c6.9-3.7,13.8-7.7,20.9-11.2c12.2-6.2,16.4-17,17.2-29.7
	c0.4-5.3-1-10.4-2.2-15.5c-1.7-7.4-3.5-12.7-13.4-13.6c-10.7-1-20-8-29.5-13.3c-8.9-4.9-8.9-4.9-14.6,4c-0.9,1.4-1.6,2.8-2.6,4.1
	c-3.3,4.2-5.8,4.2-8-0.6c-2.5-5.4-4.2-11.3-6.2-17c-1.3-3.8-2.4-7.7-3.8-11.5c-1.6-4.4-4.3-6.6-9.2-4.8c-6.9,2.6-12.5,0.9-15.5-5.8
	c-3.4,0.8-4.5,3.2-6.3,4.7c-3.4,2.8-6.9,3-9.3-0.7c-2.8-4.3-5.8-5.8-11-4.6c-5.2,1.2-9.4-1.1-12.1-5.9c-1.1-1.9-1.4-4-5-3.8
	c-10.4,0.7-10.5,0.3-11.2-9.5c-0.1-1.2-0.2-2.4-0.3-4.4c-4.3,1.2-8.3,7.9-12.9,0.9c-1.7-2.6-4.3,0.4-6.4,0.9c-7,1.6-11.5-0.6-10.6-7
	c1.3-9.4-5-14.7-8.5-21.9c-3.7,2.1-2.1,7.2-6.9,8.9c-7-15.6-3.9-33.5-9.9-49.6c-6.5,3-6.3,10.4-11.8,12.9
	c-4.7-8.2-4.9-23.9,0.5-32.7c6.5-10.6,5.8-22.3,6-33.8c0.1-6.8-4.1-9-10.8-6.8c-7.1,2.4-12.5,7.3-16.8,13.2
	c-12.4,17-20.2,35.6-20.1,57.1c0,9.8,0,19.6-1,29.6c-19.1-20.4-16.1-44.6-11.5-69.3c-5.3,6.3-6.8,14-10,20.7c-0.8,1.7-1.6,4-4.1,3.7
	c-2.4-0.3-3-2.6-3.6-4.3c-3.3-11.2-3-22.2,1.5-33.1C50.1,164.1,81.5,134.3,134.5,127.8z"/>
</svg>
