<?xml version="1.0" encoding="utf-8"?>
<!-- Generator: Adobe Illustrator 24.0.0, SVG Export Plug-In . SVG Version: 6.00 Build 0)  -->
<svg version="1.1" id="Layer_1" xmlns="http://www.w3.org/2000/svg" xmlns:xlink="http://www.w3.org/1999/xlink" x="0px" y="0px"
	 viewBox="0 0 500 500" style="enable-background:new 0 0 500 500;" xml:space="preserve">
<path d="M110.2,364.5c0-0.4-0.1-2.8,0.3-5.2c1.9-11.2-1.7-14.2-12.1-8.8c-4.2,2.2-8.7,4-13.3,4.9c-29.4,5.6-37.2,27.2-40,52.9
	c-0.8,7.1,2.2,19-10.5,17c-10.2-1.6-13.6-10.5-11-21.1c3-12.4,5.4-24.9,8.5-37.3c4.3-17.1,10.8-31.8,25.4-42.8
	c8.9-6.7,12.2-17.9,10.5-28.2c-3-17.4,1-33.9,3.6-50.5c1.3-8.2-1-13.4-5.4-19.3c-14.7-19.7-29.5-39.4-36.2-63.8
	c-10-36.4-1.9-77.3,27.9-91.1c22.1-10.3,38.5-9.1,52,8.3c4.7,6.1,8.4,14.3,2.5,20.9c-6.2,6.9-11.7-0.2-16.9-3.9
	c-8-5.7-15.9-5-23.5,1c-9.6,7.6-15.4,18-14.4,29.6c2.3,26.5,10.5,51,30.1,70.3c9.3,9.2,20.3,12.7,32.6,8.8c26.8-8.5,54.3-9,81.7-7.2
	c33.5,2.3,67.2,2.4,100.7,6.8c15.5,2,32.3-3.7,44.1-15.9c15-15.6,37.7-22.5,48.5-42.9c1.8-3.4,4.8-3.9,8.5-2.4
	c4.1,1.6,4.7,5.2,4,8.1c-2.4,9.9,2.3,13.9,10.9,17.7c13.5,6,19.3,20.4,28.5,31c5.7,6.5-7.4,24.7-17.4,26
	c-25.9,3.4-36.6,17.8-35.1,44.3c1,16.5,1.2,33.6,6.1,48.9c8.9,27.7,31.1,45.7,53.1,63.3c3.8,3,8,1.9,12.2,2.1
	c5.6,0.3,10.8,2.7,11.1,8.9c0.3,6.4-5,8-10.5,9.2c-14.9,3.3-28.2-3.2-38.4-10.9c-20.9-15.7-44.1-27.8-64.6-43.8
	c-1.9-1.5-4.4-2.5-5.5-4.4c-12-20.4-30-16.7-48-11.8c-3.4,0.9-7.4,3.4-9.1,6.4c-9.9,16.8-16.6,35.1-22.3,53.7
	c-1.7,5.5,2.4,6.9,6,9.5c7.6,5.5,6.8,13-2.2,15.4c-16.1,4.3-25,3-26.4-15.9c-1.4-18.9,5.3-36.5,6.9-54.8
	c1.5-17.3,1.2-17.2-16.4-20.3c-15.7-2.8-29.8,5.3-44.7,4.6c-21.7-1-35.4,7.5-41.2,29c-1.4,5.1-6.6,9.1-9.5,13.9
	c-10.4,17.5-2.7,35.3,17.4,39.4c7.4,1.5,15.8,3.2,14.9,11.6c-0.8,8-9.7,9.3-17.1,9.4c-3.8,0-7.7,0-11.3-1.2
	C131.6,426.4,108.1,390.9,110.2,364.5z"/>
</svg>
