<?xml version="1.0" encoding="utf-8"?>
<!-- Generator: Adobe Illustrator 24.0.0, SVG Export Plug-In . SVG Version: 6.00 Build 0)  -->
<svg version="1.1" id="Layer_1" xmlns="http://www.w3.org/2000/svg" xmlns:xlink="http://www.w3.org/1999/xlink" x="0px" y="0px"
	 viewBox="0 0 500 500" style="enable-background:new 0 0 500 500;" xml:space="preserve">
<path d="M20.8,391.8c2.5-7.2,8.3-9.2,13.1-11c40.8-15.4,77-40.3,117.6-56c18.4-7.1,20.8-18.9,4.9-28.6c-10.6-6.4,6.7-11.9-1.7-17.3
	c-5.7-3.7-6.8-10.3-8.8-17.4c-7-24.1,0.7-50.5-12.5-73.2c-0.6-1-0.8-3.2-0.3-3.6c14.5-9.7,4.7-23.8,6.9-35.7c3-16.6,9.1,5,13.5-0.7
	c-0.5-7.2-2.3-14.8-1.1-21.9c0.8-4.8-6.6-19.3,10.1-12.7c0.3,0.1,2.7-2.7,2.5-4.1C164,97.4,173,91.2,180,83.5c7.2,2.4,7.3,9.4,9,15
	c10.4,34,25,66.3,42.1,97.3c12.6,23,22.1,47.2,30,72.1c3.4,10.6,4.7,20.8-1.3,30.5c-5.5,9-1.7,12.2,6.4,16.6
	c23.4,12.9,47,8.3,70.8,2.8c20.6-4.8,40.8-11.1,62.3-10.5c10.2,0.3,21,1.1,27.6,9c11.2,13.2,25.4,19,41.4,22.8
	c4.5,1,11.3,2.2,10.8,8.4c-0.5,6.8-7.4,7.6-12.9,8.4c-21.9,3.2-43.6-1.3-65-3.7c-56.7-6.4-107.4,8.7-153.7,39.5
	c-34.3,22.8-71.9,31.1-110.2,20.6C99.2,401.6,60.1,400.8,20.8,391.8z" style="fill:white"/>
</svg>
