<?xml version="1.0" encoding="utf-8"?>
<!-- Generator: Adobe Illustrator 24.0.0, SVG Export Plug-In . SVG Version: 6.00 Build 0)  -->
<svg version="1.1" id="Layer_1" xmlns="http://www.w3.org/2000/svg" xmlns:xlink="http://www.w3.org/1999/xlink" x="0px" y="0px"
	 viewBox="0 0 500 500" style="enable-background:new 0 0 500 500;" xml:space="preserve">
<g>
	<path d="M167.6,379.8c-0.9-0.2-3.6-0.5-6.3-1.2c-21.7-5.4-42.8-7.7-65,0.6c-15.9,5.9-33.3,7-46.9-8.5c-12.9-14.7-8.6-37.4,9.9-43.2
		c15.2-4.8,24.8-13.2,32.8-27.1c16-27.6,35.2-29.9,58-7.7c11.2,10.9,20.6,22.4,37.5,25.6c9.5,1.8,18.6,25.6,16.1,35.8
		C200.4,367.5,183.8,380,167.6,379.8z"/>
	<path d="M423.9,326.7c-6.8-0.3-14.8,0-21.7-3.2c-20.6-9.9-41.2-5.7-61.9-1c-16.2,3.7-29.8-1.2-39.2-14.3
		c-11-15.2-1.6-42.5,16.6-47.4c10.4-2.8,19.4-7.2,25-16.9c1-1.8,2.7-3.1,4.2-4.6c24.5-24.8,45.1-22.6,62.5,7.4
		c6.1,10.5,12,19.2,24.9,22.7c18.6,4.9,25.9,16.4,23.2,32.3C455.1,315,440,326.6,423.9,326.7z"/>
	<path d="M484.7,226.6c0.1,9.1-2.3,17.8-4.7,26.5c-2,7.4-6.8,10.5-14.4,10.6c-20.7,0.2-34.3-12.5-34.6-33.1
		c-0.3-18.8,4.6-36.3,15-52c6.2-9.2,11.9-9.7,18.9-1C476.5,191.8,484.4,207.7,484.7,226.6z"/>
	<path d="M68.9,279.4C69,305.6,57,318.6,36,319.6c-8.4,0.4-13.6-2.7-16.4-11c-9.4-27.8-3-52.5,14.7-74.8c7.2-9,13.4-8.7,19.8,0.8
		C63.8,249.3,68.3,265.9,68.9,279.4z"/>
	<path d="M376.9,144.1c0.4,11-2.7,23.9-5,36.8c-1,5.5-3.5,10.5-7.3,14.7c-9.8,10.9-20.3,10.9-29.8-0.1
		c-21.5-24.7-14.9-59.8,14.1-75.5c3.8-2.1,7.8-2.9,11.9-3.2c11.8-0.9,15.6,2.7,16.1,14.6C377,135,376.9,138.4,376.9,144.1z"/>
	<path d="M137,172.2c8.4,0.3,16,3.2,21.7,8.8c24.1,23.7,27.4,50.2,2.6,73.9c-9.7,9.2-25,3.4-31.1-11.5c-3.3-8-4.1-16.7-5.6-25.2
		c-1.8-10.7-1.6-21.4-1.7-32.1C122.8,176.4,128.1,172.5,137,172.2z"/>
	<path d="M227.3,264.6c0.2,24.3-7,36.2-23.1,40.7c-12.3,3.4-23.9-1.9-27-14.2c-5.8-23.4,0.4-45.2,12.1-65.5c4.2-7.4,11.3-5.4,17.2-1
		C220.7,235.1,229.2,248.6,227.3,264.6z"/>
	<path d="M324.7,220.5c0,1.4,0,2.8,0,4.2c-0.5,13.7-6.5,22.5-17.3,25.3c-10.1,2.6-23.3-3.2-29.5-13c-13.1-21-3.8-57.5,17.6-69.5
		c7.8-4.4,13-1.7,17.2,5.3C318.7,182.4,324.6,205.6,324.7,220.5z"/>
	<path d="M116.7,227.5c0.3,24.7-10.7,37.6-28.5,36.2c-7.4-0.6-13.2-3.8-16.7-10.5c-11.6-22.2-7.8-48.9,9.6-67.1
		c10.8-11.2,19.2-10.5,27.3,2.8C116,201.5,114.3,216.2,116.7,227.5z"/>
	<path d="M435,171.2c0,6-2.2,14.4-5,22.5c-3.2,9.2-9.9,14-19.5,14.3c-9.7,0.4-18.1-2.7-22.2-12.1c-9.7-22.6-5.7-44.8,5.4-65.4
		c5.8-10.8,13-11.1,22-2.8C427.6,138.6,435.5,151.7,435,171.2z"/>
</g>
</svg>
