<?xml version="1.0" encoding="utf-8"?>
<!-- Generator: Adobe Illustrator 24.0.0, SVG Export Plug-In . SVG Version: 6.00 Build 0)  -->
<svg version="1.1" id="Layer_1" xmlns="http://www.w3.org/2000/svg" xmlns:xlink="http://www.w3.org/1999/xlink" x="0px" y="0px"
	 viewBox="0 0 500 500" style="enable-background:new 0 0 500 500;" xml:space="preserve">
<path d="M399,247.6c-2.2,1.7-2.7,3.3-1.7,5.7c2.4,5.9,3.8,12.1,7.7,17.3c3.6,4.9,3.8,10.3,1.5,16.3c-6.6,17.2-13.6,34.3-18,52.4
	c-1,4.2-1.8,8.5-0.6,12.6c1.3,4.5-0.9,6.8-3.8,9.2c-6.1,4.9-18.8,8.9-31.7,4.4c15.9-11.5,19.9-29.9,25.3-46.6
	c5.9-18-3.5-34.5-10.5-51.2c-2.1,2.1-1.2,3.9-1.2,5.5c-0.2,5.8-0.1,5.8-5.2,3.2c-6.9-3.4-7-3.4-7.7-11.4c-0.2-2.3-1.3-3.4-2.9-4.5
	c-3.1-2.1-7.2-2.5-9.9-5.6c-1.6-1.8-2.6,0.5-3.5,1.4c-4.6,4.5-9.8,7.3-16.4,7.4c-4.6,0.1-8.4,2.1-11.9,5.2
	c-5.9,5.3-12.7,5.8-19.3,1.5c-3-2-6-2.7-9.5-2.9c-10.5-0.7-20.1-5.4-30.4-6.8c-3.9-0.5-8-0.1-11.6-2.6c-2.2-1.5-5.2-0.3-5.7,2.2
	c-1,5.1-4.9,8.3-6.8,12.5c-7.5,16.6-12.5,33.7-4.2,51.6c5.7,12.2,8.3,25.2,10.8,38.3c0.5,2.6-0.1,3.6-2.7,3.5
	c-4.7,0-9.3-0.6-13.8-2.1c-4.7-1.6-3.7-5.5-3.6-9c0.3-7.7-1.2-15.2-3.7-22.5c-4,9.9-6.3,20-5,30.6c0.1,1.1,0.5,2.1,0.5,3.1
	c0.2,5,3,11.5-1.1,14.5c-5.5,4.2-12.5,7.2-20.3,5.6c-7.6-1.5-9.6-5.6-4.7-11.5c8.3-10,10.6-22.1,13.3-34.1c0.6-2.5,0.7-5.1-0.3-7.6
	c-4.1-10.4-4.6-21-0.9-32.6c-5.2,1.6-9.6,3.2-14.2,4.4c-5.2,1.3-10.6,1.9-15.1-2c-1.4-1.1-2.7-1.5-3.9-0.2
	c-5.4,5.8-10.9,2.9-16.1-0.1c-10.3-6-10.2-6.1-18.1,2.9c-2,2.2-3.9,5-6.9,5.4c-5.9,0.7-7.5,4.8-8.5,9.6c-1.8,8.7-5.4,16.3-10.5,23.7
	c-4.2,6.1-7.1,13-10.4,19.7c-5,10.2-12,18.5-22.3,23.7c-1.2,0.6-3.4,0.9-3,2.7c1.6,7.5-3.8,6-7.8,6.3c-5,0.4-10.1,1.1-15.1,1.6
	c-4.4,0.5-9.3-1.3-14.1-1.1c-1.7,0.1-2.4-2.4-2.7-4c-0.5-2.9-1.5-6.2-0.7-8.8c4.3-14.3,0.6-29.3,4-43.7c0.4-1.7,0.2-3.4-1-4.8
	c-7.4-9-6.1-18.9-1.3-28.1c4.4-8.3,5.3-16.7,4.8-25.7c-0.1-2.6-1.7-3.2-3.1-4.3c-4.6-3.5-9.3-6.8-12.2-12c-1-1.8-2.5-4.1-0.6-5.8
	c2.2-1.9,3,1.2,4.5,2c8,4,15.8,8,22.3,14.4c1.9,1.9,5.9,2.6,9.2-0.3c3.1-2.7,3.1-5.2,1.9-8.4c-1.3-3.6-2.9-7.1-3.9-10.7
	c-0.4-1.6-1.2-4.2,1.2-5c2-0.6,2.6,1.7,3.5,3.1c0.2,0.4,0.3,0.8,0.5,1.2c4.1,6.5,6.6,6.6,10.2-0.1c11.6-21.9,23.1-43.9,34.2-66.1
	c3.7-7.3,6-15.3,8.7-23c1.6-4.4,1.2-9.8,3.8-14.6c1.3-2.3,2-4.4,4.4-5.8c1.6-0.9,3.5-2.2,4.1-3.8c3.3-8.2,11.9-10.5,17.6-15.9
	c3.7-3.5,9.4-3.3,14.1-5.4c6.6-3,13.8-4,19.9-8.8c3.9-3.1,9.7-0.5,14.8-1.6c21.9-4.9,43.8-10.5,66.7-6.2c7.4,1.4,15.3,1,22.9,0.1
	c17.3-1.9,33.8,3.2,50.6,4.9c8.6,0.9,16.9,1,25.3-1.1c8.9-2.2,18-3.4,27.2-3c6,0.3,11.1-2.5,16.8-3.5c18.5-3.4,29.3,3.2,38,19.7
	c6.1,11.6,4.5,23.9,6.9,35.8c2.6,13.3,4.8,26.7,9.2,39.7c3.9,11.7,11.5,20.1,21.4,26.9c1.6,1.1,4,1.6,4.3,3.5
	c1.4,8.6,7.2,15.1,13,20c5.2,4.4,6.2,7.9,5.3,14c-0.6,3.9,3,8,0.1,12.8c-1.2-1.6-2.3-3.1-4.2-5.7c-0.3,3.4-0.5,5.7-0.7,7.9
	c-3.3-5.2-10.7-5.5-13.1-12c-1.3-3.5-3-0.9-3.3,1.7c-0.1,0.7-0.3,1.5-0.5,2.4c-2.6-1.3-3.3-3.5-3.4-5.4
	c-0.5-10.7-7.2-18.4-12.8-26.6c-0.5-0.7-1.1-1.6-1-2.3c1.7-13.5-7.8-23.8-10.6-36c-1.5-6.5-4.2-12.8-7.5-19.2
	c-0.1,2.1-0.3,4.3-0.4,6.4c-0.9,16.2-1,32.3,0.6,48.4c1,10.3,5.9,19,11.1,27.5c4.1,6.7,6.1,13.2,4.5,21.5c-3.6,19-3.9,38.5-5,57.8
	c-0.1,2.5,0.1,5.1,0.4,7.6c0.4,3.9,2.7,7.5-1.5,11.4c-2.6,2.4,0,6.9,1.1,10.3c1.8,5.4-0.1,7.5-5.5,7.6c-6.6,0.1-13.2,1-19.7-0.2
	c-4.4-0.8-5.6-3-2-6.3c7.3-6.6,9.3-15.1,11-24.6c4.3-25.3-1.1-48-14.7-69.3c-4.3-6.7-5.8-14.5-8.8-21.8
	C401.9,253.2,401.3,250,399,247.6z"/>
</svg>
