<?xml version="1.0" encoding="utf-8"?>
<!-- Generator: Adobe Illustrator 24.0.0, SVG Export Plug-In . SVG Version: 6.00 Build 0)  -->
<svg version="1.1" id="Layer_1" xmlns="http://www.w3.org/2000/svg" xmlns:xlink="http://www.w3.org/1999/xlink" x="0px" y="0px"
	 viewBox="0 0 500 500" style="enable-background:new 0 0 500 500;" xml:space="preserve">
<path d="M401.7,114.8c-19.7,0.2-36.4,3.1-52.5-3.2c-15.7-6.2-33.7-0.8-48.9-10.9c-6.6-4.4-15-6.2-19.7-13.5c-5.9-9.2-13-7.4-25-1.1
	c28.2,9.3,44.4,28.8,62.5,46.4c23.1,22.5,39.7,48.3,49.7,78.6c2,6.2,4.1,10,11.3,9.7c24.9-0.9,43.5,11.3,62.8,25.9
	c15.2,11.5,29.8,21.2,38.1,39.4c8.4,18.3,4.8,23.8-14.2,29.8c-24.8,7.8-46,0.7-67.8-8.5c-4.9-2.1-8.6-4.9-9.5-11.9
	c-14.7,17-10.9,37.8-18.9,55.3c-8.3,17.9-22.4,19.8-36.9,24c-4.7,1.4-10,1-15,1.4c-17.1,1.4-20.5,7.2-10.4,22.4
	c9.6,14.3,15.9,28.9,16.6,46.4c0.4,10.8-4.1,19.4-8.2,28.4c-4.7,10.1-11.8,10.3-21.8,6.8c-27.1-9.6-42.2-31.2-55.9-54
	c-8.4-14-19-27.8-15.3-46.2c1-4.9-1.6-7.3-6.7-9.3c-35.6-14.3-65.9-36.8-94.1-62.4c-6.5-5.9-7-16.9-19.7-19.7
	c3.6,19.5,5.3,38.6,11.1,56.4c4.9,15.1,4.2,29.9,3.3,44.6c-0.8,14.9-11.1,4-13.6,1.6c-23.5-22.6-44.7-46.9-61.5-75.4
	c-12.4-21.1-18-44-24.9-66.7c-4.5-14.9,16.2-49.9,33.3-54.4c26.5-7.1,34.5-27.6,41.7-49.9c1.7-5.3,3-8.6-3.9-11.7
	c-12.1-5.4-18.8-17.3-28.2-26.1c-14.5-13.5-11.6-31-9.1-47c2.1-13.8,34.6-18,51.2-7.2c13.9,9.1,24.4,22,33.9,35.1
	c4.1,5.7,7.6,6.6,11.9,4.4c19.5-10,38.4-20,49.2-41.6c14.9-29.9,38.8-38.4,72.4-30.1C324.2,34.3,364.4,69.4,401.7,114.8z"/>
</svg>
