<?xml version="1.0" encoding="utf-8"?>
<!-- Generator: Adobe Illustrator 24.0.0, SVG Export Plug-In . SVG Version: 6.00 Build 0)  -->
<svg version="1.1" id="Layer_1" xmlns="http://www.w3.org/2000/svg" xmlns:xlink="http://www.w3.org/1999/xlink" x="0px" y="0px"
	 viewBox="0 0 500 500" style="enable-background:new 0 0 500 500;" xml:space="preserve">
<path d="M129.2,364.2c-26.3-10.3-45.6-25.6-58.2-48.9c-14.1-26.3-14.8-53-2.7-79.8c3.8-8.4,4.7-14.7-1.5-22.6
	c-6.7-8.4-3.1-18.7-1.1-28.1c2.2-10.3,6.6-20,14.1-27.6c7.7-7.7,2.7-10.6-4.2-11.8c-11.6-2.1-23.4-3.5-35.2-4.7
	c-13.9-1.4-26.9-21.9-22-35.1c1-2.7,2.7-4.1,5.6-4c2.9,0,5.8-0.4,8.6-0.1c14.5,1.9,23.7-1,29.9-17.3c4-10.6,13.4-16.7,1-27.9
	c-4.8-4.3,0-12,4.8-17.1c34.1-36.5,87-39.4,123.7-5.8c38.8,35.5,56.5,80.7,57.1,132.9c0,4.3,0,8.7-0.5,13c-0.5,5.6,2.1,8.9,7.1,10.6
	c26.3,8.9,54,11.4,80.9,17.4c4.2,0.9,4.5-1.6,4.7-5c0.5-10-5.8-14.4-13.6-18.5c-33.9-17.5-38.2-61.5-8.4-85.3
	c15.2-12.2,39.4-13.8,56.8-3.9c17.3,9.8,28.5,30.9,25.8,48.7c-3.5,23.9-17.6,41-39,44.7c-11.3,1.9-13.1,6.8-10.9,16.7
	c2.4,11.5,7.6,21.7,12.1,32.3c6.3,14.6,15.6,29.7,13.1,45c-3,18.5,4.2,22.2,19.5,27.2c25.6,8.3,37.5,35.5,30.3,61.5
	c-1.3,4.8-3.2,9.4-5.1,14.8c19.5-1.3,36.3,3.6,48.5,18.8c23.9,29.6,9.7,71.4-27.5,81.1c-13.2,3.4-26.6,6.5-40.5,3.3
	c-2.7-0.6-7.4-1.2-5.6-4.5c4.2-7.5-1.4-10.3-5-14.5c-12.7-14.6-15.3-31.1-9.5-49.2c1.3-4.1,2.7-8.1,4.4-13
	c-5.6-0.4-10.8-0.4-15.9-1.2c-34.2-5.4-52.7-36.2-40.6-68.8c2.5-6.9,1.3-8.9-5.1-11.2c-8.5-3-15.2-9.5-22.1-15.3
	c-10.9-9.1-22.9-14.7-37.5-13.5c-4.6,0.4-8.5,1.8-10.4,6.3c-15,36.6-45.8,52.9-81.3,63.2c-1.6,0.5-3.6,0.1-4.8,3.2
	c7.2,4.8,14.4,10.1,20.1,17c17.1,20.4,17.1,54.8-1,74.7c-18.6,20.5-43.5,26.7-70.1,27.4c-4.8,0.1-14.5,0.9-7.6-10.1
	c2.8-4.4-3.3-5.6-5.7-7.5C82.7,453.2,76,429.3,85.9,402c5.1-14,14.6-23.7,27.6-30.4C117.9,369.2,122.5,367.3,129.2,364.2z"/>
</svg>
