<?xml version="1.0" encoding="utf-8"?>
<!-- Generator: Adobe Illustrator 24.0.0, SVG Export Plug-In . SVG Version: 6.00 Build 0)  -->
<svg version="1.1" id="Layer_1" xmlns="http://www.w3.org/2000/svg" xmlns:xlink="http://www.w3.org/1999/xlink" x="0px" y="0px"
	 viewBox="0 0 500 500" style="enable-background:new 0 0 500 500;" xml:space="preserve">
<path d="M139.1,409.6c-2.4,1-3.4,2.8-4.6,4.3c-5.3,6.7-10.1,13.6-11.6,22.2c-1,5.8-0.9,11.7-0.7,17.6c0.3,6.2,0.7,12.3,1.7,18.4
	c0.7,4,2.3,7.6,4.7,10.8c1.6,2.2,3.2,4.3,4.3,6.8c0.8,1.7,0.2,2.9-1.6,2.8c-4.6-0.1-9.1-0.4-13.7-0.7c-1.3-0.1-1.7-1.2-2.1-2.2
	c-0.8-2.1-1.1-4.2-1.2-6.4c-0.1-1.7-0.7-3-2.8-2.3c-2.2,0.7-2.7-0.6-2.6-2.3c0.1-1.7,0.3-3.4,0.5-5c2.1-15.6-1.7-30.2-7.2-44.5
	c-0.2-0.5-0.5-1.2-0.9-1.5c-3.6-2.6-2.7-6-1.6-9.4c2.6-8.2,3.5-16.7,5.1-25.1c0.9-4.6,0.4-9.3,0.3-14c-0.5-17.1-1.2-34.2-1.1-51.4
	c0-2.2,0.2-4.4,0.5-6.5c1.3-9.1,4.9-12.8,14.2-13.3c12.9-0.7,25.7-2.7,38.6-3.7c1.6-0.1,2.5-0.8,3.2-2.2c2.5-4.5,2.9-9.2,1.7-14.2
	c-1-4.1-2.3-8.3-2.5-12.6c-0.1-1.4-0.6-1.9-2-2c-2-0.1-4,0-5.9,0.7c-10.1,3.6-20.3,3.6-30.4,0.3c-6.7-2.2-13.6-1.6-20.4-1.7
	c-5.6-0.1-9.2-3.4-9.5-9.1c-0.1-2.1-0.2-4.6,3.3-3.5c0.3,0.1,0.8,0,1.1-0.2c4.5-3.2,9.4-6.2,11.5-11.8c1.7-4.5,2.6-9.2,4.6-13.5
	c0.8-1.7-0.5-1.5-1.4-1.6c-3.3-0.2-6.6-0.2-9.8-0.5c-0.9-0.1-2.3,0-2.5-1.1c-0.2-1,1.1-1.2,1.9-1.7c1.9-1.1,3.8-2.1,5.8-3.3
	c-1.1-1.4-2.5-0.9-3.6-1.2c-1.5-0.5-1.8-1.1-0.5-2.1c2.4-1.8,5-3.3,7.7-4.5c4.9-2.2,10-3.9,15.4-4.2c1.3-0.1,2.3-0.5,3.3-1.3
	c8.8-6.4,18.5-10.9,28.8-14.1c2.1-0.6,2.7-1.5,2-3.5c-1.8-5-3.8-9.9-3.8-15.4c0-2-1.6-4-2.5-6c-1.5-3-1.4-5.9,0.7-8.7
	c1.1-1.5,2-3.2,2.9-4.8c1-2,1.4-4-0.4-5.8c-0.2-0.2-0.5-0.5-0.4-0.7c0.1-2.6-1.6-5-1.6-7.3c0-3.5-1.8-6.3-2.3-9.5
	c-0.1-0.7-0.6-1.1-1.3-1.5c-4.9-2.5-5.9-7.4-2.3-11.3c0.8-0.8,1.1-1.6,0.8-2.7c-0.2-0.8-0.7-1.9-0.3-2.3c2.1-2.7,1.4-6.6,3-9
	c1.8-2.7,4.2-5.9,6.7-7.5c3-1.9,6.6-3.7,9.9-5c3.3-1.3,7.9,0.4,11.1-2.7c3.4,2.2,6.8,0.5,10.3,0.3c2.5-0.2,4.5,0.2,6.6-1.8
	c1.7-1.6,4.2-1.1,6.2-0.2c1.2,0.6,1.9,0.7,3-0.6c2.4-2.8,5.1-3,8.5-0.9c2.4,1.5,7.7-1.1,8-3.9c0-0.4-0.1-1-0.3-1.1
	c-3.2-1.2-4.7-4.6-8.4-5.3c-13.7-2.5-20.8-11.6-21.6-27.3c-0.4-7.1-0.1-14.1,0.3-21.2c0.2-2.9,1-6.1-3.1-7.3c-1-0.3-1.3-1.6-1.3-2.5
	c0-1.9-0.8-2.9-3.2-3.3c3.1-2,0.9-5.2,2.8-7.4c1.9-2.2,3.7-3.8,6.6-4.5c2.3-0.6,3.8-1,4.6,1.6c0.1,0.4,0.4,0.9,0.3,1.1
	c-2.1,3.2,1,3.7,2.6,5.1c4.3,3.7,6.9,8.8,9.3,13.7c1.8,3.7,3.9,6.5,8.3,7.2c1.1,0.2,2.4,0.7,3.2,1.5c3.3,3,6.6,2,10.3,0.9
	c6.9-2,11.5-5.8,12.3-13.5c0.5-4.4,1.2-8.7,0.6-13.1c-0.3-1.7,0.2-2,1.7-1.4c2,0.7,3.5,1.9,4.7,3.5c0.9,1.3,1.7,1.7,2.4-0.1
	c0.7-1.9,1.5-1.4,2.5-0.3c1.7,1.8,2.9,3.8,2.8,6.3c0.3,0.1,0.5,0.2,0.7,0.1c1.1-0.2,1.7-2.2,2.6-1.4c1.6,1.3,2.3,3.5,2.5,5.6
	c0.1,1.6-1.1,4.1,2.4,2.6c0.9-0.4,1.1,1,1.2,1.7c0.4,3.1,0.5,6.1-1.6,8.8c3.4-0.1,4.1,0.9,3.2,4.2c-0.5,2-1.6,3.6-3,5.2
	c0.7,0.9,2.2-0.2,2.5,0.9c0.4,1.1-0.4,2.1-0.9,3.1c-0.9,1.7-2.3,3-3.6,4.4c-0.6,0.6-1.3,1.4,0.2,1.6c2.3,0.4,1.2,1.5,0.6,2.5
	c-1.8,2.6-4.6,4.1-7.2,5.7c-0.8,0.5-1.7,0.9-2.2,1.9c-3.4,6.9-9.1,11.2-16.3,13.6c-1.6,0.5-2.8,1.2-3.9,2.6
	c-1.2,1.5-2.9,2.6-4.7,2.9c-3.8,0.6-4.5,3.3-5,7c2.6-1.6,4.5-0.7,6.3,0.8c1,0.8,1.9,1,2.9,0c0.5-0.5,1.3-1.1,1.8-1
	c3.1,0.8,6.2,0.4,9.4,0.4c3.9,0.1,7.8,0.4,12.1,0.7c-1-2.7-3.5-2.4-5-3.9c2.7-1.6,5.3-3.3,8.6-2.3c1.6,0.5,2.3-0.1,2.7-1.6
	c1.1-4.1,3.3-7.1,7.8-8.1c2.2-0.5,4.2-1.8,6.3-2.7c3.9-1.7,7.8-1.4,11.6,0.1c3.2,1.2,5.5,3.2,5.6,6.9c0.1,1.9,0.7,2.7,2.5,1.2
	c2.4-2,5.2-1.5,8-1.4c1.6,0.1,1.6,0.9,0.7,1.9c-2.5,2.5-4.6,5.6-8.6,5.9c-2,0.2-2.1,1.2-1.2,2.8c1.9,3.4,3.8,6.7,5.5,10.2
	c1.4,2.9,0.8,4.3-2.2,5.6c-1.3,0.6-2.6,1-4,1c-1.4,0-2.7,0.1-4.3,0.2c0.7,1.4,1.4,2.6,1.5,4c0.1,2.3-0.2,4.4-2.6,5.5
	c-1.8,0.8-2.6,2.1-2.5,4c0,0.6,0,1.5-0.3,1.7c-3.1,1.6-1.8,3.3-0.2,5.1c0.2,0.2,0.4,0.5,0.3,0.8c-0.2,3.3-0.7,6.6-1.2,9.8
	c-0.2,1.6-1.3,3.2-1.3,5.2c0.1,2.5-1,4.5-3.6,5.2c-2.3,0.6-3.5,3.6-6.4,2.9c-0.5,3.9-4.7,3.2-6.8,5.5c-6.8,7.2-9.2,16.3-12.6,25
	c-0.1,0.4-0.2,0.8-0.3,1.1c-1,4.8-0.6,5.3,4.1,6.1c11.1,1.9,21.8,4.6,31.2,11c1.1,0.8,2.2,1.7,3.4,2.4c0.8,0.5,1.4,2,2.7,1.2
	c1.2-0.7,1.6-1.9,1.5-3.3c-0.2-4.7,2.7-7.2,6.5-9c0.1-0.1,0.4,0.1,0.7,0.2c-1.7,2.1-4.4,3.5-4.6,6.8c3.5-1,7.2-3.3,10,0.8
	c1.5,2.3,0.7,6.5-1.2,8c-2.5,2.1-5.6,1.6-10.3-1.7c-0.8,0.8-0.5,1.5,0,2.3c7,10,7.5,20.9,4.7,32.3c-1.1,4.6-2.9,9.1-3.5,13.8
	c-0.4,3.1-0.1,6,1.7,8.6c0.7,1,1.1,2.2,0.8,3.4c-1.8,7.1-0.9,14.3-1.1,21.4c0,1,0,2-0.2,3c-0.1,0.6-0.5,1.6-0.9,1.3
	c-3.6-2-2.7,2-3.9,3.3c3.8-0.3,7.7-0.6,11.5-0.8c7-0.4,13.9-0.6,20.9,0c5.1,0.4,8.5-2.9,12.5-5c1.1-0.6,0.2-1.1-0.2-1.6
	c-1.5-1.9-2.1-4.2-2.9-6.5c-0.7-2.2,0.2-2.6,2.2-2.5c3.3,0.3,6.5,1,9.5,2.5c2.1,1.1,3.7,0.9,5.1-1.2c1.3-1.9,3.3-3.2,5.4-4.1
	c6.9-2.9,14.5-3,22-6.8c-2.9,5-7.4,6.5-11.7,9.5c4.9,0.5,9-1.6,13.8-1c-3,2.4-6,3.7-8.8,5.1c-3.2,1.6-3.3,2.4-0.7,4.9
	c1.1,1,2.2,2,3.4,3c4.3,3.5,7.2,7.9,8.7,13.3c1.8,6.7,6,12,10.8,16.9c2.4,2.5,4.8,5,7.3,7.5c1.6,1.6,1.7,3.3,0.6,5.4
	c-3.6,6.8-9.4,9.7-16.8,10c-1.3,0.1-2.6,0.1-3.9,0c-3.2-0.3-5.8,0.4-8.6,2.3c-4.3,3-9.5,2.8-14.5,2.3c-10.5-1-12.4,0-16.7,9.6
	c-1.4,3.1-2.6,6.2-3.8,9.4c-2.9,7.8-7.2,14.6-13.2,20.4c-1.9,1.8-2.8,4-3.5,6.5c-1.5,5.6-4.6,10.4-9.8,13c-5.8,3-7.1,7.8-7.6,13.5
	c-0.6,6.3-0.1,12.9-2.8,18.8c-1.7,3.8-2.3,7.6-1.9,11.6c0.7,7.6,2.1,15.2,4.6,22.4c1.4,4.1,4,7.5,6.9,10.7c1.1,1.2,3.3,2.4,2.7,4
	c-0.7,1.9-3.2,0.8-4.9,1c-2.2,0.2-4.4,0-6.6-0.1c-2.5-0.2-4.7-0.9-5.9-3.4c-0.9-1.9-2.5-2.3-4.4-2.3c-2,0-4,0-6,0
	c-3.5,0-5.5-1.7-6.9-4.7c-1.1-2.3-2.1-4.7-5.5-4.6c-1.6,0.1-1-1.7-0.9-2.6c0.5-2.6,1.3-5.2,1.7-7.9c1.1-7.6,0.3-15.2-1.5-22.5
	c-1.9-7.9-3.9-15.8-5.7-23.8c-1.3-5.6-3-7-8.2-6.4c-10.8,1.3-21.6,2.1-32.3,4c-4.5,0.8-8.9,2.2-12.6,5.1c-2.1,1.7-4.5,1.3-6.8,0.6
	c-1.5-0.4-3-1.1-4.4-1.9c-11.7-7.3-25-8.6-38.1-10.8c-2.3-0.4-4.3,0.5-5.6,2.6c-2.7,4.4-5.2,9-6.8,13.9c-1.5,4.6-0.2,9.5,0.4,14.2
	c1.8,15.1,6.8,29,15.9,41.3c0.7,1,2.1,2.2,1.4,3.4c-0.6,1.1-2.3,0.8-3.6,0.8c-2.7,0-5.4-0.2-8.1-0.2c-3.6-0.1-5.9-2-7.3-5.2
	c-0.6-1.4-1.1-2.8-1.7-4.1c-0.4-0.9-0.9-2.2-1.9-2c-3.3,0.6-2.9-1.6-2.7-3.4c1-10.8-3.4-20.5-6.8-30.3c-1.8-5.3-4.2-10.5-6.6-15.6
	c-1.2-2.7-1.3-5.1-0.2-7.7C137.6,415.5,139.1,413,139.1,409.6z M178.8,304.5c9.4,1.2,18.5,2.8,27.7,3.2c17.3,0.8,34.3-2.1,51.4-4.3
	c6-0.8,9.8-3.4,13.3-7.9c5.7-7.4,5.6-19-0.7-25.8c-1.2-1.3-2.4-1.9-4.2-1.4c-6.3,1.6-12.6,2.7-19,3.8c-12.7,2.2-25.4,3.5-38.3,2.3
	c-6.8-0.6-13.7-1-20.5-1.4c-2-0.1-3.5,0.4-3.8,2.7c-0.7,7.3-1.8,14.6-0.3,22c0.1,0.6,0.2,1.2,0.1,1.8c-0.3,1.3-0.6,2.9-2.4,1.3
	c-1.2-1-1.5-0.2-2,0.6C179.8,302.3,179.4,303.3,178.8,304.5z M220.4,189.5c5.4,0,10.7,0,16.1,0c0.9,0,2,0.5,2.5-0.9
	c1.9-6.1,3.9-12.1,4.4-18.5c0.1-1.4,0-2.5-1.6-3.1c-1.2-0.5-1.4-1.7-1.6-3c-0.5-3.4-4.2-5.4-7.3-4.1c-6.5,2.7-13.2,4.2-20.3,3.7
	c-6.7-0.4-13.2-1.8-19.6-3.7c-2.2-0.7-3.9-0.6-5,1.7c-2,4.3-5.6,6.8-9.8,8.8c-4.3,2-4.5,2.8-3.2,7.5c0.7,2.6,1.6,5.1,0.9,8.1
	c-0.5,2.4,1.5,4.5,2.9,6.3c0.9,1.2,2.6,0.1,3.9-0.1C195.2,189.8,207.8,189.1,220.4,189.5z M109.5,345.5c-1,0.8-0.8,1.4-0.8,1.9
	c0.1,14.3,0.1,28.6,0.3,42.9c0.1,3.3,0.5,6.6,2.4,10.3C116.7,381.7,113.7,363.8,109.5,345.5z M287,268.5c-0.3,7.8-1.8,14.9-1.8,22.2
	c0,1-0.2,2-0.7,2.9c-0.5,1-0.3,4.1-2.8,1.4c-0.3-0.3-0.7,0-0.9,0.4c-1.2,1.5-2.4,3.1-3.9,5c3.3-0.4,5.9-0.8,8.6-1.1
	c0.7-0.1,1.4-0.1,1.9-0.7c4.1-5.4,7.9-10.9,6.1-18.2C292.4,276,290.9,271.9,287,268.5z M254.5,169.2c-0.1-0.3,0.6-1.2-0.3-1.5
	c-1-0.3-1.6,0.7-2,1.5c-3.4,6-5.4,12.5-6.9,19.2c-0.3,1.2,0.3,1.7,1.4,1.7c0.9,0,2,0.9,2.5-0.6C251.4,183,254.3,176.7,254.5,169.2z
	 M164.4,175.9c-0.9,2.5-0.8,4.7-0.5,6.7c0.6,3.7-1.9,7.7,1.1,11.3c1.2,1.4,6.3,1.8,7.4,0.1c0.1-0.2,0.1-0.6,0-0.8
	c-0.8-1.8-1.1-4.2-2.9-5c-2.7-1.3-3-3.6-3.5-6.1C165.7,180.1,166.1,178,164.4,175.9z M307.1,208.8c2.4-0.1,3.3-1.6,3.4-3.5
	c0.1-1.9-1.2-3-3-2.8c-2.1,0.2-4.2,1.2-4.3,3.3C303,208.1,305.4,208.4,307.1,208.8z M174.1,287c-2.3,3.2-2.6,7.5-1,10.3
	C175.3,294.1,174.8,290.8,174.1,287z"/>
</svg>
