<?xml version="1.0" encoding="utf-8"?>
<!-- Generator: Adobe Illustrator 24.0.0, SVG Export Plug-In . SVG Version: 6.00 Build 0)  -->
<svg version="1.1" id="Layer_1" xmlns="http://www.w3.org/2000/svg" xmlns:xlink="http://www.w3.org/1999/xlink" x="0px" y="0px"
	 viewBox="0 0 500 500" style="enable-background:new 0 0 500 500;" xml:space="preserve">
<path d="M230.5,456.5c-2.8-3.5-5.4-6.6-7.8-9.8c-7.4-10.1-17.6-16-29.2-19.8c-2-0.6-4-1.2-5.8-2.2c-5.1-2.6-6.2-6.9-3.3-11.9
	c1.2-2,2.7-3.7,4.5-5.1c7.8-6.1,10.7-14.4,10.6-24c0-1.2,0-2.5-0.1-3.7c-0.4-8.6-0.4-8.5-8.8-10.1c-8.5-1.6-16.9-3.8-25.1-6.6
	c-19.7-6.8-34.3-20.4-47.2-36c-4.1-4.9-7.5-10.4-11-15.7c-2.4-3.5-5.3-6.1-9.3-7.9c-7.7-3.3-14.5-8.1-19.7-14.7
	c-5.9-7.5-9.9-16.2-12.9-25.1c-1.9-5.8-2.7-11.9-5.3-17.5c-1-2.1-1.2-4.4-1-6.7c0.3-3.4,1.4-4.3,4.9-3.8c5.3,0.8,9.7,3.5,13.7,6.8
	c11.4,9.4,24.6,15,38.7,18.7c10.5,2.7,17.4,1,24.6-5.5c-0.7-1.7-2.4-1.2-3.7-1.7c-11.1-4.7-16.8-13.6-19.8-24.6
	c-1-3.8-0.3-4.8,3.5-5.8c8.8-2.5,17.8-3.7,26.8-4.6c11.6-1.1,22.7-4.3,33.8-7.4c11.7-3.3,23.3-7.2,35.5-8.5c9-0.9,18.1-1.4,27.2-1.8
	c9-0.4,17.4-2.5,25.3-7.2c10.1-6,20.5-11.5,29.8-18.9c3.9-3.1,7.5-6.5,10.6-10.3c5.6-6.9,7.3-14.5,4.7-23.2
	c-2.6-8.7-6.3-17-9.8-25.4c-3.2-7.6-6.8-15.1-7.3-23.6c-0.7-11.4,1.4-22.2,6.6-32.4c2-4,5.2-7,9-9.2c16-9.2,32.1-11,48.7-1.3
	c8.7,5.1,15.9,11.8,22.2,19.6c10.4,13,24.4,19.3,40.4,21.9c3.4,0.6,7,0.2,10.5,0.4c2.3,0.1,4.7,0.3,5.5,3.1c0.7,2.5-0.4,4.5-2.2,6.1
	c-2.8,2.5-6.4,3.8-9.9,4.9c-11.3,3.7-22.8,3.1-34.4,1.9c-3.3-0.3-6.6-0.4-9.9-0.9c-11.2-1.5-21.4,11-19.7,22.6
	c0.8,5.5,2.7,10.8,5.1,15.9c4.3,8.7,8.2,17.6,13.2,26c8.7,14.7,9.7,30.4,8.1,46.7c-0.4,4.1-1.3,8.2-2.1,12.2
	c-2,10.7-6.2,20.5-12.8,29.2c-5.9,7.7-12,15.3-18.6,22.4c-9,9.7-17.5,19.8-25.5,30.4c-9.5,12.6-20.9,23.4-33.5,32.9
	c-9.2,6.9-19.2,12.1-30.1,15.5c-2.8,0.8-5.5,2.2-8.3,2.4c-8.4,0.7-10.8,6.2-11.6,13.3c-0.3,2.5-0.8,4.9-0.6,7.4
	c0.8,9.7,5.5,16.3,15.7,17.7c9.5,1.3,19,0.7,28.5,0.5c1.9,0,3.7,0,5.6,0.1c0.8,0,1.6,0.4,1.8,1.3c0.2,0.9-0.2,1.6-0.9,2.1
	c-0.7,0.5-1.4,0.8-2.2,1.2c-6.9,3.6-8.8,10.4-4.7,17c1.1,1.8,2.5,3.3,3.5,5.1c1.1,1.8,0.1,2.7-1.8,2.8c-0.8,0-1.6-0.3-2.4-0.5
	c-2.4-0.5-4.9-1-7.3-1.3c-9.7-1.2-16.7,3.7-18.8,13.4c-0.2,1-0.3,2.1-1.3,2.7c-1.2,0.6-1.9-0.4-2.5-1.2c-4.5-6.6-11.1-5.6-17.2-4.2
	c-6.1,1.4-10.9,5-11.4,12.2C232.5,453.9,232.1,455.1,230.5,456.5z M217.2,401.2c2-1.7,3.5-3.1,5.1-4.3c7.1-5.8,9.6-13.7,9.7-22.5
	c0-1.2,0.2-2.5-1.3-3.2c-1.8-0.8-9.5,1.1-10.3,2.7C216.3,382.3,213.9,391,217.2,401.2z"/>
</svg>
