<?xml version="1.0" encoding="utf-8"?>
<!-- Generator: Adobe Illustrator 24.0.0, SVG Export Plug-In . SVG Version: 6.00 Build 0)  -->
<svg version="1.1" id="Layer_1" xmlns="http://www.w3.org/2000/svg" xmlns:xlink="http://www.w3.org/1999/xlink" x="0px" y="0px"
	 viewBox="0 0 500 500" style="enable-background:new 0 0 500 500;" xml:space="preserve">
<path d="M349.9,447.2c6.7,9.6,16.4,6.7,22.8,11.5c-23.8,15.9-82.2,15-100.5-3.4c-6.9-6.9-10.1-18.7-12.5-28.8
	c-3.8-16.2-10.3-23.4-29.3-25.3c-35.8-3.6-70.5-15.2-104.9-26.3c-7.4-2.4-16-9.5-18.6-16.4c-9.1-24.8-30.8-35.7-49.9-49.5
	c-8.2-5.9-17.4-10.5-25.1-16.9c-3.1-2.5-15.2-6.8-1.3-13.2c5.9-2.7-4.7-8,0.7-13.7c16.6,14.8,34.8,15,53.9,4.4c3.5-2,8.3-2,12.5-2.2
	c32.5-2.1,54.6-27.4,83.8-37.5c21.9-7.6,41.3-21.9,62.8-30.9c19.1-8.1,40.3-8.9,60.7-12.1c9.3-1.5,11.9-2.1,8.2-13.2
	c-8.8-26.6-24.1-52.8-12.4-82.7c4.1-10.4,7.8-20.9,12.5-31c9.5-20.2,43.1-32.9,76-29.1c24.1,2.8,36.3,14.9,42.9,39.7
	c5.6,21.1,18.9,37.7,33.7,53.3c4.5,4.7,13.3,9.8,9.2,16.8c-4.7,8-13.4,1.8-20.2,0.2c-10.6-2.5-19.3-8.7-27.7-15.3
	c-11.9-9.2-24.3-17.2-39.9-18.4c-14.1-1.1-20.1,7.2-13.7,19.8c4.4,8.6,11.4,15.3,18.5,21.8c20.6,19.1,35.5,42.7,46.6,68
	c20.5,46.4,9.2,84.9-32.8,116.1c-26.7,19.8-57.7,31.8-88.5,43.4c-12.9,4.9-14.7,9.9-9.9,21.9c9.5,23.7,9,23.7,35.6,24.5
	c11.1,0.3,22.3,1.6,33.4,2.9c3.8,0.5,11.9,1.7,9.8,4.6c-3.2,4.6-1.7,13.5-10.9,13.9C367.3,444.3,359.5,445.9,349.9,447.2z
	 M281.5,416.4c2.2-9.9,3.8-18.1-0.8-25.6c-1.5-2.5-4.8-0.2-5.9,2.3C270.6,401.7,272.1,409.1,281.5,416.4z"/>
</svg>
