<?xml version="1.0" encoding="utf-8"?>
<!-- Generator: Adobe Illustrator 24.0.0, SVG Export Plug-In . SVG Version: 6.00 Build 0)  -->
<svg version="1.1" id="Layer_1" xmlns="http://www.w3.org/2000/svg" xmlns:xlink="http://www.w3.org/1999/xlink" x="0px" y="0px"
	 viewBox="0 0 500 500" style="enable-background:new 0 0 500 500;" xml:space="preserve">
<path d="M160.4,304.6c-5.1,16.6-10.3,32.9-15,49.2c-1.6,5.8-4.9,9.1-9.9,12c-14.5,8.5-29.2,14.6-46.3,7.4c-3.1-1.3-6.9-2.1-7.2-5.8
	c-0.3-4.2,2.4-7.5,6.2-9.2c3.3-1.4,6.8-2.5,10.4-3c15.9-2.2,23.7-11,23.3-27.3c-0.3-11.2-2.9-22.1-6.1-32.9
	c-5.8-19.6-11.7-39.2-17.8-58.7c-3.2-10.2-10.4-15.8-20.9-17.6c-7.4-1.3-15-1.6-21.6-6c-3.2-2.1-5.9-1.1-8.8,1.8
	c-3.5,3.6-6.9,7.5-12.4,8.8c-3.9,0.9-7.9,0.7-10.2-1.8c-5.3-5.7-10.2-11.8-14.4-18.3c-2.7-4.3,1.9-8.1,3.5-11.5
	c4-8.1,8.7-15.7,8.8-25.3c0.1-3.8,3-7.1,5.3-10.4c7.7-11.1,20.1-18,26.4-30.5c2.7-5.3,8.2-5.2,11.6,0.3c2.9,4.6,6.7,6.5,11.8,7
	c16,1.5,31.5,5.3,46.2,12c8.3,3.7,16.9,4.6,25.7,2.6c10.2-2.3,20.2-0.9,28.9,4.1c10.1,5.8,20.6,6.9,31.5,4.9
	c36.2-6.6,73.2-8.2,109.2-16.5c30.4-7,56.4,5.1,80.8,21c12.1,7.9,17.8,21,20.9,34.9c5,22.4,7.7,45.2,11.3,67.9
	c1.9,11.7,5.5,22.8,12.4,32.6c4.9,6.9,11.7,10.9,20.1,9.9c9.1-1,15.4-6.3,17.9-15.5c0.7-2.7,1.8-5.7,5.2-5c3.2,0.6,3.5,3.7,3.5,6.6
	c0.3,12.6-13,25.5-28.2,27.2c-16.6,1.9-30.9-6.5-40.4-23.3c-9-15.9-10.2-33.9-14.1-51.2c-2.2-9.7-4.2-19.4-6.2-29.2
	c-0.4-1.8-0.8-3.7-3.1-3.8c-1.6-0.1-2,1.4-2.1,2.5c-1.1,14.1-7.2,27.4-6.8,41.9c0.5,17.8,3.8,34.1,17.2,47c2.9,2.8,4.5,6.4,4.6,10.5
	c0.2,10.6,1.5,21.3,0.2,31.7c-2.7,20.3-21,26.9-37.8,18.7c-4.5-2.2-5-4.4-1.8-8.2c2.8-3.3,5.5-6.3,9.7-7.7c6.7-2.4,8.7-7.3,7.9-14.3
	c-1.5-13.3-7.6-23.3-19-30.2c-4.3-2.6-6.7-2.5-6.7,3.3c-0.1,6.4-0.2,12.7,1.7,18.8c2.5,7.8,0.9,14.4-4.8,20.8
	c-7.8,8.8-14.9,18.2-23.8,26c-7.6,6.6-28.8,7.4-36.6,1.1c-3.9-3.1-3.2-6.2-0.1-9.1c3.6-3.4,7.7-5.7,12.6-6.7
	c8.1-1.5,14.1-6.6,19.4-12.4c5.2-5.7,6-11.8,2.4-19.1c-8.6-17.6-20.2-33.6-27.6-51.8c-2.3-5.5-7.8-6-13.3-4.7
	c-9.1,2.2-18.2,4.4-27.3,6.5c-9.6,2.2-19.2,2.5-28.7,0c-9.6-2.5-18.5-1.9-27.1,3.1c-2.6,1.5-5.5,3.3-8.3,3.3
	c-9.7,0.1-11,5.8-10.7,13.6c0.3,7.8-0.6,15.8,3.6,22.9c4.9,8.3,2,16.1-0.4,24.3c-5.3,18.3-10.7,21.9-29.5,19.3
	c-5.3-0.7-8.6-3.5-9.3-8.4c-0.8-5.7,4.1-5.8,7.9-6.4c7.9-1.2,11.1-5.4,10.9-13.6C174.9,324.8,170.1,313.6,160.4,304.6z"/>
</svg>
