<?xml version="1.0" encoding="utf-8"?>
<!-- Generator: Adobe Illustrator 24.0.0, SVG Export Plug-In . SVG Version: 6.00 Build 0)  -->
<svg version="1.1" id="Layer_1" xmlns="http://www.w3.org/2000/svg" xmlns:xlink="http://www.w3.org/1999/xlink" x="0px" y="0px"
	 viewBox="0 0 500 500" style="enable-background:new 0 0 500 500;" xml:space="preserve">
<path d="M267.7,404.2c-1.7,0.5-1.3,2.1-1.8,3.3c-1.5,3.5-3.7,6.3-8,4.4c-4.3-2-2.4-5.4-1.1-8.3c7.7-17.9,15.2-35.9,23.2-53.7
	c2.1-4.7,1.6-6.8-3.7-8.3c-7.7-2.1-15.1-5.4-22.9-7.4c-7.2-1.9-10.8-6-9-13.4c2.3-9.8-0.5-16.4-10.2-19.9c-2.5-0.9-5.1-2.3-6.8-4.1
	c-7.6-8-16.4-4.4-24.9-2.8c-3.2,0.6-3.7,2.2-1.9,5c1.5,2.2,2.2,4.9,3.8,7c17.2,22.2,20.7,49.9,29.8,75.3
	c4.7,13.1,10.3,25.8,17.1,37.9c2.1,3.6,0.4,8.5,6,11.3c5.5,2.8,10.2,3.7,15.9,2.5c2.3-0.5,4.8-1,7.1-1c5,0.1,7.9,4.2,9.1,7.8
	c1,3-3.6,3.8-6.2,4.8c-10.9,4.5-22.1,7.9-34.2,5.4c-3-0.6-4.8,0.5-7,2.5c-7.6,6.6-14.4,5.9-19.6-2.5c-12.3-20-21.3-41.6-27.2-64.4
	c-4.9-18.7-9.8-37-24.3-51.5c-12-12-21-26.7-31.5-42.9c-3.6,13.4-6.9,24.8-9.6,36.3c-3.8,16.1-9.9,30.4-21.7,42.9
	c-11.8,12.6-21.3,27.4-28.8,43.2c-2.2,4.5-4.1,9.3-7.9,13c-4.5,4.4-3.9,11.1,1.2,14.6c1.3,0.9,2.9,1.3,4.3,2.1
	c4.5,2.8,4.1,7.9,3.6,11.6c-0.5,4.1-5.3,1.8-8.1,1.7c-8.7-0.4-15.1-5.1-19.9-12c-3.2-4.6-5.4-9-11.9-11.2c-8.3-2.8-9.7-8.5-6.8-17
	c1-3,2.1-6.5,4.2-8.6c12.1-11.9,18.3-27.5,27.4-41.3c4.3-6.5,9.3-12.4,13.8-18.7c6-8.4,6.6-18.4,8.3-28.1c1.3-7.6,2.5-15.4,4.8-22.7
	c4.5-13.9,7.4-27.9,6.3-42.6c-0.2-2.9,0.5-5.9,1.2-8.7c2.1-8.4,5.6-16.6,3.1-25.7c-0.6-2.3,0.1-5.5,1.2-7.8
	c10.4-22.1,14.2-46.3,22-69.3c4.4-13.1,9-25,24-29.5c7.1-2.1,13.3-6.7,20.5-9.2c9.5-3.2,14.4-17.8,9.3-26.3
	c-6-10.1-3.2-22.4,6.7-28.9c6.2-4,13.1-6.1,20.4-6.8c7.9-0.8,13.7,3.3,16.7,10.1c4.1,9.2,10.1,14.9,21.4,15.4c-4,3.9-8,4.5-12.1,5.1
	c-4.5,0.7-6.2,2.9-3.4,7c2.2,3.2,3.6,5.4-0.2,9.2c-2.4,2.4-2.8,7.6-2.5,11.5c0.6,7.3-3.1,8.1-8.8,7.6c-2.5-0.2-5.7-1.8-7.3,1.1
	c-1.7,3.1,0.9,5.5,2.7,7.8c4.1,4.9,5.3,10.8,3.5,16.6c-3.3,10.9-3.8,22.1-3.9,33.3c0,8.4-5.1,16.3-2,25.2c1.6,4.4,1.8,9.2,4.9,13.3
	c2.9,4,3.6,8.6,0,13.3c-3,3.9-0.3,16.5,3.9,19.2c1.3,0.8,3.7,1,3.7,2.6c0.1,12.4,9.7,20.3,14,30.7c1.5,3.7,4.1,5.3,8,7.2
	c1.4-4.1,2.3-8.5,0.5-11.7c-4.3-8,1-5.9,4.9-5.1c15.2,2.9,30.5,5.8,45.7,9c50.3,10.4,100.6,21,150.9,31.5c1.6,0.3,3.2,0.4,4.7,1
	c1.4,0.6,3,1.4,3.3,3.2c0.3,2-1.3,3-2.8,3.4c-4.1,1.1-5.9,4.4-7.9,7.5c-12,18-24,36.1-36,54.1c-2.2,3.3-4.2,6.8-7.9,8.9
	c6,5.8,10.9,8.4,18.9,3c10.6-7.2,25.7-4.7,35.8,4.3c10,8.9,15.2,20.8,9.6,33.2c-5.2,11.6-13.1,22.8-27.5,25.2
	c-11.2,1.9-20.5-1.9-27.6-10.9c-3.6-4.6-5.6-9.9-5.7-15.6c0-5.7-4.8-10.8-1.8-16.9c0.9-1.9-1.8-2.9-3.4-3.8
	C380,387.2,361,375,341.2,364.5c-11-5.8-23.5-8.7-35.3-13c-4.7-1.7-5.3,2-6.5,4.9c-6.5,15.2-13,30.5-19.6,45.6
	C276.2,410.3,273.7,410.6,267.7,404.2z M182,210.3c2,9.3,0.1,17.2,2.5,25.4c3,10.2,10.5,18.1,12.6,28.6c0.6,3,11.5,7.2,12.8,5.4
	c2.8-3.8,0.8-7.6-1.1-11.2c-1.6-3.1-6.1-4.7-5.8-8.3c0.8-9.3-5.1-14.5-11.3-19.3c-4-3.1-5.3-7.1-6.1-11.6
	C185.3,216.7,186.3,213.8,182,210.3z M227.3,285.6c5.3,3,9.6,5.5,14,7.9c1.1,0.6,2.2,2,3.4,0.7c1.3-1.5,0.3-3-1-4.1
	C239.3,286.3,234.3,283.9,227.3,285.6z"/>
</svg>
