<?xml version="1.0" encoding="utf-8"?>
<!-- Generator: Adobe Illustrator 24.0.0, SVG Export Plug-In . SVG Version: 6.00 Build 0)  -->
<svg version="1.1" id="Layer_1" xmlns="http://www.w3.org/2000/svg" xmlns:xlink="http://www.w3.org/1999/xlink" x="0px" y="0px"
	 viewBox="0 0 500 500" style="enable-background:new 0 0 500 500;" xml:space="preserve">
<path d="M55.2,163.6c-2.8,5.8-4.4,10.7-7.3,14.7c-2.5,3.5-5.9,7.9-11.2,5.8c-4.1-1.6-8.9-3.4-9.2-9.3c-0.5-10.8-4.3-21.1-3-32.2
	c1.5-13.8,5.2-27.7-6-40.5c-5-5.7-4.1-16.6,2.6-21.3c13-9,18.8-21.9,24.4-35.4c0.7-1.7,2.4-2.9,3.8-4.5c5.9,4.4,1.7,11,4.7,15.6
	c8.3-1.6,11.4-9.9,19.7-14.9C70.4,56.9,79,57.1,89.9,59.1c43,7.9,73.3,33.5,93.5,71.7c3.4,6.4,6.1,13.1,9.4,19.5
	c7.5,14.5,18.9,22.2,35.9,22.4c35.7,0.5,71.3,1,106.7-4c26.5-3.7,50.7-0.3,68.8,21.8c4.9,6,6.9,2.2,10.5-1.2
	c19.1-18,51.4-13.7,65.6,8.4c5.1,8,5.4,16.6,2.2,25.3c-3.2,8.7-7.1,17.1-10.8,25.7c-8.5,19.7-12,39.4,2.4,59.1
	c-19.4-5.4-26.9-14.4-28.4-32.2c-1.1-13.1,2.4-25.6,4.4-38.3c3.1-20.1-10.3-35.4-28.2-33.4c-5.1,0.6-8.3,2.2-6.6,7.6
	c7.9,23.4-2.6,44.8-7.5,66.6c-3.7,16.2-6.9,30.9,13.8,37.9c5.8,2,6.7,7.7,5.8,13.1c-4.1,25-6.3,50-2.2,75.3c1.1,6.6-1,12-9.5,12.9
	c-6.8,0.7-10,5.4-11.6,12.3c-2.5,11.5-14.9,17.1-25.8,12.8c-6.6-2.6-4.9-7.3-2.8-11.4c4.7-9.4,12.2-16.6,20.1-23.1
	c17.4-14.4,14.6-32.7,10.4-51.3c-3.8-16.7-9.5-31.9-30.1-34.3c-9.4-1.1-16.7-7.1-24.7-12.1c-1.6,7,1.7,11.6,6.6,14.7
	c9,5.8,6.4,12,0.8,17.8c-7.6,7.8-15.7,15-23.8,22.2c-7.4,6.6-14.3,13.5-16,23.9c-0.2,1-0.3,2.8-0.7,2.9c-20.4,4-16.2,28-30.4,37.1
	c-3,1.9-5.5,5.6-9.4,4.2c-5.4-1.9-2.8-7-3-10.7c-0.8-15.7,5.1-28.1,18.3-36.9c8.2-5.5,15.4-12.1,21.4-20c16.8-22,16.2-34-2.9-53.7
	c-2.9-3-7.2-5.9-7.8-9.4c-3.2-18.7-14.9-14.4-27.3-11.5c-30.6,7.2-61.5,7.3-92.2,0.7c-8.5-1.8-12.5-0.4-15.4,8.9
	c-5.6,18.1-8.2,36.5-5.9,55c2.7,22.2-4.7,44.2,0,66.3c1.2,5.5-2.6,8.6-8.3,8.7c-10.4,0.1-17.8,1.8-12,15.4c2.5,5.8-3,9.8-8,11.3
	c-6.9,2.1-14.9,3.7-20.8-0.9c-3.4-2.6-0.8-8.9,1.6-13c3.9-6.6,6.8-15.8,12.7-18.9c21.7-11.1,20.9-31.2,14.4-46.7
	c-12-28.6-10-57.5-10.4-86.7c-0.2-16.8-2-18.2-19.3-15.2c-6.6,1.2-13.3,2.1-19.9,2.4c-27.4,1.6-38.4,20-26.1,44.6
	c3.4,6.9,8.8,11.5-0.3,20.6c-6.8,6.8,1.4,19.5,10.4,21c16.6,2.8,14.3,15.4,16.8,25.6c1.9,7.7-3.6,8-8.2,5
	c-19.9-13-35.6-29.4-36.9-54.7c-0.9-17.5-0.9-35-5.8-52.2c-3.8-13.5,6.1-20.1,15.6-25.3c12.3-6.7,24.4-13.3,35.9-21.3
	c3.2-2.3,7.6-3.4,7.1-8.9c-3-28.7-1.3-57.9-10.3-85.9c-2.4-7.6-5-11.2-12.9-4.1c-6.2,5.5-10.1,11.4-11.2,19.5
	c-0.5,3.6-0.7,7.3-1.9,10.6c-1.8,5-2.2,13.7-9.1,11.9c-6.3-1.7-0.8-8.8-0.7-13.5C56.2,169.2,58.5,167.5,55.2,163.6z"/>
</svg>
