<?xml version="1.0" encoding="utf-8"?>
<!-- Generator: Adobe Illustrator 24.0.0, SVG Export Plug-In . SVG Version: 6.00 Build 0)  -->
<svg version="1.1" id="Layer_1" xmlns="http://www.w3.org/2000/svg" xmlns:xlink="http://www.w3.org/1999/xlink" x="0px" y="0px"
	 viewBox="0 0 500 500" style="enable-background:new 0 0 500 500;" xml:space="preserve">
<path d="M287,100.2c-2.6-21.9-10.8-42.5-11.6-64.4c-0.2-6.5-2.6-15.2,4.9-18.4c7.9-3.3,11.3,5.4,15.8,10
	c21.5,21.7,30,48.9,28.7,78.5c-0.5,12.5,3.4,17.3,14.5,20.2c22.5,6,41.5,18.1,55.7,36.7c16.1,21.1,8,49-17.9,55.2
	c-16.9,4.1-18.3,12.5-14.7,25.7c9.6,35.4,8.1,69.6-7,103.9c-12.2,27.9-11.9,59-16,88.8c-1.2,9.2,1,16.3,12.8,16.8
	c12.4,0.6,21,9.3,20,20.3c-1.1,11.8-14.4,9.9-22.4,8.6c-47.8-7.8-95.7,3.6-143.5-0.9c-15.9-1.5-32-1.1-43.9-14.1
	c-5.6-6.2-12.6-3.5-19.1-4.2c-17.4-1.8-31.7-9.5-42-23.8c-6-8.4-8.2-18.1,3.8-22.1c12.6-4.3,11.6-11.6,10.6-22.2
	c-6.1-61.6,40.3-131.7,109-163c29.1-13.3,46-32.3,46-65.6c0-17.5-6.6-30.1-19.4-41.2c-19.1-16.5-34.5-36-42.3-60.5
	c-1.6-5-4.6-10.5,0-14.8c5.8-5.3,9.6,1.2,13.4,4C243.4,69.5,269.3,78.5,287,100.2z M272.7,456.2c13.6,0.8,22.3,1.3,31.1,1.9
	c-1.9-8.1-1.1-17-4.1-21.3C291.7,442.5,284.4,447.8,272.7,456.2z"/>
</svg>
