<?xml version="1.0" encoding="utf-8"?>
<!-- Generator: Adobe Illustrator 24.0.0, SVG Export Plug-In . SVG Version: 6.00 Build 0)  -->
<svg version="1.1" id="Layer_1" xmlns="http://www.w3.org/2000/svg" xmlns:xlink="http://www.w3.org/1999/xlink" x="0px" y="0px"
	 viewBox="0 0 500 500" style="enable-background:new 0 0 500 500;" xml:space="preserve">
<path d="M373.4,305c-4.1,17.7-11.8,34.3-12.7,52.5c-0.4,8.3-0.5,16.5,2.7,24.4c0.9,2.1,1.1,4.5,0.2,6.6c-7.4,16.9-6,35.1-7.9,52.8
	c-1,9.6-1.7,19.3-0.6,28.8c0.8,7.1-4.5,13.7-1.3,20.9c0.2,0.5-0.9,2-1.8,2.6c-2.7,2-16.9,1-19.4-1.3c-1.5-1.4-3.2-3-0.5-4.8
	c12.7-8.2,14-21.5,15.2-34.7c1.2-13.2,2-26.4,1.3-39.6c-0.3-5.1-1.8-10.1-2.8-15.1c-0.2-1.1-0.3-2.4-1.6-2.6c-1.7-0.3-2,1.3-2.7,2.4
	c-6.6,12-10.2,25.2-14.9,37.9c-5.1,13.7-6.4,28.8-15.3,41.2c-1.3,1.7-1.2,4.2-0.9,6.5c0.8,5.7-1.7,8.3-7.5,8.3c-3,0-5.8-0.5-8.6-1.4
	c-2.5-0.8-4.6-2.3-5.1-4.8c-0.5-2.4,2.1-3.3,3.7-4.2c6.6-3.9,10.7-9.3,12.8-17c4.6-17.2,12.1-33.5,16.5-50.8
	c3.7-14.3,1.8-27.3-2.7-40.6c-5.7-16.7-11.3-33.4-21.5-48.1c-1.5-2.1-3-4.4-5.4-4.6c-8.8-0.9-17.5-3.9-26.5-1
	c-4.3,1.4-6.7,3.8-7.3,8.4c-0.8,7.2,0.2,14.3,1.2,21.4c1.7,11.9,3.2,23.9,4.7,35.9c0.3,2.4,0.7,4.9,0.5,7.4
	c-2.4,25.6,0.8,51,2.3,76.4c0.4,6-3.9,11.8-0.3,18c1.1,1.9-1.8,3.2-3.9,3.5c-8.6,1.4-17.2,2.8-25.8,4.1c-3.1,0.5-6-0.4-7.7-3
	c-1.9-3.1,1.6-4.4,2.9-5.9c7-7.6,7.3-17.3,7.9-26.5c0.9-14.3,0.2-28.6,0.4-43c0-4-1.8-7.3-2.6-11c-1.9-8.9-0.4-17.7-0.1-26.6
	c0.8-18.8-1.4-37.3-7.1-55.6c-3.7-11.9-9.4-22.6-16-33c-6.5-10.3-7.7-20.9-2-31.7c5.7-10.8,5.4-20.7-1-31.4
	c-11.6-19.6-21-40.4-27.3-62.4c-4.7-16.3-8.7-32.8-12.6-49.3c-4.1-17.1-7.8-34.4-16.9-49.8c-3-5-6.7-7.4-12.7-6.1
	c-5.7,1.2-11.6,0.6-17.4,0.1c-6-0.6-11.9-1.3-17.6,2.1c-5.5,3.3-9.6-3.3-14.9-3c-1.3,0.1-1-3-0.1-4.7c1.8-3.4,4.1-6.2,7-8.9
	c8.9-8,20.2-13.4,27.4-23.5c1.6-2.2,4.8-4,7.1-3.1c8.7,3.4,10.8-3.5,14.1-8.5c1.5-2.2,2-4.4,5.6-4.6c7.9-0.4,7.8-0.8,4.9,6.7
	c-2.2,5.6,0,9.5,5.3,13.4c4.3,3.1,7.7,7.3,12.3,10.1c0.3,0.2,0.8,0.8,0.7,1c-3.8,9.7,3.4,16.7,6.8,24.2
	c12.5,27.9,24.7,55.9,39.6,82.6c6.6,11.9,15.5,22.2,27.9,28.3c13.2,6.5,22.4,17,30.5,28.5c10.4,14.6,25.3,23,40.3,31.5
	c8.6,4.9,17.1,9.7,25.8,14.4c4.5,2.4,7.8,5.8,10,10.4c1.7,3.4,3.2,7,5.6,9.9c8.8,10.8,11.3,24,14.8,36.9c4.5,16.8,12.1,32.4,19,48.3
	c0.9,2.1,3.1,3.8,4.8,5.5c4.4,4.4,4.9,9.8,4.4,15.5c-0.2,2.5-1.9,4-4.1,4.8c-2.2,0.8-4-0.3-5.2-2.1c-3.1-4.5-6-9.6-4.9-14.9
	c1.4-6.9-0.4-12.8-3.3-18.6C383.9,329.9,378.6,317.6,373.4,305z M253.3,414.5c-3.7,20.2-3.7,40.4,0.7,60.6
	C258.2,454.9,255.2,434.7,253.3,414.5z"/>
</svg>
