<?xml version="1.0" encoding="utf-8"?>
<!-- Generator: Adobe Illustrator 24.0.0, SVG Export Plug-In . SVG Version: 6.00 Build 0)  -->
<svg version="1.1" id="Layer_1" xmlns="http://www.w3.org/2000/svg" xmlns:xlink="http://www.w3.org/1999/xlink" x="0px" y="0px"
	 viewBox="0 0 500 500" style="enable-background:new 0 0 500 500;" xml:space="preserve">
<path d="M286.4,337c-9.2,14.2-17.4,27.1-25.8,39.9c-10.9,16.7-21.5,33.6-38.5,45.1c-3.7,2.5-2.6,4.9-1,8c4.4,8.7,8.5,17.6,13,26.3
	c1.9,3.6,3.2,6.7,0.5,10.6c-10.8,15.6-43.7,26.2-60.7,19.4c-4.5-1.8-7.2-5.5-9.1-9.7c-14.9-32.5-17.5-64.6,3.4-95.7
	c15.1-22.5,24.1-47.8,33.1-73.1c1.5-4.1,3.1-6.9-4.5-5.8c-10,1.6-16.1-6.7-22.2-13.2c-1.9-2-3.2-4.6-5-6.7c-1.3-1.4-2.4-3.9-4.9-3.1
	c-2.8,0.8-2,3.4-2,5.3c0.1,10.7-3.1,20.4-7.1,30.2c-4.2,10.1,1.3,20.5-0.1,31.1c-2.9,21.9-8.8,42.2-21,60.7
	c-7.1,10.7-12.6,22.5-18.9,33.7c-1.4,2.5-3.7,6.1-0.9,7.5c9.7,4.6,4.2,12.9,4.9,19.3c0.6,5.8-15,13.4-23.1,11.7
	c-7.5-1.6-14.8-4.4-21.2-8.7c-13.3-8.9-16.3-26.2-5.6-44.9c7.7-13.5,10.9-27.8,13.8-42.5c2-10,1.5-19.9,0.2-30.1
	c-1.2-9.4,0.6-19,3.8-27.7c7.6-21.2,5.2-42.9,3.2-64.3c-1.5-15.4-2.8-30.2,0.9-45.5c2.2-9.1,3.3-18.3,8.3-26.5
	c2.6-4.4,0.2-6.9-4.1-6.8c-13.9,0.3-21.7-7-26.8-19.2c-4.5-10.7-9.6-20.7-4.4-32.9c3-7,0.9-16.2,9.2-21c0.7-0.4,1-3.2,0.4-3.8
	c-6.2-6.2-3-12.7-2.2-19.9c2-18.4,6.6-33.7,25.1-42.9c9.4-4.6,17.4-12.9,24.9-20.5c17.7-18,50.3-8.8,60.3,13.9
	c7.6,17.2,22.4,29.6,31,46.2c2.2,4.2,7.5,4.8,11.8,6.1c10.4,3,20.8,6.1,31.3,8.7c23.7,5.8,41.4,19.7,54.3,40
	c12.7,19.9,29.2,34.2,52.5,40.7c22.9,6.4,39.8,20.9,51.5,41.7c5.8,10.3,12.2,20.4,18.7,30.3c5.5,8.4,5.4,16.3,2,25.7
	c-6.5,17.8-18.2,31.6-28.8,46.8c-7.4,10.7-15.5,22.4-17.5,37.2c-2.4,17.1-9.1,33.6-13.6,50.4c-2.2,8.1-4.3,16.3-5.3,24.5
	c-2.4,20.3-13.3,32.2-33.1,36.5c-9.8,2.1-19.7,4.3-28.5,9.8c-3.5,2.1-8.9,4-11.1-2.6c-1.1-3.4-3.8-2.2-6-2.8
	c-12.2-3.4-15.3-13-7.6-23c0.6-0.8,1.2-1.8,1.9-2.5c7.3-6.6,5-9.4-3.7-11.4c-6-1.3-15.3-0.1-16-8.7c-0.7-8.4,9.2-8,14.2-11.7
	c2.2-1.7,4.9-2.7,7.2-4.2c23.1-15.4,24.6-19.5,10.3-43C291.8,359.8,291.6,348.5,286.4,337z"/>
</svg>
