<?xml version="1.0" encoding="utf-8"?>
<!-- Generator: Adobe Illustrator 24.0.0, SVG Export Plug-In . SVG Version: 6.00 Build 0)  -->
<svg version="1.1" id="Layer_1" xmlns="http://www.w3.org/2000/svg" xmlns:xlink="http://www.w3.org/1999/xlink" x="0px" y="0px"
	 viewBox="0 0 500 500" style="enable-background:new 0 0 500 500;" xml:space="preserve">
<path d="M288.9,324.2c-13.9-15.6-17.4-16.5-34.8-8.9c-3,1.3-4.7,1.5-7.8-0.2c-17.6-9.2-24.7-7.7-36.6,6.9
	c-0.6-38-29.2-47.3-60.9-26.7c-11.2-35-44.6-52.5-79.8-30.8c-2.1-14.4-4.7-28.4-15-39.3c-10.7-11.4-24.6-13.7-40-13
	c34.9-42.7,87.2-48.3,128.4-14.5c22,18.1,40.8,39.7,64.7,55.5c2.8,1.9,5.5,4.1,8.4,5.7c2.9,1.5,6.3,3.4,9.3,0.1
	c2.7-3,0.5-5.4-1.2-7.9c-4.7-7.1-4.6-14.2,2.6-18.9c6.9-4.6,12.6-1.4,17.2,5.2c4.9,7,10.7,5.9,15.3-0.5c5.1-7.1,11.5-9.4,18.6-4.8
	c7.3,4.8,4.9,11.7,1.1,18c-1.4,2.3-5.2,4.1-2.1,7.5c3.1,3.4,6.3,0.9,9.3-0.3c12.8-5.1,23.7-13.2,34-22.1
	c13.9-11.9,27.5-24.1,41.6-35.6c32.1-26.2,73.5-27.6,107.5-4.1c8.7,6,12.7,11.1,17.4,22.8c-34.2-1.2-51.4,17.5-56.2,50
	c-13.5-7.7-26.4-12.5-41.1-10.1c-18.5,3.1-31.3,13.2-36.9,30.9c-2.5,7.8-4,8.9-11.6,5.1C313.4,280.8,292.2,293,288.9,324.2z"/>
</svg>
