<?xml version="1.0" encoding="utf-8"?>
<!-- Generator: Adobe Illustrator 24.0.0, SVG Export Plug-In . SVG Version: 6.00 Build 0)  -->
<svg version="1.1" id="Layer_1" xmlns="http://www.w3.org/2000/svg" xmlns:xlink="http://www.w3.org/1999/xlink" x="0px" y="0px"
	 viewBox="0 0 500 500" style="enable-background:new 0 0 500 500;" xml:space="preserve">
<path d="M259.6,41.1c3.6-7.3-1.5-16.5,8.3-18.7c7.9-1.8,12.9,3.5,18.1,8.2c21.1,18.8,28.6,44.3,33,70.7c2.2,13.5,7.8,19.1,21.6,20.6
	c34.1,3.9,54.1,30.8,77.2,51.5c10.5,9.5,5,29-10.2,34c-26,8.5-30.1,24.7-28.8,49.6c2,38.4-9.2,74.9-27.2,109
	c-15.3,28.9-3.6,63.1,26.3,76.7c6.6,3,16.8,3.8,15.4,13.6c-1.3,9.2-11.2,8.5-18.5,9.7c-5,0.8-10.1,1-15.1,1.6
	c-36.4,4.5-36.4,4.5-53.5-27.5c-1.8-3.3-3.7-6.6-5.8-9.8c-3.2-4.8-7.4-7.2-12.7-3.3c-5.1,3.8-4.7,9.1-1.2,13.3
	c3.5,4.3,8.2,7.7,12.5,11.3c4.3,3.5,10.5,6.4,8.8,13.2c-1.7,6.4-8.2,7.6-13.7,8.5c-18.1,3-36.6,6.9-54.6,2.5
	c-18.3-4.5-36-4.2-54.4-1.8c-16.8,2.2-34,4.4-50.3-3.4c-6.8-3.2-12,2-17.8,3.8c-13.7,4.1-28.5,8.1-36.7-7.9
	c-7.6-14.7-2.7-27.3,13.2-33.7c7.6-3.1,4.3-7.2,2.6-12c-26.2-73.9,22.5-174,97.9-201.3c20.3-7.4,41.3-11.5,62.7-14.3
	c4.3-0.6,9.2-0.5,12.8-2.6c7-4.1,9.8-57.5,3.1-62.8c-32.1-25.3-42-60.3-44.4-98.7c-0.4-6.5-3.7-15.3,4.5-18.6
	c6.5-2.6,11.2,4.2,15.8,8.3C251.7,33.8,254.9,36.8,259.6,41.1z"/>
</svg>
