<?xml version="1.0" encoding="utf-8"?>
<!-- Generator: Adobe Illustrator 24.0.0, SVG Export Plug-In . SVG Version: 6.00 Build 0)  -->
<svg version="1.1" id="Layer_1" xmlns="http://www.w3.org/2000/svg" xmlns:xlink="http://www.w3.org/1999/xlink" x="0px" y="0px"
	 viewBox="0 0 500 500" style="enable-background:new 0 0 500 500;" xml:space="preserve">
<path d="M329,275.8c-3.2,2.7-1.6,6.5-1.7,9.7c-1,37.8-7.9,74.9-13.6,112.2c-3.3,21.4-4.8,42.1,5.6,62.5c7.4,14.5,5,13-9.9,17
	c-13.5,3.6-24.3-2.8-36.4-2.3c-6.5,0.3-5.4-4.3-4.7-8c2.2-11.8,3.7-23.6,7.9-35c5.7-15.6,3.8-17.3-12.1-15.2
	c-20.9,2.8-31.2,21.3-22.8,40.6c1.6,3.6,3.2,7.1,4.3,10.8c1.1,3.5,1.5,7.7-2.6,9.1c-7.6,2.6-14.2,6-19.3,12.3c-2.6,3.3-5.5,1-8-1.2
	c-5.3-4.5-11.5-4.3-17.8-3.2c-10.1,1.9-12.6-0.8-10.5-11c1.7-8.3,6.5-15,10.6-21.9c3.9-6.6,3.6-13,2.3-20
	c-4.9-26-13.8-50.9-22.2-75.9c-14.1-41.7-12.7-84.2-7.7-126.9c0.6-5.4,2.2-10.6-0.5-19.9c-5.3,14.9-10,26.7-13.6,38.8
	c-12,40.1-23.7,80.3-35.4,120.5c-1.1,3.8-1.7,9.3-5.7,9c-4.2-0.3-5-5.8-5.9-10.1c-5.2-25.7,0.8-50.7,7.7-74.7
	c14.8-51.4,33.5-101.7,58.1-149.2c22.6-43.5,50.6-83.8,81.2-122.1C269.8,5,302.6,4.8,316,20.9c8.2,9.9,17.6,15.6,30.1,17.7
	c7.8,1.3,15.9,3.5,22.3,10.5c-5.5,4.5-11.9,2.6-17.6,3.4c-11.7,1.8-24,0.1-34.7,7.8c-12.4,9-13.8,14.9-4.7,26.8
	c12.4,16.3,13.8,36.1,16.2,55.2c2.6,20.9,9.8,39.9,18.5,58.6c13.7,29.6,28,58.9,38.2,89.9c6.3,19,8.4,38.7,8,58.6
	c-0.2,9.3-3.7,17.4-9,24.9c-7.5,10.6-14.3,10.2-18.9-2.1c-5.9-15.6-10.6-31.6-15.5-47.5c-4.8-15.6-10.4-30.9-17-45.8
	C331.5,277.4,331.3,275.6,329,275.8z"/>
</svg>
