<?xml version="1.0" encoding="utf-8"?>
<!-- Generator: Adobe Illustrator 24.0.0, SVG Export Plug-In . SVG Version: 6.00 Build 0)  -->
<svg version="1.1" id="Layer_1" xmlns="http://www.w3.org/2000/svg" xmlns:xlink="http://www.w3.org/1999/xlink" x="0px" y="0px"
	 viewBox="0 0 500 500" style="enable-background:new 0 0 500 500;" xml:space="preserve">
<path d="M14.3,223.8c9.5-23,25.6-35,48.4-38.6c7.6-1.2,13.6,2.3,19.9,5.1c6.6,3,12.1,2.9,17.1-2.8c17.5-19.3,41.2-23.4,65.4-25.9
	c5.3-0.6,29.5-12.2,33.4-15.6c5.3-4.7,10.9-7.9,18.2-10.4c11.1-3.8,24.8-2.7,33.3-14.5c1.8-2.5,8.8-8.7,15.9-4.2
	c2.1,1.4,5.6,1.1,8.4,1c18.2-0.4,34.6,4.4,51,12.9c12.2,6.3,24.2,14.6,39,15.2c8,0.3,15.6,4.3,22.1,7.5c10.9,5.4,8.9-1.6,9.5-7.9
	c11.4,7.3,17.9,15.7,19.3,29.1c2.1,20.2,10,38.2,29.5,48c13.7,6.9,22.5,20.3,36.8,26.4c4.4,1.9,5.1,7.3,3.7,11.8
	c-1.8,6-5.5,12.2-11.9,12.3c-8.3,0-15.3,3.7-23,5.5c-10.4,2.4-20.9,1.1-31.3,1c-18.9-0.2-37.8,5-56.7-0.8
	c-8.2-2.5-14.5,4.6-21.5,7.7c-2.5,1.1-0.7,4.6,0.7,6.7c3.7,5.9,6.6,12.6,11.4,17.4c7.6,7.5,11,16.7,14.4,26.3
	c4.2,12.1,10.6,22.1,24.1,26c7.1,2,9.9,9.5,15.2,14c1.8,1.5,0.5,3.4-1.2,4.7c-2,1.7-4.2,2.6-6.9,2.8c-11.2,0.9-29-9.3-34.2-19.5
	c-7.9-15.6-21.4-25-35.5-34.5c-10.1-6.8-22.7-9.2-31.3-18.6c-1.9-2-4.3-3.2-4.9-6.5c-0.5-2.8-16.3-8.9-18.7-7.8
	c-1.8,0.8-2,2.5-1.8,4c0.7,7.1-3.7,11.6-7.7,16.5c-10.6,12.8-10.6,20.6-1.3,34.4c2.9,4.4,8.4,9.6,5.5,14.2c-3.1,5-9.3-0.3-13.9-1
	c-12.9-1.8-18.6-12.5-16.4-25.2c1.6-9.3,6-18,5.4-27.8c-0.6-11-3.7-13.1-14.3-12.5c-14,0.8-28.5,2.4-41.7-4.2
	c-5.6-2.8-8.9-3.3-9,4.4c0,1.2-0.6,2.5-1,3.6c-2.2,5.3-8.7,9.7-5.4,16.3c4.2,8.4,10.9,15.9,19.3,19c9.8,3.6,13.7,11.9,19.8,18.3
	c3.4,3.5,2.8,7.8-3.9,7.8c-5.8,0-12-3.3-16.6-2.3c-13,2.7-13.3-7.9-18.4-14c-6.5-7.7-13.5-15-21.7-21c-4.3-3.1-8.3-6-5-12.3
	c1-1.9,0.6-4.6-1.3-6.2c-2.4-2.1-3.8,0.6-5.6,1.6c-12.7,7.1-25.6,13.5-40.9,10.9c-7.6-1.3-12.2,1.6-13.9,9.2
	c-2.1,9.9-4.8,19.6,3.2,28.7c3.4,3.9,5.1,9.4,7.1,14.4c1,2.4,4.4,4.8,1.5,7.6c-2.3,2.4-5.4,0.4-8.1,0.3c-9.4-0.4-16.6-5.8-23.6-10.9
	c-5.8-4.3-5.3-12-3.4-17.7c4.2-12.8,3.6-25.7,3-38.6c-0.4-10,2.2-16.5,13.6-17.3c8-0.6,11.4-6,7.7-13.3c-5.5-10.7-5.4-22.7-8.7-34
	c-3-10.2,2.9-20.9,6.3-31.1c0.6-1.8,1.9-3.3,2.7-5c1.4-3.2,6.2-6.3,3.5-9.7c-2.5-3.2-7.5-2.6-11.7-2.2c-5.6,0.5-10.2,3.4-14.7,6.3
	C48.3,218.3,32.1,221.7,14.3,223.8z"/>
</svg>
