<?xml version="1.0" encoding="utf-8"?>
<!-- Generator: Adobe Illustrator 24.0.0, SVG Export Plug-In . SVG Version: 6.00 Build 0)  -->
<svg version="1.1" id="Layer_1" xmlns="http://www.w3.org/2000/svg" xmlns:xlink="http://www.w3.org/1999/xlink" x="0px" y="0px"
	 viewBox="0 0 500 500" style="enable-background:new 0 0 500 500;" xml:space="preserve">
<path d="M14.2,209.5c1.4,2.9,2.5,5,3.4,7.2c1.7,3.9,4.7,4.4,6.9,1.2c4.2-6.2,10.4-5.8,16.2-5.1c5.8,0.7,7.4-1.4,6.5-7.8
	c6.3,9.4,11,5.4,17.2,0.9c8.6-6.3,14.4-13.9,19.2-23.4c7.8-15.6,17.5-30.1,30.6-41.9c7.5-6.8,11.2-17.1,22.1-20.6
	c16.7-5.4,33.3-10.8,51.1-10.5c18.4,0.3,36.9,0.6,55.3,1.5c10.9,0.5,21.5,2.5,31.8,6.4c8.5,3.1,17.5,4.7,26.6,5.3
	c21.9,1.5,42,11.7,63.4,14.4c27.6,3.4,50,18.7,74.8,28.5c6.2,2.5,10.9,7.3,14,13.6c3.4,7,7.3,13.8,10.8,20.8
	c5.4,10.8,4.1,21.8,0,32.6c-0.9,2.5-0.2,4.1,0.9,5.8c1.4,2,3.4,4.3,0.5,6.1c-2.9,1.8-5.3-0.3-6.8-2.6c-7-10.4-10-21.9-8.9-34.3
	c0.4-4.8,1.7-9.5,2-14.3c0.5-9.3-5-15.1-12.5-19.4c-0.9-0.5-2.5-1-3.3-0.6c-1.7,0.9-1,2.5-0.4,3.9c6.9,17.4,6,35.5,5.3,53.6
	c-0.6,14.9,1.6,28.9,11.6,40.7c2.5,3,5.7,5.3,9.2,7.2c2.8,1.5,6.2,3.5,5.3,7.6c-3.9,19.2,4.8,36.1,10,53.5c2.2,7.5,3.9,16,11.3,21.2
	c1.6,1.1,2.9,3.3,1.2,4.6c-6.3,4.5-2.3,8.9-0.1,13.2c2.9,5.7,1.1,8.5-5,9.2c-2.7,0.3-5.4,0.9-8.1,1c-6.7,0.2-9.6-1.8-8.4-9.7
	c2.3-15-3.4-29.1-7.8-43.1c-8.6-28-29.4-46.4-51.6-63.4c-1.4-1.1-3.2-3.4-5.5-1.3c-1.5,1.4-0.8,3.5-0.2,5.1
	c2.1,5.6,1.9,12.2,6.1,16.8c5.4,5.9,4.5,11.8,1.6,18.1c-9.6,21.1-19.1,42.3-28.9,63.3c-3.5,7.6-25.7,15.3-33.3,12
	c-2.5-1.1-3.6-2.8-1.3-4.7c5.1-4.1,8.1-10,14.4-13.3c17.2-9,26.7-44.4,18.2-64.1c-4.4-10.3-10.3-19.8-15.6-29.6
	c-3-5.7-5.4-4.9-9.5-1.4c-14.3,12.4-30.4,21.6-49,26.3c-10.5,2.7-21,2.3-31.5,1.2c-3.6-0.4-6.8-1.3-6.4,4.3
	c0.9,10.6-2.2,15.3-12.2,18.4c4.1,6,5.1,11.8-2.2,16.2c-2.6,1.6-1.5,4.4-1.2,6.7c0.7,4.8,2.6,9.4,2.7,14.2c0,6.4,10.6,14.8-3.1,18.9
	c0.1,11.6-9.5,8.4-15.7,10.1c-3.6,1-7.3,0.2-9.4-3.6c-2.1-4,1.4-6.2,3.4-8.5c12.4-14.3,13.8-27.9,2.7-42.9
	c-5.9-8-4.7-18.8-11.8-25.9c-1.6-1.5-1.4-5.4-4.7-4.5c-2.2,0.6-2.5,3.2-2.7,5.3c-0.3,4-0.3,6.4-6.3,4.7c-3.5-1-9.4,1.7-9.6,8
	c-0.1,3.3,0.6,6.6,0.3,9.9c-0.2,2.6,2,7-2.6,7.1c-3.1,0.1-3.3-3.7-2.8-6.6c0.1-0.3,0.1-0.6,0.1-0.9c-0.5-2.9,0.9-7.5-3.7-7.5
	c-6.8,0-1.8,5.2-2.4,9.1c-4.5-3.3-10.3-2.6-11.1-9.7c-0.3-2.8-4.1-1.9-3.9,0.8c0.4,8-7.3,15.2-10.1,15.5c-7.1,0.9-13,9-13.6,8.7
	c-9.1-5.9-9.3,2.3-11.5,6.8c-2.6,5.4-5.2,10.8-5.6,17c-0.2,3.9,1.8,10.7-6.7,6.9c-0.5-0.2-1.8,0.4-2.1,1
	c-4.9,10.8-14.8,9.3-23.9,9.8c-2.3,0.1-5.2,0.9-6.3-2.1c-1-2.7,0.9-4.5,2.8-6.2c7.4-6.6,14.4-13.4,21.2-20.7
	c10.5-11.5,10.4-25.9,14.2-39.3c0.5-1.7,0.5-3.6,0.7-5.4c1-10.3-1.8-12.2-11.4-8.8c-13.2,4.7-24.1,13.6-28.1,25.9
	c-2.8,8.6-8.6,15.3-11,23.8c-1.8,6.3-7.4,7.7-11.4,2.7c-9-11.3-20.1-14.6-34.2-12.2c-11.9,2-18.9-5.7-17.7-17.5
	c0.9-8.8-0.6-17.5-3.3-25.8c-1.6-5.1-3-10.2-1.1-15.1c3.6-9.5,1.7-18.4-1.8-27.3c-1.4-3.6-1.2-7,0-10.6c4-11,9-21.8,2-33.6
	C11.3,216.1,11,212.8,14.2,209.5z"/>
</svg>
