<?xml version="1.0" encoding="utf-8"?>
<!-- Generator: Adobe Illustrator 24.0.0, SVG Export Plug-In . SVG Version: 6.00 Build 0)  -->
<svg version="1.1" id="Layer_1" xmlns="http://www.w3.org/2000/svg" xmlns:xlink="http://www.w3.org/1999/xlink" x="0px" y="0px"
	 viewBox="0 0 500 500" style="enable-background:new 0 0 500 500;" xml:space="preserve">
<path d="M298.4,396.6c-7.2-1.3-11.6,3-16,7.1c-19,17.7-41.9,23.4-67.3,22.5c-14.6-0.5-29.1,0.5-43.7,0.4c-15-0.2-27.4-6.1-36.3-18.6
	c-3.3-4.7-6.8-9.3-10.5-13.6c-14.9-17.4-20.6-36.6-12.6-58.9c0.9-2.4,0.8-5.1-0.6-8.3c-4.2,9-8.3,18.1-12.6,27
	c-4.8,10-11.1,11.3-19.7,3.8c-14.8-12.7-24.8-27.9-24.4-47.9c0.5-22.7-2.9-43.6-19.5-61.1c-6.3-6.7-9.4-16-11.6-25
	c-3.4-14.3,4-21.5,18.3-17.6c12.1,3.3,22.3,10.6,32.6,17.3c4.8,3.1,9.7,6,16.1,7.7c-1.8-2.4-3.6-4.9-5.5-7.2
	c-29.5-34.8-15.5-102.5,17.5-123.9c1.8-1.2,3.7-2.6,5-4.3c29-38.4,70.9-47.5,115.3-54.6c25.3-4.1,49.2-0.2,73.5,2.9
	c28.8,3.6,52.8,18.9,70.4,41.1c29.3,37,57.9,74.7,71.7,121.3c4.6,15.6,14.8,28.1,29.7,35.9c9.3,4.9,11.7,11.4,5.2,20.4
	c-1.5,2-3.2,5.1-2.7,7.1c3.3,12.4-3.5,21.7-10,30.3c-15.6,20.9-33.2,41.3-54.1,55.8c-32,22.2-60.1,49.1-91.8,71.4
	c-18.5,13-37.7,24.6-59.7,30.9c-3,0.9-7.1,4.1-9.4-0.2c-1.7-3,1.8-5.6,3.6-7.9c12.5-16.1,25.8-31.4,41.3-44.7
	C293.4,403.2,297.6,401.8,298.4,396.6z"/>
</svg>
