<?xml version="1.0" encoding="utf-8"?>
<!-- Generator: Adobe Illustrator 24.0.0, SVG Export Plug-In . SVG Version: 6.00 Build 0)  -->
<svg version="1.1" id="Layer_1" xmlns="http://www.w3.org/2000/svg" xmlns:xlink="http://www.w3.org/1999/xlink" x="0px" y="0px"
	 viewBox="0 0 500 500" style="enable-background:new 0 0 500 500;" xml:space="preserve">
<path d="M95.4,289.8c-8.7-1.5-15.2,0.7-21.7,1.3c-15.5,1.3-29.7-2.5-43.9-8.5c-18.3-7.7-25.6-34.9-16.1-51.1
	c9-15.5,21.6-26.4,40-29.6c7.9-1.4,15.3-4.8,23.5-6.1c11.1-1.7,19.4,2,27.1,9c1.3,1.2,2.5,2.6,3.9,3.8c3.6,3.1,9.2,5.5,7.3,11.3
	c-1.8,5.4-8,5.5-12.6,6.6c-9.2,2.2-17.1-2-24.7-6.5c-10.1-5.9-20.8-10.3-32.4-5.4c-11.6,5-19.7,14.1-24.4,25.6
	c-6.3,15.4,5.1,29.6,22.9,33.4c22.8,4.9,39.5-6.3,57-17.1c26.8-16.6,54.2-31.4,86.5-34.9c22-2.4,43.4,2.2,65,3.2
	c12.2,0.6,23.9,1.9,33.7-7.8c1.9-1.9,4.1-2.8,4.3-6c0.5-7.2,7-10.9,10.4-16.5c1.6-2.6,4.7-1.1,7.3,0.4c5.2,3.1,9.8,2.7,14.4-2.2
	c4.7-5.1,0.4-8.2-1.6-11.9c-2.2-4-3.8-8,0.9-11.1c4.5-3,2.1-5.2-1.4-8.5c12.2,6.1,14.5-1.7,16.1-9.5c2.6-12.7,10.5-20.1,22.7-22.7
	c4.5-1,5.6-4.3,7.6-6.9c4.7-5.9,10.4-8.6,17.9-9c6.1-0.3,12.3-1.5,18.3-2.8c9.3-2.1,18.5-4.4,25.8,4.6c0.5,0.7,1.6,1.7,2.1,1.5
	c10.9-2.8,15.7,7.9,24,10.9c4.4,1.6,6.3,5.9,6.4,11c0.2,5.3-3.6,5.5-6.9,6.7c-4.3,1.5-3.4,2.9-0.9,6.2c8.7,11.5,19.9,19.8,31.4,27.9
	c5.4,3.8,6.2,7.9,3.4,14.7c-3.6,8.8-6.5,18.2-5.1,28.4c0.8,6-1.4,12.2-6.6,16c-4.8,3.6-9-0.7-14.2-3c1,13.9-8.7,21.8-15.5,31.2
	c-2.4,3.2-4.1,5-1.6,9.2c5.8,10,4.7,20.4-3.2,28.4c-5.9,6-11.2,12-14.9,21c-3.6-7.3,2.5-14.5-3.2-20.5c-1.6,6.1-3.5,11.5-4.3,17.1
	c-1.4,10.1-9.5,15.8-16,21c-10.5,8.2-11.4,7.1-13.4,20.7c-0.2,1.4-0.4,3.9-2.2,2.9c-9-5.1-5.8,3-6.4,6c-3.5,18.7-1.5,37.9-4.2,56.8
	c-0.8,5.6-0.5,10,7.6,9.4c10.7-0.7,16.7,6.8,21.9,14.8c1.5,2.3,1.9,4.9,0,6.7c-4,3.9-8,9.2-14.3,8.1c-9.2-1.5-18.3-3.5-27.7-3.4
	c-4,0-5.6-3.9-6.3-6.9c-3-12.4-7.1-24.5-9.3-37.3c-3-17.4-2.7-36.3-12.4-52.3c-1.2-2-2-5.4-4.9-3.4c-2.8,1.9,0.7,3.5,1.6,5
	c7.5,12.5,5.5,21-7.3,28.6c-8.7,5.1-16.1,12.9-27.4,12.7c-7.4-0.2-14.4-0.3-19.8-6.5c-3.6-4.1-8.8-7.8-5.7-13.8
	c3.1-6,8.8-9.3,15.9-8.1c4.5,0.7,8.8,1.2,13.3-0.4c4.9-1.7,5.7-4.2,2.7-7.9c-7.2-8.9-13.3-19.6-26.6-20.5
	c-13.7-0.9-26.4-5.8-39.6-8.6c-5.8-1.2-7,0.2-8.7,6.2c-4.6,16.3-9,32.7-25.6,42.6c-9.4,5.6-17.2,14-25.1,21.8
	c-5.6,5.4-2.3,20.3,4.4,24.1c2.2,1.2,3.7,0.7,5.8-0.3c6.9-3.3,13.5-0.1,18.8,3.1c7.6,4.6,5.5,17.9-2.8,21.7
	c-9.4,4.3-32.2,1.4-38-6.4c-10.1-13.5-19-27.7-28.2-41.8c-3-4.6,0.3-8.1,3.4-11c8-7.5,14.1-16.4,19.5-25.9c3.9-7,3.8-13.1-2.9-18.4
	c-1.4-1.1-2.8-2.4-3.8-3.9c-4.1-5.9-7.5-6.3-14.6-2.3c-12.1,6.9-24.2,13.2-33.4,24.2c-2.5,3-6.9,5.2-10.8,6.3
	c-11.4,3.3-20.5,11.1-26.2,19.8c-5.7,8.8-11.8,17.6-17.3,26.6c-2.4,4.1,0.9,5.9,3.3,8.1c2.8,2.6,7.4,3.4,7.9,8.1
	c0.5,4.9,4.1,10.1-0.6,14.5c-4.8,4.5-10.7,3.5-16.2,1.6c-6.3-2-12.5-4.5-18.8-6.5c-5.9-1.9-6.9-5.6-3.9-10.4
	c5.5-8.9,6.4-18.6,6.3-28.7c-0.1-9.5,3.4-17.1,11.6-23.1c10.9-7.9,18.7-18.3,22.7-31.6c2.8-9.5,6.6-18.8,10.6-27.8
	C83.9,321.1,84.7,304.2,95.4,289.8z"/>
</svg>
