<?xml version="1.0" encoding="utf-8"?>
<!-- Generator: Adobe Illustrator 24.0.0, SVG Export Plug-In . SVG Version: 6.00 Build 0)  -->
<svg version="1.1" id="Layer_1" xmlns="http://www.w3.org/2000/svg" xmlns:xlink="http://www.w3.org/1999/xlink" x="0px" y="0px"
	 viewBox="0 0 500 500" style="enable-background:new 0 0 500 500;" xml:space="preserve">
<path d="M263,338.4c-6.5-5.7-9.5-10.3-13.6-11.6c-22.5-7.2-34.5-23.5-40.9-45c-1.6-5.3-3.8-11.6-9.6-11.5c-7.4,0.2-8.7,7.4-9,13.4
	c-3.7,63.7-48.8,95.2-96.7,124.3c-9.7,5.9-20.7,10.2-31.6,13.1c-8.4,2.2-18.6-4.9-14.3-11.8c9.4-14.8,7.9-31.4,10.5-46.6
	c5-30.1,22.5-48.2,46.6-62.8c4.3-2.6,7.8-6.5,13.5-11.2c-14.9-2.6-27.4-4.3-39.9,1.4c-10.6,4.8-20.9,7.6-25.7-7.6
	c-0.5-1.6-1.2-3.9-2.4-4.5c-27.9-13.3-21.9-37.4-17.8-59.6c2.2-11.9-0.1-21.9-6.6-30.2c-15.4-20-4.1-44.8,8.8-56.3
	c7-6.3,11.2-8.5,2.7-17.4c-6-6.3,1.7-8.3,7.4-9.1c24.2-3.3,43,9,61.2,21.8c23.3,16.4,42.6,36.8,58.1,60.9
	c6.9,10.7,16.5,16.8,29.8,11.9c2.9-1.1,8.3-0.8,7.2-5.9c-0.5-2.2-4.1-5.2-6.4-5.4c-20.6-1.1-15.6-13.6-11.4-25.2
	c7.5-20.5,21.9-34.9,39.3-47.9c13.3-9.9,25.5-22.4,34.9-36C267.4,64.8,283.8,65.7,297,59c7.4-3.7,11.9,4,15.7,8.8
	c16,20.5,26.2,44.2,31.7,69.3c2.8,12.8,10.4,18.9,20.3,24.5c30.4,17.3,62.7,31.3,91.2,52.1c9.9,7.2,15.7,17.4,22.9,26.6
	c6,7.8,2.6,15.4-2.9,21c-15.9,16.4-31.1,32.8-54.4,40.8c-17.2,5.9-30.6,20.2-48.6,27.1c-13.4,5.1-27.7,1.5-40.9,9.6
	c-7.5,4.6-11.9,6.1-11.5,15.6c1.4,32.3-12.5,58.3-34.9,80.6c-8.3,8.3-14.2,12-15.9-4.1c-0.2-1.9-3.3-3.3-4-5.3
	c-7-21.5-14.9-17.8-27.9-3.4c-7.6,8.4-20.7,11.9-31.5,17.2c-3.2,1.6-6.5,1.2-9.4-2.4c-5-6.3-7-14.2-3.1-20c8.6-12.7,10-27,13.5-41.1
	c2.7-10.7-4.3-25.3,9.8-31.9c10.6-5,22.3-3.5,33.7-3.7C253.7,340.1,256.5,339.4,263,338.4z"/>
</svg>
