<?xml version="1.0" encoding="utf-8"?>
<!-- Generator: Adobe Illustrator 24.0.0, SVG Export Plug-In . SVG Version: 6.00 Build 0)  -->
<svg version="1.1" id="Layer_1" xmlns="http://www.w3.org/2000/svg" xmlns:xlink="http://www.w3.org/1999/xlink" x="0px" y="0px"
	 viewBox="0 0 500 500" style="enable-background:new 0 0 500 500;" xml:space="preserve">
<path d="M67.3,327.6c-6.3-16.5-17.6-29.9-22.1-46.7c-1.5-5.8-4.4-11.1-7.9-15.9c-2-2.8-3.6-5.8-1.5-9.3c4.6-7.6,2.7-15-1.1-22
	c-5-9.1-5.7-17.5,2-25.4c2.6-2.6,2.5-4.8,0.3-7.8c-5.2-6.9-3.2-14.2-2.5-22.2c1.9-23.7,10-45.4,17.1-67.6
	C62.6,76.9,87,54.1,112.9,32.3c1.1-0.9,2.7-2.4,3.8-2.1c13.1,3,22.5-6,33.4-10c7.4-2.7,14.1,1.7,21,0.2c7.9-1.8,15.3-6.2,23.6-2.1
	c2,1,5,0.9,6.1,2.4c4.3,5.7,8.6,4.8,13.7,1.3c4.3-3,8.6,0.1,11.1,2.5c8.1,7.7,18.1,11.8,27.6,17c5.9,3.3,10.1,10.7,15.1,12.6
	c13.8,5.3,16.7,20.6,28.4,26.9c3,1.6,4.8,3.7,5.5,6.6c4.2,16.1,15.4,27.1,27.3,37.5c9,7.8,18.5,15,28.7,23.2
	c-0.7-8.7-5.7-14.2-9.6-20.1c-5.7-8.7-11-17.4-12.8-28.1c-5-30.6,28.5-58.3,58.5-46.7c31.8,12.3,61.4,27.8,72.4,64.1
	c1.2,4,4.1,9.2,0.8,11.4c-4.2,2.8-6.4-3.4-9.5-5.7c-2.6-1.9-4.1-5.4-9.3-5.9c0.6,8.2,1.1,16.2,1.7,24.1c0.5,7.2,0,14.2-3.6,20.7
	c-3.4,6.2-7.8,9.5-15.4,7.5c-8.8-2.3-8.4-9-7.1-15.1c1.6-7.6,4.8-14.8,7.1-22.3c0.9-2.8,1.4-5.8,1.7-8.7c0.6-5.1,0.1-10.8-5-12.6
	c-5.8-2.1-8.2,4.1-10.7,7.8c-13,19.3-9.3,47.2,10.2,70c14,16.4,26.5,33.1,32,54.4c15.9,60.5-9,113.7-67.7,143.6
	c-9.9,5.1-20.3,9.3-30.5,13.8c-12.8,5.6-16.3,13.3-13.2,26.9c3.9,16.9,14.5,26.3,31.4,28.7c6.4,0.9,12.3,2.9,17.9,6.1
	c3.9,2.2,5.2,5.7,3.3,9.5c-1.8,3.4-5,1.8-7.9,0.7c-6.5-2.4-14.7-9.1-13.5,6.3c0.3,4.3-4.2,5.6-6.9,1.5c-5.1-7.6-13.2-9.4-20.8-12.3
	c-2.3-0.9-5-2.7-7.2,0.1c-2.2,2.8-3.6,7.9-8.2,4c-3.7-3.2-5.4-7.8-3.9-13.1c1.7-6,3.9-11.8,3.6-18.4c-0.6-11.9-5.8-20.7-15.8-26.7
	c-12.3-7.3-26.4-8-40.1-8.1c-9.3-0.1-15.5,5.8-16.6,16.3c-2.2,20.5-0.9,23.7,17.2,34.3c2.8,1.7,5.7,3.6,7.9,6
	c2.6,2.8,4.5,7.1,1.5,10.1c-2.5,2.5-5.2-1-7.6-2.6c-9-5.8-10.7-5-11.5,5.6c-0.2,3,0.4,6.9-2.9,7.9c-4.6,1.4-5-3.6-6.4-6.2
	c-2.8-5.3-5.3-10.8-9.8-14.9c-4.8-4.4-9.7-8.7-16.5-2.6c-2.6,2.4-6.8,2.8-8.8-0.7c-1.9-3.4-1.2-7.3,2.6-9.8c1.9-1.2,3.7-2.9,5.8-3.3
	c12.6-2.6,14.7-12.3,13.4-22.2c-4.7-34.8-8.8-36-33.9-18.5c-41.2,28.6-95.5,18.1-135.5-8.6c-17-11.4-31.1-25.7-42.7-42.5
	c-7.1-10.3-5.5-14.8,6.7-18.5c7.5-2.3,15-4.3,22.5-6.5C66.2,328.6,66.7,328,67.3,327.6z"/>
</svg>
