<?xml version="1.0" encoding="utf-8"?>
<!-- Generator: Adobe Illustrator 24.0.0, SVG Export Plug-In . SVG Version: 6.00 Build 0)  -->
<svg version="1.1" id="Layer_1" xmlns="http://www.w3.org/2000/svg" xmlns:xlink="http://www.w3.org/1999/xlink" x="0px" y="0px"
	 viewBox="0 0 500 500" style="enable-background:new 0 0 500 500;" xml:space="preserve">
<path d="M58.2,248.5c-6.8,22.2-17.5,42.4-30,63.9c-3.1-6.3-1.5-9.6,0.2-12.1c13.4-20,16.5-43.7,25.1-65.5
	c8.4-21.2,10.8-44.5,23.1-64.4c20.8-33.6,46.5-61.3,84.9-75.4c17.7-6.5,34.6-5.8,52.3-0.7c13.6,4,27.6,6.8,42,5.5
	c5.9-0.5,10.2-3.2,14.8-7.3c21.1-18.6,46.3-28.8,74.4-28c14.4,0.4,26.8,8.9,35.9,20.7c6.6,8.5,13.9,15.2,24.3,19.4
	c12.2,5,23.6,11.8,35.1,18.3c6.7,3.8,11.4,9.8,14.2,17.1c11.7,30.3,17.7,61.1,11.3,93.9c-3.3,16.8-2.8,34.3-4.4,51.4
	c-0.3,3.9,1.5,6.2,3.8,8.6c5.9,6.1,12.4,11.5,19.7,15.8c2.6,1.5,7.2,2.7,5.5,7c-1.8,4.4-5.9,2.6-9.5,2c-5.8-0.9-11.3-2.4-16-5.9
	c-6.2-4.7-6.9-1.1-6.6,4.2c0.6,10.3,0.8,20.5-2.3,30.5c-9.6,29.8-26.7,46.9-54.8,48.6c-17,1-28.4-8.2-38.9-19.4
	c-2.9-3.1-0.3-4.1,2.5-4c2.7,0.1,5.1-0.1,5.4-3.3c0.9-10.2,4.7-4.6,7.8-1.4c12.4,12.4,32.4,10.1,41-5.4c4.2-7.6,7.4-16.5,5.9-25.2
	c-3.3-19.2-3.1-38.5-2.6-57.8c0.2-7.1,1-13.6-7.4-18.4c-4.7-2.7-7.1-10.3-8.7-16.5c-5.8-21.4-30.7-33.1-52-20.5
	c-14.8,8.7-23.5,18-19.6,36.4c7.5,35.8,5,72.9,14.5,108.5c2.4,8.8,4.7,17.4,12.3,23.6c5.7,4.6,12.7,10.6,10.2,17.8
	c-2.9,8.4-13,9.4-20.9,9.9c-8,0.5-16.3-0.1-24.3-2.3c-9.4-2.5-12.2-8-8.4-17c1.9-4.5,1.9-8.6,0.5-13.1c-7.5-23.1-15-46.3-22.3-69.5
	c-0.9-2.9-1.3-5.9-4.9-8.9c-5.6,19.6-13.4,38-16,57.9c-0.6,4.8-0.6,9.7-1.9,14.3c-2.8,10.2-1.2,19,6.6,26.5c2.2,2.1,4.2,4.4,5.9,6.9
	c4.4,6.5,2.9,12.4-4,15.2c-14.2,5.8-28.7,6.2-43.2,0.8c-7.9-3-11-8.5-8-16.5c3.1-8.2,3.5-16.5,3.7-24.9c0.7-28.4,1.6-56.8,2.1-85.2
	c0.2-11.6-1.2-12.5-11.8-8.2c-13.2,5.4-26.9,3.3-40.3,3c-6.9-0.1-10.1,1.5-13.3,8.4c-10.6,22.5-7,44.7-1.5,67.2
	c1.3,5.4,5.4,9.4,9.5,13c2.8,2.5,4.8,5.2,6.4,8.6c2.3,5.2,1.2,8.2-4.4,10.4c-13,5.1-26.1,4.2-39.2,1.4c-7.4-1.5-9.2-7.5-7.6-13.9
	c1.2-4.7,0.3-8.8-0.7-13.3c-4.7-19.7-1.7-39.7-2.7-59.6c-0.2-4.3-0.8-8.3-2.9-12.1c-2-3.7-3.8-3.5-5.9-0.4c-1.3,2-2.7,4.1-3.5,6.3
	c-3,9.1-9.3,15.5-17.3,20.1C80.1,348.1,70,368.9,60,389.5c-4.5,9.3-3,19.4-1.1,29.4c2.9,14.9-3.1,19.4-17.6,15.2
	c-11.9-3.5-21.1-9.8-28-19.9c-5.7-8.4-5.3-15.7,2.2-22.5c3.5-3.2,5.6-6.7,6.8-11.3c3.6-15.4,14.9-26.7,22-40.2
	c1.1-2.1,2.2-4.4,3.7-6.2c15.1-17.5,16.3-37.9,13.3-59.6c-1.2-8.4-0.2-17.1-0.2-25.6C60.1,248.6,59.2,248.5,58.2,248.5z"/>
</svg>
