<?xml version="1.0" encoding="utf-8"?>
<!-- Generator: Adobe Illustrator 24.0.0, SVG Export Plug-In . SVG Version: 6.00 Build 0)  -->
<svg version="1.1" id="Layer_1" xmlns="http://www.w3.org/2000/svg" xmlns:xlink="http://www.w3.org/1999/xlink" x="0px" y="0px"
	 viewBox="0 0 500 500" style="enable-background:new 0 0 500 500;" xml:space="preserve">
<g>
	<g>
		<path d="M484.5,245.5c6.6,20.2,4,38.1-9,53.7c-18.8,22.4-42.5,39-66.5,55.1c-8.2,5.5-15.8,11.2-21.4,19.4
			c-4.9,7.2-10.8,8.5-18.4,3.3c-19.2-13.2-38.3-26.4-56-41.5c-20.9-17.7-32.8-40.9-38.6-67.4c-0.4-2.1-1.2-4.3,1.4-7
			c10.4,14.5,22.1,27.7,35,39.8c14,13.1,28.5,25.7,42.4,38.8c5.5,5.2,8.3,3.7,10.6-2.6c7-19,6.5-38.9,6-58.7
			c-0.6-26.1-2.1-52.1-3.1-78.2c-0.2-5,0.4-10,0.7-15c0.3-3.5,0.8-7.6,5-7.8c4.5-0.2,5.2,4.4,5.8,7.5c1.3,6.4,1.6,13.1,2.3,19.6
			c4.8,45,6.6,90.2,3.7,135.4c-0.1,1.2,0,2.5,0,4.2C430.4,323.9,467.8,295.5,484.5,245.5z"/>
		<path d="M388.4,195.9c26.8,23.2,47.8,53.8,87.5,48.9c0.6,1.4,1.2,2.2,1,2.5c-16.5,25.2-33,50.4-56.8,69.5
			c-6.4,5.1-13.5,9.1-20.7,12.9c-5.3,2.8-7.7,2.5-7.2-4.5c0.9-15,1.4-30.1,1.7-45.1C394.4,252.5,393.8,225,388.4,195.9z"/>
		<path d="M361.9,195c-4.5,45.3-4,89.6-1.4,134.4c-1.6-0.2-2.7,0-3.3-0.5c-26.3-18.1-48.7-40.3-67.3-66.3c-3.5-4.9-2.3-6.5,2.9-8.2
			c5.3-1.7,10.3-4.5,15.5-6.7c16.3-7.1,29.2-17.8,37.9-33.6C349.9,207.2,353.1,199.4,361.9,195z"/>
	</g>
	<g>
		<path d="M224,203.3c2.7,5.2,1.3,9.4,0.2,13c-7.1,24.9-19,47.1-39.6,63.6c-17.1,13.8-34.8,26.8-53.2,38.9c-8.7,5.7-13.1,5.4-19-2.8
			c-5.8-8.1-13.3-13.9-21.5-19.3c-22.8-15.1-44.9-31.2-63.5-51.4c-15-16.3-19.1-35.1-12.2-57.2c17,49.3,53.8,78.1,99.4,98.3
			c0-9.4,0.7-19.2-0.1-29c-3.4-42.9,2.7-85.2,6.3-127.7c0.1-0.9,0.1-1.9,0.5-2.8c1.3-3.1,1.9-7.8,6.1-7.2c3.7,0.6,4.6,4.7,4.8,8.3
			c0.2,3.8,0.4,7.5,0.4,11.3c0.4,26.7-2.3,53.3-3,80c-0.5,18.2-0.6,36.4,4.2,54.2c0.6,2.1,1.3,4.2,2,6.3c2.2,6.6,5.1,7.3,10.5,2.4
			C173.8,257.7,202.1,234.3,224,203.3z"/>
		<path d="M111.4,137.9c-7.7,43.4-5.9,84.7-4,126c0.6,12,0.5,11.9-10.5,6.2c-12.7-6.6-23.8-15.1-33.3-25.7
			c-14.1-15.6-26.4-32.7-37.9-50.2c-1.3-2-6.4-6.8,1.2-6.4c29.5,1.5,49-15.9,68.2-34.4C100,148.6,105,144,111.4,137.9z"/>
		<path d="M139.3,273.5c2.4-46.8,3.3-91-1.5-136.6c6.7,3.6,9.8,8.5,12.1,13.3c11.3,23.7,31.2,37,54.9,45.5c6.8,2.4,8.9,4.4,3.9,11.1
			C189.9,232.3,167.7,254,139.3,273.5z"/>
	</g>
</g>
</svg>
