<?xml version="1.0" encoding="utf-8"?>
<!-- Generator: Adobe Illustrator 24.0.0, SVG Export Plug-In . SVG Version: 6.00 Build 0)  -->
<svg version="1.1" id="Layer_1" xmlns="http://www.w3.org/2000/svg" xmlns:xlink="http://www.w3.org/1999/xlink" x="0px" y="0px"
	 viewBox="0 0 500 500" style="enable-background:new 0 0 500 500;" xml:space="preserve">
<path d="M268.2,42.9c-7.8,4.1-15.3,4.4-6.5,14.9c29.4,35,21.3,97.5-14.2,125.3c-12.9,10.1-29.7,5.2-42.3,13.9
	c-5.1-6.6-0.2-10.4,1.2-14.7c4-13.1,8.1-26.9-6-36.1c-15-9.7-30.1-5.6-42.6,5.6c-10.9,9.7-14.9,23.4-17.6,37.5
	c-8.2,42.7,1.4,79.5,34.3,109.2c12.5,11.3,24.6,23.1,36.9,34.7c4.5,4.2,10.6,11.4,13.4-0.1c16.6-67.3,65.6-117.6,93.3-179
	c4.6-10.2,10.1-20.3,13.1-31c4.8-16.9,10.1-32.7-0.9-51.5c-7.7-13.1-12.4-37.4,2.3-46.5c13.2-8.2,30.3,6.9,41.3,18.3
	c8.4,8.7,15.9,13.6,28.4,14.1c15.7,0.7,29.8,7.6,40.6,19.8c7.5,8.4,14.6,17.1,22.5,25.2c22.6,23.5,16.2,50.4-16,57.3
	c-20,4.3-22.1,10.4-9.9,24.7c11.4,13.3,3.7,28.3,3.8,42.4c0.1,12.8,1,21.7,15.8,27.1c16.2,6,22.1,25.5,15.2,38.8
	c-2.7,5.2-6.6,9.1-12.8,9.9c-7.7,0.9-9.1-4.2-10.4-10.2c-3.3-14.7-10.7-9.8-17.6-3c-9.7,9.7-16.3,22.9-33.3,23.2
	c-7.9,0.1-5.4,8.6-5.2,13.7c0.7,15.4,9.4,27.9,15.9,41c12.6,25.9,12.9,51.9,0.1,77.2c-6.2,12.3-7.1,20.7,6.2,27.5
	c9.7,5,6.8,9.2-1.4,12c-3.2,1.1-7.3,2.1-10.3,1.1c-26.8-8.5-54.2-2.5-81.1-2.7c-29.5-0.2-51.7-14.8-71.2-31.2
	c-25.4-21.3-55.7-35.2-80.3-55.4c-36-29.6-79.8-48.3-111.2-84.4c-38.5-44.3-45.7-95.2-37.7-150.2c2.2-15.2,6.5-30.3,11.5-44.9
	C65.4,28.7,161.1-10.6,245.2,30.2C252.1,33.6,258.7,37.6,268.2,42.9z"/>
</svg>
