<?xml version="1.0" encoding="utf-8"?>
<!-- Generator: Adobe Illustrator 24.0.0, SVG Export Plug-In . SVG Version: 6.00 Build 0)  -->
<svg version="1.1" id="Layer_1" xmlns="http://www.w3.org/2000/svg" xmlns:xlink="http://www.w3.org/1999/xlink" x="0px" y="0px"
	 viewBox="0 0 500 500" style="enable-background:new 0 0 500 500;" xml:space="preserve">
<path d="M137.4,461.5c-5.5,14.5-17.4,13.2-29.1,13.4c-10.4,0.2-12.8-8.3-17.8-14.3c-3.2-3.8-0.4-12.3-10.2-11.3
	c-3,0.3-2.5-6.8-3.9-10.4c-1.3-3.3-1.9-6.3-5.9-7.3c-1.5-0.4-3.3-1.5-4.1-2.9c-5.7-10.6-13-20-13.8-33.2c-0.6-11.6-1.3-24-9.8-33.8
	c-1.4-1.6-1.1-4-0.2-5.7c1.8-3.2,1.3-7.7,0.3-9.3c-5.7-8.9-1.6-16.1,2-24c6.7-14.5,11.3-30.1,9.8-45.9c-1.3-12.6-2.1-25.7-6.1-38.7
	c-3.1,4.9-5.9,9.2-8.8,13.6c-2.1,3.2-4.6,5.2-8.9,4.9c-5-0.4-2.1-4-3.2-5.9c-9.9-18.3,3.2-34.8,2.3-52.5c-0.7-2.4-1.8,2.5-4.3,0.8
	c0.2-5.9,4.2-11.7,2.2-17.9c-0.8-2.5,1.1-3.2,2.4-3.8c12.4-6.6,17.9-18.7,24.6-29.9c2-3.4,3.9-6.9,5.9-10.4
	c12.5-21.1,31.5-30.9,55.6-31.9c22.3-1,43.2,4.1,63.7,12.7c15.1,6.4,30,14.3,46.8,15.5c13.2,1,26.5,0.9,39.8,1.7
	c10,0.6,19.2,3.3,28,8.6c12.8,7.8,26.9,6.6,40.5,2.5c9.6-2.8,17.7-9,26.1-14.4c3.3-2.1,3.6-4.1,0.2-6.3c-5.7-3.6-8.7-9.7-13.4-14.2
	c-3.2-3-4.5-6.8-1.1-10.6c3.4-3.8,8.3-4.5,11.1-0.3c4.9,7.6,14.6,8.2,19.9,15c2.6,3.3,6.2-0.6,9.5-0.8c3.2-0.2,2-3.5,1.9-5.6
	c-2.1-25.5-13.4-44.9-37.7-55.3c-9.3-4-17.1-10.2-24.7-16.6c-2.2-1.9-3.7-4.3-4.8-7c-0.7-1.7-1.1-3.4,0.7-4.6c1.5-1,2.9,0.2,3.8,1.1
	c19,19.6,46.1,27,66.5,44.4c13.1,11.2,25.7,23.2,23.8,43.1c4.2-15.4,3.6-20.8-3.8-33.1c-2.2-3.7-0.2-4.7,2.8-4.9
	c4.5-0.2,9.1-0.2,13.7,0.2c11.1,1.1,22.1,0.2,33.6-1.2c-0.4,5.6-4.4,6.3-7.7,7.2c-5.8,1.6-11.9,3-17.7,1.8c-7.8-1.6-8.6,2.8-8.7,8.4
	c-0.1,8.3-0.1,16.5-0.3,24.8c-0.1,3.7,1.1,5.1,4.9,4.8c6.3-0.6,12.5,0.5,18.7,1.4c8,1.1,16.2,2.6,23.6-3.7
	c-0.8,7.1-5.5,9.5-10.6,10.7c-9.1,2.1-18.4,3.7-27.7,5.1c-4.4,0.6-6,2.4-5.3,6.7c1.6,10.8-0.7,20.2-7.7,29.1
	c-5.9,7.5-5.2,17.2-4.1,26.4c0.6,5.2,0.6,10.2-1.6,15.1c-5.4,11.9-17,12.8-25.6,3.3c-5.3-5.9-9.2-12.5-13.7-18.9
	c-2.3-3.2-4.1-3.4-6.4-0.3c-2.2,2.9-5.2,5.5-6.8,8.8c-9.9,21.1-29.2,33.4-44.8,49.2c-8.8,8.9-16.1,19.2-23.1,29.2
	c-5.9,8.4-3.2,21.2-0.1,31.6c4.9,16.4,6.6,33.4,10.5,49.9c2.2,9.2,2.6,19.1,5.9,28c5.9,16.2,17,29.2,28.6,41.6
	c2.4,2.6,2.4,5.6,1.8,7.7c-1.1,3.6-4.9,4.2-8.5,3.9c-20.6-1.6-20.5-1.6-29.3-21.8c-1.5-3.6-0.8-9.3-8.3-7.7c-2.4,0.5-3.5-5-3.3-7.9
	c1.2-15.4-3.2-30.2-7.3-44.4c-6.3-21.7-11.8-43.8-19.5-65.1c-1.1-3.2-3-4.6-6.2-4.6c-2,0-4-0.3-6-0.4c-14-1.3-14.3-1.3-12.6,12.5
	c2,16,1.4,31.6-2.4,47.4c-3.3,13.5,0.1,26,10.2,36.1c1.9,1.9,2.9,4,3.2,6.7c0.6,4.6,2.1,8.6,6.2,11.5c5.3,3.7,3.5,6.3-1.9,7.7
	c-8.6,2.3-17,0.7-25.4-1c-4.1-0.8-4.6-4.7-4.7-8.2c-0.1-5-0.4-9.5-5.5-12.4c-4.3-2.5-4-6.2-2.7-10.9c4.1-14.6,5-29.5,2.7-44.7
	c-2.3-14.7-2.1-29.7-7.1-44c-1.3-3.8-1.7-5.6-6.6-4.9c-11.1,1.6-22.5,2.1-33.6,3c-8.6,0.7-19.9,1.8-28.3-5.5
	c-4.4-3.8-8.1-2.6-11.8,2.5c-14.9,20.8-24.1,44.5-34.7,67.4c-0.9,2-1.2,4.4-1.3,6.6c-1,20,0.3,39.9,2,59.8
	c1.4,16.6,10,28.6,26.4,33.9C131.8,459.5,134.7,460.6,137.4,461.5z M74,385.6c-2.9-9.1-2.1-18.9-4.5-28c-1.4-5.5-1.5-10.7,1.3-15.1
	c8.3-13.1,13.1-27.7,17.9-42.2c0.7-2,2.7-4.5-0.3-6c-3-1.5-3.9,1.7-4.9,3.4c-6.8,11.6-12,23.9-15.5,36.9
	C63.2,352.3,67.5,369.1,74,385.6z"/>
</svg>
