<?xml version="1.0" encoding="utf-8"?>
<!-- Generator: Adobe Illustrator 24.0.0, SVG Export Plug-In . SVG Version: 6.00 Build 0)  -->
<svg version="1.1" id="Layer_1" xmlns="http://www.w3.org/2000/svg" xmlns:xlink="http://www.w3.org/1999/xlink" x="0px" y="0px"
	 viewBox="0 0 500 500" style="enable-background:new 0 0 500 500;" xml:space="preserve">
<path d="M300.1,204c12.4-4.7,21.5-11.7,32.8-12.9c2.8-0.3,5.5-1.3,8.3-1.5c19.8-1.1,23.4,4.1,15.9,22.2
	c-10.4,24.8-14.6,28.4-39,27.5c-12.9-0.5-20.6,0.7-23.9,16.6c-5.3,26-0.4,39.5,24.2,47.9c11.2,3.9,16.9,10.5,14.9,23.2
	c-5.8-3.6-10.8-6.8-16.1-9.8c-2.8-1.6-6.6-3.8-8.8-0.5c-2.3,3.4-0.3,7.2,2.9,9.7c6.6,5.2,14.4,9,18.5,16.9c1.3,2.5,2.1,5.1,3.4,8.3
	c-5.9,2-6.9-6.2-12.5-4.7c5.7,10.9,9.4,22.3,7,35.5c-5.8-2.9-5.9-11.7-13.6-12.5c1.7,10.3,3.7,20.4,2.1,31.1c-5-0.2-3.8-7.3-9.8-7.6
	c-6.9,10,4.2,24.2-7.1,34.5c-3.6-1.9-3.3-9.2-9.8-10c-0.4,10.7,2.7,22.9-7.8,31.6c-4-3.9-2-10.8-8-14.9
	c-11.1,8.6-9.8,21.5-10.2,34.1c-7.6-4.1-4.5-12.7-10.6-18.2c-2.3,11.1,2.3,23.3-8.7,32.9c0.2-14.4-2.2-26.9-7.8-39.6
	c-5.6,5.2-4.1,13.9-11.3,18.2c-2.2-9-4.5-18-6.7-27.1c-5,0.3-1,6.9-2.9,6.7c-3.1,0.3-4,0.4-4,0.3c-3.5-15.6-16.1-27.1-18.8-43
	c-6.8,2.8-3.8,9.4-7.4,14.7c-9.7-12-7.7-24.2-2.6-38c-11.7,4.6-14.8,15.1-21.9,24.1c-7.6-26.4,25.8-32.5,23.3-55.7
	c-12.1,3.2-15.4,14.8-23.4,23.9c-2.2-27.8,34.4-35.1,28.8-62.4c-7.7-1.6-9.5,6.4-15.7,9.3c2.1-12.5,11.3-18.3,19.6-24.8
	c22.2-17.4,23.6-23,11.5-48.4c-1.4-3-3.2-4.4-6.3-4.5c-2.8-0.2-5.6-0.2-8.4-0.2c-33,0-35.1-1.9-48.1-33c-4.8-11.4-0.1-14.2,9.6-15.2
	c15-1.6,28.8,2.2,41.8,9.3c1.9,1,3.9,2,8.6,4.2c-6.4-11.9-15.5-15.5-24.3-18.7c-22.9-8.4-46.9-12.8-70.8-17.4
	c-9-1.8-15.9-4.9-15.6-17.4c7.4,4.7,15,7.9,23.4,7.6c2.6-0.1,5.9,0.5,7.1-2.9c1-2.7-1.3-4.3-2.8-5.9c-11.7-12.3-23.7-24.5-42-25.9
	c-14.8-1.1-22-8.6-22.3-23.3c-0.2-7.4-3.2-14.7-1.5-23c9.1,6.8,4.9,20.9,12.1,25.4c7.5,4.7,18.8,3.4,30.1,5
	c-12.6-18.4-30.3-34.8-16.9-60c2.6,22.5,13,39.9,34.2,54.4c-6.8-17.2-15.3-30.8-7.3-48.9c7.5-16.8,17.7-27.2,36.2-34.7
	c-4.8,12.8-15.4,17.6-21.5,26c-6.6,9.1-6.6,18.9-2.1,29.4c5.6-5,7.9-11.8,11.5-17.7c2.7-4.5,5.3-9,10.5-10.9c2.9-1,6.5-3,9.2-0.2
	c2.4,2.5-0.2,5.3-1.4,7.5c-2.7,4.9-5,10.6-9,14.1c-13.5,11.8-12.6,26.3-9,41.3c5.3,22.2,12,43.7,36.3,53.1c2.1,0.8,4,2.5,7.1,0.5
	c-7.4-10.6-15.7-20.7-18.8-33.6c-1.1-4.4-3.8-10.4,0.4-13c4.3-2.7,8.5,2.3,11.8,5.4c8.8,8.3,12.3,19.7,17.2,30.3
	c1.6,3.4,2.9,6.9,4.6,10.2c2.3,4.1,5.2,9.6,10.3,7.7c6.2-2.3,1.9-7.9,0.9-12c-1.7-7.3-2.7-14.5-0.9-24.1
	c7.9,8.8,10.2,18.3,13.6,26.9c10.5,25.6,34.3,27.5,55.2,24.2c8.6-1.4,13.7-8,17.3-15.3c5.1-10.4,9.5-21.1,14.9-33.2
	c5.4,9,2.4,16.8,1.1,24.6c-0.6,3.8-4.1,9,0.9,11.1c5.4,2.3,8.4-3,10.4-7.2c4.3-8.8,7.8-18,12-26.9c4.5-9.4,10-18,21-21.2
	c3.7,14.3,1.7,19.7-19.2,50.3c29.9-9.8,53-49.6,46.4-80c-1.3-6.2-5.2-10.8-9.3-15.4c-6.2-6.9-12.4-14.1-13.4-24.9
	c21.1-1.4,20.9,19.8,31.9,29.2c13-26.3-14.4-35.5-25.1-55.4c19.7,8.4,29.8,18.7,37.8,35.1c9.2,18.7-1.8,31.9-3.6,48.3
	c7.2-7.8,16-14.7,21.1-23.7c5.1-9,6.6-20.1,10-31.5c13.2,26.4-4.6,42.6-17.2,61.1c10.6,0.2,20.7-1.9,29.2-4.4
	c8.5-2.5,3.1-17.7,12.2-25.3c1.6,12.3,0.6,23.9-3.2,35c-2.3,6.7-8.9,9.2-15.9,9.7c-19.4,1.3-32.3,13.7-44.8,26.6
	c-1.9,1.9-4.4,4.2-2.8,7.3c1.6,3,4.9,2.1,7.5,2.3c8.2,0.6,14.9-4.1,22.6-7.3c0.2,10.1-4,14.4-13.6,16.4
	c-21.9,4.6-43.7,10.2-65.3,16.3C319.4,186.5,308.1,190.9,300.1,204z"/>
</svg>
