<?xml version="1.0" encoding="utf-8"?>
<!-- Generator: Adobe Illustrator 24.0.0, SVG Export Plug-In . SVG Version: 6.00 Build 0)  -->
<svg version="1.1" id="Layer_1" xmlns="http://www.w3.org/2000/svg" xmlns:xlink="http://www.w3.org/1999/xlink" x="0px" y="0px"
	 viewBox="0 0 500 500" style="enable-background:new 0 0 500 500;" xml:space="preserve">
<path d="M358.9,359.4c-19.7,18.5-36,14.7-53.3-2.4c-4.4,35.3-10.8,67.1-2.8,99.7c1.9,7.6,6,16.7-8.5,17.3
	c-11.7,0.5-18.5-2.7-17.7-15.8c1.9-29.9-4.8-58.4-12.5-87c-2.8-10.4-6.8-14.9-17.4-15.8c-17.1-1.4-34.2-9.9-49.2,8
	c-6.3,7.6-12.9-9.2-22.9-3.9c-4.7,17.5-10,36.6-9,56.8c0.7,15.4,8,27.3,19.5,37c5.3,4.5,12.9,10.6,9,16.6c-4.7,7.3-15,3.7-22.6,2.3
	c-3.5-0.7-8.6-4.5-9.1-7.6c-5.4-29.7-30.1-52.3-30.5-83.7c-0.1-10.7-1.7-20.6-13.7-24.8c-11.3,28.6-17.3,30.5-37.3,11.2
	c-11.8,29.7-15.4,58.8-2.6,89c1.8,4.2,10.3,13.8-1.6,16.5c-9.6,2.2-20.9,3.2-23.9-11.7c-4-19.9,1.4-41.3-10.8-61.3
	c-8.9,5.4-9.7,20.4-25.8,20.3c14.7-23.9,4.7-46.5-1.1-69.3c-3.3-13-4.5-26.3,1.1-38.4c13.2-28.1,13.8-58.2,17-88
	c4.4-40.7,12.5-47.4,53.8-46c41.1,1.4,82.2,3.1,123.3,4.6c27.7,1.1,52.7-3.4,71.3-27.4c7.3-9.4,18.4-15.9,29.1-24.9
	c-21.8-11.5-9.8-19.1,4.6-26.7C297,95.6,279,88.7,280.2,65.7c1.1-20.3,13.6-31.7,33.6-40c-1,8.7-8.1,10.7-10.3,15.6
	c-4,8.7-8.7,17.7-2.9,27.3c5.6,9.5,15.6,9.1,23.9,7c24.4-6.2,49.1-3.3,73.7-4.6c12.4-0.7,24.6-0.1,36.7,3c12,3,23.6,2.8,30.9-9.2
	c7.4-12,2.4-22-10-34.1c17.8,3.2,26.5,12.2,29.9,23.6c4.1,13.6,1,27-11.1,37.1c-6.9,5.8-17.7,8.2-10.7,23.6c4.6,10-9.5,15.7-19,15.3
	c-14.9-0.6-17.1,6.8-16.4,18.8c1.5,24.8-6.8,49.3-6.4,73.4c1.2,67.1-24.7,128.3-37.1,192.4c-2.8,14.4-3.5,28.7,0,42.8
	c2.1,8.5,5.8,16-8.4,16.6c-11.7,0.5-19.3-2.3-17.9-15.4c1.9-17.1,3.3-34.1,2.3-51.2C360.3,393.2,359.8,378.8,358.9,359.4z
	 M43.8,359.5c4.3-21.4,1-41.6-8.3-64.9C23.9,320.9,33.8,340.2,43.8,359.5z"/>
</svg>
