<?xml version="1.0" encoding="utf-8"?>
<!-- Generator: Adobe Illustrator 24.0.0, SVG Export Plug-In . SVG Version: 6.00 Build 0)  -->
<svg version="1.1" id="Layer_1" xmlns="http://www.w3.org/2000/svg" xmlns:xlink="http://www.w3.org/1999/xlink" x="0px" y="0px"
	 viewBox="0 0 500 500" style="enable-background:new 0 0 500 500;" xml:space="preserve">
<path d="M254.8,369.4c8.1-10.9,8.1-10.9-2.8-15.2c-10.9-4.4-22.1-8-33.8-9.3c-6.2-0.7-10.3-2.9-11.7-8.9c-1.3-5.2-4.6-6.3-9.1-5.3
	c-39.3,9.1-74.7-5.6-110.6-17.8c-3.4-1.2-7.6-5.8-10.7-1.3c-2.6,3.8-0.1,8.6,2.8,12c7.4,8.7,14.4,17.7,18.2,28.7
	c0.8,2.4,3.9,4.7,1.6,7.3c-2.4,2.7-5,0-7.1-1.3c-4.4-2.6-6.9-1.6-7.8,3.4c-1.4,7.6-5,6.3-9.6-0.1c-1,8.6-2.4,14.5-9.4,6.1
	c-1.2-1.5-4-3.4-5.1-1.4c-7.8,14.2-7.1-4.4-9.1-3.4c-5.9,1.2-5.4,6.4-9.9,6.9c-1.7-8.6,1.8-16.5,3.4-24.4c1.6-8.1,0.2-14.8-5.5-20.3
	c-12.4-12-15.2-27.5-15.5-43.4c-0.2-10.5-1.8-20.6-7.9-28.6c-12.1-16-7.1-31.6-2.6-48.6c7.8-29,30.2-41.9,54.2-54.1
	c28.4-14.5,57.2-28.3,89.1-32.9c30.5-4.4,60.9-2.7,90.3,7.1c17,5.7,35.6,7.7,50.4,19.4c3.4,2.7,6.9,5.1,11,8.1
	c-7.4,4.6-14.7,4.9-22,4.5c-41-2.6-80.1,5.4-117.9,20.4c-7.4,3-16.1,4.5-20.4,12.7c7.2,3.8,15,5,23,5.6c4.7,0.3,9.5,0.8,14.1,0.2
	c20.1-2.5,38,3.4,56.1,11.7c15.5,7,32,8.1,45.3-6.5c12.2-13.3,27.6-19.5,45.5-20.7c11.2-0.7,21.4-5.5,31.9-8.9
	c8.6-2.8,16.8-1.6,22.3,4.7c16.9,19.3,38.4,21,61.6,18.9c16.7-1.5,32,1.6,42.6,16.9c3.8,5.5,3.8,8.3-3.1,9.6
	c-10,1.8-19.1,6-28.5,9.6c-14.9,5.7-30.5,3.1-45.9,2c-13.6-1-27.2-3.6-40.7,2.4c26.1-5.6,50.4,11.6,76.7,4.7
	c7.1-1.9,14.2-3.6,21.3-5.6c4.5-1.3,10.6-4.4,12.8,2.6c2,6.4,1.5,12.5-7.2,14.7c-11.4,2.9-23,4.9-34.7,5.2c-8.3,0.2-16,2.2-23.1,6
	c-5.5,2.9-11.1,4.7-17.3,4.4c-10.8-0.4-19.5,3.6-26.2,12.3c-4,5.2-8.8,9.9-13.4,15c5,1.9,9.9-2.1,15-1.6c1.6,0.2,3.6-0.1,4.4,1.8
	c0.8,2.1-0.8,2.9-2.5,3.4c-1.2,0.4-3.4,1.4-3.4,1.6c4.1,13.7-7.3,7-10.7,7c-18,0.2-33.5,9.3-50.4,13.4c-7.2,1.7-14.4,3.3-21.7,4.3
	c-6.8,0.9-6.3,3.4-2.8,7.5c5.7,6.8,13.4,11.1,20.4,16.3c12.1,9,12.2,8.9,11.9,22.6c-3.1,0.3-4.5-2.5-6.8-3.5c-2.3-1-3.9-3.9-7-2.8
	c-2.9,5.1,6.4,10.6,1.3,13.5c-4.4,2.5-9.4-3.7-13.9-6.4c-3.2-1.9-4.6-1.6-6.1,1.5c-1.5,3-3.2,5.9-5,8.7c-1,1.6-1.7,4-4.4,3
	c-2-0.7-1.6-2.7-1.8-4.3c-1.9-15.1-1.9-15.1-17-11.2C258.8,369.4,257.5,369.3,254.8,369.4z"/>
</svg>
