<?xml version="1.0" encoding="utf-8"?>
<!-- Generator: Adobe Illustrator 24.0.0, SVG Export Plug-In . SVG Version: 6.00 Build 0)  -->
<svg version="1.1" id="Layer_1" xmlns="http://www.w3.org/2000/svg" xmlns:xlink="http://www.w3.org/1999/xlink" x="0px" y="0px"
	 viewBox="0 0 500 500" style="enable-background:new 0 0 500 500;" xml:space="preserve">
<path d="M67.6,471.1c5.5-1.6,10.8-3.2,17.3-5.1c-4.8-4-10.7-5.9-8.4-13.4c0.5-1.7-6.7-5.7-10.3-8.6c-1.5-1.2-3.7-2.3-2.4-4.8
	c0.9-1.8,2.9-1.3,4.5-1.3c9.4-0.1,18.8,0.1,28.3,0c2.2,0,5.3,1.1,6.5-1.2c1.6-3-1.6-4.9-3.3-6.6c-6.6-6.8-11.7-14.7-16.3-22.9
	c-3.9-7-3-11.3,5.5-14.3c20-7.3,36.3-21.5,55.3-30.8c4.8-2.3,5.2-6.8,4.7-11.2c-0.6-6-2.2-11.9-5-17.3c-6.2-11.9-6.7-23.6,0.1-35.5
	c1.4-2.4,5.5-6.6-2.1-7.7c-28.9-4.1-55.2-25.5-55.5-68c-0.2-34.7,17-57.7,46.2-72.9c23.2-12.1,47.2-22.4,69.6-36
	c24.2-14.6,31.8-35.9,28-62.7C228.4,38,216,24.8,203.6,22c-11.1-2.5-21.8,1.7-28.4,10.8c-4.8,6.6-4.8,13.3,0.3,19.5
	c4.1,5,9.1,9.3,16.5,6.4c5.9-2.4,9.5-6.3,7.3-13.3c-2.1-6.7-6.7-7.7-12.7-5.5c-1.7,0.6-3.6,2.9-5.3,0.4c-1.6-2.4-0.2-4.3,1.6-6.1
	c7.9-8.5,25.8-4.7,29.4,6.3c3.3,10-0.2,21-8.6,26.9c-9.6,6.8-24.4,7.4-32.1,0.7c-8.2-7.2-16.3-15.5-14.1-27.4
	c2.6-14.3,11.1-25.5,25.3-30.2c28.1-9.5,57.5,8.6,62.9,38c6.5,35.3-8.3,65.6-42.5,85.9c-19.4,11.5-40.5,19.5-60.6,29.5
	c-28.3,14.1-42.8,43-34.1,69.7c6.7,20.7,21.4,36.2,54.9,26.1c9.6-2.9,19.4-5,29.2-7.3c35.9-8.5,69.8,3,104.2,9.9
	c9.8,2,19.8,3.5,29.7,5.2c5.4,0.9,9.5-1.7,13.8-4.6c15.3-10.3,31.8-11.3,49-5.2c2.9,1,6.6,2.3,6.1,5.7c-1.2,9.2,3.8,15.4,8.2,22.7
	c7.1,11.8,3.1,20.5-9.8,25.4c-1.9,0.7-3.9,1.6-5.1,3.1c-8.8,10.7-19.1,9.3-30,4.1c-6.9-3.3-10.5-2.6-10.5,6.3
	c0,13.1-2,26.1-4.7,38.9c-1.2,5.6-0.1,10.6,2.5,15.5c6,11.2,12.1,22.5,17.8,33.8c3,5.9,7.2,9.4,14.1,9.4c4.4,0,8.6,1,12.6,3.3
	c12.6,7.2,25.5,13.6,40.8,12.1c3.9-0.4,5.2,2.2,5.2,5.8c-0.1,13.8-0.2,27.6,0,41.4c0.1,7.9-5.3,7.1-10.4,7.1
	c-39.3,0-78.6,0.3-117.9,0.1c-67.9-0.3-135.7-0.9-203.6-1.4c-4.8,0-9.4,1.5-12.1-5.9c-1.3-3.6-9.9-4.3-15.1-6.7
	C73.9,476.4,69.7,475.6,67.6,471.1z M230.1,438.5c-0.8-4.4-2.9-5.2-4.5-6.1c-7.3-4.2-9.4-9.6-8-18.3c2.3-13.9,2.3-28.1,3.8-42.2
	c1-9.7-0.8-16.2-12.3-17c-3.7-0.3-7.7-2.7-10.8-5.1c-5.1-3.9-7.3-3.1-8.5,3.2c-4.5,23.5-20.9,35.8-42,43.1
	c-10.7,3.7-21.7,6.6-32.7,9.4c-6.4,1.7-7,4.3-2.5,8.8c9.3,9.4,20.1,17.2,32.8,20.4C173,441.3,201.2,437.6,230.1,438.5z M297.7,400
	c0.5,9.8,0.8,17.9,1.3,25.9c0.2,2.7,0.3,6.1,3.5,6.6c16,2.2,31.5,9,48.2,5.2c2.3-0.5,5.1-0.5,6.1-2.8c1.5-3.3-1.8-4.6-3.5-6.4
	c-3.3-3.4-7-6.3-10.1-9.8c-13.7-15.2-27.1-30.6-32.8-50.9c-0.7-2.4,0.5-6-3.2-6.5c-3.8-0.5-4.8,3-6,5.7
	C296.3,378.3,298,390.1,297.7,400z M281.9,338.7c-7.8-0.5-12.7-0.8-17.7-1.1c-5.1-0.3-10.2-0.5-15.9-0.7
	c9.8,25.1,10.5,30.9,5.1,46.6c-2.9,8.5-6.2,16.9-9.5,25.3c-5,12.8-0.9,20.6,13.1,21.1c9.1,0.3,17.5,1.3,27.2,8.4
	c-3-9.5-5.1-16.5-7.4-23.4c-3.9-12.1-8.8-23.9-10.9-36.5C263.3,362.8,270.4,350.7,281.9,338.7z"/>
</svg>
