<?xml version="1.0" encoding="utf-8"?>
<!-- Generator: Adobe Illustrator 24.0.0, SVG Export Plug-In . SVG Version: 6.00 Build 0)  -->
<svg version="1.1" id="Layer_1" xmlns="http://www.w3.org/2000/svg" xmlns:xlink="http://www.w3.org/1999/xlink" x="0px" y="0px"
	 viewBox="0 0 500 500" style="enable-background:new 0 0 500 500;" xml:space="preserve">
<path d="M44.5,200.3c-8.1,42.7-1.9,86.7-13.2,129c0.5-9,0.6-17.9-1.4-26.8c-0.5,7.8,0.5,15.7-0.5,23.5c-0.6,4.7-1.7,9.2-4.4,13.1
	c-0.8,1.2-1.8,3-4.1,2.1c-1.8-0.8-1.1-2.6-1.7-3.6c-3.6-5.9-0.7-12.3-1.8-18.6c-2.2,1.2-0.4,4.3-3.4,5.3c0.7-8.8,2.4-17.4,1.8-25.8
	c-1-14.3-0.1-28.5,5.1-41.5c7.6-19.1,8.7-38.6,8.9-58.6c0.1-21.8,5-42.2,22.4-57.2c13-11.1,29.1-16.2,45-21.3
	c23.4-7.5,46.4-5.6,69.4,2.7c32.5,11.7,65.8,16.3,100.6,14.4c21.9-1.2,43.5-4,65.3-5.5c3.5-0.2,6.4-0.8,8.8-4.6
	c2.7-4.2,8.6-4.1,13.2-5.6c1.5-0.5,6.2,1.7,2.8-3.2c0-0.1,1.2-1.4,2.1-1.7c5.4-1.6,10-3.8,12.8-9.4c0.7-1.4,5.6-1.2,8.4-0.7
	c3.2,0.5,4.4-1.2,6.7-2.9c7.4-5.7,4.3-10.4-0.4-15.4c-1-1-2.5-1.7-2.5-3.5c7.3-3.2,8.7,3.6,12,7.3c-0.3-5.4-4-8.5-7.1-12.1
	c-1.2-1.4-5.3-3.5-2.2-5.2c3.1-1.7,4.4-9.6,10.4-4c0.9,0.8,1.8,1.6,3.3,2.8c1.5-13.6-6.2-23.2-12.2-33.3c-2.2-3.8-5-7.3-7.2-11.1
	c-1.3-2.3-2.7-5.3,0.5-7.2c3-1.8,5.8-0.6,7.6,2.3c6.6,10.9,17.5,17,27,24.7c2.6,2.1,5.4,2.2,6.6,0.6c2.9-3.9,5-3.6,8.1-0.1
	c-0.2-2.3-0.4-4.6-0.6-6.8c3.1-0.6,0.9,8.3,6,2.6c1.9,2.9,2.9,7.2,2.5,9.4c-1.4,8,4.7,7.6,9.2,10.3c0.9-5.6,1.7-10.7,3.6-15.4
	c1.4-3.7,3-7.3,5.7-10.3c3.7-4,8-8.9,13.6-6.9c4.7,1.7,2.6,7.8,3.1,12c0.9,7.2-1.2,14-3,20.9c-4.3,16.2,3.5,29.8,11.1,43
	c3.8,6.5,5.1,12,1.5,19.2c-4.3,8.8-5.3,18.8-3.3,28.2c3.3,15.5,1.3,31.4,5.2,46.8c2.9,11.6-19.9,28.3-33.2,20.9
	c-3.4-1.9-5.3-5.1-6.5-8.6c-3.2-9.5-11.1-15.4-17-22.9c-1.8-2.2-3.4-1.7-4.5,0.4c-7.8,14.2-20.6,25.1-27.3,40
	c-4.7,10.5-8.1,21.6-11.7,32.5c-3.5,10.7-9.2,19.3-18.8,25.6c-16.4,10.7-21.8,27.3-24.4,45.7c-2.4,17-1.1,34.6-6.4,51.1
	c-4,12.3-2.1,24.3-1.7,36.4c0.4,11.7,3.4,22.4,12.5,31.3c5,4.9,7.4,12.5,10.5,19.1c1.6,3.4-0.8,5.4-4,5.2
	c-8.7-0.6-17.9,3.2-25.7-5.1c-3.1-3.3-9.4-1-14.3-1c-11.5-0.2-16-6.6-12.3-17.4c1.5-4.3-0.2-8.9-3.7-10.2c-8.9-3.3-6.2-10-5.3-15.8
	c1.8-11.6,3.9-23.3,6.9-34.7c1.9-7.3-0.9-14.3,0.3-21.4l1.6-17.8c-0.7-5.4-2-10.5,0.6-16.2c2.4-5.1,4.3-10.7,5.2-16.8
	c1.1-7.6-0.1-15,0.3-22.5c0.2-4.5-5.1-2.5-7.8-2.2c-14.2,1.3-28.4,2.9-42.5,4.8c-26.5,3.5-52.5,0.9-78.3-5.6
	c-9.7-2.4-17.6-7.4-24.1-14.8c-3.1-3.5-6.1-5-10.5-1.5c-5.1,4-9.9,3.4-13-3c-2.3-4.7-4.1-4.1-6.9-0.1
	c-11.5,16.7-21.2,34.2-28.6,53.1c-4.5,11.4-6.9,23.6-13.7,34.2c-4.1,6.5-2.2,14.5-1.7,21.7c1.1,14,2.7,27.9,4,41.9
	c0.2,2.2,0.2,4.6,2.2,6c5.3,3.5,6.2,9.8,9.5,14.3c5,6.6,1.7,14.1,4,20.8c0.8,2.4-2,2.3-3.6,2.3c-5.4,0-10.9,0.3-16.2-0.3
	c-8.1-0.9-10.4-4.8-9.7-12.9c0.5-5.6,1.6-11.2-5.2-15.4c-5.5-3.4-6.6-10.8-6.8-17c-0.6-26-6.5-51.2-11.9-76.4
	c-1.5-6.9-1.1-12.9,2.8-19c6.8-10.6,10.9-22.5,16.1-33.9c6.2-13.5,3.7-27.3,0.6-40.6C61.4,236.7,52.1,218.9,44.5,200.3z"/>
</svg>
