<?xml version="1.0" encoding="utf-8"?>
<!-- Generator: Adobe Illustrator 24.0.0, SVG Export Plug-In . SVG Version: 6.00 Build 0)  -->
<svg version="1.1" id="Layer_1" xmlns="http://www.w3.org/2000/svg" xmlns:xlink="http://www.w3.org/1999/xlink" x="0px" y="0px"
	 viewBox="0 0 500 500" style="enable-background:new 0 0 500 500;" xml:space="preserve">
<g>
	<path d="M384.3,397.1c-10.9,0.5-21.6-0.9-32.3-2.7c-27.5-4.6-44.8-20.1-52.9-46.8c-7.3-24-10.6-48.9-15.5-73.4
		c-2.5-12.4-6.2-24.5-8.1-37c-5.9-38.3,20.1-71.8,58.8-74.3c49.7-3.2,92.6,14.6,130.3,45.9c8.7,7.3,10.6,18.1,11.2,28.8
		c1.5,24.8-3.9,48.8-9.9,72.6c-4,16-9.1,31.7-14.6,47.3c-7.8,22.2-29.4,38.5-53,39.6C393.6,397.2,389,397.1,384.3,397.1z"/>
	<path d="M118.1,443.6c-25.3,2.4-44.9-4.7-60.7-21.9c-2.9-3.1-5-6.4-6.4-10.4c-11.1-31.7-21.1-63.6-25.5-97.1
		c-1.9-14.1-2.6-28.3,0.7-42.4c1.6-6.7,4.6-12.7,10-17.1c36.7-29.9,78.2-47.1,126-45.4c43.1,1.5,71.6,39.3,61,81.2
		c-8.1,31.8-11.1,64.6-20.1,96.1c-0.7,2.5-1.3,5-2.1,7.4c-10.7,32.6-31,47.2-68.7,49.5C126.9,443.9,121.4,443.6,118.1,443.6z"/>
	<path d="M182.7,182.8c0.4-9.2,2.6-18.1,8.4-25.7c6.8-9,16.8-9.2,24.3-0.8c11.3,12.8,8.4,42.4-5.2,52.8c-5.6,4.2-11.7,4-17.6-1.1
		C185.1,201.4,182.9,192.6,182.7,182.8z"/>
	<path d="M277.3,133.1c0-10.4,2-18.5,8.5-25c7.1-7,15.8-6.6,22.3,1c9.5,11.2,11.9,31.6,5.1,44.5c-3.3,6.2-7.8,11-15.5,11.1
		c-7.3,0.1-11-4.9-14.2-10.4C279.4,147.3,277.4,139.6,277.3,133.1z"/>
	<path d="M331.4,127.1c0.1-8.3,2.9-15.7,8.1-22.1c6.3-7.7,13.7-7.8,20.5-0.7c10.4,10.8,11.3,30.3,1.8,42c-7.1,8.7-16.1,9-23.7,0.7
		C333.5,142.1,331.2,135.2,331.4,127.1z"/>
	<path d="M131.5,173.1c0.4-9.4,3.3-17.7,10.8-23.9c5.4-4.5,10.7-4.2,16,0.5c10.3,9.2,13.6,27.9,6.8,39.9c-3.3,5.9-8,10.4-15.2,10.4
		c-7-0.1-11.1-4.9-14.2-10.5C132.7,184.4,131.3,179,131.5,173.1z"/>
	<path d="M414,140.2c-0.4-6.2,0.2-12.4,2-18.4c2.5-8.3,8.7-10.7,16.3-6.7c16.2,8.7,20.8,34.3,8.7,47.9c-3.8,4.2-8.5,6.8-14.4,5.9
		c-6.2-1-9-5.6-10.7-11C413.9,152.1,413.6,146.2,414,140.2z"/>
	<path d="M47.4,215.3c-0.3,6-0.5,12.2-2.7,18.1c-4.1,11-14.8,13.4-23.4,5.3c-13.8-13-8.8-42.1,8.6-49.7c7-3.1,12.1-0.9,14.7,6.2
		C47,201.6,46.7,208.4,47.4,215.3z"/>
	<path d="M86.3,188.2c-0.2,6.2-0.5,13-3.2,19.2c-3.9,8.9-12.6,11.4-20.4,5.7c-10-7.3-12-17.9-9.9-29.1c1.9-10.5,7.3-19.3,18.3-23.2
		c6.2-2.2,10,0.9,12.2,6.3C85.9,173.6,85.7,180.7,86.3,188.2z"/>
	<path d="M452.8,169.1c-0.2-7.7,0.2-14.4,2.6-20.8c2.7-7.2,7.6-9.3,14.7-6.2c17.8,7.6,22.6,37.7,8,50.2c-8.7,7.5-18.8,4.9-22.9-5.9
		C452.9,180.5,452.5,174.4,452.8,169.1z"/>
	<path d="M91.1,176.4c-0.1-7.4,1.1-14.5,5-20.8c5.2-8.6,13.8-9.3,20.6-1.9c8.9,9.6,11.1,32.7,4.2,43.9c-4.6,7.5-14.3,8.5-21.3,2
		C92.9,193.4,90.8,185.3,91.1,176.4z"/>
	<path d="M374.8,132.1c0-8.5,1.9-16.5,6.9-23.4c6.9-9.7,17.6-9.2,22.8,1.4c5.5,11.4,6.6,23.3,1.3,35.2c-3.6,8.2-10.4,12.4-17.5,11.6
		c-8.7-1-10.8-7.8-12.4-14.8C375.2,138.9,375.2,135.4,374.8,132.1z"/>
	<path d="M309.2,64.7c-1,10.1-2,17.9-2.6,25.8c-0.5,5.4-3.9,6.3-8.1,5.5c-4.8-0.9-4-4.5-2.9-7.8C298.2,80.1,302.7,73.1,309.2,64.7z"
		/>
	<path d="M78.4,120.5c-1,9.8-2.1,17.9-2.7,26.1c-0.3,5.2-3.6,5.7-7.4,5.4c-4.9-0.4-4.7-3.8-3.7-7.3C67.1,136,72.2,128.8,78.4,120.5z
		"/>
	<path d="M115.4,108c-1,9.5-2,17.3-2.5,25.2c-0.3,5.4-3.7,6.5-7.8,5.9c-4.6-0.7-4.4-4.1-3.3-7.7C104.4,123.1,109,115.9,115.4,108z"
		/>
	<path d="M421.4,73.6c6.8,8.4,11,15.5,13.7,23.3c1.1,3.1,1.9,7.2-2.9,8.1c-4,0.8-7.5,0.1-7.9-5.6C423.9,91.5,422.6,83.6,421.4,73.6z
		"/>
	<path d="M384.3,60.9c6.7,8.4,11.4,15.4,13.8,23.6c0.9,3.1,1.6,7.3-3.3,7.8c-3.9,0.4-7.3-0.4-7.6-6.1
		C387,78.5,385.5,70.9,384.3,60.9z"/>
	<path d="M461.8,101.8c6.5,6.1,10.8,13.2,13.4,21.2c1,3.1,1.4,6.5-2.9,7.2c-3.5,0.6-7.5,0.8-8-4.5
		C463.5,117.7,462.6,109.7,461.8,101.8z"/>
	<path d="M38.4,148.3c-1,8.1-2.3,16.1-2.8,24.2c-0.3,5.1-3.8,4.9-7,4.9c-4.4,0-4.9-3.3-4-6.6C26.8,162,31.9,154.8,38.4,148.3z"/>
	<path d="M190.6,111.6c6.5,8.1,11,15.2,13.7,23.3c1.1,3.3,2.1,7.6-3.6,8.1c-4.4,0.4-7.1-0.9-7.2-6.3
		C193.1,129,191.7,121.4,190.6,111.6z"/>
	<path d="M148.9,104.7c3.4,8.7,4.3,17,4.5,25.5c0.1,4.5-2.5,5-5.9,5c-4.2,0.1-5.7-2.3-4.9-5.9C144.5,121,146.8,112.8,148.9,104.7z"
		/>
	<path d="M349.7,55.9c4,9.8,5.8,18.2,7.7,26.6c0.8,3.7-1.1,5.8-5.1,5.8c-3.6,0-6-1-5.7-5.3C347.2,74.6,347.2,66.1,349.7,55.9z"/>
</g>
</svg>
