<?xml version="1.0" encoding="utf-8"?>
<!-- Generator: Adobe Illustrator 24.0.0, SVG Export Plug-In . SVG Version: 6.00 Build 0)  -->
<svg version="1.1" id="Layer_1" xmlns="http://www.w3.org/2000/svg" xmlns:xlink="http://www.w3.org/1999/xlink" x="0px" y="0px"
	 viewBox="0 0 500 500" style="enable-background:new 0 0 500 500;" xml:space="preserve">
<path d="M489.8,272.6c-13.1-10.5-24.9-22.1-32-37.4c-6.9-14.7-12.9-29.7-20.2-44.5c-2.9,24-13.4,45.1-21.7,66.9
	c-4,10.4-0.5,21,4.4,28.5c8.2,12.4,5.5,23.7,2.7,36c-4.1,17.9-7.4,36-11.3,54c-2,9.4-11.8,16.3-12.2,27.7c-0.1,3.8-20.3,4-22.6,0.3
	c-1.8-2.8-0.1-5.4,1.7-7.4c15-17.7,17-39.9,22.2-61.2c2.5-10.4,1-20.3-4.4-28.7c-12.5-19.6-23.3-40.2-35.4-60
	c-6.7-11.1-7.3-11-17.1-3.1c-21.5,17.3-46.5,18.6-72.2,15.8c-14.7-1.6-29.3-4.2-43.9-6.4c-11.9-1.7-15.9,1-15.9,13
	c0,13-1,26,1.2,38.9c1.5,8.9,1.9,18,0.6,27.1c-1.8,12.7,0.1,25.3,2.7,37.8c1.4,6.7,1,12.6-4.7,17.2c-3.8,3.1-4.1,7-2.8,11.5
	c2.3,7.7-0.9,10.8-8.6,10.3c-2.7-0.2-5.4,0-8.2,0c-0.6,0-1.2-0.1-1.8,0c-7,1-5.6-4.7-7.8-8.3c-1.9-3.2-8.8,0.5-12.5-3
	c-1.2-1.1-0.1-2.8,0.9-4c16.6-19.3,17-42,13.5-65.5c-3.4-22.3-5.4-45-15.3-65.8c-2-4.2-4.1-7.8-7.9-10.7c-5-3.9-9.9-8.3-12.1-14.4
	c-3.7-10.3-10.9-17.2-19.8-22.6c-9.8-5.9-19.8-11.6-29.6-17.4c-2.6-1.5-4.6-1.9-7.1,0.8c-10.3,11.6-14.9,26.8-25.2,38.4
	c-1.4,1.6-1.4,4.2-0.6,6.1c3.3,7.8-1.2,13.9-6.3,17.2c-5.2,3.3-12.6,3.1-18.8-0.7c-8-5-12.2-12.5-13.7-21.4
	c-1.5-9-1.1-18.1,1.5-26.9c2.6-8.9,3.4-18.1,0.6-26.8c-3.6-11.3-2.6-22.3,1.8-32.7c3.2-7.7,2.2-11.6-5.9-13.6
	c-7-1.8-10.8-7.3-14.4-13c-1.6-2.5-2.4-5-0.7-7.6c1.7-2.5,4.5-2.9,7.3-2.6c2.7,0.3,5.4,0.8,8,1.5c6.6,1.9,11.4,1.7,11.2-7.3
	c-0.1-4.8,4.1-3.5,5.8-2.2c8.2,6.1,8.9,2.3,6.9-5c3.2-1.7,3.8,1.3,5.5,2.2c3,1.6,4.9,1.2,4.4-2.5c-1.1-7.4,1.9-6.3,7.2-4.5
	c4.1,1.4,9.5,3.2,12.1-3.5c0.8-2.2,3.7-1.4,5.8-1.6c9.1-0.9,18,1.1,26.7,3.2c3.8,0.9,6.6,2.3,9.7-0.8c3.3-3.2,4.4-0.7,5.7,2.1
	c3.5,7.7,11,9,18.1,10.8c2.7,0.7,4.5-1.2,6.4-2.7c1.5-1.2,3.6-1.8,4.6,0.4c4.1,8.3,9.9,6.4,16.3,3.2c3.1-1.6,5.6-3.3,8.9,1.4
	c2.5,3.6,8.5,0.5,12.9,0.8c10.7,0.9,22.3-1.2,31.3,6.9c6.9,6.3,14.9,9.9,23.8,12.3c24.5,6.6,48.6,1.4,72.8-2.4c11-1.7,21.8-5,32.7-7
	c23.4-4.3,42.3,6.6,60.1,19.5c16.4,11.9,26.3,28.8,32.2,48c3.3,10.8,7.6,21,15.8,29.1c1.3,1.2,2.2,2.9,3.2,4.4
	C476.9,236.5,482.7,254.7,489.8,272.6z"/>
</svg>
