<?xml version="1.0" encoding="utf-8"?>
<!-- Generator: Adobe Illustrator 24.0.0, SVG Export Plug-In . SVG Version: 6.00 Build 0)  -->
<svg version="1.1" id="Layer_1" xmlns="http://www.w3.org/2000/svg" xmlns:xlink="http://www.w3.org/1999/xlink" x="0px" y="0px"
	 viewBox="0 0 500 500" style="enable-background:new 0 0 500 500;" xml:space="preserve">
<path d="M102.6,329.9c-4.6,2.2-6.8,5.4-9.1,8.5c-10.9,14.9-20.6,30.6-29.3,46.9c-6.1,11.4-9.2,23.7-4.3,36.7c1.5,4,3.4,7.6,6.8,10.5
	c2.5,2.1,4.7,4.8,6.4,7.6c2,3.2,0.6,6.1-3.3,6.4c-7.5,0.7-14.9,1.7-22.5,1.4c-6.2-0.3-8-1.6-9.1-7.7c-1.9-9.9-2.3-19.8-1.3-29.8
	c0.7-6.9,0.8-13.8-0.3-20.8c-1.6-9.7,0.2-18.9,6.2-26.7c9.1-11.6,12.6-24.8,11.8-39.1c-0.9-17.3,0.9-34.5,0.5-51.7
	c-0.4-18.8,4.9-35.8,14.5-51.6c3.3-5.4,6.5-10.8,9.9-16.5c-5.1-2.9-9.9-5.5-14.4-8.4c-11.8-7.6-22.3-16.7-29.4-29.1
	c-8.2-14.2-7.5-29,2.9-41.4c9.8-11.6,21-21.7,33.3-30.7c1-0.7,2-1.3,3.1-1.9c2.4-1.3,5.1-3.4,7.5-1.6c3,2.3,1.2,5.7,0.1,8.4
	c-1.5,3.9-3.5,7.7-5.6,11.4c-5.4,9.2-12,17.4-19.3,25.2c-9.7,10.4-9.3,18.3,1.7,27.8c11.4,9.8,25.2,15.4,38.5,21.9
	c2.5,1.2,4.7,0.1,7-0.5c33.6-9,67.7-12.4,102.5-9.8c16.6,1.2,33.2,2.1,49.9,0.8c7.6-0.6,15-2,22.2-4.2c15.4-4.8,27.4-14,35.2-28.2
	c3.8-6.9,7-14.1,10.2-21.2c5.5-12.3,11.9-23.9,24-31.1c3.9-2.3,4.3-6.4,4.8-10.3c0.9-7.8,1.6-15.6,2.4-23.9
	c6.5,1.5,7.9,7.6,11.3,12.8c1.7-5,3.1-9.1,4.7-13.2c0.9-2.2,1.7-5.4,4.3-5.3c3.3,0.2,3.5,3.9,4,6.3c1,5,1.5,10.2,2.1,15.3
	c1,8.7,1.9,9.7,10.5,9.9c12.4,0.2,22.2,5.8,29.6,15.2c3.2,4.1,6.5,5.7,11.4,5.6c7.6-0.1,15.1,0.2,22.7,0.1c5.2-0.1,9.8,1,12.4,5.9
	c2.4,4.5,0.4,8.8-2,12.8c-3.3,5.4-8.2,8.8-13.8,11.3c-1.3,0.6-3.1,0.5-3.8,3c2.9,1.5,6,3.1,9,4.7c3.5,1.9,3.6,4.5,1.5,7.5
	c-3.2,4.4-7.7,6.8-12.7,8.3c-5.2,1.6-10.6,2.4-16.1,2c-8.3-0.6-13.7,3.6-17.6,10.4c-2.9,5-5,10.4-6.9,15.8
	c-2.5,7.1-4.9,14.3-7.5,21.4c-2.5,6.8-5.2,13.7-9.8,19.4c-10.8,13.4-17.5,29-22.8,45.1c-4.9,15.3-14.6,24.9-30.1,28.3
	c-8.4,1.8-11.9,6.8-13.5,14.7c-3.9,19.6-6,39.5-7,59.4c-0.4,8,0.8,15.7,5,22.7c3.1,5.2,7,8.7,13.9,8.3c5.6-0.4,13,8,12.9,13.9
	c0,2.6-1.8,3.7-4.1,3.9c-5.7,0.7-11.3,1.4-17.1,2c0.1,3.4,2.9,3.7,4.8,4.8c2.8,1.8,5.9,3,8.7,4.8c2.9,1.9,5.2,4.6,4.4,8.3
	c-0.8,3.6-4.4,3.6-7.3,4.2c-7.1,1.7-14.4,1.7-21.7,1.5c-8-0.2-11.4-6.1-13.7-12.6c-1.9-5.4-3.2-11-5.2-16.4
	c-1.5-4.2-3.1-8.6-8.8-9.3c-3.2-0.4-3.3-3.2-2.8-5.7c4-24-1.6-47.5-3.2-71.3c-0.4-5.5-3.1-7-8-7.6c-15.3-2-30.4-5.2-45.1-10
	c-11.6-3.8-22.3-8.9-31.8-16.9c-12.9-10.8-30.3-5.5-35.5,10.4c-0.8,2.3-1.6,4.6-2.9,6.6c-7.7,12.3-15.3,24.7-24.1,36.2
	c-2.4,3.1-4.7,6.5-7.8,8.8c-5.1,3.9-7,8.9-7.2,14.9c-0.3,10.6-1,21.2,3.6,31.2c2.4,5.2,5.4,10.1,10.3,13.6c2.4,1.7,4.6,4,6.3,6.4
	c2.4,3.5,1.5,6.6-2.4,7.9c-7.4,2.6-15.2,3.6-23,4.5c-3.5,0.4-5.7-1.6-6.8-4.8c-5.1-15.5-10.3-30.9-15.3-46.5
	c-2.5-7.8-1.5-15.6,1.3-23.1c2.4-6.5,5.3-12.9,7.7-19.4C102.9,340.9,104.9,336.1,102.6,329.9z"/>
</svg>
