<?xml version="1.0" encoding="utf-8"?>
<!-- Generator: Adobe Illustrator 24.0.0, SVG Export Plug-In . SVG Version: 6.00 Build 0)  -->
<svg version="1.1" id="Layer_1" xmlns="http://www.w3.org/2000/svg" xmlns:xlink="http://www.w3.org/1999/xlink" x="0px" y="0px"
	 viewBox="0 0 500 500" style="enable-background:new 0 0 500 500;" xml:space="preserve">
<g>
	<path d="M79.8,361.5c0-33.2,0.1-66.4-0.1-99.6c0-6.7,1.4-12.5,4.7-18.4c16.8-29.5,33.3-59.2,49.7-89c2.6-4.7,5.9-8.3,10.7-10.7
		c32-16,64-31.9,95.7-48.4c6.5-3.4,11.7-3.2,18,0.1c31,16,62.1,31.8,93.3,47.4c6.1,3,10.3,7.3,13.5,13.2
		c16.5,29.6,33.3,59.2,50,88.7c2.8,5,4,10.2,4,16c-0.1,66.4-0.3,132.9,0.2,199.3c0.1,11.7-3,15.3-15.1,14.8
		c-24.1-1.1-48.3-0.6-72.5-0.3c-6.9,0.1-12.3-1.8-17.6-6.2c-19.1-16.2-38.7-31.7-57.6-48.1c-5.9-5.1-9.4-4.8-15.1,0.2
		c-18.5,16.1-37.7,31.5-56.4,47.5c-5.6,4.8-11.3,6.9-18.7,6.8c-25-0.3-50.1-0.6-75,0.2c-10,0.3-12.4-3-12.3-12.5
		c0.5-33.6,0.2-67.3,0.2-100.9C79.7,361.5,79.8,361.5,79.8,361.5z M284.1,220.4c0.3-35.7,0.3-35.7-33-35.6c-0.4,0-0.9,0-1.3,0
		c-32.8,0-32.9,0-32.6,32.3c0.1,10.6-4.6,24.5,1.8,31.1c7,7.3,21.2,2.3,32.2,2.4c10.2,0.1,23.1,4.5,30.1-1.7
		C289.3,242.2,282.1,228.8,284.1,220.4z M321.5,330.6c-49.1,0-94.4,0-142.9,0c23.8,19.8,45.4,37.6,66.7,55.6
		c3.6,3.1,6.1,1.5,8.8-0.7C275.7,367.8,297.4,350.2,321.5,330.6z M176.3,450c19.3-16.2,36.1-30.3,52.9-44.3c2.6-2.2,4.3-4.4,0.9-7.3
		c-17.3-14.4-34.6-28.7-53.8-44.6C176.3,386.7,176.3,416.6,176.3,450z M322.4,353.7c-19,16-35.4,29.9-52,43.6
		c-4.6,3.8-4.2,6,0.4,9.7c14.8,11.9,29.1,24.3,43.8,36.4c1.8,1.5,3.7,4.2,6.6,2.4c2.2-1.4,1.2-3.9,1.2-5.9
		C322.4,412.3,322.4,384.8,322.4,353.7z"/>
	<path d="M478.8,233.5c-1,9.6-5.4,16-13.5,18.3c-9.7,2.8-17.8,0-23-9.4c-11.7-21-25.4-41.2-34.9-63.2c-15-34.6-38.4-58-73.8-71.8
		c-25.6-10-49.6-23.9-73.9-36.9c-7.5-4-13.1-3.4-20.3,0.3c-36.8,18.9-73.7,37.5-110.7,55.9c-6.9,3.4-11.6,7.9-15.4,14.7
		c-18,32.8-36.5,65.3-54.9,97.9C51.3,251.9,41.2,256,31,250.9c-10.4-5.3-12.9-16.9-5.6-30c20.5-36.8,41.3-73.5,61.8-110.3
		c2.8-5.1,6.2-9.2,11.4-11.8c46.9-23.6,93.8-47.2,140.6-71.1c6.9-3.5,13.3-3.4,19.7-0.1c47.7,24.1,95.3,48.3,142.9,72.4
		c4.7,2.4,8.4,6,11,10.7c20.4,36.8,40.9,73.7,61.2,110.6C476.2,225.3,477.4,230,478.8,233.5z"/>
</g>
</svg>
