<?xml version="1.0" encoding="utf-8"?>
<!-- Generator: Adobe Illustrator 24.0.0, SVG Export Plug-In . SVG Version: 6.00 Build 0)  -->
<svg version="1.1" id="Layer_1" xmlns="http://www.w3.org/2000/svg" xmlns:xlink="http://www.w3.org/1999/xlink" x="0px" y="0px"
	 viewBox="0 0 500 500" style="enable-background:new 0 0 500 500;" xml:space="preserve">
<path d="M490.2,213.9c-0.1,17.5-1.8,34.6-8.6,51.2c-13.6,33-62,32.9-81.3,12.4c-14.3-15.2-23.4-33.3-31.5-52.2
	c-2.1-5-3.4-13.8-8.3-13.4c-5.7,0.4-4.1,9.4-6,14.5c-8.5,23-5.4,46.6-2,69.8c4.5,30.7-1.2,57.9-21.3,81.8
	c-4.8,5.8-9.7,10.6-17.8,8.8c-7.1-1.6-9.3-7.8-13.3-13.2c-9.3-12.6-1.9-20.1,4.8-29.1c13-17.4,13.4-31.3,1-49
	c-10-14.3-21.7-27.3-34.6-39.2c-3-2.7-6.1-4.5-10-2.8c-19.5,8.2-40.1,7.4-60.5,7.7c-7.3,0.1-9.6,1.5-6.8,9.2
	c8.4,22.8,9.6,47.2,15.2,70.7c4,17-11.2,29.4-27.7,24.2c-3.9-1.2-4.2-3.9-4.2-7c0-4.9-1.9-11.3,4.3-13.2c9.2-2.8,7.1-7.6,4.1-13.5
	c-8.9-17.6-17.4-35.5-26.7-52.9c-6.9-13-17.5-13.4-26.9-1.6c-19.6,24.7-39,49.6-58.5,74.4c-5.7,7.2-11.7,13.8-21.5,15.4
	c-4.7,0.8-9.2,0.9-13.8-1c-4.5-1.8-9.6-2.8-8.1-9.3c1.3-5.6,2.8-11.6,10-12.1c9.5-0.6,15.2-6.1,19.7-13.7
	c10.7-18.3,19.5-37.5,28.6-56.6c6.9-14.5,6.6-30,5.6-45.5c-0.8-12.2-11.1-13.9-19.5-17.3c-3.7-1.5-8-1.2-11.8-2.5
	c-7.3-2.7-10.5,0.7-12.3,7.1c-1.2,4.3-2.3,10.9-6.5,10.8c-6.2,0-12.5-3.9-13.9-11.1c-0.9-4.5-3.3-7.1-6.9-9.2
	c-13.4-7.9-17-19.8-9.6-33c4.6-8.2,9.7-16.1,11.9-25.4c1.1-4.8,4.9-7.9,8.6-10.8c8.1-6.4,10.9-19.7,26.3-16.9
	c5.7,1.1,12.5-4.8,19.2,1.2c1.9,1.7,6.5,0.7,9.8,0.5c14.1-1.1,28.1-2.4,42.2-3.6c9.8-0.9,19.4-1.2,28.6,3.4
	c19.7,9.8,40.7,7,61.4,5.3c20.8-1.7,40.5-9.2,61.2-11.9c21-2.7,42.3-5.2,62.4,4.6c21.5,10.5,32.1,29.5,38.6,51.5
	c5.9,20,6.7,41,12,61.2c6,22.5,19.9,33,43,33.1c12.7,0.1,20.9-6.5,27-16.4c7.9-12.9,10.8-27.3,10-42.5c-0.3-5.5-3.6-9.3-7.1-12.9
	c-4.7-4.9-9.2-9.8-12.6-15.6c-1.9-3.4-3-7,0.1-10.3c2.8-2.9,6.2-3.8,10.1-2.2c14.6,6.1,23.8,12.3,24.2,30.7
	C490.3,202.5,490.2,208.2,490.2,213.9z"/>
</svg>
