<?xml version="1.0" encoding="utf-8"?>
<!-- Generator: Adobe Illustrator 24.0.0, SVG Export Plug-In . SVG Version: 6.00 Build 0)  -->
<svg version="1.1" id="Layer_1" xmlns="http://www.w3.org/2000/svg" xmlns:xlink="http://www.w3.org/1999/xlink" x="0px" y="0px"
	 viewBox="0 0 500 500" style="enable-background:new 0 0 500 500;" xml:space="preserve">
<path d="M338.2,101.2c0.9-0.2,1,1.1,2.1,1c1.2-0.5-0.6-1.8,0.4-2.4c1.4,0.5,1,2.5,2.7,3c1-1.1,0-2.6,0.6-3.7c1.1,0.3,0.7,2,2.3,2
	c-0.8-2.9-0.4-5.5,1.6-7.9c1.2,1.3,1,3.6,2.1,4.6c1.9,1.4,0.7-3.8,3.1-0.7c0.5,0.6,1-0.2,0.9-0.8c-0.4-2.7-0.3-5.3-0.1-8.4
	c1.6,2.9,1.6,2.9,2.4,2.8c0,0,2.3,0.3,2.6,0.3c-0.1-2.2-1.1-4.3-0.3-6.5c1.4-0.4,1,1.3,1.9,1.4c1.8-2.4,1.9-4.8,1.3-7.8
	c-2-10.2,0.8-19.7,5.2-28.8c2.4-4.9,5.4-9.4,8.2-14c0.5-0.9,1.2-1.7,1.9-2.5c1-1.1,2-0.8,2.4,0.5c0.8,2.1,1.2,4.4,1.3,6.6
	c0.3,4.5,0.6,9,0.9,14.6c4.3-6.5,6.1-13.9,13.7-17.8c-0.9,10.6-2.3,20.2-2.5,29.9c-0.2,9.4-2.1,18.7-0.2,28.3
	c3.1,0.5,6.5,0.8,9.8,1.5c10.2,2.1,19.4,6.3,27.8,12.4c5.1,3.7,10.3,7.4,15.4,11.1c7.5,5.5,15.4,10.5,24.1,14.1
	c2.4,1,4.4,2.5,5.8,4.8c0.9,1.5,2,3,3.3,4.3c2.1,2.1,3.2,4.7,3.9,7.5c1,4.3,0.9,8.7,0.8,13c-0.1,2.9-4.1,7.6-6.8,7.7
	c-2.4,0-4.8-0.9-7.1-2.1c-3-1.6-6.1-3.2-9.2-4.7c-1.5-0.7-3-1.8-4.5-0.2c-1.6,1.6-2.9,3.5-2.8,6c0,1.1,1,1.4,1.8,1.8
	c1.6,0.8,3.2,1.8,4.9,2.1c2.7,0.6,3.8,2.4,4.7,4.6c1.1,2.5,0.5,4.2-2.2,4.6c-2,0.3-3.2,1.1-4,3c-0.7,1.6-2.3,2.4-3.9,2.9
	c-3.1,1.1-6.3,2.1-9.5,2.8c-3.4,0.7-6.6-1.6-7.1-5.3c-0.3-2.6-1.5-3.7-3.9-4c-5.4-0.8-10.5-2.7-15.5-4.7c-6.7-2.6-13.6-3.9-20.8-2.8
	c-2.3,0.4-4.5-0.1-6.6-1c-1.6-0.6-2.7-0.1-4.2,0.5c-6.7,2.5-10.1,7.7-12.4,14c-3.9,10.6-8.5,20.9-11.9,31.6
	c-0.6,1.8-1.1,3.8-3.2,4.6c-0.6,0.2-1,0.6-1.2,1.2c-1.3,4.3-4.2,7.9-5.3,12.4c-1,4.2-3,8.1-4.6,12.2c-0.3,0.8-0.8,1.6-1,2.5
	c-0.8,2.8-1.8,5.2-3.8,7.5c-3.8,4.4-5.1,10-6,15.6c-2,11.3-6,21.5-14.8,29.5c-1.8,1.6-2.5,4.1-3.1,6.4c-1.7,6.9-4.4,13.6-5.4,20.8
	c-1,6.5-1,13.1-2,19.5c-1,6.9-0.2,13.8,0.1,20.6c0.3,7.9-1.5,15.5-1.3,23.3c0.1,6,0.3,12,1.4,18c0.6,3.3,1.4,6.4,3.6,9.2
	c1.9,2.5,3.2,5.5,3.5,8.7c0.2,1.9,0.8,3.1,2.5,3.9c2.8,1.3,4.4,3.5,5.3,6.4c0.8,2.6,1.9,5.1,2.6,7.7c1.2,4.4,0.2,6-4.4,7.1
	c-0.3,0.1-0.6,0.1-0.9,0.2c-1.6,0.4-3.5,0.3-4.8,1.2c-1.5,0.9-0.1,2.8-0.3,4.2c-0.4,2.1-1.7,3.1-3.5,3.7c-2.6,1-5.3,1.1-8,1.3
	c-3,0.2-6-0.1-9-0.4c-5.5-0.6-8.8-4-9.4-9.6c-0.4-3.9-0.4-4-4.4-5.1c-1-0.3-1.7-0.9-1.7-1.8c0-2.4-1.1-4.3-2.1-6.3
	c-0.3-0.7-0.4-1.5-0.5-2.2c-0.5-13.2-1.9-26.4-1.5-39.6c0.1-3.8-0.4-7.5-1-11.2c-1-6.7-3.2-13.4-1.6-20.3c1.2-5.1-1.3-9.9-1.9-14.9
	c-0.8-6.9-3.6-13.2-5.6-19.8c-1.2-3.9-3.4-7.3-4.7-11.2c-1-3.1-2.4-6.1-3.6-9.2c-0.3-0.8-0.8-1.7-1.5-1.3c-2,1.2-4.1-0.4-6.1,0.4
	c-1.5,0.5-3.4,1.2-5-0.2c-0.2-0.2-0.6-0.4-0.8-0.3c-4.7,1.5-9.5-0.6-14.2,0.8c-2.6,0.7-5.3,0.4-8,0.4c-2.8,0-5.7-0.1-8.6,1
	c-3.2,1.3-6.9,0.7-10.4,0.7c-0.6,0-1.2-0.6-1.7-0.4c-5.7,1.8-11.6,0.4-17.4,1.2c-7.3,1-14.7-0.2-22-1.1c-1.7-0.2-3.2-0.3-4.9,0.1
	c-10.4,2.9-20.9,5.8-31.3,8.7c-1.5,0.4-2.5,1.4-3.7,2.2c-4.1,2.8-6,7.5-10,10.4c-4.6,3.2-6.9,8.7-11.3,12.2c-1.3,1-2.3,2.4-3.8,3.1
	c-0.5,0.2-1.2,0.6-1.4,1.1c-2.6,4.9-5.4,9.6-6.6,15.2c-2.4,10.7-1.4,21.5-1.8,32.3c-0.1,4,0.4,8,0.5,12c0.1,6.4,2.8,12.3,7.5,16.8
	c2.8,2.7,5,5.5,6.7,8.9c1.7,3.5,4,6.7,5.7,10.3c3.4,7,1.7,9.7-6.1,10.1c-4.2,0.2-8.4,0.3-12.6-0.3c-5-0.6-8-3.5-8.7-8.4
	c-0.4-2.9-0.6-5-4.4-5.5c-2.1-0.2-3.7-2.8-4.2-5.4c-2.5-2-2.8-5.1-2.2-7.7c0.8-3.7,0.6-7.4,1.2-11.1c0.7-4.7,0.6-9.5-0.8-13.9
	c-1.2-3.4-0.9-6.7-1.3-10c-0.1-1.2-0.2-2.5-0.6-3.5c-1.5-3.9-1.9-8.1-3.1-12c-1.1-3.9-2-7.7-1.7-11.8c0-0.4-0.4-0.7-0.7-1.2
	c-2.4,3.3-4.1,8.9-4.2,14.5c-0.1,8.6-0.3,17.2-0.1,25.7c0.1,4.9-0.7,10,2,14.5c0.2,0.4,0.2,0.9,0.2,1.3c-0.8,7.6,4.5,11.4,9.5,15.4
	c0.5,0.4,1.1,0.1,1.7-0.2c-1.1,1.3-1.9,2.2-0.2,4.1c4.2,4.7,5.7,10.8,7.4,16.7c0.6,2.1-0.8,3.7-3,4.4c-7.2,2.2-14.3,2.2-21.1-1.1
	c-3.2-1.6-4.8-4.9-5.5-8.4c-0.2-1.2-0.4-2.4-0.6-3.6c-0.3-1.4-1-2.8-2.5-2.9c-3-0.3-3.8-2.6-4.8-4.8c-1.9-4.6-3.4-9.2-2-14.4
	c0.7-2.4,0.5-5.1,0.7-7.6c0.1-0.7,0.2-1.7-0.1-2.2c-2.4-3.4-1.5-7.3-1.4-10.9c0.2-7-1.2-13.8-2.3-20.6c-1-6.4-2-12.7-2.5-19.2
	c-0.1-2,0-4.2,1.4-5.5c3.3-3.1,3.7-8.1,7.8-10.6c-1.6-0.7-3.5-1.8-1.1-3c4.8-2.3,5.4-6.2,5.1-10.8c-0.2-2,1.2-3.7,1.8-5.5
	c0.6-2,1.5-4.1-0.9-5.6c-0.6-0.4-0.9-0.9-0.5-1.4c2.5-3.2,0.2-6.4-0.2-9.5c-0.9-5.9-2.5-11.8-4-17.6c-0.9-3.4-3.1-6.5-3.3-10.2
	c-0.4-7.6-2.3-14.8-4-22.2c-0.4-1.6-0.8-3.1-1.4-5.3c-1.6,3.5-1.3,6.5-1.7,9.5c-1,7.8-1.1,15.5,1.4,23.2c1.4,4.1,1.6,8.6,0.3,12.9
	c-0.4,1.2-0.3,2.4-0.1,3.5c0.9,5.1,0.9,10.1,0,15.2c-0.8,4.6,0.4,9.4-1.1,13.9c-2.8,8.7-2.2,17.9-4.7,26.5c-0.3,1,0,2.1-0.2,3.1
	c-0.4,2.5,0.7,5.4-2.2,7.2c-0.2,0.1-0.2,0.6-0.2,0.9c0.1,5.8-3.9,10.2-5.1,15.6c0,0.1-0.2,0.1-0.4,0.1c-1-0.8-0.6-1.9-0.5-2.9
	c0.1-3.8-0.2-7.5-0.2-11.2c0.1-10.6-2.4-20.9-4.1-31.2c-1-5.9-0.2-12-0.2-18c0-2.4,1.3-4.9-1.4-7.1c-1-0.8,0.3-2.5,0.5-3.8
	c0.2-1,2.4-2.8-0.9-3.1c-0.8-0.1-0.4-1.3-0.2-1.9c0.6-1.6,1.2-3.1,1.8-4.6c2.9-7.1,5.6-14.2,8.6-21.2c3.1-7.3,4.5-15.1,5.1-22.8
	c0.7-8.2,1-16.5-0.3-24.8c-1.3-8.1-0.9-15.9,2.6-23.8c2.3-5.3,5.5-9.1,9.7-12.6c4.7-4,9.5-7.8,14.6-11.3c3-2,5.5-5,8.5-7.3
	c10.8-8.4,23.6-12.5,36.5-16.1c9-2.5,18.2-1.9,27.4-1.4c2.9,0.2,5.3,1.9,8.2,2.4c7.9,1.3,15.9,1.2,23.9,1.3
	c14.8,0.2,29.5,0.6,44.2-1.4c8.6-1.2,17.3-2.4,25.9-3.6c1.2-0.2,2.3-0.8,3.3-1.3c2-1.1,4.2-1.5,6.5-1.7c1.9-0.2,4.1,0.6,5.6-1.7
	c0.6-0.9,2.3-0.5,3.4-0.3c1.9,0.4,3.8,0.8,5.7,1.2c1,0.2,2.2,0.6,3-0.3c1.4-1.5,3.2-1.5,5-1.4c0.6,0,1.2-0.2,1.2-1
	c0-1-1.3-0.5-1.6-1.3c3-1.1,6-2.3,9.4-2.5c-0.6-1.9-2.6-0.9-3.4-2.1c1.6-1.6,3.6-1.3,5.5-1.4c1.5-0.1,2.1-2.5,4.1-1.5
	c0-1.4-1.2-1.6-1.6-2.4c1.8-1.2,3.4,1.1,5.1,0.2c0.1-1.2-1.2-1.2-1.6-2.1c1.2-1.3,2.3,0.9,3.5,0.1c0-1.3-1.5-1.6-1.9-2.7
	c1.4-0.9,2.4,1.2,4,0.4c-1.1-1-2-1.9-3.2-3.1c2.1,0,3.2,1.4,4.8,1.7c0.2-1.4-1.4-1.6-1.5-2.6c3-3.5,4.7,1,7.4,1.3
	c0.1-1.5-1.6-2.3-1.7-3.7c1.8,0.2,2.7,2.2,4.9,1.9c-0.2-2.4-2.5-3.6-3.3-5.6c1-1.3,3,0.7,2.9,0.1c-0.2-3.8,1.9-1.3,2.7-1
	c2,0.9,3.4,0,5-1.1c-0.6-1.2-1.2-2.4-1.7-3.7c-0.3-0.7-0.6-1.5,0.2-2c0.7-0.4,1.5-0.2,2.1,0.3c0.9,0.7,1.4,1.8,2.6,2.1
	c1-1.3-0.8-2-0.1-3.2c1.6,0.5,1.9,2.6,3.8,3c0.2-2.2-1.9-3.4-2.1-5.6c1.2,0,1.7,1.6,2.9,1.3c0.2-1.3-0.9-2.2-1.2-3.3
	c-0.2-0.6,0-1.2,0.6-1.6c0.8-0.6,1.1,0.2,1.4,0.6c1.5,2,1.8,0.8,2-1c1.3,1.1,2.5,2.2,4.2,3.7c0.3-2.3-1.4-3.2-1.8-5.3
	c1.9,2,3.3,0.1,4.9-0.1c3.1-0.4,3.5-1.9,2-4.9c-0.2-0.4-0.6-0.7-0.2-1.2c0.6-0.4,1.5,0.5,1.5,0.3c1.4-3.8,3.5-1,6.3,0
	c-2.5-3.1-0.8-5.7-1.4-8.3c3,0.7,4.1,3.2,5.8,5.8c0.2-3.3-1.8-5.6-1.1-8.2l-0.1,0c1.6,0,0.8,2.6,2.6,2.4
	C340,104.3,337.7,103.2,338.2,101.2L338.2,101.2z"/>
</svg>
