<?xml version="1.0" encoding="utf-8"?>
<!-- Generator: Adobe Illustrator 24.0.0, SVG Export Plug-In . SVG Version: 6.00 Build 0)  -->
<svg version="1.1" id="Layer_1" xmlns="http://www.w3.org/2000/svg" xmlns:xlink="http://www.w3.org/1999/xlink" x="0px" y="0px"
	 viewBox="0 0 500 500" style="enable-background:new 0 0 500 500;" xml:space="preserve">
<g>
	<path d="M426.6,321c6.5,6.6,14.6,6.8,21.4,9.7c-1.6,5.6-5.8,4.1-8.8,4.2c-10.6,0.2-21.2-0.3-31.8,0c-6.2,0.2-8.6-1.7-11-8
		c-5.3-13.6-12.6-26.4-26.7-33.6c-8.1-4.1-11.1-11.5-10.6-20.7c0.8-13.2,5.5-24.8,12.2-36c2.5-4.1,6.1-5.1,10-6.4
		c6.7-2.3,13.2-4.8,19.9-7.1c6.1-2,9.1-5.6,10.7-12.4c6-24.9,36.8-33.9,55.9-16.9c2.8,2.5,4.6,5.7,4.5,9.3c-0.6,20,3.4,39.6,5,59.4
		c1.7,20.8-7,32.6-28.3,41.2C440.2,307.5,431.6,311,426.6,321z M411.2,321.5c3.8-1.7,7.7-3.5,7.8-8.3c0.1-3.7-2.7-4.6-6-4.2
		c-4.2,0.5-8.5,1.2-7.3,7C406.2,318.7,407.7,321.3,411.2,321.5z"/>
	<path d="M268,333.9c-17.8,0-35,0-53.8,0c3.3-23.3-7.8-41.6-19.1-59.8c-11.2-18.1-6.2-34.8,14.5-49.3c3.8-2.7,7.9-5.2,12.2-7.1
		c11.6-5.2,18.8-12.6,18.9-26.6c0.1-12.9,9-19.8,20.6-23.2c12.3-3.6,25.1-5.8,33.9,6.1c4.1,5.6,12.3,5.7,14.3,11.4
		c2.5,7.2-8.2,7.2-9.6,13.2c-3.1,12.9-10.1,24.4-8.2,39.1c2.7,20.4-5.4,43.8-35.5,54c-6.3,2.2-12,5.1-15.9,10.5
		c-8.9,12-3.9,24.3,10.8,27c2.9,0.5,5.8,0.6,8.8,0.9C262.6,330.3,265.7,329.4,268,333.9z"/>
	<path d="M159.8,213.7c-17.8,7.6-19.4,21.6-19.8,36c0,1.8-0.5,3.5-0.3,5.3c2.3,23.8-8.9,37.3-31.4,44.1c-19,5.7-18.1,8.4-4.8,25.3
		c4.2,5.3,11.3,4.8,16.5,9.3c-21.9,0-43.8,0-65.9,0c3.9-14.5,1.8-21.1-10.4-29.5c-11.9-8.3-16.2-21.6-20.5-33.8
		c-2.7-7.4,3.9-16.5,9.7-23.3c7-8.2,15.5-14.5,26.1-17.3c16.4-4.4,28.7-13.7,38.8-27.6c12.9-17.6,31.5-17.7,45.5-1.7
		C147.2,205,151.8,208.3,159.8,213.7z M92.7,327.4c-3-6.7-7.7-11.1-12.1-15.6c-3.5-3.5-7.8-2-11.6-0.8c-3.4,1-3.7,4.3-3.1,7.3
		c0.9,4,1.8,8.4,7,8.9C79,327.9,85.2,330.5,92.7,327.4z"/>
</g>
</svg>
