<?xml version="1.0" encoding="utf-8"?>
<!-- Generator: Adobe Illustrator 24.0.0, SVG Export Plug-In . SVG Version: 6.00 Build 0)  -->
<svg version="1.1" id="Layer_1" xmlns="http://www.w3.org/2000/svg" xmlns:xlink="http://www.w3.org/1999/xlink" x="0px" y="0px"
	 viewBox="0 0 500 500" style="enable-background:new 0 0 500 500;" xml:space="preserve">
<path d="M306.1,299.3c-3.3,3.9-4.3,8.4-4.5,13.2c-0.4,8.7,1.2,17.4-0.6,26.2c-0.9,4.3,1.9,8,4.8,11.3c2.4,2.7,4.7,5.5,6.7,8.5
	c3.8,5.4,2.8,9-4.2,10c-12,1.7-24.1,2-36.2,0.8c-5.7-0.5-9.3-3.3-9.7-9.8c-0.7-9.9-2.7-19.5-1-29.7c1.7-10.5-3.9-19.9-7.6-29.4
	c-1.9-4.8-5.6-2.5-8.4-1.5c-10.5,3.8-21.1,7.1-32.1,9.3c-25,5.2-49.3,2.1-72.9-7c-6.4-2.5-7.4-0.8-8.4,5.1
	c-2,11.5-0.1,21.5,7.9,30.2c1.8,2,3.5,4.2,5,6.4c5.2,7.5,3.8,11.1-5.2,11.8c-11.1,0.9-22.3,1.2-33.5,1.6c-3.7,0.1-7.4-0.4-7.7,5.1
	c-0.2,3.9-3.2,4.6-6.4,4.9c-15.4,1.3-30.8,0.9-46.2,0c-9-0.5-14.1-7.8-12.8-18.3c2.3-19.3,2.4-38.6,2.9-57.9
	c0.4-14-5.5-26.2-10.3-40.5c-4.9,7.9-7.3,15.7-14.5,19.2c-2.3-1.2-2-2.8-1.2-4c7.3-10.8,8.1-23.1,8.4-35.6c0.3-14.2,2-28.2,7.4-41.6
	c8.8-22.1,27.9-32.1,47.3-42.5c30.6-16.4,63.3-16.5,96.3-13.4c29.5,2.8,59.1,5.7,88.6,2.9c32.6-3.1,63.2,2.3,92,17.6
	c5.4,2.9,11.2,4.1,17.2,5.1c11.9,2,23.8,4.6,34.4,10.8c6.1,3.6,11.5,4.9,17-0.7c1.5-1.5,3.6-2.5,5.8-1.2c2.1,1.3,2.1,3.7,1.6,5.7
	c-2.5,10.3,4,16.6,10.5,22.2c6.5,5.5,10.2,12,12.7,20.1c4.2,13.6,9.1,25.9,26.2,30.1c15.7,3.9,20.4,27.1,9.7,40.1
	c-8.9,10.8-35.9,19.2-49,14.8c-7.5-2.5-15.4-5.2-20.6-10.9c-7-7.7-15.2-11.1-25.2-12.2c-8.8-0.9-16.9-4.1-24.9-7.8
	c-8.3-3.9-10-2.6-10.1,6.3c0,2.7,0.3,6-1.1,7.9c-7.6,11.2-4.1,24.7-7.6,36.7c-1.3,4.5,1.2,8.8,3.8,12.6c1.4,2,3.3,3.6,4.7,5.5
	c3,3.8,7.2,7.9,4.8,12.8c-2.4,5-8.1,2.5-12.4,2.5c-8.8,0.1-17.5-0.5-26.3-0.1c-8,0.4-11.4-3.4-12.7-10.8
	C306.1,327.8,307.4,313.6,306.1,299.3z M87.5,297.2c-6.1,10.5-4.9,21.7-6.7,32.5c-0.4,2.4,1.2,5.2,2.2,7.7c0.3,0.8,1.8,1.6,2.8,1.6
	c1.4,0.1,1.8-1.3,1.8-2.6C87.5,323.4,87.5,310.3,87.5,297.2z"/>
</svg>
