<?xml version="1.0" encoding="utf-8"?>
<!-- Generator: Adobe Illustrator 24.0.0, SVG Export Plug-In . SVG Version: 6.00 Build 0)  -->
<svg version="1.1" id="Layer_1" xmlns="http://www.w3.org/2000/svg" xmlns:xlink="http://www.w3.org/1999/xlink" x="0px" y="0px"
	 viewBox="0 0 500 500" style="enable-background:new 0 0 500 500;" xml:space="preserve">
<path d="M348.8,322c18.8-6.8,37.6-13,54.9-23.2c16.9-9.9,34.1-19.4,50-31.4c-13.9-1.3-27.7-0.9-41,2.5c-29.6,7.7-59.7,8.4-89.9,7.1
	c-8.2-0.4-16.2-2.9-24.6-2.4c-3.3,0.2-6.6-0.3-4.4,5.1c1.8,4.5-1.8,6.8-5.1,8c-11.8,4.1-23.7,8-36.6,5.6c-3.9-0.7-7.6,0.5-11.1,1.8
	c-1.7,0.6-2.8,1.2-4.8,0.2c-4.3-2-9.8-2.3-10-8.9c-0.2-6.1,5-5.9,8.5-7.8c1.2-0.6,2.2-1.5,3.9-2.6c-5.1-2.2-9.9-2.3-14.6-3
	c-12.3-1.9-24.9-3.1-36.2-9.1c-7.2-3.8-12.7-9.8-18.9-14.9c-1.7-1.3-3.3-3.7-5.3-0.4c-4.7,7.9-12.2,11.5-20.6,13.7
	c-5.3,1.4-10.1,3.1-7,10.3c0.6,1.3,0.7,3.3-1.4,3.9c-1.7,0.5-2.2-1-2.8-2.2c-0.6-1.2-1.5-2.2-2.2-3.4c-2.4-3.7-4.6-6-6.6,0.3
	c-0.6,1.9-2.1,4-4.4,3.2c-2.7-0.9-1.2-3.3-0.9-5.1c0.1-1.1,0.7-2.3-0.9-2.6c-1.5-0.3-1.9,0.9-2,2c-0.2,2.1-1.2,3.9-2.6,5.3
	c-2.7,2.8-6.4,2.9-9.3,1.2c-3.1-1.8,0.7-3.8,1.2-5.6c2.4-9.1,10.2-14.4,15.9-21.2c1.1-1.3,3.3-2.2,2.5-4.3c-0.7-1.9-2.8-1-4.2-1.1
	c-11.2-1.5-21.9-3.9-31.5-10.4c-6.2-4.2-13.3-5.6-21-5.8c-14.7-0.3-29.5,1.1-44.2-1.1c-6.7-1-11.7-4.6-11.8-10
	c-0.1-4.8,5.6-10.2,11.7-10.7c17-1.4,31.9-8.1,46.8-16c8.6-4.6,18.7-6.3,29.4-4.2c9,1.8,19.2,2.7,27.8-0.8c7-2.9,15.4,1.5,21.3-4.9
	c0.3-0.3,1.5-0.2,1.9,0.1c6,5.7,12.5,1.8,18.4,0.5c7.6-1.7,15.3,0.1,23.1-2.6c4.5-1.5,10.8,1,16.6,0.8c6.8-0.3,13.9,0.3,20.8,0.8
	c14.2,1,27.2,5.5,40.4,10.1c6.4,2.2,12.9,3.1,19.8,1.2c9.2-2.5,17.9,0,23.6,7.3c6.4,8.1,15.4,10.3,24.1,13.6c1.6,0.6,2.5-0.3,3.6-1
	c1.4-0.9,3.7-1.7,4.3-0.6c4.8,8.5,14,2.3,20,6.2c4.1-6.2,11.5,4,15.5-3.1c4.4,5,10.9-0.6,15.5,3c1.5,1.2,2.6,1.7,4,0.5
	c2.9-2.6,5.9-3,9.2-0.9c1.3,0.8,2.6,0.6,3.7-0.5c2.7-2.7,5.1-5.5,8.3-0.3c1.1,1.8,2.8-0.1,4.1-0.7c3.3-1.5,6.4-3.9,8.5,1.7
	c0.8,2.2,2.5,0.6,3.8-0.2c3.2-2,6.4-4.5,9.2,0.9c1.4,2.7,3.1,0,4.3-0.7c1.8-1,4.5-2.5,5.3-0.6c2.5,5.7,6.3,3.2,10,2.4
	c1.3-0.3,3.7-0.7,3.7,0.2c0.2,7.6,4.5,2.5,7.1,2.5c2.1,0,6-1.8,3.1,3.3c-1.1,1.9,0.5,2.1,2,1.8c5.6-1.3,8,3.3,7.8,6.6
	c-0.2,3.9,4.5,8.6-1.4,12.4c-1.9,1.2-0.6,5.1,0.6,7.6c6.3,13.3,2.1,24.3-7.6,33.9c-8.2,8.1-17.6,14.1-28.6,18.1
	c-20.4,7.3-41.5,12.5-62.5,17.7C375.7,324.5,362.3,322.9,348.8,322z"
	  style="fill:white"/>
</svg>
