<?xml version="1.0" encoding="utf-8"?>
<!-- Generator: Adobe Illustrator 24.0.0, SVG Export Plug-In . SVG Version: 6.00 Build 0)  -->
<svg version="1.1" id="Layer_1" xmlns="http://www.w3.org/2000/svg" xmlns:xlink="http://www.w3.org/1999/xlink" x="0px" y="0px"
	 viewBox="0 0 500 500" style="enable-background:new 0 0 500 500;" xml:space="preserve">
<path d="M152.4,243.8c4.8-5.7,11-7,16.7-9c11.3-4.1,23.1-6.2,33.8-12.8c11.4-6.9,24.8-3.4,36.7-0.4c12.6,3.2,23.2,0.6,29.7-9.5
	c15.8-25,38.5-44.2,55.3-68.3c5.1-7.3,8.7-15.4,12.2-23.6c11.6-26.9,29.5-48.7,54.5-65.8c1.7,11.3-10.2,15.5-11.1,25.6
	c4.8-1.7,7.7-4.6,10.1-7.9c10.4-14.5,19.5-29.7,25.6-46.6c1-2.8,0.1-9,5.3-7.1c3.8,1.4,5.5,6.7,3.2,11.1c-6,12.1-11.5,24.5-20.1,35
	c-1.2,1.5-3.1,2.6-3,5c4.2,2.8,6.7-0.8,9.3-2.8c9.2-7,15.4-16.2,18.7-27.2c2.4-8.3,5.9-16.1,10.2-23.5c1.3-2.3,2.8-5.1,5.9-4.1
	c3.3,1.1,2.3,4.5,2.1,6.9c-0.7,8.9-5.9,16-10.7,23c-4.6,6.8-10.3,12.8-15.6,19.1c-1.2,1.5-3.1,3.1-1.6,5.1c1.9,2.6,4.3,1,6-0.4
	c8.2-6.7,14.8-15,21.6-23.1c7.5-8.9,14.6-18.3,22-27.6c2.5,8.6,0.2,13.5-12.4,28.9c-6.8,8.3-15.5,14.6-24.2,22.6
	c7.1,2.3,10.9-1.5,14.7-4c6.9-4.6,12.7-10.4,18.5-16.4c2.9-3.1,6.3-5.8,9.7-8.4c1.7-1.3,4.1-3.2,6.2-1.3c2.6,2.4-0.4,4.2-1.7,5.7
	c-6.9,7.5-13.5,15.4-21.8,21.4c-2.6,1.9-5.7,3.2-7.4,7.3c5.5,1.2,8.2-2.7,11.6-4.4c3.2-1.6,6.1-3.8,9.4-5.5c2.4-1.2,5.3-1.8,6.9,1.2
	c1.7,3.2,0,5.8-2.8,7.4c-2.9,1.6-6,2.8-8.8,4.4c-3.7,2-6.2,4.8-5.9,9.4c0.3,5.2,4.6,4.8,7.8,5.9c2.6,1,6.8,0.7,6.7,4.5
	c-0.1,3.8-3.9,3.7-6.9,4c-4.4,0.4-7.1,3-8.6,7.1c2.7,2.2,8.3,0.5,8.5,5.3c0.2,3.8-3.3,6.3-6.3,8.4c-5.4,3.8-10,8.1-12.8,13.9
	c3.4,3.3,5.9-1.7,8.8,0.3c-1,5.7-5.3,9-9,12.6c-7.9,7.6-15.4,14.9-17.1,27c-1,7.1-9.2,10.8-14.4,15.8c-2.9,2.7-5.9,5.2-9.7,8.4
	c11.8,2.6,7.5,7.3,2.3,12.1c-2.9,2.7-6.1,5.1-8.8,7.9c-1.5,1.6-3.9,4.6-3.3,5.6c6.4,11.3-3.1,10.4-8.7,11
	c-11.3,1.2-13.8,10.6-19.3,18.1c5.6,2.4,14.2-3.5,15.6,6.8c0.1,0.7,4.2,0.9,6.5,1.2c16.2,2.1,32.3-1,48.4-0.3
	c4.6,0.2,9.2,0.4,13.7,1.2c4.8,0.9,7.4,0.3,6.3,9.1c-1,7.7-6.2,15.2-4.9,21c2.3,10.5,0,14.6-9.8,16.4c-2.8,0.5-2.5,3.5-3.4,5.6
	c-4.3,10.8-9.6,14.1-21.3,13c-3-0.3-7.1-3.4-7.2,3.6c0,2.4-3.9,1.4-6,1.5c-13.5,0.8-25.1-3.9-35.5-12.3c-4-3.2-7.8-7-13.9-6.1
	c-3.1,0.5-5-2.5-7.3-4.4c-4.2-3.4-5.7-14-14.7-6.2c-0.2,0.2-0.7,0.2-1,0.1c-2.6-1.5-1.4-9.5-6.1-5.7c-4.5,3.6-7.9,10.5-7,16.8
	c1.9,13.6-12.3,17.5-15.6,28.1c-1.1,3.6-8.3,3.7-12.8,2.4c-5-1.5-6.5,1-8.9,4.7c-6.4,10.2-14.8,18.9-23.4,27.6
	c-9.1,9.2-18,17.8-30.5,22.1c-2.2,0.7-3.2,4.7-4.8,7.2c-1.8,2.8-3.9,7.4-6.9,6.1c-9.5-4-10.4,3.8-14,8.7
	c-4.5,6.3-9.9,11.8-18.8,10.2c-5.4-0.9-7.5,3.5-10.2,6.3c-5.3,5.5-10.3,11.4-19.1,10.2c-2.9-0.4-3.9,2.1-5.3,3.8
	c-3.9,4.5-9.2,6.2-14.6,7.7c-1.5,0.4-3.6,0.5-4.7-0.3c-8-6-11.9-5.2-17.3,4.4c-2.2,4-3.2,8.9-7.1,11.7c-1.9,1.4-4.3,4-6.9,1.6
	c-2-1.8-0.4-4.2,0.4-6.4c1.3-3.4,6.1-8.1,2.8-10c-4.8-2.7-6.3,4.2-8.9,7.1c-5.9,6.7-12.3,12.9-19.5,18.2c-2.7,2-5.9,6.7-9,2.9
	c-2.6-3.3,2.1-6.3,4.5-8.8c5.9-6.2,12.3-11.9,17.9-18.5c2.9-3.4,9.2-8.4,4.5-12.1c-4.6-3.7-6.9,4.1-9.6,7.2
	c-10.6,12-23,21.8-36.6,29.9c-2.9,1.7-6.1,4.1-10.5,0.9c15.2-12.5,30.8-23.9,44.7-37.2c1-0.9,2.1-1.7,2.9-2.6
	c1.6-1.9,5.1-3.8,2.8-6.4c-2.6-3-5.4-0.3-7.5,1.8c-12.5,12.5-27.1,22-43,29.6c-5.2,2.5-10.4,5.3-18.1,3.8
	c6.6-7.2,14.6-10.2,21.8-14.3c14-7.9,29.1-14.3,39-27.9c1.3-1.8,5.2-3.7,2-6.4c-2.3-1.9-4.1,0.9-5.7,2.4
	c-10.9,9.7-22.8,17.9-35.4,25.1c-6.6,3.8-13.5,5.8-23.8,4.1c27.7-13.9,53.8-26,73.6-47.5c-11.2,1.8-17.6,13-29.3,13.7
	c18.9-11.3,34.4-27.4,53.4-38.4c14.1-8.1,27-17.3,35.1-32.3c6.2-11.4,16.5-19.7,26.3-28c16.9-14.3,29.6-31.7,40.6-50.6
	c2.7-4.7,4.2-8.6-3.5-9.3c-0.6-0.1-1.4-0.2-1.9-0.6C195.3,248.7,174.9,244,152.4,243.8z"
	  style="fill:white"/>
</svg>
