<?xml version="1.0" encoding="utf-8"?>
<!-- Generator: Adobe Illustrator 24.0.0, SVG Export Plug-In . SVG Version: 6.00 Build 0)  -->
<svg version="1.1" id="Layer_1" xmlns="http://www.w3.org/2000/svg" xmlns:xlink="http://www.w3.org/1999/xlink" x="0px" y="0px"
	 viewBox="0 0 500 500" style="enable-background:new 0 0 500 500;" xml:space="preserve">
<path d="M218.3,293.4c-5.3,49.7-10.6,99.4-16.1,149c-0.6,5.6,1.9,9.8,4,14.4c5.1,11.4,2,22.4-7.6,27.1c-9,4.4-18.3,1.3-23.9-8
	c-2.5-4.2-3.5-8.9-4.3-13.6c-7.6-46.4-8.1-93.1-7.4-139.9c0.3-18,0-36.1,0-54.7c-5.7,2.3-11.4,2.1-17.1-0.4
	c-6.9-3-10.8-8.1-10.6-15.8c0.7-30-3.6-59.7-5.2-89.6c-1.7-30.4,19.5-64.2,48.4-74.6c12.7-4.6,15.7-16.1,6.6-25.6
	c-4.7-5-8.3-10.7-10.7-17.2c-1.2-3.2-2.1-6.7,0.3-9.7c2.6-3.1,6.3-2.1,9.5-1.4c3,0.6,5.8,1.8,8.6,2.7c0.4-0.5,0.6-0.7,0.7-1
	c2.1-6.8,1-15.9,9.6-18.5c9.8-2.9,19.6-0.3,28.6,4.4c5.7,3,6.1,8.7,5.4,14.1c-1.1,8.6,1.6,12.8,10.7,11.8c2.3-0.2,5.7-1.2,6.7,1.9
	c1,2.9-1.4,5.2-3.3,7.4c-5.4,6.2-13.8,8.8-17.8,17.1c-3.6,7.5-3.2,12.7,5,15c23.3,6.5,38.2,21.4,47.9,43.1
	c5.8,12.9,14.8,24.1,24.9,34c3,2.9,5.9,5.9,11.1,3.8c5-2,3.3-6,3.6-9.3c1.2-17.2,2.2-34.4,3.2-51.6c0.5-8.6-2.9-17.1-1-25.9
	c0.7-3.2-2.6-3-4.7-3.4c-10.2-2.2-14.8-8.9-16.4-19c-2.5-15.1,0.6-29.8,1.4-46c1.9,15.6-0.4,30.3,2.7,44.5
	c1.1,5.1,1.4,12.9,7.4,12.7c5.5-0.2,4.8-8.2,5.4-12.8c1.6-12.9,2.2-25.9,3.4-40.7c2.5,4.9,2,8.6,1.8,12.2
	c-0.5,12.4-0.7,24.9,0.3,37.3c0.4,4.7,1.2,8,7.1,8.3c5.9,0.2,6.4-3.4,6.8-7.5c1.7-16.3,3.4-32.6,5.1-48.8c0.1-1.1,0.4-2.1,1-3.1
	c0,10.6,0.1,21.1,0,31.7c-0.1,7.1-0.8,14.1-1,21.2c-0.1,2-1.3,5.1,1.7,5.8c2.3,0.5,4-1.8,5.3-3.6c5.9-8.6,7.8-18.7,9.6-28.7
	c1.6-9.1,2.7-18.4,4.8-27.5c-0.7,18.4,0.6,37.1-6.1,54.8c-2.7,7-8.9,10.1-16.1,10.7c-4.2,0.3-5.2,1.8-5.8,6.1
	c-3.3,24-4.4,48.1-5.9,72.3c-0.3,5.3-0.5,9.9,2.8,15c4.6,7.3,3.7,15.9-1.9,22.9c-2,2.6-3.3,4.8-3.5,8.1c-2.2,46-4.3,92-7,138
	c-1.7,28.7-2.9,57.6-7.9,86c-0.4,2.1-0.1,4.6-3.2,6.6c-2.8-4.5-2.5-9.4-2.5-14.2c-0.5-38.5,2.1-76.8,4.3-115.2
	c2-34.4,4.4-68.8,6.7-103.2c0.2-3.4-0.6-5.4-3.7-6.5c-1.9-0.7-3.6-1.6-5.4-2.4c-20.1-9.2-39.7-19.2-52.1-40.2
	c-4.7,17.4-4.8,34-1.4,49.9c11.2,52.4,12.1,105.4,11.5,158.6c-0.2,19.5,0.5,39,0.2,58.5c-0.2,9.2,3.4,14.4,12.2,16.4
	c3.8,0.8,7.7,2,11.3,3.4c3.3,1.3,5.9,3.9,6,7.6c0.1,3.3-1.9,6.3-4.9,7.4c-16,5.7-32.3,8.1-48.8,2.2c-4.3-1.5-7.2-5.3-7.1-9.8
	c0.3-19.4-6.6-37.6-8.8-56.6c-3.5-30.3-8-60.4-12.2-90.6c-0.3-2.4-1-4.9-1.5-7.3C218.9,293.4,218.6,293.4,218.3,293.4z M161,171.2
	c-13,7.1-10.5,55.1,3.9,70c-1.1-23-2.2-45.8-3.3-68.6C161.6,172.2,161.2,171.7,161,171.2z"
	  style="fill:white"/>
</svg>
