<?xml version="1.0" encoding="utf-8"?>
<!-- Generator: Adobe Illustrator 24.0.0, SVG Export Plug-In . SVG Version: 6.00 Build 0)  -->
<svg version="1.1" id="Layer_1" xmlns="http://www.w3.org/2000/svg" xmlns:xlink="http://www.w3.org/1999/xlink" x="0px" y="0px"
	 viewBox="0 0 500 500" style="enable-background:new 0 0 500 500;" xml:space="preserve">
<path d="M363.1,456.7c2.5,6.6,4.6,11.9,6.3,17.3c0.8,2.7-0.2,5.5-3.1,6.7c-3,1.2-3.3-1.8-4.8-3.4c-6.1-6.3-9.2-12.5-5.7-21.7
	c1.9-4.9-1.6-10.3-3.2-15.4c-1.5-4.6-4-5.7-8.6-3.4c-5.4,2.7-11,5.5-17.3,5.5c-2.6,0-6.7,1-7.4-1.4c-4.3-15-10.5-4.9-16.3-1.6
	c-0.9,0.5-2.1,0.2-3.3,0.3c2.8-13.4,8.3-16.4,18.8-8.8c7.1,5.2,14-2.8,20.7,1.8c-6.6-12.1-17.3-19.8-26.4-29
	c-8.2-8.4-15.7-12.5-29.4-10.1c-13.9,2.5-29.2-2-44,0.5c-3.2,0.5-5.9-1.4-8.1-3.6c-3.3-3.4-6.2-3.9-9.3,0.4c-1.3,1.9-3.5,2.6-6,3
	c-21,3-41.3,7.4-59.3,20.2c-13.7,9.7-21.1,23.8-29.7,37.1c-3.8,5.8-7.7,11.3-12.7,16c-2,1.9-4.7,4.4-6.9,3
	c-9.5-5.9-16.6,0.7-24.5,3.9c-3.1,1.2-6.4,3.4-9.6,0.3c-3.2-3-1-6.3-0.2-9.5c0.9-3.8,5.3-8.1,0.9-11.5c-4.2-3.3-8.6-0.1-12.2,2.7
	c-2.7,2.1-4.8,1.5-7.2-0.2c-3.8-2.8-5.1-12.8-13-4.8c-0.1,0.1-1.8-1-2.3-1.9c-0.8-1.3-1-2.9-1.7-4.2c-4.3-7.6-9.3,1.2-14.1-0.5
	c-6-2.1,2.9-11.7-6-11.5c-9.5,0.3-4-5.3-2.8-7.7c8.5-16.1,20.4-29.4,35.4-39.8c1.9-1.3,4.3-2.2,5.5-4c10.3-14.4,23.8-24.3,40.2-30.6
	c2.3-0.9,4.2-3.2,8.4-6.5c-6.9,1.5-10.6,2-10.3-5.2c0.8-18.6,6.8-35.8,13.6-52.7c15.8-39.1,41.8-71.6,68.1-103.8
	c23.8-29.1,52.4-53.1,80-78.2c10.9-9.9,22-19.5,29.5-33c18.3-33,65.9-57,103-51.3c15,2.3,29.2,8.5,40.7,19.1
	c13.1,12,27,20.8,46,18.2c4.5-0.6,12-2.3,12.8,5.6c0.7,6.6-5.3,8.6-10.5,10.2c-2.9,0.9-5.9,1.5-8.9,2.2c-10.2,2.3-21.3,2-28,12.9
	c-10.5,17.2-22,33.2-20,55.6c5.6,61.7-3.8,119.7-42.9,170.9c-12,15.7-25.6,30.1-36.7,46.6c-6.1,9-17,12.7-26,18.4
	c-5.4,3.5-5.7,5.5-0.8,9.9c13.1,11.7,25,24.6,37.5,36.8c12.3,12,22.6,26.6,31.1,41.9c1.3,2.4,5.2,6.5,0.3,8.5
	c-3.8,1.5-5.7-2.7-7.2-5.8C373.3,465.1,372.4,458,363.1,456.7z"
	  style="fill:white"/>
</svg>
