<?xml version="1.0" encoding="utf-8"?>
<!-- Generator: Adobe Illustrator 24.0.0, SVG Export Plug-In . SVG Version: 6.00 Build 0)  -->
<svg version="1.1" id="Layer_1" xmlns="http://www.w3.org/2000/svg" xmlns:xlink="http://www.w3.org/1999/xlink" x="0px" y="0px"
	 viewBox="0 0 500 500" style="enable-background:new 0 0 500 500;" xml:space="preserve">
<path d="M107.4,244.3C82.7,287.6,69.1,293,7.3,282.9c10.1-6.7,20.7-4.4,30.7-4.6c32.9-0.8,45.8-7.5,53.6-39.3
	c9.8-39.9,36-55.5,73.1-61.1c30.3-4.6,60.8-6.3,91.2-5.3c50.3,1.5,90.5-18.1,124.7-53c8-8.1,16.7-15.4,27.1-20.1
	c22.5-10.1,46.1-2.1,57.9,19.6c5.9,10.8,10.8,22.1,22.8,28c6.7,3.3,4.2,8.9,1.7,13.9c-6.8,13.4-22,17.3-43,11.3
	c-7.9-2.3-14.6-8-24.5-1.6c-9.8,6.3-16,12.9-18.9,24.4c-6.8,27.1-17.4,53.1-26.1,79.6c-10.1,30.9-9,63.9-4.2,96.2
	c0.9,6.3,3.6,12.3,11.2,14.1c2.7,0.6,6.1,2.1,5.4,5.7c-0.7,3.6-4.4,3.2-7.2,3.8c-6.3,1.4-12.6-0.8-17.9,7.8
	c-4.4,7.1-21.6-1.8-24.9-11.6c-7.9-23.4-8.5-48.1-12.6-72.2c-4.3-24.7-3.5-24.7-26.7-30.5c-26.7-6.6-53.2-13.8-79.9-20.2
	c-14.8-3.5-27.1-2.5-37.6,12.9c-13.5,20-34.6,33.2-53.6,48.1c-17.3,13.5-16.5,32.2,1.9,43.9c-13.8,10.3-23,7.1-26.4-9.4
	c-0.6-2.9-1.1-5.8-1.7-8.7c-1-4.6,1.2-11.6-4.4-13c-6.4-1.6-10.4,4.6-13.6,9.4c-6.8,10.4-9.8,22.4-13.2,34.2
	c-0.6,1.9-1.1,3.5,0.5,5.4c2.5,2.9,10.1,3,6.8,8.9c-2.8,5-9,3.3-13.6,2.2c-5-1.1-13.1-2.4-11.2-9.1c6.4-21.8,0.6-47.9,22-64.6
	C104.4,306.6,103.7,274.5,107.4,244.3z"/>
</svg>
