<?xml version="1.0" encoding="utf-8"?>
<!-- Generator: Adobe Illustrator 24.0.0, SVG Export Plug-In . SVG Version: 6.00 Build 0)  -->
<svg version="1.1" id="Layer_1" xmlns="http://www.w3.org/2000/svg" xmlns:xlink="http://www.w3.org/1999/xlink" x="0px" y="0px"
	 viewBox="0 0 500 500" style="enable-background:new 0 0 500 500;" xml:space="preserve">
<path d="M100.7,363.9c1,3.8,4,4.7,6.3,6.3c21.7,15,29.2,38.1,20,61.8c-8.3,21.3-32.3,35.5-54.4,32.1c-24.2-3.7-43.3-24.1-44.9-48
	c-1.6-23.3,14.2-45.8,37.8-52.6c6.9-2,8.6-3.7,5.5-10.8c-14-32.3-27.3-64.9-41.1-97.3c-7.7-18,1.5-31.8,21.5-31.7
	c8.1,0,16.2-0.2,24.3,0.5c7.8,0.6,11.2-1.6,10.4-10.1c-0.8-9,0.1-18.1-0.3-27.2c-0.2-5.4,2.1-7.6,6.7-6.2c4.8,1.5,13.6-4.9,13.9,6.2
	c0.3,9.7,0.2,19.4,0.1,29.2c-0.1,5.4,1.5,7.9,7.8,7.8c30.5-0.4,60.9-0.2,91.4-0.2c1.9,0,4.1-0.6,5.8,0c21.6,7,27.8-11.5,38.2-23.1
	c3.4-3.8-0.6-5.1-2.6-6.5c-4.8-3.3-9.7-6.5-13.2-11.3c-1.8-2.5-3.2-5-0.5-7.8c2.7-2.8,5.8-3.5,8.5-0.6c5.7,6.3,11.6,5.4,18.9,2.6
	c11.5-4.3,23.8-2,35.7-2.1c9.6-0.1,15.7-4.1,15.9-14.1c0.3-15.9,8-28.4,17.7-40c3.5-4.2,4.8-7.8-0.1-11.4
	c-8.1-6-11.6-14.7-13.9-23.8c-1.9-7.2-4.1-12-12.8-8.5c-2.2,0.9-5.1,0.1-8.1,0.1c0.5-5.6,4.9-7.7,8.9-8.8c9.6-2.7,14.1-9.4,17-18.2
	c2.1-6.3,3.9-14.7,12-14.7c9.5,0,18.7,3.4,23.8,12.5c3.3,5.9,6.1,12.1,8.4,18.5c2.4,6.6,5.3,9,11.7,4.2c2.8-2.1,7.1-6.8,9.7-3.4
	c3.3,4.3-2.1,7.9-5.1,11.1c-3.8,4-9,4.7-14.1,5.8c-6.9,1.5-9.2,5.5-6.1,12.1c1.8,3.8,3.4,7.8,6,11c11.8,14.7,13.8,31.4,8.2,48.6
	c-6.4,19.6-1.9,37.5,4.8,55.7c1.2,3.4,2.9,3.7,5.7,2.2c2-1,4-2.2,6.2-2.7c2.5-0.6,5.6-4.8,7.3-1.3c1.5,3.1,3.3,7.8-1.6,11.3
	c-4.9,3.5-9.5,7.5-10.5,14c2.5,1.5,4.3,0.4,6.1-0.1c13.3-4.4,14-4.2,18.2,9.7c1.6,5.2,5.2,5.3,9.1,4.8c9.5-1.4,14.3,1.9,13.6,12
	c-0.4,6,2.8,8.6,8.8,9.1c8.4,0.6,12.2,5.4,9.8,13.7c-1.9,6.6,0.3,10.1,6.6,12.6c6.7,2.6,9.8,7.4,4.8,14.3c-3.5,4.9-4.1,8.4,2,12.5
	c8.3,5.5,8.4,11.2,1.1,17.7c-4.3,3.8-3.5,6.5-0.5,10.5c7.7,10.1,7.3,12.6-3.3,18.9c-5.2,3.1-5.2,5.8-2.9,10.9
	c4.7,10.3,2.7,14.1-8.3,17.3c-4.4,1.3-5.3,3.5-4.9,7.8c1.1,13.9,0.4,14.8-13.2,15.7c-4.7,0.3-4.6,2.6-4.9,6.3
	c-1,11.6-4.5,14.2-15.5,11.7c-4.4-1-6.1-0.3-7.6,4.3c-3.6,11.3-6.5,12.6-17.7,8c-5.2-2.1-8.2-0.1-10.5,3.8c-4.8,8.1-10.3,9.3-17,2.5
	c-3.6-3.6-7.1-2.9-10.1,0.5c-6.3,7.1-12.2,6.1-17.5-0.9c-3.1-4.1-5.9-4.8-10.5-1.9c-7.8,4.9-12.2,3.4-16.6-5.5
	c-2.4-5-5.1-6.9-10.6-4.6c-8.1,3.4-12.9-0.6-13.5-8.4c-0.5-6-3.2-6.2-8-6.5c-10.9-0.6-14.1-4.2-12.2-14.2c1.1-5.7-2.5-5.7-5.7-6.6
	c-12.6-3.5-12.7-3.7-9.4-15.7c0.4-1.5,0.6-4.3,0.2-4.5c-7.9-2.7-10.8-13.1-20.7-13c-18.8,0.3-37.6-0.1-56.4,0.2
	c-6.3,0.1-11.5-1.1-15.6-6c-6-7.4-13.8-10.3-23.2-9.5C121.2,362.9,110.8,360.4,100.7,363.9z M242.9,230.1
	c8.5,3.8,16.1,7.2,23.7,10.5c18.3,7.9,18.3,7.9,31.9-6.1c3.4-3.5,6.8-6.9,10.1-10.5c1.5-1.6,4-3.3,2-5.7c-5.8-7-1.4-14,0.4-21.5
	c-14.4-0.5-28.2,0.6-43-6.1c4.5,8.1,10.3,10.7,14.9,14.6c2.7,2.3,4.4,4.7,1.9,8.2c-2.3,3.2-4.7,3.5-8.3,1.8
	c-5-2.3-8.3-10.3-14.2-7.6c-4.8,2.3-7.6,8.5-11.3,12.9C248.7,223.5,246.4,226.2,242.9,230.1z"/>
</svg>
