<?xml version="1.0" encoding="utf-8"?>
<!-- Generator: Adobe Illustrator 24.0.0, SVG Export Plug-In . SVG Version: 6.00 Build 0)  -->
<svg version="1.1" id="Layer_1" xmlns="http://www.w3.org/2000/svg" xmlns:xlink="http://www.w3.org/1999/xlink" x="0px" y="0px"
	 viewBox="0 0 500 500" style="enable-background:new 0 0 500 500;" xml:space="preserve">
<path d="M292,338.5c0.6,15.1-6.1,26.1-13.3,37.2c-11.7,18.1-7,28.6,14,33c21.2,4.4,42.6,6.5,64.2,6.1c13.2-0.2,22.6,4.8,28,16.9
	c5,11.1,11.9,20,23.8,24.5c3.1,1.2,6.4,3.2,5.2,7.2c-1.1,3.5-4.7,4.6-8,4.4c-12.1-0.8-24.8-1-28.5-16.4c-6.3,2.2,2.9,11.4-6.2,11.3
	c-6.6-0.1-8.8-5.2-9.8-10.2c-2.3-10.7-9.3-15.1-19.2-17.8c-27-7.2-54.2-10.8-82-7.2c-6,0.8-11.6,0.2-15.4-4.5
	c-4.5-5.6-1.8-11.4,1.3-17c7.8-14.1,8.5-29.4,8-45c-0.2-7.8-4-10.3-10.7-7.8c-19.7,7.2-42.8,7.3-56.6,27.2c-2,2.9-5.7,5.2-9.1,6.4
	c-34.2,12.2-52.5,40.7-71.1,68.9c-3.6,5.4-5.7,13.7-12.8,13.9c-15.4,0.6-30.8,9.4-45.5,3.6c-7.8-3.1-14.8-12.2-18.4-20.3
	c-3.2-7.2,6.2-5.9,9-4.5c11.4,5.7,22.8,4.1,34.7,3.5c6.7-0.3,10.3-1.9,12.7-8.1c4.9-12.5,13.3-22.4,23.4-31.1
	c19.1-16.6,38.9-32.4,52-54.7c3.6-6.2,10-10.4,17.3-10.8c17.8-1,27.9-13.9,39.7-24.5c1.7-1.6,4.3-3.3,1.7-5.5
	c-3.4-2.9-6.1-7.2-11.7-6.6c-12,1.3-24.1,1.4-35,7.2c-4.8-9.2,3.2-22.7-6.7-27.7c-8-4.1-15.1,8.5-23.6,9.3
	c-19.5,1.9-35.5,15.8-56.2,17.1c3.8-12.5,12.9-23.6,0-34.3c-0.5-0.4-0.9-1.7-0.6-2.3c12.3-23.4,12.3-52.9,37.4-70.1
	c10.8-7.4,19.8-14,34-12.5c9.3,1,19-1.6,28.1-6.5c12.7-6.7,26.4-10.7,41.4-10c7.7,0.4,16.2-1.2,23.3-4.2c18.7-8,37.3-2.7,55.1,0.9
	c10.9,2.2,22.1,1.7,33,5.3c16,5.3,25.9,17.6,37,28.6c7.4,7.3,15.3,16.3,26.6,10.9c11.8-5.6,21.1-15.1,23.2-29
	c2.7-18.1-2.5-35.2-7.6-52.3c-7.3-24.6-17.7-48.8-14.9-75.2c1.7-16.1,4.3-32.4,22.9-39.5c7.1-2.7,14.1-2,18.4,2
	c7,6.6,13.2,13.1,23.7,12.7c0.9,0,2.6,1.6,2.6,2.5c0,3.4-2.8,4.5-5.4,5.5c-9.3,3.4-16.9,8.7-24.6,15.3c-9.7,8.3-10.9,17.9-10.6,28.8
	c0.4,13.3,5,25.7,10.2,37.7c19.9,45.6,15.7,91.3-8.6,132c-10.4,17.5-17.8,36.6-29.5,52.8c-7.7,10.7-17.1,22.1-29.2,29.6
	c-17.9,11.1-37.6,8.6-56.9,7.6C307.2,352.3,302.8,341.7,292,338.5z"
	  style="fill:white"/>
</svg>
