<?xml version="1.0" encoding="utf-8"?>
<!-- Generator: Adobe Illustrator 24.0.0, SVG Export Plug-In . SVG Version: 6.00 Build 0)  -->
<svg version="1.1" id="Layer_1" xmlns="http://www.w3.org/2000/svg" xmlns:xlink="http://www.w3.org/1999/xlink" x="0px" y="0px"
	 viewBox="0 0 500 500" style="enable-background:new 0 0 500 500;" xml:space="preserve">
<path d="M336.1,60.2c2.3-13.1,5.2-21.9,12.6-28.3c3.1-2.7,6.1-6.7,10.7-4.6c4.8,2.2,3.4,7.3,3.2,11.2c-1.9,33.3-4,66.6-6,100
	c-0.5,8.3-0.4,16.3,3,24.5c3.7,9.1,2.7,19.4-3.7,26.7c-9,10.3-10.7,22-10.8,36.2c19.4-8,28.5-31.7,51.9-31.4
	c25,0.3,31.1,22.3,48.8,38.7c-17.8-2.3-31-4.2-41,6.3c-8.7,9.2-14.7,20.1-18.3,32.4c-12.9,44.8-41.8,76-82.4,97.4
	c-4.1,2.2-8.2,4.4-12.2,6.8c-1.3,0.8-2.2,2.2-3.2,3.3c1.3,5.9,7.1,3.1,10.1,5.6c4,3.4,8.3,6.4,7.4,12.7c-1.4,10.4-23.6,31-35.4,32.5
	c-0.2-4.5,3.4-7.2,5-10.9c1.4-3.4,8.1-5.9,3.2-10.2c-4.1-3.6-7.4,1.1-10.5,3.7c-2.3,1.9-4.3,4.4-7.9,3.9c-2.9-5.4,5.7-7.3,3.7-12.3
	c-34.9-7.5-37.5-1.4-54.7,27.6c-10.1,17-22.6,30.8-39.7,40.3c-6.3,3.5-14.6,16.9-17.8-2.6c-13.9-0.8-11.1-12.4-12.9-20.5
	c-3.8-17.1,8.8-27,18.3-37.8c4-4.6,10-7.5,15.1-11.1c17.3-12,32.7-25.1,40.7-46c4.5-11.8,13.3-22,21.3-34.6
	c-13.6,1.2-25.3,1.6-36.3-4.1c-5.1-2.7-8.4,2.1-12.6,3.5c-10.4,3.4-17.3-0.5-22.4-10.5c-9.9,13.6-18.6-0.4-24.8-5.7
	c-24.6-21.2-42.6-47.8-59.5-75.8c-9.9-16.5-11.9-34.9-19.9-50.3c-8.3-16-4.6-31.9-2.6-43.9c2.5-15.6-5.6-37.3,15.8-48
	c4.9,2.8,4.1,11.2,10,15.9c0.8-8.1-6.5-15.3-1.4-25.1c9.8,10.2,9.9,24.9,20.2,33.9c0.9-7-5.1-13.2-0.2-20.3
	c7.2,5.5,8.8,13.9,11.4,21.4c17.2,48.1,54.1,76.6,97.2,99.2c8.7,4.6,16.8-5.9,16.4-7.5c-2.4-9.6,5.8-17.3,4.2-25.5
	c-4.3-21.9,0.6-45,10.2-61.1c7.5-12.5,2-33.3,21.2-39.2c1-0.3,0.1-5.8,0.6-8.9c1.8-11.3,1.9-24.3,19.4-21.4c4.7,0.8,4.9-2.7,5.4-5.7
	c1.1-5.8,2.2-12,8.8-13.5c7.7-1.8,9.6,5.6,13.3,12.3c1.2-4.6,2-7.1,2.5-9.6c1.1-4.7,2.3-9.3,8.3-9.7c6.5-0.5,7.6,4.8,8.8,9.2
	C331.4,38.2,333.2,47.3,336.1,60.2z"/>
</svg>
