<?xml version="1.0" encoding="utf-8"?>
<!-- Generator: Adobe Illustrator 24.0.0, SVG Export Plug-In . SVG Version: 6.00 Build 0)  -->
<svg version="1.1" id="Layer_1" xmlns="http://www.w3.org/2000/svg" xmlns:xlink="http://www.w3.org/1999/xlink" x="0px" y="0px"
	 viewBox="0 0 500 500" style="enable-background:new 0 0 500 500;" xml:space="preserve">
<path d="M239.1,367c8-0.4,12.5,0.2,16.5-0.9c7.2-2.1,14.3-5.2,10.2-15c-1.6-3.9-1.2-4.1,2.4-7.3c6.4-5.8-2.6-5.6-5.7-5.7
	c-14.6-0.3-28.9-1.8-42.8-7c-17.2-6.5-34-12.9-36.1-36.7c-26.7,29.9-5.3,50.1,9.6,71.7c-12.5-4-24.1-16.3-29.5-29.6
	c-5.9-14.2-4.6-28.1,1.7-39.7c-61.6-18.9-105.3,9-143,51.7c-0.9-11.1,4.7-20.2,20.5-31.9c11.3-8.3,24.1-14.5,34.3-26.7
	c-6.7-2.6-12.6-5.4-18.7-7.3c-21-6.4-30.2-22-34.2-42.3c-3.4-17.5-3.6-34.7,1.1-51.9c4.1-15.2,12.5-27.7,26.1-35.4
	c13.7-7.7,25.6-17.5,37.7-27.1c19.7-15.6,43.5-18.5,67.3-19.7c32.1-1.7,62.4,6.8,91.8,19.2c30.8,13.1,55.3,57.6,43.2,98.9
	c9.2-13.9,22.7-17.2,32.6-25.7c4.5-3.8,10.3-6.2,16.3-4.1c22.5,8.1,47.2,6,69.6,14.3c23.1,8.6,45.7,18.7,67.9,29.6
	c-19.9-6-40.7-8.2-59.6-17.3c-23.5-11.4-49.3-8.5-74.1-11.4c-15.5-1.8-23.6,8.7-31.2,21c-9.2,14.8-8.5,17.9,9.6,20.3
	c1.4,0.2,2.9,0.4,4.3,0.2c14.1-1.2,29.4-4.1,40.3,6.9c14.7,14.9,25.5,32.9,30.7,53.7c2.4,9.7-0.6,16.9-9.4,22.1
	c-10.2,6-22.1,11.1-18.3,26.9c0.3,1.4-1.3,3.6-2.4,5.1c-10.7,15-56.9,31.8-77.7,27.3c23.9-5.6,43.1-18.1,63.4-27.9
	c3.6-1.8,9.7-3.7,6.7-9.1c-2.5-4.7-6.7,0.4-10.2,0.9c-11.8,1.5-20.6,10-32.5,12.5c11.8-6.9,19.2-18.8,31.6-24.8
	c5.7-2.7,8-6.1,5.3-12.6c-4.2-10.2-3.2-22.1-10.6-31.4c-3.1-3.9-5.5-5.6-8.6-0.5c-5.9,9.9-15,18.6-14.5,31.1
	c0.6,13.7-7.3,21.3-18.2,25c-14.9,5-30.9,6.5-44.8,15.1C253.6,374.2,247,374.2,239.1,367z M356.8,265c-4.2,4.2-9.1,11.4-6.2,15.5
	c9.4,13.2,7.7,28.7,12.2,42.7c1.1,3.4,0.9,12.5,8.1,7.6c4.8-3.2,16.1-3.7,11.7-14.7c-5.8-14.8-11.9-29.5-17.9-44.3
	C363.4,268.7,361.6,265.8,356.8,265z M299,288.2c0.5,1.5,1,2.9,1.5,4.4c11.2-4.5,22.3-9.1,33.6-13.5c3.7-1.4,8.5-2.8,6.8-7.4
	c-2-5.2-7-4.1-11-1.6C319.8,276.3,310.3,283.6,299,288.2z"/>
</svg>
