<?xml version="1.0" encoding="utf-8"?>
<!-- Generator: Adobe Illustrator 24.0.0, SVG Export Plug-In . SVG Version: 6.00 Build 0)  -->
<svg version="1.1" id="Layer_1" xmlns="http://www.w3.org/2000/svg" xmlns:xlink="http://www.w3.org/1999/xlink" x="0px" y="0px"
	 viewBox="0 0 500 500" style="enable-background:new 0 0 500 500;" xml:space="preserve">
<path d="M324.2,138.7c-5.8,15.1-17.3,26.8-23.8,43.6c9.4-5.8,13.7-14.8,23.2-18.9c-0.8,6.2-8,9-5.6,15.7c5.9-3.2,10-9.2,18.1-11.5
	c-2.1,5.4-7.3,7.9-7.1,14.2c8.2-3.2,15.3-8.2,26.1-8c-23,14.4-21.3,42.7-40.4,57.9c4.8,4.2,7.6-1.8,11.5,0.5
	c-2.3,4.1-7.3,7-6.1,12.9c6.2-1.2,12.5-2.5,19.1-3.8c-1,4.7-6,3.6-7.6,7.3c4.3-1.3,8.2-2.4,13-3.8c-2.5,6.3-9.2,5.3-12.8,9.6
	c9.1,2.4,16.3-3.6,24.8-4.9c-1.1,6.1-7.5,5.2-9.8,9c5.4,1.2,9.2-3.5,14.8-3.3c-1.6,4.9-7.5,4.7-9.5,8.8c3.4,0.7,5.7-1.4,8.1-2.8
	c4.8-2.8,8.9-6.4,15.7-5c6.3,1.3,11.2-3.7,16-7.6c12.4-10,25-19.5,41.9-20.5c5.8-0.4,10.8,0.2,15.7,4c9.3,7.3,19.6,13.5,26.3,23.6
	c12.3,18.6,12.8,38.7,6.5,59.6c-2.6,8.8-5.9,17.6-4.4,27.1c0.3,2.2,0.8,4.6-1.6,6.3c-7.9,5.5-12.7,14-19.3,20.8
	c-4.7,4.9-9,5.3-14.5,5.1c-15.2-0.6-27.8-7.8-40-15.8c-16.5-10.9-32.7-22.3-49.1-33.4c-2.3-1.6-6.1-4-7.7-3.2
	c-3.4,1.8-1.4,5.8-0.6,8.8c1.9,7.1,3.8,14-5.5,17.7c-0.1,0.1,0.1,0.9,0.1,1.3c-1.1,9.3-1.1,9.3-10,10.7c4.7,4.8,11.6,4.4,16.6,9.4
	c-25.1-5.8-33.4,17.6-49.5,27.3c-5.1,3.1-4.4,8.4-3.5,13.8c-17-5.7-27.9-17.3-37.4-30.8c-9.6-13.5-14.6-28.9-17.6-45.2
	c-0.8,0.2-1.6,0.4-2.4,0.6c0,5.3,0,10.7,0,16c0.1,6.6-2.8,9.7-9.5,11.8c-4.6,1.4-7.8,7-11.8,10.5c-3.4,3-7.8,4.6-6.6,11.3
	c0.3,1.6-10.9,2.1-15,7.1c-4.7-5.4-9.3,0.7-11.1,2.1c-5.5,4.5-15.3-3.7-18.4,6.7c-0.2,0.7-4.9-5.4-9.7-3.3c-1.1,0.5-3.5-3.9-5.4-0.4
	c-1.4,2.6,1.8,3.9,3.2,5.3c7.3,7.1,14.7,14.2,24.1,18.8c2.3,1.1,4.4,2.7,5.9,5c-32-0.2-41.9-31-64.1-47.5
	c6.4,12.5,17.7,19.7,23.1,33.1c-9-3.2-12.8-10.1-21-16.4c7.1,13.6,17.4,22,22.2,35.8c-9.7-3.9-15-10.4-21.2-15.8
	c-6.5-5.7-11-13-17.8-22.1c3.6,16.7,14.9,27.7,16.3,44.6c-16.5-12-24.8-27.3-32.5-44.6c-2.2,8,1.9,14.8-0.7,21.5
	c-10.6-9.8-16.9-30-17.3-55.2c-3.4,5.1-3.8,9-2.6,21.7c0.7,7.5,3.1,14.9,1.9,23.8c-6.8-7.1-9-15.1-10.1-23.4
	c-2.6-20.4-0.7-40.1,8.8-58.8c5.1-10,4.3-10.9-7.3-11.9c-6.6-0.5-7.4-7.6-12.1-10.1c-1.1-0.6-5.1-7.4-3.6,1.2
	c0.3,1.4-1.1,1.8-1.7,0.9c-3.2-4.3-10.4-3.4-12-9.7c-2.3-8.8-7.6-16-12.9-23.1c-4.1-5.4-4.4-11,0.2-16.2c6.1-7.1,12.4-14,20.7-18.5
	c10-5.4,14.7-15.3,12.5-26.7c-0.7-3.5-0.8-7.1-1.2-11c4.5,0.7,1.6,5.8,5.6,6.3c2.8-5.4-1.3-12.7,5.6-19.4
	c-2.4,10.3-5.2,20.8,3.7,24.7c6.2,2.7,15.2-1,23.6-1.9c-1.5-7.1-9.8-10-10.5-17.5c4.6-0.5,5.7,4.7,10.6,4.5
	c-10.9-22-13.2-44.7-7.5-70c7.4,8.6,6.4,17,5.7,24.8c-1.2,14.4,5.3,25.9,12,37.7c-1.2-27.6-9.1-55.5,4.7-84.6
	c3.3,6.9,4.6,12,3.8,16.9c-3.4,20.6,1.6,40.7,3.4,60.9c0.3,3.3,0.6,9.1,4.7,8.6c4.5-0.4,2.9-6.1,2.5-9.2c-2.2-14.8-3.7-29.5,0-44.2
	c3.4-13.6,8.4-26.4,18.3-36.7c2.2-2.3,4.9-5.9,8.2-4.1c3.5,1.8,0.1,5.2-0.2,7.9c-0.9,7.7-4.2,14.4-8.1,21.1
	c-9.1,15.6-13.6,32.1-9.5,50.2c0.8,3.4,1.3,7.9,5.4,8.7c4.4,0.8,5.8-3.6,7.6-6.6c10.3-17.3,13.1-37.2,19.7-55.8
	c5.4-15.3,11-30.4,21.3-43.2c6.1-7.6,14-12.5,23.6-15.7c-5.4,10.3-4.6,22.4-14.1,31.2c-23.4,21.9-27.6,51.5-30.3,81.3
	c-0.2,2.3-0.4,5.1,2,6.2c3,1.3,4.9-1.2,6.4-3.2c5.2-6.9,8.2-15,11.4-22.9c7-17.1,14.4-34,23.4-50.2c6.1-11.2,13.9-20.8,25.1-27.3
	c1.9-1.1,4.1-3.4,6.2-1.4c2.1,2,0.3,4.3-1.3,6c-3.5,3.7-4.6,7.8-3.5,12.7c1.5,6.6-3.9,9.1-7.6,12.6c-18.9,18-27.9,41.4-36,65.3
	c18.5-28.4,37.1-56.3,68.2-75.8c-2,10-7.1,15.1-12.5,20.2c-16.3,15.4-27.6,33.9-33.9,55.5c13.1-21.5,27.6-41.8,46.8-58.2
	c5.5-4.7,11.5-8.8,17.5-12.9c1.4-1,3.1-2.7,6.2-1.2c-8.6,8.5-12.7,19.7-23.3,27.2c-14,9.9-23.4,24.9-31.5,40.1
	c-1.6,3-3.6,6.2-2.1,11.8c17.3-23.6,31.4-48.7,60.2-60.6c-3.8,9.1-9.7,14.8-16.4,20.3c-13.4,11-24.9,23.9-31.3,40.7
	c11.4-12.1,22.6-24.3,34.1-36.3c9.4-9.8,20.1-18,32.3-24.2c6.1-3.1,12.3-4.6,19.1-4.2c2.8,0.2,5.4-0.6,6.8,3.6
	c1.5,4.6-1.4,5-3.9,6.2c-7.6,3.7-15.2,7.4-22.9,10.9c-21.4,9.8-38.8,24.2-50.7,44.8c18.2-11.3,33.6-26.5,52.5-37.1
	c-7.9,11.6-21.1,19.4-24.2,36.3C294.8,167.4,305.3,148,324.2,138.7z"/>
</svg>
