<?xml version="1.0" encoding="utf-8"?>
<!-- Generator: Adobe Illustrator 24.0.0, SVG Export Plug-In . SVG Version: 6.00 Build 0)  -->
<svg version="1.1" id="Layer_1" xmlns="http://www.w3.org/2000/svg" xmlns:xlink="http://www.w3.org/1999/xlink" x="0px" y="0px"
	 viewBox="0 0 500 500" style="enable-background:new 0 0 500 500;" xml:space="preserve">
<path d="M207.7,107.2c-37.4-40.9-44.5-52.1-44.5-75c24.3,48.9,68.3,76.8,101.4,114.5c5.3,6,8.7,6,14.7,1.2c5.7-4.6,10.8-9.3,15-15.4
	c6.7-9.8,14.6-18.6,24-26c24-19.2,49.1-20.3,73.1-1c21.8,17.4,38.4,40.1,59.1,58.8c13.7,12.3,25.8,26.3,37.8,40.4
	c-20-17.1-39.5-34.7-61.5-49.1c-18.9-12.4-41.2-7.5-53.2,11.9c-11.9,19.1-22.8,38.8-37.4,56.1c-23.8,28.3-51,53.5-82.6,71.8
	c-34.4,19.9-46.5,50.2-51.9,86.3c-4.3,28.6-7.8,57.3-10.7,86.2c0-24.5-1-49.1,0.2-73.6c2.3-48.8,5.6-97.6,19.6-144.8
	c1.8-6.2,3.9-12.3,6-18.4c1.4-4.1,1-3.7-2.6-8.3c-3.3-4.1,3.6-6.8,3.1-11.3c-5.8,1.8-8.6,7.9-15.1,8.5c-1.6-5.1,3.7-7.9,4.4-13.2
	c-6.9,1.5-10.1,8.6-17.2,9.2c-1.4-5.4,4.6-8,5.3-13.6c-6.5,3-10.5,8.6-17.5,10.4c-1.6-8.8,6.7-12.8,9.9-21.1
	c-8.1,5.6-15,10.4-23.3,16.1c1.2-9.1,7.9-12.7,11.1-20c-9.4,2.5-15.4,10.3-25.6,9.9c5-10.3,14.6-14.8,23.3-23.2
	c-13.6,3.7-23.6,11.8-37.7,12.4c6.8-9.1,16.4-12.4,24.6-19c-39.9,7.2-39.9,7.2-49,1.8c13.6-7.1,28.4-9,44.2-15.3
	c-21.3,0.2-41.1,7-59-4.9c20-4.6,40.4-5.1,60.1-10.8c-25.9,1.7-51.7,2.3-76.8-8.1c8.7,0,17.4,0,26.1,0c9.2,0,18.3,0,27.5,0
	c-28-5.7-57.5-5.1-82.8-21.7c17.2,2.7,34.4,5.5,51.7,8.2c-21.1-7.9-44.2-10.2-62.6-25.2c18.8,5.5,37.5,11,56.3,16.5
	C71.3,97.3,44.5,92.5,25.9,71.3c33.3,16.4,67.8,29.6,104.1,38.1C87.3,91.6,39.7,82.3,11.7,39.9c51.7,31.2,108,51.9,165.4,75.4
	c-3.2-5.1-5.2-8.4-9.1-14.6c7.3,4.3,11.6,6.9,16,9.4c-4.6-7.8-13.7-11.8-17.2-23.6c8.5,6.7,15.1,11.9,21.6,17
	c-8.1-11.9-20.3-20.3-24.2-38.5C178.7,82,191.2,96.7,207.7,107.2z M376.1,118.3c-0.8-4.5-4-7.7-9.1-7.6c-5.6,0.1-9.4,3.5-9.1,9.4
	c0.3,5.1,3.7,8.4,9,8.3C372.8,128.3,375.8,124.9,376.1,118.3z"
	  style="fill:white"/>
</svg>
