<?xml version="1.0" standalone="no"?>
<svg version="1.0" xmlns="http://www.w3.org/2000/svg"
 width="1280.000000pt" height="1120.000000pt" viewBox="0 0 1280.000000 1120.000000"
 preserveAspectRatio="xMidYMid meet">
<metadata>
Created by potrace 1.15, written by Peter Selinger 2001-2017
</metadata>
<g transform="translate(0.000000,1120.000000) scale(0.100000,-0.100000)"
fill="#000000" stroke="none">
<path d="M12094 10815 c22 -33 20 -42 -4 -20 -11 10 -23 15 -28 11 -4 -5 17
-30 47 -57 53 -47 64 -72 23 -50 -12 6 -25 11 -31 11 -38 0 30 -49 83 -60 l31
-6 -1 -80 c0 -43 -9 -121 -18 -172 -10 -52 -14 -107 -11 -123 5 -22 2 -36 -11
-50 -18 -20 -38 -67 -53 -124 -11 -40 -33 -85 -41 -85 -4 0 -14 44 -23 97 -21
126 -35 146 -112 155 -90 12 -105 -4 -155 -152 -14 -43 -16 -66 -10 -107 5
-29 12 -57 15 -63 3 -5 0 -10 -9 -10 -19 0 -105 87 -123 125 -8 16 -21 41 -28
55 -8 14 -15 38 -15 53 0 15 -6 30 -12 32 -8 3 -14 26 -15 54 -1 26 -11 101
-23 166 -28 162 -28 160 28 210 26 24 44 47 39 51 -4 4 -13 2 -19 -4 -16 -16
-28 -15 -28 1 0 7 20 32 45 56 25 24 45 50 45 58 0 13 -3 13 -16 2 -13 -11
-14 -9 -9 14 6 22 4 25 -14 20 -12 -3 -33 -20 -46 -37 -14 -17 -23 -23 -19
-13 3 9 3 17 -1 17 -10 0 -29 -24 -62 -78 -22 -37 -26 -58 -30 -140 -2 -53 -9
-102 -15 -109 -16 -20 -4 -328 15 -356 7 -12 29 -56 47 -97 37 -80 72 -142
103 -176 18 -21 18 -23 1 -55 -9 -19 -25 -45 -34 -59 -30 -42 -41 -101 -30
-156 6 -27 14 -103 20 -169 7 -90 15 -126 28 -145 11 -14 25 -43 32 -65 7 -22
22 -62 33 -90 19 -44 21 -68 18 -196 -2 -155 3 -204 46 -389 30 -131 31 -165
15 -420 -12 -169 -18 -212 -43 -278 -9 -23 -136 -92 -170 -92 -9 0 -23 -7 -30
-16 -34 -41 81 -58 191 -29 30 8 67 15 82 15 37 0 58 25 58 68 1 20 9 62 20
92 11 30 19 69 20 87 0 17 9 69 20 115 11 46 23 128 27 183 l8 100 21 -35 c28
-45 50 -294 34 -379 -5 -29 -7 -57 -4 -62 3 -6 1 -15 -4 -22 -5 -7 -12 -29
-16 -49 -8 -43 -45 -78 -123 -116 -62 -30 -65 -51 -13 -69 44 -15 133 -7 180
17 19 10 48 23 64 29 28 11 28 13 22 65 -4 32 -2 72 4 97 23 83 50 265 50 333
0 37 -8 96 -17 130 -23 80 -22 327 2 525 10 79 15 168 12 198 -7 62 -57 179
-105 243 -28 38 -33 51 -28 81 3 20 2 58 -3 85 -6 31 -5 57 1 73 6 14 14 42
18 61 11 49 51 139 78 177 13 18 41 76 63 129 21 53 43 102 48 108 5 6 15 49
22 95 7 46 19 90 27 97 7 8 10 19 7 24 -4 6 -1 18 6 26 30 37 28 414 -3 496
-5 15 -25 39 -43 53 -19 14 -37 34 -40 45 -3 11 -10 20 -15 20 -5 0 -7 -7 -4
-15 10 -26 -10 -16 -31 15 -22 33 -38 40 -28 13 6 -17 5 -17 -14 0 -28 25 -38
21 -19 -8z"/>
<path d="M10417 10743 c-4 -3 -7 -13 -7 -21 0 -9 -8 -24 -17 -35 -38 -41 -52
-529 -17 -558 8 -6 14 -18 14 -27 0 -33 60 -196 92 -249 l20 -33 -49 -72 -48
-73 3 -190 c3 -156 7 -197 22 -230 21 -49 35 -88 32 -97 -1 -4 6 -24 15 -45
28 -67 32 -105 21 -186 -14 -99 0 -236 44 -427 31 -133 31 -135 20 -255 -7
-66 -12 -153 -12 -193 0 -64 -12 -174 -25 -239 -6 -26 -104 -87 -154 -97 -19
-3 -40 -11 -48 -17 -17 -14 -17 -45 0 -52 18 -7 278 13 305 24 20 8 22 15 22
74 0 36 7 82 15 102 8 19 15 50 15 68 0 19 9 71 20 117 15 66 39 268 40 336 0
6 5 12 11 12 5 0 7 -5 4 -10 -4 -6 5 -34 20 -62 26 -49 27 -58 29 -217 1 -173
-3 -212 -28 -296 -14 -45 -23 -55 -80 -93 -35 -23 -71 -45 -80 -48 -24 -9 -20
-41 7 -48 41 -11 136 -6 169 8 18 8 50 18 71 21 20 3 38 11 38 18 1 7 2 44 3
82 1 39 16 134 34 213 37 166 39 210 13 364 -17 99 -19 134 -11 283 5 94 14
208 21 254 18 134 -13 263 -93 381 -21 32 -23 44 -21 138 1 57 6 109 11 115 5
7 13 30 17 52 7 42 31 89 87 170 18 28 47 87 62 130 16 44 34 90 42 101 7 12
18 59 24 105 7 50 17 88 26 95 8 7 12 19 8 28 -3 9 -1 22 5 30 7 8 11 29 10
47 -1 19 3 52 9 74 13 49 20 171 9 181 -4 4 -7 40 -7 80 0 61 -4 77 -23 101
-13 15 -26 35 -30 44 -3 10 -20 18 -41 21 -45 5 -76 -20 -76 -62 0 -25 5 -31
40 -41 22 -7 44 -17 49 -23 10 -12 -12 -191 -29 -236 -15 -42 -24 -93 -21
-126 1 -18 -4 -38 -13 -47 -9 -9 -16 -21 -16 -27 0 -6 -9 -28 -20 -50 -11 -22
-20 -50 -20 -62 -1 -13 -7 -34 -14 -47 -13 -23 -13 -23 -19 20 -4 24 -9 71
-13 103 -9 80 -31 101 -113 111 -44 5 -66 3 -77 -6 -19 -16 -47 -70 -75 -144
-18 -48 -19 -62 -10 -106 6 -27 11 -55 11 -61 0 -21 -48 34 -71 80 -12 26 -29
59 -36 74 -8 16 -16 47 -17 70 -4 43 -26 147 -66 307 -12 46 -20 100 -18 120
3 30 9 39 41 54 45 23 46 38 6 77 -32 30 -49 36 -62 23z"/>
<path d="M885 10460 c-36 -15 -77 -68 -87 -112 -5 -24 -13 -98 -18 -166 -11
-147 -27 -190 -80 -207 -39 -13 -74 -57 -90 -114 -6 -20 -15 -103 -21 -186 -5
-82 -13 -193 -19 -246 -6 -67 -6 -124 1 -185 15 -120 6 -223 -36 -419 -14 -63
-25 -117 -25 -120 0 -9 74 -36 127 -47 33 -7 54 -17 57 -27 15 -49 23 -142 16
-186 -13 -73 -12 -217 2 -320 15 -120 13 -250 -6 -304 -9 -24 -32 -61 -51 -82
-40 -45 -41 -47 -19 -77 19 -28 58 -29 102 -2 22 14 32 27 32 44 0 35 18 78
30 71 5 -3 11 -21 11 -38 1 -20 3 -24 6 -12 2 11 14 51 26 88 l21 69 -24 44
-23 45 18 122 c10 67 22 178 25 247 4 69 13 140 20 159 8 22 11 55 7 97 -4 35
-3 65 1 68 4 2 25 1 47 -3 36 -6 40 -9 48 -46 4 -22 16 -76 27 -120 16 -70 18
-108 13 -315 -3 -163 -9 -248 -19 -278 -8 -24 -16 -97 -19 -163 -4 -117 -4
-119 20 -135 36 -23 77 -15 94 20 11 25 12 38 1 79 -22 86 -14 200 20 302 65
190 73 237 65 380 -7 145 -7 251 1 278 3 10 15 17 29 17 12 0 25 7 29 15 3 8
16 15 30 15 14 0 27 3 30 8 2 4 -4 43 -15 87 -10 44 -24 121 -30 170 -6 50
-17 120 -24 156 -12 56 -12 73 1 114 15 52 48 295 59 438 7 93 -3 157 -37 234
-20 45 -60 83 -87 83 -9 0 -26 7 -39 15 -18 13 -22 25 -21 73 0 31 -11 110
-24 174 -25 115 -49 168 -85 187 -27 13 -95 20 -117 11z m277 -982 c3 -48 2
-86 -2 -83 -16 10 -36 90 -29 115 4 14 8 41 9 60 2 61 17 4 22 -92z m-457 12
c-9 -71 -28 -156 -38 -165 -6 -7 -8 -2 -4 15 3 14 11 60 18 103 7 42 16 77 20
77 4 0 6 -14 4 -30z"/>
<path d="M5745 10392 c-57 -36 -88 -112 -100 -249 -14 -149 -35 -180 -131
-191 -38 -4 -51 -13 -106 -71 -130 -138 -278 -334 -278 -368 0 -9 20 -57 44
-108 31 -66 62 -113 111 -166 37 -41 76 -77 86 -81 11 -4 19 -11 19 -16 0 -5
23 -21 51 -37 48 -26 51 -29 45 -59 -18 -98 -17 -133 3 -206 34 -119 53 -281
56 -475 2 -164 5 -188 30 -270 15 -49 31 -111 35 -138 3 -26 16 -60 27 -75 29
-39 37 -102 22 -162 -16 -64 -8 -72 71 -78 73 -5 78 2 56 90 -8 35 -17 90 -19
124 -2 33 -9 69 -14 80 -6 10 -13 71 -17 134 -3 63 -11 149 -17 191 -7 44 -8
84 -4 95 5 11 9 24 10 29 23 180 67 427 75 418 9 -10 66 -239 80 -323 6 -36
18 -85 27 -110 11 -35 13 -67 8 -141 -7 -91 6 -230 35 -395 5 -31 5 -67 -1
-93 -12 -55 0 -77 48 -85 21 -4 66 -21 101 -37 46 -22 71 -29 92 -24 38 8 45
31 17 56 -12 11 -43 37 -68 59 -72 62 -74 71 -58 288 8 103 13 225 11 272 -1
47 -2 170 -2 275 l1 190 33 35 c60 64 70 111 62 294 -5 89 -7 178 -7 198 1 21
-9 109 -23 195 -13 87 -27 196 -31 243 -10 150 -31 193 -115 235 -38 19 -50
31 -55 56 -4 19 -3 34 3 38 7 4 9 52 5 140 -7 143 -16 170 -74 214 -39 28
-107 33 -144 9z m-237 -757 c34 -101 37 -157 11 -220 -19 -46 -21 -60 -12 -89
15 -50 5 -126 -17 -126 -26 0 -68 37 -90 81 -11 21 -25 39 -30 39 -6 0 -10 8
-10 18 0 11 -9 27 -20 37 -11 10 -19 23 -18 29 1 6 -7 28 -17 49 l-19 37 26
28 c14 15 33 43 43 62 18 38 116 133 126 122 3 -4 15 -34 27 -67z m579 -645
c-3 -29 -47 153 -46 190 0 14 11 -18 25 -70 13 -52 23 -106 21 -120z m33 -144
c0 -16 -18 -31 -27 -22 -8 8 5 36 17 36 5 0 10 -6 10 -14z m-18 -68 c-7 -7
-12 -8 -12 -2 0 14 12 26 19 19 2 -3 -1 -11 -7 -17z"/>
<path d="M8290 10382 c-61 -30 -83 -77 -125 -264 -21 -97 -37 -117 -100 -129
-58 -11 -114 -61 -195 -174 -138 -194 -160 -251 -131 -337 29 -84 48 -115 112
-184 32 -35 59 -68 59 -74 0 -6 10 -15 23 -19 31 -13 127 -100 127 -116 0 -7
-11 -32 -24 -56 -44 -80 -143 -333 -162 -412 l-18 -78 32 -97 c52 -159 122
-411 122 -437 0 -14 13 -77 30 -141 16 -65 29 -118 27 -119 -1 0 -14 -6 -29
-13 -43 -18 -30 -58 16 -52 5 1 14 -9 20 -22 18 -35 54 -48 138 -48 88 0 229
17 242 30 5 5 9 46 10 92 1 46 12 144 25 218 18 106 21 155 16 230 -6 91 -10
135 -14 135 -1 0 -4 27 -6 60 -4 68 16 222 52 400 35 172 40 296 14 415 -17
78 -25 99 -47 117 -24 19 -26 24 -14 38 11 13 11 25 0 68 -7 29 -16 57 -20 62
-21 29 -19 65 5 101 14 20 25 41 25 45 0 23 17 5 33 -35 47 -114 169 -228 214
-200 10 6 33 46 51 90 29 71 32 87 28 152 -2 40 -1 85 4 101 5 17 4 33 -1 38
-6 6 -6 20 1 37 19 50 12 109 -16 135 -25 24 -26 38 -8 104 3 9 1 17 -5 17 -5
0 -18 -25 -27 -55 -10 -30 -23 -55 -31 -55 -7 0 -22 18 -33 39 -38 75 -55 58
-21 -21 10 -24 24 -76 31 -116 11 -66 10 -78 -10 -142 -12 -39 -24 -70 -25
-68 -2 2 -18 39 -35 83 -47 121 -71 163 -102 176 -16 6 -33 19 -38 29 -5 9 -6
92 -3 191 l6 174 -28 33 c-33 39 -93 72 -132 72 -15 0 -44 -8 -63 -18z m-296
-859 c14 -32 34 -94 45 -138 35 -147 34 -135 7 -135 -25 0 -76 50 -76 75 0 8
-9 19 -20 25 -11 6 -20 17 -20 24 0 7 -9 23 -20 36 -11 13 -20 31 -20 42 0 10
-4 18 -9 18 -5 0 -12 11 -15 24 -6 24 38 120 73 160 15 17 16 16 23 -27 3 -25
18 -72 32 -104z m259 -837 c4 -46 14 -119 22 -163 8 -43 15 -95 15 -116 0 -21
8 -54 19 -75 14 -28 21 -77 28 -202 12 -185 11 -207 -12 -303 -16 -65 -18 -68
-65 -92 -63 -32 -130 -55 -130 -44 0 4 4 10 9 13 5 3 6 25 4 48 -4 34 1 55 26
102 39 74 40 101 3 120 -27 14 -29 20 -36 98 -14 178 -25 246 -55 338 l-32 94
31 61 c32 64 149 217 160 210 4 -2 10 -42 13 -89z"/>
<path d="M3145 10371 c-41 -7 -100 -43 -109 -67 -13 -35 -18 -213 -7 -247 7
-21 16 -35 20 -33 4 3 8 -8 9 -24 2 -23 -4 -32 -27 -45 -17 -8 -46 -15 -66
-15 -33 0 -49 -12 -182 -142 -166 -163 -223 -230 -223 -263 0 -29 34 -109 61
-144 11 -14 44 -59 73 -100 51 -72 55 -75 122 -97 l69 -22 -3 -94 c-3 -87 -1
-97 28 -157 17 -35 46 -85 64 -110 l34 -46 -14 -80 c-8 -44 -20 -109 -28 -145
-8 -36 -17 -92 -20 -125 -3 -33 -12 -91 -21 -130 -14 -57 -16 -108 -12 -270 2
-110 0 -224 -5 -253 -14 -80 -5 -86 109 -79 88 6 93 5 93 -13 0 -11 10 -30 21
-41 19 -19 29 -21 77 -16 62 7 81 19 63 40 -9 12 -8 16 4 21 24 9 18 23 -15
35 -33 11 -38 37 -20 101 6 19 15 73 21 120 9 78 54 227 138 460 17 47 31 94
31 106 0 28 -41 144 -83 234 -35 75 -35 75 -30 187 l6 112 43 30 c23 17 45 39
48 49 3 9 19 23 36 30 16 8 62 44 101 81 64 60 75 76 104 150 l32 84 -17 61
c-21 80 -140 311 -183 358 -23 25 -49 41 -81 50 -25 7 -48 19 -50 28 -2 8 -9
74 -16 145 -15 166 -35 233 -75 256 -40 23 -71 28 -120 20z m-182 -732 c23
-45 26 -62 22 -104 -3 -27 -9 -79 -12 -114 -5 -58 -8 -65 -38 -83 -36 -21 -48
-40 -39 -63 5 -11 -1 -15 -19 -15 -29 0 -77 51 -77 81 0 11 -7 22 -15 25 -15
6 -32 40 -54 107 -12 36 -11 39 22 76 19 21 38 45 43 53 13 21 117 97 129 94
6 -1 22 -27 38 -57z m567 -136 c0 -12 9 -31 20 -41 20 -18 19 -18 -13 -54 -82
-91 -97 -111 -97 -122 0 -7 -14 -22 -30 -35 l-31 -22 7 28 c13 54 66 218 87
267 l20 48 18 -23 c10 -13 19 -34 19 -46z m-300 -1041 c0 -13 -13 -53 -28 -90
-16 -37 -32 -78 -35 -92 -11 -45 -37 -237 -41 -301 -3 -47 -9 -66 -23 -76 -40
-28 -45 -36 -39 -67 4 -21 3 -26 -3 -17 -15 23 -12 177 4 279 9 52 20 126 25
165 14 97 57 220 93 265 8 10 14 7 28 -15 11 -15 19 -38 19 -51z"/>
<path d="M9542 10364 c-42 -29 -57 -72 -121 -349 -7 -28 -11 -30 -55 -33 -46
-3 -52 -7 -172 -124 -71 -69 -141 -148 -165 -185 l-40 -64 12 -97 c14 -113 23
-135 89 -207 27 -29 54 -63 60 -74 6 -12 16 -21 22 -21 20 0 99 -94 92 -110
-38 -90 -69 -264 -83 -466 -14 -217 -2 -301 111 -753 28 -114 29 -125 14 -136
-22 -16 -20 -32 4 -45 l21 -11 -21 -26 c-26 -34 -11 -53 42 -53 32 0 46 6 68
30 28 30 29 31 66 15 48 -20 100 -20 108 1 3 9 6 29 6 45 0 31 25 100 65 179
12 25 36 88 51 140 28 92 29 102 30 325 0 213 9 325 35 458 5 29 13 105 16
169 l6 117 38 31 c21 16 44 30 52 30 30 0 221 232 238 290 11 35 9 44 -14 92
-15 29 -47 80 -73 113 -25 33 -67 92 -94 130 -26 39 -55 77 -65 85 -9 8 -21
24 -26 37 -7 18 -16 23 -43 23 -59 0 -87 67 -65 157 15 66 2 169 -32 234 -31
62 -124 90 -177 53z m-266 -752 c0 -61 7 -118 17 -155 10 -32 17 -63 15 -70
-1 -7 1 -24 5 -40 8 -30 -6 -67 -27 -67 -19 0 -76 75 -76 100 0 12 -9 33 -20
47 -11 14 -20 33 -20 42 0 10 -11 33 -25 51 -25 34 -25 35 -6 44 11 5 23 18
27 30 6 20 92 116 104 116 3 0 5 -44 6 -98z m581 36 c12 -13 31 -45 43 -71 12
-26 39 -61 58 -77 33 -27 35 -31 20 -47 -8 -10 -28 -46 -44 -80 -15 -35 -36
-65 -46 -68 -9 -4 -20 -16 -24 -28 -9 -30 -54 -77 -75 -77 -19 0 -35 58 -19
74 14 14 12 48 -5 70 -20 26 -20 147 -1 210 14 45 54 116 67 116 3 0 15 -10
26 -22z m-357 -892 c0 -44 61 -398 72 -419 16 -30 -8 -330 -33 -417 -25 -89
-87 -174 -73 -100 6 25 2 36 -22 61 -16 17 -30 42 -30 57 -9 203 -17 278 -46
400 l-22 93 23 86 c23 89 103 263 121 263 6 0 10 -11 10 -24z"/>
<path d="M4432 10360 c-33 -14 -79 -94 -88 -153 -4 -29 -8 -93 -8 -143 -1
-104 -12 -126 -55 -118 -31 6 -50 -6 -255 -167 -133 -104 -196 -172 -196 -210
0 -13 13 -45 28 -71 43 -73 194 -247 216 -248 21 0 86 -38 86 -50 0 -4 -7 -27
-16 -51 -35 -99 -14 -210 56 -299 16 -21 30 -50 30 -65 0 -31 -15 -137 -36
-250 -7 -44 -14 -103 -14 -131 0 -28 -7 -96 -15 -152 -13 -84 -13 -125 -4
-244 13 -167 14 -252 5 -295 -12 -55 6 -62 146 -56 182 8 232 15 236 34 2 12
-7 18 -35 23 -65 12 -193 77 -198 100 -18 91 -6 333 24 501 10 57 64 200 86
229 14 19 15 19 35 1 11 -10 31 -41 44 -69 23 -47 24 -56 14 -126 -13 -100 11
-312 47 -410 18 -50 17 -80 -6 -108 -10 -14 -19 -31 -19 -38 0 -8 22 -38 50
-68 27 -31 56 -68 64 -84 8 -16 23 -32 31 -36 44 -16 136 3 139 29 0 6 -17 19
-39 31 l-40 20 -15 110 c-9 60 -19 114 -23 120 -5 9 -6 206 -3 574 1 62 -4 74
-86 245 -73 151 -87 187 -86 224 2 39 7 46 40 67 46 29 62 31 29 3 -39 -32
-16 -33 31 -2 24 16 50 33 58 37 31 15 57 33 120 84 108 87 116 97 152 188
l36 88 -19 66 c-25 92 -141 328 -182 373 -20 21 -48 40 -66 43 -53 11 -67 40
-86 186 -20 156 -46 227 -97 258 -35 21 -78 25 -116 10z m-198 -706 c26 -54
37 -179 19 -223 -7 -18 -15 -45 -18 -60 -2 -14 -14 -33 -25 -43 -11 -9 -20
-23 -20 -32 0 -9 -4 -16 -9 -16 -12 0 -59 62 -71 94 -5 14 -16 26 -24 26 -12
0 -76 113 -76 135 0 31 167 169 195 161 6 -1 19 -20 29 -42z m570 -110 c14
-26 26 -57 26 -70 0 -12 9 -29 21 -37 20 -14 20 -16 4 -41 -9 -14 -24 -28 -33
-31 -10 -3 -33 -32 -52 -65 -19 -33 -54 -75 -77 -95 -46 -38 -80 -47 -68 -17
4 9 20 55 35 102 29 86 45 125 80 191 10 19 21 52 25 72 4 20 9 37 10 37 2 0
15 -21 29 -46z m-194 -451 c0 -10 -32 -43 -41 -43 -5 0 -3 11 3 25 10 22 38
36 38 18z"/>
<path d="M7034 10342 c-37 -27 -40 -34 -52 -103 -8 -50 -10 -117 -6 -205 5
-91 4 -133 -4 -138 -6 -4 -9 -12 -7 -19 6 -15 -128 -157 -148 -157 -8 0 -22
-9 -32 -20 -24 -26 -39 -26 -32 1 3 12 2 45 -3 75 -10 62 5 156 40 243 11 29
18 56 14 60 -4 3 -9 1 -11 -6 -9 -24 -49 -78 -58 -78 -6 0 -11 11 -13 25 -6
63 -14 90 -24 90 -7 0 -8 -21 -3 -65 l7 -65 -32 0 c-31 0 -53 -26 -33 -39 20
-12 25 -118 9 -173 -21 -75 -31 -200 -17 -226 7 -13 27 -24 57 -30 40 -9 53
-7 85 10 73 38 75 35 70 -159 l-4 -171 38 -20 c32 -16 42 -29 60 -78 l21 -59
-22 -30 c-23 -32 -186 -372 -210 -439 -19 -52 -18 -86 6 -148 11 -29 20 -62
20 -73 0 -11 16 -83 35 -159 35 -138 51 -239 62 -385 6 -78 0 -90 -42 -91 -11
0 -27 -4 -35 -10 -12 -8 -12 -14 3 -45 9 -19 28 -40 43 -45 37 -15 96 -12 119
6 16 12 35 14 91 8 103 -9 114 -4 114 56 0 52 24 159 45 200 7 14 24 75 38
135 25 105 26 122 25 375 -2 323 10 444 52 510 38 60 49 108 48 215 0 72 -4
94 -19 114 -10 13 -19 32 -19 43 0 27 -17 57 -48 83 -21 18 -24 26 -15 37 7 8
10 24 6 36 -8 32 3 27 46 -18 64 -68 118 -48 144 52 29 110 33 135 25 164 -16
55 -13 147 5 174 34 52 40 87 23 124 -12 26 -14 41 -6 61 12 32 12 35 2 35 -5
0 -17 -18 -27 -40 -23 -51 -39 -46 -43 13 -4 63 -19 60 -27 -5 -9 -78 -16
-108 -23 -108 -4 1 -19 11 -33 23 -28 23 -34 53 -59 276 -6 51 -18 107 -26
123 -37 72 -148 92 -220 40z m-6 -1819 c11 -38 23 -88 26 -112 4 -24 13 -56
21 -72 13 -24 14 -52 5 -181 -10 -152 -25 -261 -39 -286 -6 -11 -14 -9 -35 10
-26 23 -27 26 -36 201 -9 154 -14 191 -41 273 -17 52 -27 103 -24 114 8 25 83
120 94 120 5 0 18 -30 29 -67z"/>
<path d="M2130 10312 c-38 -21 -47 -34 -85 -134 -20 -52 -25 -85 -25 -153 0
-103 -24 -165 -64 -165 -29 0 -115 -66 -146 -112 -13 -18 -54 -65 -93 -104
-67 -70 -69 -73 -71 -125 -1 -54 -1 -54 39 -74 22 -10 57 -19 78 -18 20 0 37
-4 37 -10 0 -5 7 -15 16 -21 13 -10 14 -20 3 -80 -7 -43 -9 -92 -4 -130 12
-96 10 -155 -9 -241 -18 -82 -17 -241 4 -465 6 -67 4 -106 -11 -185 -10 -55
-26 -165 -35 -245 -8 -80 -18 -152 -22 -160 -8 -19 -9 -29 -11 -62 -1 -34 -70
-92 -147 -123 -69 -28 -83 -47 -52 -69 29 -21 53 -20 123 4 32 11 77 20 101
20 82 0 91 9 96 93 3 46 11 83 21 98 10 13 17 39 17 58 0 19 13 75 29 125 16
50 36 136 45 191 8 55 22 123 30 150 8 28 19 91 25 140 6 50 17 110 24 135
l13 45 32 -95 c18 -52 41 -127 51 -166 10 -39 24 -81 31 -94 9 -17 10 -61 5
-174 -4 -83 -8 -178 -10 -212 -1 -33 -8 -70 -14 -82 -6 -11 -11 -38 -11 -59 0
-21 -10 -61 -21 -89 -30 -71 -23 -84 46 -84 41 0 60 5 75 20 19 19 20 30 5
103 -2 10 8 55 22 100 80 261 97 382 69 500 -18 76 -20 241 -5 377 21 197 21
232 0 320 -32 137 -37 154 -51 179 -11 21 -10 26 4 36 14 10 16 27 12 105 -5
105 -2 118 47 181 37 49 56 113 60 197 2 49 -1 56 -30 83 l-33 29 0 97 c1 191
-45 328 -115 344 -17 4 -37 9 -45 13 -8 3 -31 -2 -50 -12z"/>
<path d="M5682 7250 c-39 -36 -56 -39 -47 -7 11 36 -10 9 -44 -57 -17 -32 -31
-72 -31 -90 0 -17 -5 -51 -11 -76 -6 -25 -19 -102 -29 -172 -19 -132 -19 -121
12 -366 7 -55 19 -99 36 -130 25 -45 26 -54 29 -252 3 -198 2 -212 -33 -405
-19 -110 -46 -252 -59 -315 -13 -63 -21 -118 -17 -122 4 -3 23 -10 42 -15 l34
-9 19 -115 c11 -62 18 -148 17 -189 -5 -182 -4 -334 4 -451 10 -142 0 -208
-42 -271 -46 -70 -1 -122 70 -81 27 16 35 28 45 73 8 42 11 48 13 25 1 -20 8
-3 22 53 20 79 20 85 5 118 -22 46 -21 70 8 199 17 74 25 140 25 202 0 50 5
104 11 120 6 15 12 82 14 148 3 136 8 157 39 153 15 -2 22 -11 24 -33 5 -38
44 -198 71 -290 13 -45 21 -98 21 -147 0 -42 7 -130 15 -195 12 -88 13 -129 6
-163 -6 -25 -16 -76 -21 -114 -6 -37 -20 -86 -30 -107 -25 -48 -25 -71 0 -94
14 -13 28 -16 54 -11 44 8 66 39 66 91 0 22 5 56 11 75 16 51 18 79 8 86 -17
10 -9 93 21 209 34 131 40 255 16 327 -20 59 -22 88 -13 198 12 134 13 138 53
146 19 3 36 9 38 13 10 16 -36 268 -105 572 -30 137 -25 191 34 319 9 19 38
89 64 155 l47 120 -3 305 c-3 354 -10 442 -39 473 -11 12 -27 36 -35 52 -15
27 -16 28 -17 8 0 -32 -11 -28 -38 13 -25 38 -42 41 -22 4 17 -32 3 -37 -21
-7 -25 33 -44 36 -28 5 9 -19 9 -21 -2 -10 -7 6 -20 12 -28 12 -9 0 4 -19 32
-48 26 -26 47 -51 47 -56 0 -5 -17 -5 -37 -2 l-38 6 24 -20 c13 -11 37 -20 55
-20 60 0 59 2 52 -216 -10 -276 -30 -430 -64 -481 -9 -15 -24 -23 -43 -23 -38
0 -46 32 -24 106 35 120 -21 234 -114 234 -70 0 -104 -44 -116 -148 -6 -52 -4
-66 10 -82 20 -22 33 -100 16 -100 -21 0 -70 56 -91 106 -37 86 -47 159 -45
339 3 279 -3 251 55 276 27 12 55 28 62 37 11 13 9 14 -24 8 -51 -9 -43 12 23
59 27 19 49 39 49 45 0 13 -17 13 -25 0 -3 -5 -11 -10 -17 -10 -6 0 -3 9 7 20
23 26 1 28 -29 3 -20 -17 -20 -17 -7 0 21 27 -1 19 -37 -13z"/>
<path d="M3296 7245 c-12 -48 -14 -51 -15 -27 -1 12 -6 22 -12 22 -8 0 -10
-13 -6 -37 8 -50 -5 -73 -22 -37 -6 15 -14 25 -16 23 -5 -6 30 -132 45 -159
12 -23 5 -116 -10 -125 -13 -8 -30 -122 -38 -252 -9 -158 1 -323 26 -398 16
-51 19 -82 16 -202 -2 -78 -11 -174 -19 -213 -21 -100 -20 -121 12 -145 25
-21 26 -23 14 -66 -15 -53 -24 -101 -45 -239 l-17 -105 31 -205 c28 -184 30
-219 24 -350 -5 -112 -3 -165 10 -235 9 -49 16 -109 16 -132 0 -23 4 -44 9
-47 4 -3 11 -25 14 -48 7 -50 -11 -87 -54 -112 -50 -29 -31 -64 39 -73 29 -4
43 -1 53 12 8 9 24 27 36 39 16 17 22 34 22 62 -2 86 13 540 18 554 13 33 16
54 34 260 6 68 14 131 18 138 8 15 41 -235 41 -310 0 -26 5 -59 12 -73 9 -20
8 -51 -5 -143 -56 -407 -59 -465 -27 -532 9 -18 41 -24 86 -16 48 10 53 38 14
82 -28 33 -30 40 -24 82 4 26 13 59 21 74 7 16 29 79 49 140 37 118 57 254 50
342 -4 51 28 262 58 386 19 76 20 125 6 223 -6 40 -15 101 -20 136 -5 35 -16
71 -24 80 -21 23 -20 43 4 119 11 35 20 80 20 100 0 21 7 59 15 86 8 27 15 79
15 115 0 37 7 91 15 121 8 30 22 80 30 110 9 34 17 132 21 260 10 314 10 364
1 377 -14 19 -5 76 38 243 l7 25 -20 -25 -20 -24 -7 39 c-11 66 -13 71 -14 38
-2 -47 -21 -41 -21 6 0 52 -18 62 -22 14 l-4 -38 -13 33 c-7 17 -17 32 -22 32
-9 0 -4 -34 12 -78 12 -31 11 -69 -1 -77 -6 -3 -22 3 -37 14 -42 33 -39 16 6
-37 47 -57 49 -69 26 -208 -8 -50 -17 -133 -19 -185 -3 -52 -10 -107 -15 -122
-6 -16 -11 -54 -12 -85 0 -89 -11 -135 -32 -138 -13 -2 -17 2 -13 13 3 8 6 18
6 21 0 4 5 0 10 -8 18 -28 11 25 -15 117 -28 97 -49 123 -99 123 -17 0 -42 0
-55 0 -33 1 -51 -19 -97 -105 -21 -41 -42 -75 -45 -75 -8 0 -9 39 -9 362 0
262 0 268 24 322 24 54 20 77 -6 36 -7 -11 -19 -20 -27 -20 -11 0 -12 11 -8
48 4 26 9 57 13 70 4 13 2 22 -5 22 -6 0 -11 -7 -11 -15 0 -24 -18 -18 -23 8
-3 20 -4 19 -11 -8z"/>
<path d="M1024 6964 c-19 -10 -31 -11 -38 -4 -14 14 -61 12 -101 -4 -43 -18
-249 -189 -304 -253 -50 -58 -50 -70 11 -191 28 -58 63 -107 115 -162 41 -44
75 -87 75 -97 1 -10 -6 -48 -16 -85 -16 -56 -17 -74 -7 -112 16 -65 14 -142
-9 -274 -22 -132 -82 -594 -77 -599 8 -7 113 -23 152 -23 42 0 44 -2 59 -42 8
-24 29 -81 47 -128 42 -115 49 -172 52 -405 l2 -200 -47 -76 c-44 -71 -77 -99
-114 -99 -10 0 -14 -8 -12 -22 2 -19 10 -24 46 -26 44 -3 50 -22 7 -22 -50 0
-38 -50 16 -69 65 -23 86 -15 150 50 49 52 61 60 74 49 8 -7 15 -30 16 -54 l1
-41 8 41 c5 22 16 58 24 79 21 48 20 60 -4 109 l-19 41 40 140 c38 128 41 149
39 240 -4 189 -2 290 6 375 l9 84 45 9 c75 14 75 16 45 168 -32 162 -86 339
-132 433 -47 99 -44 170 12 236 12 14 40 57 64 97 23 40 59 93 81 118 21 25
55 73 74 108 33 59 86 220 86 260 0 26 -86 114 -220 225 -63 53 -124 103 -135
112 -29 25 -87 31 -121 14z m46 -59 c15 -18 9 -28 -33 -52 -26 -16 -37 -17
-57 -9 -46 20 -51 26 -40 47 12 21 60 27 60 7 0 -8 6 -6 17 5 21 21 37 22 53
2z m137 -107 c52 -48 173 -195 173 -210 0 -14 -79 -145 -97 -160 -14 -12 -15
-7 -11 41 7 74 -6 114 -47 145 -19 15 -41 41 -50 60 -21 44 -80 76 -139 76
-41 0 -51 -4 -82 -37 -43 -47 -47 -63 -43 -162 3 -64 9 -86 27 -111 13 -17 22
-39 20 -48 -4 -21 -38 -29 -38 -9 0 8 -25 27 -56 43 -56 28 -163 133 -186 181
-14 28 18 79 103 166 l58 60 89 -6 c48 -3 95 -1 103 4 8 5 40 9 72 9 54 0 60
-3 104 -42z m-30 -342 c-3 -7 -9 -34 -12 -60 -8 -48 -13 -54 -33 -34 -19 19
-14 59 11 83 25 26 42 31 34 11z"/>
<path d="M8311 6933 c-57 -28 -86 -89 -150 -321 -15 -53 -78 -122 -113 -122
-39 0 -86 -74 -131 -210 -24 -72 -96 -240 -130 -307 -9 -17 -38 -93 -63 -170
-37 -108 -48 -157 -52 -225 -4 -80 -3 -87 17 -100 11 -7 21 -17 21 -21 0 -18
63 -88 123 -135 68 -54 110 -76 202 -102 l60 -17 22 -134 c12 -74 24 -186 27
-249 4 -63 15 -170 26 -238 29 -179 27 -218 -15 -303 -30 -59 -42 -73 -80 -91
-55 -27 -62 -43 -28 -65 51 -34 163 -13 163 30 0 18 50 77 66 77 10 0 14 -13
15 -47 0 -51 1 -50 33 42 30 84 31 104 7 135 -20 28 -21 40 -20 222 0 107 -4
221 -11 256 -8 46 -8 78 -1 113 6 28 11 79 11 114 0 36 4 65 9 65 5 0 12 -29
16 -65 4 -37 17 -85 31 -112 28 -55 45 -100 114 -303 45 -136 49 -154 55 -280
6 -122 5 -142 -14 -197 -26 -77 -26 -100 -2 -108 25 -8 89 19 124 52 25 24 27
33 27 100 0 76 4 85 26 56 10 -15 12 -7 7 47 -7 76 -16 98 -47 110 -27 10 -36
60 -36 210 0 114 -18 192 -65 278 -42 75 -44 110 -14 240 l22 93 74 35 c41 20
127 71 192 114 65 43 134 86 154 96 35 17 57 53 57 94 0 9 -15 34 -33 56 -39
46 -102 160 -146 263 -17 41 -53 104 -80 140 -68 93 -98 148 -115 211 -28 107
-85 202 -130 220 -23 8 -23 12 -20 107 2 54 7 134 12 178 10 90 7 100 -47 135
-83 56 -112 62 -170 33z m246 -785 c28 -58 246 -350 311 -417 40 -41 52 -61
52 -85 0 -17 3 -48 6 -68 6 -33 4 -38 -13 -38 -11 0 -60 25 -109 55 -49 31
-119 72 -156 93 -62 34 -69 42 -93 97 -15 33 -35 76 -46 95 -43 75 -50 100
-40 133 5 18 12 52 15 76 6 42 33 101 46 101 3 0 15 -19 27 -42z m-503 -131
c25 -64 39 -117 38 -142 -1 -54 -56 -204 -96 -263 -29 -43 -38 -49 -119 -77
l-89 -29 -19 24 c-13 17 -19 42 -19 79 0 46 8 70 54 160 29 58 61 127 71 152
9 26 34 68 56 94 22 26 47 61 56 76 10 16 20 29 23 29 3 0 23 -46 44 -103z
m939 -453 c9 -9 -16 -44 -30 -44 -16 0 -17 22 -1 38 13 13 22 15 31 6z"/>
<path d="M11707 6888 c-40 -31 -77 -92 -77 -126 0 -20 -7 -43 -16 -53 -9 -10
-13 -23 -8 -31 4 -7 9 -32 10 -55 2 -51 15 -69 54 -78 28 -6 60 -42 60 -66 0
-15 -25 -35 -66 -53 -33 -15 -89 -91 -99 -136 -3 -15 -17 -38 -31 -50 -19 -18
-24 -34 -24 -69 0 -47 -50 -192 -76 -222 -8 -9 -31 -56 -53 -105 -21 -49 -56
-127 -78 -174 -26 -56 -40 -102 -42 -134 -1 -27 -7 -58 -12 -68 -8 -16 -3 -29
30 -73 49 -65 112 -104 191 -119 l58 -11 -44 -114 c-24 -62 -44 -123 -44 -135
0 -11 11 -48 24 -81 13 -33 46 -143 74 -245 52 -188 56 -225 53 -411 -1 -52
-3 -57 -28 -67 -16 -6 -39 -12 -53 -14 -36 -4 -40 -44 -6 -60 14 -6 26 -17 26
-24 0 -41 66 -56 123 -28 53 27 67 44 67 83 0 44 13 66 34 58 11 -5 16 -20 17
-54 0 -50 10 -41 23 19 4 19 11 26 21 22 11 -5 13 -2 9 10 -3 9 -1 30 5 48 9
26 8 38 -9 70 -26 51 -26 63 12 214 32 128 32 130 33 401 1 150 4 276 8 279 3
4 26 1 51 -5 113 -28 216 4 308 98 42 43 47 54 53 108 l7 60 -40 23 c-33 19
-44 33 -61 79 -11 31 -25 85 -31 121 -6 36 -27 117 -48 180 l-36 115 -1 190
c0 105 -4 201 -9 215 -4 14 -11 86 -16 160 -4 74 -12 149 -19 167 -13 32 -49
63 -74 63 -8 0 -26 15 -40 33 -38 50 -166 77 -210 45z m238 -406 c-10 -10 -43
12 -53 34 -18 38 -14 60 11 71 21 10 23 7 34 -46 6 -31 10 -58 8 -59z m29 13
c3 -8 1 -15 -4 -15 -6 0 -10 7 -10 15 0 8 2 15 4 15 2 0 6 -7 10 -15z m-19
-528 c5 -44 26 -97 86 -217 79 -157 105 -220 90 -220 -4 0 -30 21 -58 48 -47
43 -55 56 -83 147 -18 55 -38 112 -46 127 -8 15 -14 38 -14 51 0 12 -5 28 -12
35 -9 9 -9 18 0 37 7 14 12 38 12 53 1 45 17 5 25 -61z m-507 -249 c-24 -65
-59 -128 -70 -128 -20 0 -4 53 35 113 23 36 45 66 49 66 3 1 -3 -23 -14 -51z
m238 -705 c4 -21 11 -47 17 -58 13 -24 11 -151 -3 -174 -8 -13 -9 -12 -10 7 0
13 -13 55 -30 94 -34 80 -35 86 -16 133 19 45 33 44 42 -2z"/>
<path d="M4622 6777 c-28 -16 -49 -46 -84 -121 -25 -51 -31 -57 -51 -52 -41
11 -155 19 -182 12 -66 -17 -65 -140 2 -268 l35 -67 -40 -83 c-53 -110 -52
-106 -36 -179 7 -35 13 -117 14 -183 l0 -118 31 4 c29 4 33 1 50 -39 10 -25
19 -50 19 -57 0 -7 18 -47 39 -89 38 -75 39 -78 34 -159 -4 -55 0 -112 11
-169 16 -83 15 -90 -4 -170 -26 -108 -26 -198 -2 -230 10 -13 39 -59 65 -102
l47 -78 0 -97 c0 -88 -13 -233 -25 -288 -6 -29 -102 -100 -153 -113 -47 -13
-59 -26 -42 -46 19 -23 78 -29 159 -16 87 13 159 15 214 5 32 -5 43 -2 63 17
13 12 24 34 24 48 0 14 12 53 26 86 40 93 40 93 7 128 -25 26 -37 58 -65 167
l-35 135 2 215 2 215 66 130 c113 220 118 291 32 460 -25 50 -45 95 -45 101 0
7 -6 14 -14 17 -7 3 -16 20 -19 39 -3 18 -9 48 -13 66 -4 21 -1 40 8 55 21 31
48 115 48 146 0 31 38 61 50 41 5 -8 11 0 15 21 5 23 34 62 94 124 101 106
187 217 201 261 7 21 7 40 1 58 -10 25 -13 26 -93 26 -46 -1 -108 -7 -138 -14
-30 -8 -59 -15 -65 -16 -5 -1 -22 -2 -37 -1 -25 1 -27 5 -38 70 -13 76 -32
102 -78 107 -15 2 -38 6 -52 9 -14 3 -35 -1 -48 -8z m316 -277 c25 0 25 0 6
-21 -10 -12 -41 -39 -67 -62 -39 -32 -51 -38 -58 -26 -15 24 -10 65 12 94 18
22 27 26 52 21 16 -3 41 -6 55 -6z m-448 -48 c0 -26 -7 -45 -19 -56 -19 -17
-21 -16 -46 24 -44 69 -43 70 14 70 l51 0 0 -38z m205 -2291 c-6 -14 -8 -14
-17 2 -10 18 -4 91 10 126 9 20 15 -106 7 -128z"/>
<path d="M10655 6765 c-17 -7 -38 -22 -48 -33 -62 -69 -62 -253 -1 -301 31
-24 41 -78 23 -114 -8 -14 -50 -65 -95 -114 l-80 -88 -1 -180 c-1 -144 2 -197
18 -267 25 -117 24 -223 -5 -365 -13 -65 -32 -164 -42 -221 -17 -101 -17 -102
4 -150 11 -26 23 -78 27 -117 3 -38 10 -104 15 -145 15 -121 12 -217 -11 -337
l-22 -112 -39 -16 c-53 -21 -48 -47 10 -59 72 -15 102 0 137 69 38 76 63 81
81 15 l12 -45 1 55 c1 30 4 72 7 92 6 33 3 40 -26 67 l-33 30 9 93 c10 107 10
258 -1 373 -6 69 -4 88 14 137 35 90 46 92 81 13 17 -37 35 -89 42 -114 6 -25
19 -63 29 -83 16 -32 19 -62 19 -221 0 -195 -9 -252 -54 -351 -32 -69 -69
-112 -111 -127 -69 -25 -50 -69 33 -77 68 -6 117 12 132 47 6 16 22 39 36 52
26 25 31 20 37 -41 l3 -35 7 30 c4 17 13 44 19 60 20 54 21 104 4 130 -23 34
-20 59 15 161 36 105 47 227 30 319 -7 33 -15 121 -18 196 -6 135 -6 135 19
160 l25 26 -18 94 c-13 69 -16 119 -12 189 6 110 2 125 -79 259 -28 47 -51 97
-51 111 0 14 18 93 41 177 46 168 49 200 26 264 -17 49 -21 258 -5 269 13 8
-11 116 -38 168 -12 23 -32 46 -44 51 -44 16 -93 19 -122 6z"/>
<path d="M2187 6744 c-12 -7 -32 -18 -44 -23 -24 -11 -26 -20 -23 -82 1 -21
-3 -40 -8 -43 -6 -3 -60 -8 -121 -10 -85 -3 -119 -1 -141 11 -16 8 -44 13 -61
11 -26 -3 -33 -9 -45 -43 -20 -58 -18 -73 21 -170 66 -164 107 -212 198 -237
42 -11 47 -15 42 -33 -16 -49 -16 -78 0 -123 18 -48 17 -53 -9 -218 -31 -199
-86 -604 -86 -640 0 -20 5 -24 33 -24 l32 0 -2 -368 c-2 -328 -5 -378 -22
-452 -11 -45 -21 -83 -23 -84 -72 -50 -83 -67 -56 -94 32 -32 133 0 144 45 10
43 34 84 44 78 6 -4 10 -22 10 -41 0 -19 5 -34 10 -34 6 0 10 17 10 39 0 21 7
55 15 74 15 37 14 51 -13 104 -15 30 -15 40 2 130 10 54 22 123 28 153 5 30 7
89 4 130 -4 68 -2 83 30 170 50 134 68 160 108 160 31 0 34 -4 65 -74 18 -40
39 -95 46 -120 8 -26 23 -60 35 -76 18 -26 20 -43 20 -217 0 -103 -5 -206 -11
-228 -5 -22 -18 -76 -29 -120 -10 -45 -31 -107 -47 -139 l-28 -58 24 -19 c27
-22 59 -24 96 -7 25 11 28 18 40 93 4 22 16 57 28 77 18 33 19 41 8 62 -19 34
-9 95 34 215 51 144 56 226 21 380 -15 66 -26 144 -26 186 l0 73 40 16 c22 9
40 19 40 23 0 5 -16 81 -34 171 -36 168 -64 240 -142 367 -55 91 -77 145 -63
161 6 7 8 22 5 32 -4 13 9 44 39 93 25 40 49 77 53 81 4 4 28 -1 52 -13 54
-26 118 -28 192 -6 81 24 84 37 80 307 -2 118 -5 222 -7 230 -7 24 -80 40
-123 28 -51 -14 -107 -4 -153 27 -32 23 -46 27 -83 23 -38 -5 -49 -1 -86 28
-37 29 -50 34 -92 33 -26 -1 -58 -8 -71 -15z m263 -103 c5 -11 14 -50 19 -88
7 -55 9 -60 10 -25 0 23 5 42 10 42 4 0 21 -19 36 -42 34 -51 45 -36 16 21
-12 22 -21 43 -21 46 0 3 18 2 39 -1 22 -4 54 -2 71 4 28 10 32 9 40 -13 5
-13 18 -33 30 -45 24 -24 26 -92 6 -240 -12 -95 -12 -95 -40 -93 -30 2 -162
87 -170 109 -3 8 -19 14 -36 14 -37 0 -85 23 -94 45 -14 37 -6 102 14 120 30
27 45 86 32 123 -6 17 -8 33 -5 36 12 12 33 5 43 -13z m-425 -133 c-4 -31 -3
-39 4 -28 8 11 11 -2 11 -50 1 -59 2 -63 15 -46 8 11 15 31 16 45 l1 26 8 -25
8 -25 1 26 c2 50 13 89 26 89 7 0 20 -18 28 -39 9 -21 27 -51 41 -66 49 -52
38 -64 -99 -116 -49 -19 -145 -26 -145 -11 0 4 -34 45 -75 92 -41 46 -75 88
-75 91 0 4 15 23 33 42 32 34 33 34 120 36 l89 1 -7 -42z"/>
<path d="M7110 6736 c-70 -38 -108 -213 -65 -299 11 -22 14 -44 9 -75 -6 -37
-15 -50 -69 -95 -34 -29 -82 -79 -108 -112 -25 -33 -70 -76 -101 -95 -57 -37
-76 -64 -76 -107 0 -35 26 -52 78 -53 47 0 48 -3 28 -57 -8 -21 -20 -56 -25
-79 -12 -46 -91 -546 -91 -575 0 -11 8 -23 18 -26 9 -4 20 -10 23 -15 3 -5 38
-12 77 -15 50 -4 73 -10 77 -21 3 -8 8 -49 11 -91 3 -42 12 -92 21 -112 14
-33 13 -49 -7 -180 -12 -79 -28 -170 -36 -201 -16 -63 -63 -178 -73 -178 -3 0
-19 -24 -35 -54 -29 -53 -58 -76 -96 -76 -14 0 -20 -7 -20 -24 0 -28 40 -46
104 -46 37 0 45 5 85 51 53 62 74 62 82 -1 5 -43 5 -44 13 -15 4 17 16 54 28
83 l21 54 -22 28 c-11 16 -21 36 -21 43 0 8 19 52 41 98 58 118 79 183 86 266
7 85 23 88 23 4 0 -31 7 -111 16 -176 21 -156 15 -248 -21 -314 -36 -65 -79
-108 -116 -116 -42 -10 -48 -33 -15 -62 18 -15 40 -23 66 -23 58 0 85 14 119
63 29 43 58 64 70 52 3 -4 5 -24 5 -46 -2 -50 11 -51 20 -1 3 20 13 50 21 66
21 40 19 82 -7 117 -22 29 -22 32 -9 127 25 178 25 245 1 348 -12 52 -19 101
-16 109 3 8 -2 56 -11 106 l-17 91 24 18 c13 10 41 20 63 23 21 3 40 7 42 9 2
2 -2 31 -9 63 -8 33 -19 94 -26 135 -20 129 -50 233 -85 295 -41 74 -69 168
-61 203 4 15 8 36 10 47 3 11 25 79 50 152 50 144 54 176 30 269 -17 68 -16
115 2 121 7 3 13 -28 18 -89 10 -149 18 -208 27 -202 5 3 9 14 9 25 0 10 5 19
11 19 6 0 9 -14 6 -35 -3 -19 -1 -35 4 -35 12 0 39 55 39 80 0 11 3 20 8 20
10 0 9 349 -1 378 -5 12 -12 22 -17 22 -4 0 -22 22 -39 50 -17 27 -44 56 -60
65 -37 18 -97 19 -131 1z"/>
<path d="M9665 6636 c-44 -20 -69 -50 -115 -141 -21 -43 -26 -100 -10 -110 13
-8 13 -40 -1 -89 -8 -29 -38 -65 -126 -151 l-116 -112 7 -74 c4 -41 10 -121
12 -179 2 -58 9 -137 15 -176 13 -80 4 -226 -32 -514 -23 -180 -21 -243 7
-271 11 -10 57 -33 104 -52 l85 -34 28 -159 c34 -195 32 -275 -7 -334 -14 -22
-26 -46 -26 -54 0 -20 -37 -44 -77 -52 -27 -5 -33 -11 -33 -30 0 -30 32 -44
96 -44 47 0 55 6 107 74 15 20 36 36 46 36 21 0 33 -34 24 -68 -3 -13 -1 -22
6 -22 6 0 11 12 11 28 0 15 9 47 20 71 26 56 25 70 -6 112 -25 34 -25 35 -23
209 2 96 4 178 6 182 6 13 149 -33 238 -78 50 -24 95 -44 102 -44 16 0 33 -33
33 -64 0 -32 30 -50 53 -33 20 15 47 78 47 110 0 17 -12 33 -40 52 -64 45 -63
94 4 96 28 1 27 2 -11 9 -23 5 -51 14 -62 19 -28 15 -74 14 -97 -4 -10 -8 -26
-15 -34 -15 -8 0 -75 30 -147 66 l-133 67 0 46 c0 41 32 176 44 188 3 3 37 9
76 13 39 4 73 10 75 12 2 2 -5 37 -16 78 -15 56 -21 109 -22 205 l-2 130 -42
70 c-75 125 -96 173 -87 203 4 15 6 37 5 50 -2 13 2 28 7 35 15 19 60 147 72
203 10 44 8 58 -10 107 -29 76 -24 97 26 124 25 14 47 35 54 53 7 17 16 30 20
30 8 0 3 -28 -19 -108 -12 -43 -13 -212 -1 -212 3 0 4 -21 2 -47 -3 -47 -2
-47 12 -23 12 19 15 21 16 8 0 -12 5 -15 16 -11 14 5 15 0 10 -38 -5 -32 -4
-40 3 -29 6 8 11 23 11 33 0 9 5 17 10 17 6 0 10 9 10 20 0 11 3 20 8 20 4 0
7 28 7 62 0 35 2 117 4 183 4 119 3 122 -24 163 -16 24 -30 57 -32 74 -5 46
-34 88 -75 109 -43 22 -71 23 -113 5z"/>
<path d="M10310 3739 c0 -32 20 -82 46 -112 26 -31 26 -34 20 -118 -4 -48 -13
-124 -21 -170 -8 -46 -15 -105 -15 -130 0 -33 -7 -54 -26 -80 -14 -19 -45 -63
-69 -99 -24 -36 -64 -87 -90 -115 -26 -27 -63 -74 -82 -102 -20 -29 -42 -53
-49 -53 -7 0 -16 16 -19 38 -4 20 -11 48 -17 62 -5 14 -12 38 -14 54 -5 38
-68 103 -111 115 -76 21 -159 -32 -165 -108 -3 -40 22 -145 43 -180 8 -12 27
-25 42 -28 33 -7 87 -68 87 -100 0 -12 -11 -30 -25 -41 -16 -12 -25 -30 -25
-47 0 -14 -11 -41 -24 -58 -36 -48 -73 -145 -81 -212 -8 -71 -14 -95 -23 -95
-4 0 -22 27 -41 61 l-34 61 23 41 c23 39 23 41 5 73 -20 38 -34 41 -85 16 -32
-15 -35 -22 -38 -63 -2 -32 4 -63 21 -100 13 -30 32 -79 42 -109 10 -30 27
-73 38 -95 32 -65 106 -155 127 -155 31 0 82 52 107 110 13 30 28 64 33 75 5
11 16 46 25 79 16 58 16 58 37 40 16 -15 19 -27 14 -61 -4 -29 -1 -45 9 -53
22 -19 19 -71 -4 -77 -11 -3 -25 -19 -32 -36 -7 -18 -39 -68 -72 -112 -69 -93
-132 -214 -184 -352 -39 -104 -43 -155 -17 -207 7 -16 14 -35 14 -42 0 -8 16
-60 36 -116 36 -105 52 -173 61 -264 4 -49 3 -53 -29 -77 -18 -14 -59 -37 -91
-51 -31 -14 -60 -32 -63 -41 -11 -27 15 -45 65 -45 54 0 248 43 263 58 13 13
14 64 5 172 -4 47 -11 137 -16 200 -6 65 -18 140 -30 173 -19 53 -19 60 -4 95
8 20 28 51 43 68 46 53 171 164 184 164 35 0 47 -84 33 -231 -8 -78 -7 -90 16
-140 32 -72 43 -104 57 -164 6 -27 17 -59 24 -70 14 -22 17 -35 52 -235 5 -30
0 -44 -31 -90 l-37 -54 22 -18 c16 -13 40 -18 85 -18 57 0 66 3 84 26 22 28
22 26 24 234 1 104 -27 283 -57 355 -20 51 -24 72 -19 125 6 66 44 203 64 226
6 8 15 28 19 46 5 18 20 62 33 98 14 36 28 100 32 142 4 48 11 78 20 81 24 10
26 71 5 172 -12 54 -25 105 -29 114 -14 27 -41 110 -66 205 -13 50 -46 138
-74 195 -28 57 -51 114 -51 127 0 12 16 43 35 69 30 39 35 51 29 80 -4 25 4
58 36 141 63 163 72 230 64 482 -8 251 -6 248 -101 258 -50 5 -63 4 -63 -7z"/>
<path d="M11737 3703 c-12 -12 -7 -70 7 -82 34 -29 39 -65 16 -144 -11 -42
-34 -106 -51 -142 -16 -36 -37 -101 -45 -143 -9 -42 -27 -95 -39 -117 -13 -22
-29 -62 -36 -88 -15 -60 -76 -157 -120 -187 -27 -20 -32 -21 -26 -6 4 10 10
36 13 59 3 23 12 58 21 79 14 33 14 41 -1 86 -19 56 -45 84 -101 107 -79 34
-155 -22 -177 -129 -9 -43 -9 -63 2 -95 7 -23 18 -41 25 -41 6 0 18 -23 27
-51 15 -44 15 -51 2 -56 -25 -9 -73 46 -115 132 -22 44 -48 96 -59 115 -11 19
-20 53 -20 77 0 23 -15 88 -34 145 -20 59 -37 135 -40 180 -7 75 -6 77 24 111
34 40 38 67 12 90 -24 22 -44 21 -92 -3 l-40 -20 0 -188 c0 -127 5 -208 15
-252 8 -36 24 -108 35 -160 55 -264 70 -306 138 -408 l63 -97 -6 -190 c-3
-104 -12 -224 -20 -265 -13 -71 -13 -76 6 -89 18 -13 18 -15 -14 -54 -17 -23
-43 -54 -57 -69 -37 -40 -144 -230 -185 -327 -40 -94 -43 -138 -16 -190 91
-172 149 -324 158 -412 4 -42 2 -48 -24 -67 -15 -11 -57 -33 -93 -49 -36 -16
-72 -38 -80 -47 -13 -16 -12 -20 5 -33 16 -12 42 -14 125 -10 120 6 203 25
233 55 19 20 20 25 8 99 -6 43 -13 92 -15 108 -25 190 -40 266 -68 326 -28 63
-29 68 -14 95 8 16 32 45 53 66 74 71 158 144 185 161 46 29 53 6 51 -164 -2
-134 0 -154 21 -211 13 -35 26 -87 30 -117 4 -30 13 -66 21 -81 8 -15 19 -58
26 -96 6 -38 19 -89 29 -114 16 -41 16 -50 2 -108 -15 -61 -15 -64 5 -83 15
-15 35 -21 73 -22 44 -2 55 2 71 22 22 26 19 69 -7 106 -8 11 -14 46 -15 80 0
33 -4 83 -9 110 -6 28 -14 90 -20 139 -6 49 -17 112 -25 139 -21 71 -18 214 6
317 20 83 26 114 47 215 6 28 14 100 17 160 4 61 12 115 17 122 5 7 8 43 5 80
-3 37 -10 168 -17 290 -12 239 -7 305 30 375 12 24 20 59 20 91 1 69 19 149
78 347 56 190 108 436 99 472 -9 36 -117 75 -140 51z"/>
<path d="M2451 3384 c-38 -16 -52 -31 -81 -86 -17 -32 -19 -45 -11 -100 5 -35
19 -92 30 -127 l21 -64 -21 -23 c-12 -13 -58 -35 -102 -50 -96 -32 -116 -50
-119 -106 -1 -24 -2 -50 -3 -58 -8 -75 -20 -161 -35 -246 -22 -122 -16 -188
30 -379 29 -119 32 -138 25 -225 -4 -52 -6 -182 -5 -287 1 -196 4 -215 48
-303 5 -8 9 -35 10 -60 2 -25 9 -95 18 -157 11 -85 12 -131 5 -198 -6 -49 -8
-92 -5 -96 11 -19 -20 -50 -101 -101 -47 -29 -87 -61 -91 -70 -11 -35 5 -41
100 -35 99 5 230 46 245 76 4 9 5 53 2 99 -4 47 -2 91 4 100 5 9 11 92 13 184
4 138 1 180 -14 240 -28 114 -21 197 28 328 27 71 48 76 48 12 0 -20 11 -80
25 -132 14 -52 25 -107 25 -121 0 -15 6 -32 14 -38 9 -7 17 -40 21 -79 4 -37
15 -116 25 -177 10 -60 21 -167 24 -236 l6 -125 -45 -58 c-25 -32 -45 -62 -45
-67 0 -28 118 -38 174 -15 40 16 56 55 55 131 0 28 2 158 5 290 6 233 5 243
-20 344 -21 85 -24 119 -20 185 12 180 18 221 32 229 11 6 13 18 8 42 -5 28
-1 38 21 61 30 30 30 19 9 274 -6 73 -5 76 30 135 44 73 62 130 77 247 13 95
1 234 -27 329 -18 58 -34 69 -160 100 -57 15 -97 31 -111 45 -24 24 -30 58
-13 69 6 3 10 14 10 24 0 10 9 29 19 42 14 19 18 37 16 80 -4 69 -32 118 -84
147 -45 26 -63 27 -110 6z"/>
<path d="M1240 3377 c-24 -8 -45 -27 -68 -62 -31 -46 -33 -54 -27 -105 4 -30
16 -88 27 -128 l21 -73 -25 -25 c-17 -18 -47 -30 -99 -40 -41 -9 -87 -23 -104
-33 -31 -18 -40 -44 -50 -141 -8 -81 -12 -99 -24 -114 -6 -7 -18 -47 -26 -87
-8 -41 -23 -109 -34 -152 -11 -43 -30 -157 -42 -253 -18 -143 -20 -177 -9
-184 9 -5 11 -24 8 -60 -7 -67 13 -133 49 -164 l28 -24 17 26 c22 33 24 145 3
182 -7 14 -10 29 -5 35 4 5 22 78 39 160 40 194 60 263 72 244 14 -23 10 -95
-17 -305 -19 -146 -24 -224 -20 -294 6 -110 45 -390 56 -405 4 -5 12 -39 18
-75 6 -36 19 -112 29 -170 9 -58 16 -127 15 -153 -2 -26 1 -53 5 -60 13 -21
10 -141 -4 -169 -8 -18 -36 -39 -73 -58 -61 -31 -92 -63 -83 -86 8 -22 83 -17
151 11 34 14 77 25 95 25 65 0 64 -4 71 305 6 225 4 294 -8 350 -15 75 -13
247 4 299 6 16 10 42 10 57 0 16 4 29 9 29 13 0 28 -48 62 -200 16 -74 35
-140 41 -148 13 -15 12 -13 27 -122 5 -41 19 -110 30 -154 12 -50 18 -95 15
-125 -3 -25 0 -66 6 -91 24 -93 24 -108 -5 -152 -15 -23 -28 -55 -29 -72 -1
-25 3 -32 23 -34 51 -8 91 8 119 47 23 31 30 57 41 142 9 75 10 116 2 149 -5
24 -7 95 -5 160 6 116 1 154 -41 320 -26 101 -19 376 9 367 6 -2 12 -14 14
-26 3 -16 8 -21 20 -16 9 3 30 9 45 12 48 10 67 46 67 128 0 56 4 74 15 79 12
4 15 25 16 93 0 48 4 135 8 193 10 128 -2 262 -37 430 -22 102 -32 158 -38
203 -7 60 -23 71 -151 104 -54 13 -107 33 -117 43 -18 18 -18 22 -6 61 8 23
22 52 32 64 25 32 24 123 -2 172 -21 40 -82 83 -115 82 -11 0 -36 -5 -55 -12z
m313 -1107 c4 -68 3 -100 -3 -90 -9 14 -15 209 -6 199 2 -2 6 -51 9 -109z
m-683 -446 c0 -14 -4 -23 -10 -19 -5 3 -10 15 -10 26 0 10 5 19 10 19 6 0 10
-12 10 -26z"/>
<path d="M7235 3370 c-43 -17 -78 -67 -82 -117 -4 -41 1 -61 35 -133 22 -47
49 -96 61 -109 42 -48 24 -67 -104 -111 -105 -37 -107 -40 -107 -161 0 -57 -5
-115 -10 -129 -10 -24 -20 -83 -39 -220 -5 -36 -9 -70 -10 -76 -1 -6 7 -35 19
-65 108 -271 110 -277 99 -324 -6 -25 -8 -47 -5 -50 3 -3 28 -8 56 -12 55 -6
55 -6 67 -78 4 -22 12 -47 19 -55 7 -8 18 -44 25 -80 7 -36 16 -69 20 -75 14
-19 49 -163 56 -230 2 -25 15 -321 19 -438 l3 -87 -41 -38 c-23 -20 -60 -46
-84 -56 -42 -19 -62 -51 -47 -75 15 -25 151 -5 267 41 34 13 37 22 43 144 3
54 11 146 17 204 12 99 13 354 3 588 -8 192 26 91 46 -133 5 -66 16 -129 23
-140 8 -12 16 -74 20 -160 13 -245 21 -332 32 -346 13 -15 19 -46 33 -156 12
-86 23 -111 56 -119 50 -12 125 16 125 46 0 5 -14 26 -32 46 l-32 36 -2 126
c-1 70 3 184 8 255 9 100 8 146 -2 215 -16 100 -17 151 -5 312 5 63 8 168 7
233 -2 113 -2 118 17 112 11 -3 22 -1 26 5 3 5 26 15 51 21 24 6 46 14 48 18
3 4 -7 40 -21 81 l-25 75 26 135 c14 74 26 149 26 166 0 44 -42 185 -96 323
-25 64 -53 135 -61 159 -9 24 -25 50 -37 57 -13 9 -67 17 -144 21 -151 9 -167
17 -163 89 1 27 6 56 11 66 10 17 6 36 -27 127 -13 37 -23 47 -60 63 -47 20
-94 23 -128 9z m547 -879 c11 -26 13 -50 8 -73 -9 -39 -15 -27 -28 55 -10 66
-2 74 20 18z m-629 -200 c3 -24 2 -40 -3 -35 -5 5 -11 34 -15 64 -6 65 9 39
18 -29z"/>
<path d="M3696 3350 c-97 -29 -133 -155 -81 -283 57 -138 42 -179 -68 -191
-82 -9 -136 -26 -147 -45 -4 -9 -11 -40 -14 -68 -6 -56 -17 -86 -46 -118 -42
-46 -110 -170 -110 -200 0 -54 23 -75 86 -75 30 0 72 -5 93 -12 37 -12 39 -14
45 -63 3 -27 -1 -86 -9 -131 -8 -44 -19 -130 -25 -190 -10 -97 -9 -110 5 -121
12 -8 15 -20 10 -41 -10 -45 -15 -441 -5 -447 4 -3 11 -23 15 -45 4 -22 10
-42 14 -45 4 -2 9 -59 11 -127 4 -165 3 -194 -10 -258 -6 -30 -12 -68 -13 -85
-2 -25 -13 -37 -72 -77 -38 -26 -75 -48 -81 -48 -18 0 -26 -31 -12 -48 27 -32
261 14 301 60 12 15 17 38 17 87 0 37 5 72 10 77 13 13 44 243 42 319 -5 255
-5 272 13 321 30 83 40 104 48 104 9 0 8 4 47 -160 18 -74 39 -146 47 -159 9
-13 21 -67 28 -120 8 -53 18 -127 24 -166 5 -38 10 -118 10 -176 l1 -106 -55
-52 c-30 -29 -55 -58 -55 -65 0 -18 32 -26 102 -26 46 0 62 5 87 26 61 51 65
73 65 414 1 207 -1 230 -21 290 -13 38 -23 94 -25 135 -2 72 10 229 19 255 3
8 7 28 8 44 2 15 7 38 13 50 34 71 43 133 32 217 -5 46 -10 126 -10 179 0 52
-5 129 -10 170 -9 69 -8 77 10 100 72 88 78 100 89 175 15 104 14 209 -4 250
-17 43 -47 55 -133 57 -57 1 -69 5 -98 31 -19 16 -34 35 -34 41 0 7 11 35 25
62 78 154 -31 328 -179 284z"/>
<path d="M4895 3349 c-17 -4 -44 -22 -60 -39 -40 -41 -45 -122 -16 -237 12
-45 21 -88 21 -97 0 -16 -48 -46 -74 -46 -8 0 -40 -9 -70 -20 -64 -25 -67 -31
-91 -190 -8 -58 -24 -143 -34 -190 -11 -47 -27 -125 -35 -175 -9 -49 -25 -137
-36 -195 -19 -100 -33 -225 -32 -298 1 -35 30 -104 47 -109 6 -2 18 2 26 9 13
11 14 29 9 108 -5 70 -3 98 6 105 7 6 17 35 23 65 14 68 41 140 52 140 12 0
11 -54 -4 -230 -7 -86 -10 -225 -7 -340 l5 -196 36 -60 c47 -80 109 -352 103
-454 -2 -36 -4 -80 -4 -98 1 -39 -36 -78 -116 -127 -38 -23 -49 -36 -49 -55 0
-24 3 -25 67 -28 96 -4 215 28 250 67 26 29 27 32 14 69 -11 30 -12 59 -4 128
5 49 6 112 3 139 -3 28 -8 92 -11 144 -3 58 -15 122 -30 168 -14 42 -26 107
-28 147 -3 71 -1 79 46 186 l21 45 12 -45 c7 -25 18 -67 24 -95 24 -97 54
-190 66 -205 20 -25 24 -44 54 -239 23 -148 27 -204 22 -274 -6 -79 -9 -91
-31 -110 -14 -12 -47 -41 -74 -63 -43 -37 -47 -44 -37 -63 22 -40 143 -19 239
42 53 34 58 48 42 98 -12 34 -11 44 2 73 14 28 16 66 12 243 -3 180 -7 221
-25 279 -34 108 -45 182 -41 284 l4 95 31 15 c36 17 45 40 46 123 1 41 5 57
15 57 10 0 15 24 20 88 4 48 17 130 29 182 20 85 22 120 20 333 -2 265 -12
337 -50 373 -15 14 -70 38 -132 57 -142 44 -160 76 -96 171 19 28 25 50 25 91
0 74 -12 98 -64 134 -46 32 -83 37 -141 20z"/>
<path d="M6150 3344 c-41 -17 -79 -67 -86 -115 -6 -37 4 -96 33 -198 l18 -63
-35 -29 c-31 -26 -42 -29 -106 -29 -67 0 -133 -14 -135 -28 -1 -4 -2 -35 -3
-69 -2 -49 -11 -77 -45 -146 -81 -162 -67 -247 42 -247 79 0 82 -5 68 -92 -6
-40 -23 -151 -36 -247 -22 -149 -23 -177 -12 -195 8 -12 17 -67 21 -131 4 -60
16 -150 27 -200 19 -87 26 -232 14 -299 -3 -17 -10 -80 -15 -141 -5 -60 -13
-144 -19 -185 -6 -41 -12 -92 -14 -113 -5 -47 -54 -101 -114 -128 -34 -15 -43
-23 -43 -43 0 -32 38 -44 89 -28 97 30 175 60 177 68 1 5 6 27 12 49 6 22 16
69 23 105 6 36 21 99 31 140 39 152 47 197 48 265 0 39 7 97 15 130 8 33 15
89 15 125 0 63 28 200 41 200 11 0 38 -111 49 -196 13 -106 30 -186 42 -201 5
-7 16 -60 24 -119 7 -58 22 -134 32 -168 10 -33 17 -78 14 -98 -2 -21 6 -76
18 -123 l22 -85 -23 -56 c-23 -55 -23 -56 -4 -70 20 -15 112 -19 132 -6 9 5
11 53 8 172 -8 406 -10 443 -33 528 -20 73 -22 99 -17 220 3 75 10 157 16 182
6 25 14 80 16 123 4 74 6 77 31 83 15 4 32 11 38 15 13 11 -7 210 -36 355 -22
107 -32 215 -21 231 3 5 32 9 64 9 51 -1 60 2 82 28 39 45 35 117 -10 199 -27
49 -35 75 -35 114 0 33 -5 55 -15 63 -8 7 -56 15 -106 18 -85 5 -93 7 -124 36
-39 37 -38 66 4 131 29 45 33 76 19 157 -10 52 -14 58 -58 87 -52 34 -87 38
-140 15z"/>
<path d="M8590 3353 c-57 -7 -110 -74 -110 -140 0 -28 34 -112 67 -166 13 -21
26 -51 29 -67 5 -25 2 -32 -25 -48 -18 -11 -69 -29 -114 -42 -113 -30 -126
-41 -132 -115 -7 -91 -22 -154 -45 -182 -11 -14 -20 -34 -20 -43 0 -10 -12
-49 -26 -86 -18 -47 -27 -90 -28 -134 -1 -72 8 -92 122 -274 48 -77 57 -98 60
-149 l5 -59 48 4 c48 5 49 5 58 -29 6 -19 7 -41 4 -49 -3 -8 1 -24 10 -37 17
-27 28 -87 30 -178 1 -36 7 -72 14 -80 12 -15 12 -143 0 -155 -10 -11 -8 -106
4 -209 6 -49 12 -124 14 -165 1 -41 5 -106 8 -144 5 -67 4 -69 -29 -106 -54
-60 -44 -93 33 -106 51 -8 83 8 83 42 0 13 10 53 22 87 17 46 23 87 24 157 1
52 6 127 12 165 6 39 11 120 11 180 1 95 4 113 19 126 16 14 20 38 26 174 9
215 37 264 66 120 7 -33 19 -73 27 -88 19 -37 42 -171 38 -222 -15 -203 -21
-379 -12 -426 5 -30 10 -100 11 -157 l1 -103 62 -33 c79 -42 95 -46 138 -35
28 8 35 15 35 35 0 16 -8 27 -23 33 -60 23 -101 114 -79 175 6 17 14 69 17
116 4 47 11 108 16 135 31 166 41 306 44 598 3 311 6 337 41 337 7 0 17 21 23
53 6 28 20 97 31 152 l20 100 -25 105 c-27 111 -74 291 -106 400 -10 36 -21
77 -24 92 -6 33 -49 47 -171 57 -90 7 -134 28 -134 64 0 12 6 48 14 79 12 52
11 64 -5 113 -10 30 -25 65 -32 76 -17 23 -80 60 -99 57 -7 0 -29 -3 -48 -5z
m-144 -1009 c-4 -35 -15 -81 -25 -104 l-18 -40 -36 54 c-28 43 -34 57 -23 63
19 11 36 47 36 76 0 13 7 39 16 57 l17 33 20 -38 c16 -32 18 -50 13 -101z
m577 -15 c22 -82 24 -119 7 -119 -14 0 -40 121 -40 184 0 44 8 28 33 -65z"/>
</g>
</svg>
