<?xml version="1.0" standalone="no"?>
<svg version="1.0" xmlns="http://www.w3.org/2000/svg"
 width="581.000000pt" height="1280.000000pt" viewBox="0 0 581.000000 1280.000000"
 preserveAspectRatio="xMidYMid meet">
<metadata>
Created by potrace 1.15, written by Peter Selinger 2001-2017
</metadata>
<g transform="translate(0.000000,1280.000000) scale(0.100000,-0.100000)"
fill="#000000" stroke="none">
<path d="M2710 12320 c0 -17 -3 -18 -27 -8 -38 15 -85 17 -100 5 -7 -5 -13 -7
-13 -4 0 3 -11 0 -25 -7 -14 -7 -37 -13 -52 -12 -21 1 -42 -12 -80 -50 -29
-28 -53 -46 -53 -41 0 6 -10 1 -23 -11 -13 -12 -29 -22 -35 -22 -7 0 -12 -4
-12 -10 0 -5 -8 -10 -18 -10 -28 0 -50 -29 -61 -81 -16 -72 -28 -97 -67 -139
-56 -61 -67 -80 -71 -124 -1 -23 -5 -66 -7 -96 -8 -88 -9 -156 -3 -166 3 -5 8
-37 12 -72 6 -59 5 -63 -18 -71 -14 -5 -27 -21 -31 -35 -25 -102 100 -381 163
-361 15 4 20 -1 25 -27 14 -83 47 -362 52 -448 7 -111 -6 -149 -84 -253 -26
-34 -69 -96 -94 -137 -53 -85 -77 -110 -170 -177 -260 -186 -272 -198 -324
-307 -58 -123 -77 -212 -77 -371 0 -121 4 -161 32 -295 28 -131 32 -167 26
-230 -4 -41 -10 -214 -14 -385 -8 -308 -8 -311 -40 -415 -39 -130 -66 -271
-80 -415 -22 -215 -72 -1014 -77 -1205 -1 -63 -5 -223 -9 -355 l-7 -240 30
-70 c17 -38 33 -88 37 -110 19 -109 21 -113 103 -166 77 -51 77 -51 144 -46
74 6 88 11 88 33 0 8 7 14 15 14 10 0 15 -10 15 -32 0 -58 50 -380 76 -488 13
-58 44 -168 69 -245 82 -261 85 -276 85 -430 -1 -132 19 -332 39 -401 8 -29
-1 -172 -14 -214 -3 -8 -14 -91 -25 -185 -35 -293 -29 -440 35 -947 59 -472
105 -924 104 -1021 0 -34 -4 -82 -8 -107 -8 -41 -35 -183 -47 -237 -2 -13 -39
-60 -82 -105 -42 -46 -99 -109 -125 -140 -54 -64 -111 -103 -207 -144 -82 -35
-168 -97 -175 -127 -4 -12 -26 -35 -50 -50 -64 -41 -69 -50 -50 -86 23 -46 81
-70 207 -87 128 -17 198 -11 248 22 19 12 59 27 88 34 31 7 66 24 82 39 96 89
147 113 320 147 95 18 127 29 150 49 86 75 90 81 90 133 0 28 -9 88 -19 134
-50 213 -52 435 -8 753 14 99 31 245 37 325 12 153 41 382 59 463 6 26 25 96
42 155 51 181 50 321 -7 702 -61 407 -61 422 -10 591 41 137 47 199 49 514 l2
300 25 3 c13 2 89 28 168 58 161 60 256 117 325 194 l45 50 7 -86 c4 -53 2
-132 -6 -206 -12 -111 -12 -126 6 -187 10 -36 21 -115 24 -176 6 -117 29 -182
71 -205 39 -21 98 14 114 67 7 22 7 22 27 2 26 -26 65 -24 84 5 11 16 22 22
38 19 35 -7 61 19 61 60 0 30 3 34 16 27 27 -15 60 15 60 54 0 30 3 33 24 29
45 -9 48 8 49 327 1 86 -6 134 -37 270 -30 132 -39 198 -46 330 -10 178 -24
246 -64 314 -32 55 -69 82 -128 95 -53 12 -101 1 -135 -31 -12 -12 -23 -19
-23 -16 0 3 41 79 91 169 246 443 309 621 340 971 13 145 6 258 -28 501 -14
102 -14 132 -3 215 11 89 11 109 -10 242 -19 125 -22 169 -17 320 5 161 21
343 34 380 7 21 79 -212 92 -296 5 -38 21 -136 35 -219 13 -82 34 -210 46
-283 12 -73 44 -215 71 -315 59 -215 101 -448 102 -567 1 -124 -16 -186 -64
-245 -50 -61 -80 -119 -108 -210 -20 -62 -21 -83 -15 -210 6 -130 26 -294 40
-316 6 -11 44 -12 61 -1 7 4 19 25 28 45 13 31 15 61 10 150 -4 69 -2 118 4
127 15 22 20 11 31 -74 6 -42 17 -94 25 -115 8 -25 11 -60 8 -98 -5 -52 -9
-61 -34 -76 -16 -9 -29 -23 -29 -32 0 -10 -10 -15 -29 -15 -48 0 -83 -52 -45
-67 10 -4 14 -13 10 -29 -10 -38 13 -51 82 -44 49 4 67 11 90 33 16 16 43 36
59 45 66 37 112 79 129 117 10 22 31 55 46 73 15 18 28 38 28 45 0 7 14 40 32
74 l32 63 -12 151 c-7 83 -20 197 -28 252 -12 83 -13 116 -3 192 10 74 10 101
-1 136 -8 30 -15 169 -20 434 -9 413 -23 582 -75 870 -13 77 -29 190 -35 250
-6 61 -22 177 -35 260 -18 104 -25 189 -25 280 0 139 -9 191 -73 439 -20 77
-41 187 -47 245 -25 252 -96 422 -231 560 -58 59 -108 86 -229 126 -47 16
-110 39 -140 53 -67 30 -392 162 -514 209 -168 64 -180 80 -126 158 47 68 76
141 111 277 26 100 32 147 35 248 1 69 8 166 14 215 7 50 14 117 15 150 2 33
7 61 12 62 4 2 4 42 0 90 -5 49 -9 116 -10 151 0 34 -5 62 -9 62 -4 0 -8 9 -8
20 0 11 -4 20 -10 20 -5 0 -10 19 -10 43 0 30 -5 47 -19 56 -14 10 -17 21 -12
40 4 14 5 36 3 49 -3 18 -8 21 -28 16 -17 -5 -24 -2 -24 9 0 8 -6 17 -12 20
-10 3 -10 7 1 20 7 10 9 17 3 17 -5 0 -15 -7 -22 -15 -15 -18 -50 -3 -50 21 0
12 -10 15 -42 13 -29 -2 -42 1 -40 9 1 7 -5 12 -13 12 -8 0 -15 5 -15 10 0 6
-12 8 -26 6 -14 -3 -33 -1 -42 4 -10 5 -32 13 -49 19 -29 9 -33 8 -33 -9z
m-564 -4246 c8 -102 -4 -183 -44 -319 -21 -72 -26 -112 -27 -200 0 -104 -2
-114 -36 -190 -94 -210 -187 -537 -223 -785 -54 -370 -60 -434 -60 -673 l-1
-238 -22 -6 c-43 -10 -50 1 -58 84 -5 59 -1 114 15 218 23 151 21 215 -10 275
-10 19 -21 60 -25 91 -10 78 41 278 156 611 106 308 195 628 209 748 5 47 10
133 10 193 0 79 8 150 30 265 17 86 34 166 37 177 9 28 42 -136 49 -251z
m-386 -2499 c0 -16 -21 -19 -60 -8 -26 8 -26 8 53 22 4 0 7 -6 7 -14z"/>
</g>
</svg>
