<?xml version="1.0" standalone="no"?>
<svg version="1.0" xmlns="http://www.w3.org/2000/svg"
 width="1280.000000pt" height="950.000000pt" viewBox="0 0 1280.000000 950.000000"
 preserveAspectRatio="xMidYMid meet">
<metadata>
Created by potrace 1.15, written by Peter Selinger 2001-2017
</metadata>
<g transform="translate(0.000000,950.000000) scale(0.100000,-0.100000)"
fill="white" stroke="none">
<path d="M2120 8515 c-59 -13 -138 -36 -184 -54 -21 -9 -26 -14 -17 -24 10
-13 -8 -32 -93 -99 -20 -17 -20 -17 -2 -31 16 -12 17 -15 3 -20 -34 -13 -30
-139 9 -335 5 -25 3 -32 -7 -30 -27 6 -35 -85 -14 -165 21 -83 29 -97 60 -97
19 0 24 -10 40 -82 10 -46 19 -93 20 -105 2 -12 13 -32 24 -44 12 -13 21 -26
21 -31 0 -4 30 -22 68 -39 109 -51 173 -83 232 -116 97 -53 96 -53 130 19 17
35 33 79 36 98 4 22 22 51 50 80 35 37 46 57 58 110 19 83 38 262 31 282 -3 8
-1 52 5 97 5 44 15 117 20 162 l11 81 -36 39 c-27 30 -34 45 -29 64 4 17 -2
34 -19 57 -14 18 -36 53 -50 78 -28 52 -85 86 -181 106 -74 16 -114 16 -186
-1z"/>
<path d="M10080 8179 c-227 -63 -350 -263 -418 -679 -26 -157 -26 -164 10
-203 18 -19 43 -49 56 -66 13 -17 29 -31 35 -31 7 0 20 20 30 44 10 24 24 51
30 60 12 16 15 15 39 -9 15 -15 32 -42 39 -62 10 -32 8 -39 -35 -109 -25 -41
-46 -77 -46 -80 0 -12 -66 -86 -98 -110 -71 -54 -292 -114 -422 -114 -46 0
-60 -4 -77 -22 -12 -13 -86 -121 -166 -240 -80 -120 -159 -235 -176 -255 -279
-344 -357 -456 -428 -611 -29 -64 -33 -83 -33 -157 0 -46 7 -114 15 -152 17
-74 52 -182 64 -198 5 -5 19 -39 34 -75 14 -36 42 -103 62 -150 46 -104 83
-212 90 -263 8 -52 36 -64 116 -49 33 6 74 18 91 26 19 10 35 12 42 7 12 -10
143 -47 196 -56 60 -9 61 -12 50 -100 -9 -70 -7 -90 14 -180 13 -55 29 -152
36 -215 6 -63 22 -198 35 -300 33 -258 55 -488 85 -890 20 -282 43 -839 61
-1485 10 -362 13 -411 28 -420 38 -23 129 -58 199 -76 42 -10 77 -20 78 -22 5
-4 -21 -86 -43 -137 -33 -75 -46 -144 -35 -184 28 -98 196 -140 267 -66 32 33
41 68 56 213 6 60 21 144 34 187 13 42 31 114 40 158 16 80 16 82 -6 149 -21
61 -23 95 -29 353 -5 187 -13 323 -24 395 -15 93 -18 232 -25 915 -4 443 -6
807 -4 809 2 2 3 -2 3 -10 0 -8 9 -63 20 -124 11 -60 31 -184 45 -274 14 -91
32 -203 40 -250 8 -47 21 -140 30 -206 8 -66 24 -174 35 -240 11 -66 27 -160
36 -210 8 -49 19 -108 24 -130 5 -22 21 -101 35 -175 14 -74 30 -153 35 -175
6 -22 21 -96 35 -165 67 -341 135 -653 191 -880 19 -80 38 -157 41 -173 4 -18
13 -29 31 -34 35 -8 206 4 275 21 l58 14 -3 -221 -3 -222 59 -29 c103 -52 221
-37 246 30 6 14 7 104 4 212 -4 143 -11 207 -27 272 -24 95 -29 232 -9 267 25
45 14 138 -32 287 -52 163 -87 293 -126 461 -110 470 -147 592 -253 845 -24
58 -49 127 -56 154 -26 103 -81 626 -81 765 l0 137 52 14 c108 27 196 161 212
320 4 36 9 82 12 103 l6 37 57 0 58 0 7 233 c3 127 13 401 22 607 12 275 15
511 11 885 -5 464 -7 520 -26 625 -15 77 -33 140 -57 192 -32 68 -40 77 -69
82 -18 4 -88 27 -156 52 -68 26 -162 57 -209 70 -93 26 -87 21 -162 142 -41
67 -46 78 -32 87 108 68 222 147 235 161 38 45 58 447 29 579 -39 175 -128
288 -249 314 -62 13 -212 13 -261 0z m-823 -2222 c17 -45 41 -118 53 -162 12
-44 26 -90 31 -103 23 -59 32 -201 20 -312 -6 -61 -16 -121 -20 -133 -5 -12
-19 -65 -31 -117 -37 -156 -82 -228 -166 -267 -89 -41 -94 -37 -160 115 -15
35 -40 74 -56 87 -15 13 -28 30 -28 37 0 41 -53 207 -79 250 -29 46 -30 52
-21 96 6 26 14 56 19 67 5 11 21 47 35 79 27 60 113 195 160 251 69 81 183
194 196 194 10 1 26 -28 47 -82z m1412 -642 c-2 -135 -7 -245 -11 -245 -11 0
-23 111 -23 220 1 98 21 270 32 270 3 0 4 -110 2 -245z m-40 -1373 c-1 -20 -5
-48 -9 -62 -6 -18 -8 -6 -9 43 -1 43 3 66 9 62 6 -3 10 -23 9 -43z"/>
<path d="M5705 7709 c-92 -30 -175 -65 -211 -90 -81 -55 -127 -223 -101 -368
7 -42 7 -43 -17 -37 -15 4 -28 0 -36 -9 -19 -23 -6 -130 26 -209 21 -54 30
-66 49 -66 15 0 25 -8 29 -22 31 -115 -85 -266 -284 -371 -58 -30 -151 -81
-205 -114 -55 -32 -125 -70 -155 -85 -30 -14 -64 -36 -75 -48 -27 -29 -57
-203 -39 -222 8 -9 10 -29 5 -65 -4 -29 -4 -58 -1 -64 4 -6 -1 -36 -10 -67
-16 -51 -17 -83 -10 -312 10 -308 22 -385 95 -604 62 -186 90 -248 134 -298
l29 -33 -28 -94 c-26 -88 -28 -104 -23 -220 3 -70 1 -137 -4 -151 -7 -17 -6
-41 4 -79 14 -51 12 -122 -4 -205 -5 -27 -4 -28 27 -21 28 6 31 5 27 -11 -3
-11 -9 -43 -12 -72 -9 -72 5 -88 93 -97 37 -4 73 -12 81 -18 46 -38 168 -255
188 -336 3 -14 19 -47 34 -72 14 -25 30 -57 34 -70 6 -23 73 -176 115 -264 26
-55 16 -118 -20 -123 -31 -5 -52 -32 -38 -50 8 -9 3 -23 -17 -52 -24 -35 -26
-42 -14 -56 10 -12 14 -47 14 -118 1 -56 5 -183 9 -282 9 -178 8 -182 -12
-193 -11 -6 -23 -25 -27 -43 -4 -18 -16 -42 -26 -54 -11 -11 -24 -36 -29 -55
-15 -50 -12 -165 5 -205 14 -34 137 -166 183 -196 l23 -16 -17 -48 c-25 -69
-21 -244 8 -338 18 -60 23 -67 33 -52 14 19 11 28 38 -104 8 -41 18 -99 22
-129 10 -83 25 -103 122 -161 49 -29 103 -63 120 -77 88 -65 161 -77 267 -42
62 21 65 23 71 60 8 48 -40 200 -127 399 -79 179 -136 330 -144 377 l-6 38
139 1 c114 1 150 5 208 23 39 13 97 31 131 41 41 12 97 42 171 95 110 76 111
77 147 155 20 44 36 88 36 100 0 22 8 24 65 10 47 -11 141 4 168 28 32 29 21
95 -36 197 -51 93 -84 144 -152 236 -74 101 -88 128 -137 276 -6 18 -8 36 -4
40 10 10 153 -72 186 -107 8 -9 134 -106 147 -113 7 -4 17 4 26 20 7 16 58
105 112 198 54 94 139 242 190 330 51 88 120 207 153 264 32 57 113 177 178
267 78 108 130 190 151 241 38 89 39 96 17 114 -8 7 -25 31 -36 53 -27 53
-132 156 -233 231 -44 32 -114 84 -155 115 -41 31 -108 78 -149 104 -41 26
-94 67 -117 91 -23 24 -61 53 -85 66 -47 24 -63 40 -81 79 -11 27 -26 172 -32
310 -2 58 -10 100 -24 131 -14 33 -19 59 -15 87 8 59 -3 90 -47 133 -44 44
-61 99 -66 218 -4 94 -32 219 -50 229 -13 7 -13 17 0 72 13 55 13 72 1 129
-28 130 -66 263 -101 354 -20 51 -39 102 -43 115 -5 19 -44 40 -216 113 -116
50 -235 100 -265 111 -30 11 -62 27 -71 34 -8 8 -19 14 -24 14 -11 0 0 -172
13 -196 6 -11 15 -69 21 -129 19 -187 52 -638 49 -654 -2 -9 -12 18 -21 59
-70 292 -95 368 -153 460 -46 74 -37 198 21 285 14 20 23 40 20 43 -13 14
-184 3 -254 -16 l-74 -19 52 -13 c74 -17 81 -36 81 -205 0 -74 -3 -135 -7
-135 -9 0 -88 169 -128 270 -14 36 -59 121 -100 189 -68 113 -75 130 -74 175
0 28 4 60 8 71 7 16 9 15 14 -12 9 -47 127 -162 222 -214 44 -25 92 -53 106
-62 l27 -18 68 58 c80 67 80 67 138 153 50 75 76 145 76 207 0 23 11 86 25
139 30 116 30 126 6 178 -11 23 -27 82 -36 131 -38 210 -42 221 -101 272 -86
75 -141 103 -199 102 -27 0 -63 -5 -80 -10z m1090 -3263 l32 -14 -9 -68 c-13
-92 -15 -99 -32 -85 -10 8 -11 24 -5 62 5 30 4 59 -1 69 -12 23 -74 32 -125
19 -22 -6 -51 -13 -65 -16 l-25 -6 24 26 c13 14 35 28 50 30 38 7 120 -2 156
-17z m-632 -153 c16 -3 31 -11 34 -18 5 -13 -60 -210 -93 -281 -25 -54 -101
-137 -117 -127 -7 4 -40 29 -74 56 -59 47 -61 51 -56 86 7 41 65 122 167 229
55 58 74 72 90 67 12 -3 34 -8 49 -12z m615 -602 c11 -6 36 -11 54 -11 18 0
59 -13 91 -29 l58 -29 -28 -33 c-15 -19 -31 -36 -35 -39 -4 -3 -11 -17 -16
-30 -6 -14 -35 -58 -65 -98 -36 -47 -58 -88 -62 -113 -4 -22 -15 -43 -24 -49
-10 -5 -26 -27 -36 -49 -15 -34 -23 -41 -46 -41 -29 0 -59 -23 -59 -45 0 -8
-18 -35 -40 -60 -22 -25 -40 -55 -40 -65 0 -10 -40 -55 -92 -104 -74 -69 -99
-86 -123 -86 -62 0 -175 -136 -175 -210 0 -17 -5 -39 -11 -49 -18 -27 15 -123
55 -158 70 -64 89 -74 119 -67 38 8 62 -14 98 -91 36 -74 37 -90 7 -81 -24 7
-216 33 -278 38 l-35 3 -11 210 c-10 182 -9 211 3 221 9 5 13 19 11 30 -2 10
7 38 20 62 28 50 25 86 -15 166 -36 71 -53 242 -57 556 l-1 115 75 7 c90 9
142 19 235 48 39 12 108 32 155 45 47 13 105 31 130 39 49 16 105 14 138 -3z"/>
<path d="M1839 7326 c-40 -54 -53 -65 -92 -74 -27 -7 -65 -29 -95 -54 -46 -39
-167 -98 -201 -98 -8 0 -36 -17 -63 -37 -39 -30 -50 -45 -55 -75 -3 -21 -10
-41 -14 -44 -20 -12 -5 -273 30 -512 10 -68 104 -276 175 -386 32 -50 36 -64
36 -121 0 -60 2 -67 31 -92 45 -41 53 -60 35 -87 -9 -15 -14 -47 -14 -87 0
-35 -1 -68 -3 -74 -1 -5 4 -23 11 -40 7 -16 14 -59 16 -95 1 -36 8 -87 14
-115 14 -57 14 -347 0 -394 -5 -17 -4 -61 1 -103 5 -40 9 -118 8 -173 -2 -141
-1 -184 6 -316 6 -109 8 -117 30 -127 20 -9 24 -21 30 -79 3 -37 25 -144 48
-238 30 -125 43 -201 48 -285 3 -63 20 -189 38 -280 18 -91 30 -178 27 -195
-10 -53 -27 -216 -35 -345 -8 -112 -7 -128 9 -155 18 -30 18 -31 -12 -100
l-31 -70 -3 -270 c-11 -709 -11 -717 -32 -840 -11 -66 -23 -156 -27 -200 -6
-76 -4 -87 37 -210 l44 -130 -10 -145 c-6 -99 -6 -173 2 -232 10 -84 12 -89
77 -180 37 -51 68 -94 69 -95 1 -1 51 4 112 12 60 8 117 15 126 15 29 0 44 25
62 108 l19 80 -28 158 c-15 88 -31 180 -36 206 -4 26 -12 56 -18 67 -14 25
-14 31 2 31 6 1 30 22 52 47 l40 47 0 107 c0 59 2 109 5 112 3 3 48 -3 100
-13 101 -19 110 -17 110 28 0 12 2 22 5 22 10 0 161 -119 190 -149 16 -17 62
-47 102 -66 70 -33 79 -35 184 -35 121 0 202 16 279 55 64 32 74 46 58 80 -15
34 -174 115 -224 115 -26 0 -39 8 -61 35 -15 20 -62 57 -103 84 -122 80 -128
89 -146 222 -31 238 -30 260 11 394 20 66 41 145 46 175 5 30 14 83 19 116 6
34 10 108 10 165 0 78 7 128 25 199 14 52 25 109 25 126 0 17 14 64 31 105 23
56 33 99 40 179 9 103 21 191 39 280 38 194 55 313 91 635 6 50 17 144 25 210
8 66 17 140 20 165 3 25 12 68 20 96 13 45 13 73 -1 230 -20 234 -24 273 -40
374 -8 47 -19 121 -25 165 -7 44 -18 116 -26 160 -7 44 -16 106 -20 138 -6 57
-17 77 -29 57 -12 -19 -25 -10 -20 13 3 12 9 86 13 164 5 78 11 145 14 148 11
11 36 -7 33 -23 -2 -9 -6 -57 -9 -107 l-5 -90 34 40 c27 31 34 49 35 81 0 45
15 59 58 55 30 -3 299 76 337 100 17 9 43 31 58 47 27 28 30 39 38 139 5 70 5
129 -2 169 -12 69 -14 73 -51 97 -17 11 -28 26 -28 40 0 16 -12 31 -37 47 -58
37 -203 199 -203 227 0 17 -6 23 -23 23 -29 0 -47 18 -47 46 0 30 -10 55 -20
49 -10 -6 -104 120 -123 167 -8 20 -27 44 -40 53 -14 9 -28 26 -31 38 -4 12
-23 41 -44 64 l-37 43 -215 54 c-159 41 -219 61 -232 76 -9 11 -18 20 -21 20
-2 0 1 -26 8 -57 102 -460 105 -483 45 -370 -35 68 -39 81 -33 126 5 48 4 54
-36 106 -23 31 -54 60 -67 66 -50 18 -62 12 -94 -51 -17 -33 -34 -60 -38 -60
-4 0 -23 14 -42 31 -76 70 -172 150 -227 189 -32 23 -74 59 -93 81 l-35 39
-46 -64z m616 -487 c20 -39 35 -73 32 -75 -3 -3 -19 23 -37 58 -18 35 -37 69
-42 76 -7 8 -7 12 0 12 5 0 26 -32 47 -71z m132 -106 c-3 -10 -5 -2 -5 17 0
19 2 27 5 18 2 -10 2 -26 0 -35z m10 -85 c-3 -8 -6 -5 -6 6 -1 11 2 17 5 13 3
-3 4 -12 1 -19z m-30 -410 c33 -36 58 -103 69 -185 6 -46 4 -52 -15 -63 -12
-6 -39 -10 -59 -8 l-37 3 -5 75 c-5 72 -33 148 -60 165 -16 10 -12 33 8 38 45
12 69 6 99 -25z"/>
</g>
</svg>
